%TF.GenerationSoftware,KiCad,Pcbnew,7.99.0-1.20230926git54171ec.fc37*%
%TF.CreationDate,2023-10-03T14:10:54+01:00*%
%TF.ProjectId,bugg-main-r5,62756767-2d6d-4616-996e-2d72352e6b69,rev?*%
%TF.SameCoordinates,Original*%
%TF.FileFunction,Soldermask,Top*%
%TF.FilePolarity,Negative*%
%FSLAX46Y46*%
G04 Gerber Fmt 4.6, Leading zero omitted, Abs format (unit mm)*
G04 Created by KiCad (PCBNEW 7.99.0-1.20230926git54171ec.fc37) date 2023-10-03 14:10:54*
%MOMM*%
%LPD*%
G01*
G04 APERTURE LIST*
G04 Aperture macros list*
%AMRoundRect*
0 Rectangle with rounded corners*
0 $1 Rounding radius*
0 $2 $3 $4 $5 $6 $7 $8 $9 X,Y pos of 4 corners*
0 Add a 4 corners polygon primitive as box body*
4,1,4,$2,$3,$4,$5,$6,$7,$8,$9,$2,$3,0*
0 Add four circle primitives for the rounded corners*
1,1,$1+$1,$2,$3*
1,1,$1+$1,$4,$5*
1,1,$1+$1,$6,$7*
1,1,$1+$1,$8,$9*
0 Add four rect primitives between the rounded corners*
20,1,$1+$1,$2,$3,$4,$5,0*
20,1,$1+$1,$4,$5,$6,$7,0*
20,1,$1+$1,$6,$7,$8,$9,0*
20,1,$1+$1,$8,$9,$2,$3,0*%
%AMFreePoly0*
4,1,101,-1.895792,2.944575,-1.557458,2.864389,-1.230721,2.745466,-0.920000,2.589416,-0.629496,2.398348,-0.363138,2.174847,-0.124527,1.921935,0.083109,1.643032,0.256962,1.341910,0.394681,1.022640,0.494404,0.689541,0.554783,0.347118,0.575000,0.000000,0.554783,-0.347118,0.494404,-0.689541,0.394681,-1.022640,0.256962,-1.341910,0.083109,-1.643032,-0.124527,-1.921935,-0.363138,-2.174847,
-0.629496,-2.398348,-0.920000,-2.589416,-1.230721,-2.745466,-1.557458,-2.864389,-1.895792,-2.944575,-2.241147,-2.984941,-2.588853,-2.984941,-2.934208,-2.944575,-3.272542,-2.864389,-3.599279,-2.745466,-3.910000,-2.589416,-4.200504,-2.398348,-4.466862,-2.174847,-4.705473,-1.921935,-4.913109,-1.643032,-5.086962,-1.341910,-5.224681,-1.022640,-5.324404,-0.689541,-5.384783,-0.347118,-5.405000,0.000000,
-4.259700,0.000000,-4.240924,-0.262528,-4.184977,-0.519712,-4.092998,-0.766316,-3.966860,-0.997320,-3.809131,-1.208022,-3.623022,-1.394131,-3.412320,-1.551860,-3.181316,-1.677998,-2.934712,-1.769977,-2.677528,-1.825924,-2.415000,-1.844700,-2.152472,-1.825924,-1.895288,-1.769977,-1.648684,-1.677998,-1.417680,-1.551860,-1.206978,-1.394131,-1.020869,-1.208022,-0.863140,-0.997320,-0.737002,-0.766316,
-0.645023,-0.519712,-0.589076,-0.262528,-0.570300,0.000000,-0.589076,0.262528,-0.645023,0.519712,-0.737002,0.766316,-0.863140,0.997320,-1.020869,1.208022,-1.206978,1.394131,-1.417680,1.551860,-1.648684,1.677998,-1.895288,1.769977,-2.152472,1.825924,-2.415000,1.844700,-2.677528,1.825924,-2.934712,1.769977,-3.181316,1.677998,-3.412320,1.551860,-3.623022,1.394131,-3.809131,1.208022,
-3.966860,0.997320,-4.092998,0.766316,-4.184977,0.519712,-4.240924,0.262528,-4.259700,0.000000,-5.405000,0.000000,-5.384783,0.347118,-5.324404,0.689541,-5.224681,1.022640,-5.086962,1.341910,-4.913109,1.643032,-4.705473,1.921935,-4.466862,2.174847,-4.200504,2.398348,-3.910000,2.589416,-3.599279,2.745466,-3.272542,2.864389,-2.934208,2.944575,-2.588853,2.984941,-2.241147,2.984941,
-1.895792,2.944575,-1.895792,2.944575,$1*%
G04 Aperture macros list end*
%ADD10C,0.200000*%
%ADD11RoundRect,0.250000X-0.250000X-0.475000X0.250000X-0.475000X0.250000X0.475000X-0.250000X0.475000X0*%
%ADD12RoundRect,0.135000X-0.135000X-0.185000X0.135000X-0.185000X0.135000X0.185000X-0.135000X0.185000X0*%
%ADD13RoundRect,0.140000X-0.170000X0.140000X-0.170000X-0.140000X0.170000X-0.140000X0.170000X0.140000X0*%
%ADD14RoundRect,0.140000X0.170000X-0.140000X0.170000X0.140000X-0.170000X0.140000X-0.170000X-0.140000X0*%
%ADD15RoundRect,0.140000X0.140000X0.170000X-0.140000X0.170000X-0.140000X-0.170000X0.140000X-0.170000X0*%
%ADD16RoundRect,0.150000X0.512500X0.150000X-0.512500X0.150000X-0.512500X-0.150000X0.512500X-0.150000X0*%
%ADD17R,1.350000X0.400000*%
%ADD18O,1.550000X0.890000*%
%ADD19R,1.550000X1.200000*%
%ADD20O,0.950000X1.250000*%
%ADD21R,1.550000X1.500000*%
%ADD22RoundRect,0.150000X0.150000X0.200000X-0.150000X0.200000X-0.150000X-0.200000X0.150000X-0.200000X0*%
%ADD23R,1.200000X1.200000*%
%ADD24R,0.700000X0.450000*%
%ADD25RoundRect,0.135000X0.185000X-0.135000X0.185000X0.135000X-0.185000X0.135000X-0.185000X-0.135000X0*%
%ADD26RoundRect,0.250000X-0.250000X-1.200000X0.250000X-1.200000X0.250000X1.200000X-0.250000X1.200000X0*%
%ADD27RoundRect,0.250000X-0.650000X-1.550000X0.650000X-1.550000X0.650000X1.550000X-0.650000X1.550000X0*%
%ADD28RoundRect,0.250000X-0.475000X0.250000X-0.475000X-0.250000X0.475000X-0.250000X0.475000X0.250000X0*%
%ADD29RoundRect,0.150000X0.587500X0.150000X-0.587500X0.150000X-0.587500X-0.150000X0.587500X-0.150000X0*%
%ADD30RoundRect,0.150000X0.150000X-0.825000X0.150000X0.825000X-0.150000X0.825000X-0.150000X-0.825000X0*%
%ADD31RoundRect,0.218750X-0.256250X0.218750X-0.256250X-0.218750X0.256250X-0.218750X0.256250X0.218750X0*%
%ADD32RoundRect,0.135000X0.135000X0.185000X-0.135000X0.185000X-0.135000X-0.185000X0.135000X-0.185000X0*%
%ADD33R,0.450000X0.700000*%
%ADD34R,0.550000X0.300000*%
%ADD35R,0.550000X0.400000*%
%ADD36RoundRect,0.135000X-0.185000X0.135000X-0.185000X-0.135000X0.185000X-0.135000X0.185000X0.135000X0*%
%ADD37RoundRect,0.200000X-0.275000X0.200000X-0.275000X-0.200000X0.275000X-0.200000X0.275000X0.200000X0*%
%ADD38RoundRect,0.225000X-0.225000X-0.250000X0.225000X-0.250000X0.225000X0.250000X-0.225000X0.250000X0*%
%ADD39R,1.050000X1.000000*%
%ADD40R,2.200000X1.050000*%
%ADD41R,0.500000X1.000000*%
%ADD42R,1.000000X0.500000*%
%ADD43R,1.000000X1.000000*%
%ADD44R,0.900000X1.000000*%
%ADD45C,0.800000*%
%ADD46R,0.300000X1.400000*%
%ADD47RoundRect,0.250000X0.300000X0.300000X-0.300000X0.300000X-0.300000X-0.300000X0.300000X-0.300000X0*%
%ADD48RoundRect,0.250000X-0.300000X-0.300000X0.300000X-0.300000X0.300000X0.300000X-0.300000X0.300000X0*%
%ADD49C,3.700000*%
%ADD50FreePoly0,0.000000*%
%ADD51C,2.000000*%
%ADD52RoundRect,0.140000X-0.140000X-0.170000X0.140000X-0.170000X0.140000X0.170000X-0.140000X0.170000X0*%
%ADD53R,0.700000X0.200000*%
%ADD54C,3.200000*%
%ADD55R,0.700000X0.900000*%
%ADD56R,0.700000X0.700000*%
%ADD57R,0.650000X1.200000*%
%ADD58R,2.900000X0.450000*%
%ADD59R,1.900000X0.450000*%
%ADD60R,2.400000X0.450000*%
%ADD61R,0.500000X1.400000*%
%ADD62R,0.600000X0.300000*%
%ADD63R,0.700000X0.750000*%
%ADD64R,0.400000X0.650000*%
%ADD65RoundRect,0.147500X0.172500X-0.147500X0.172500X0.147500X-0.172500X0.147500X-0.172500X-0.147500X0*%
%ADD66RoundRect,0.147500X0.147500X0.172500X-0.147500X0.172500X-0.147500X-0.172500X0.147500X-0.172500X0*%
%ADD67RoundRect,0.250000X0.475000X-0.250000X0.475000X0.250000X-0.475000X0.250000X-0.475000X-0.250000X0*%
%ADD68RoundRect,0.225000X0.375000X-0.225000X0.375000X0.225000X-0.375000X0.225000X-0.375000X-0.225000X0*%
%ADD69R,1.300000X0.300000*%
%ADD70R,2.200000X1.800000*%
%ADD71RoundRect,0.250000X-0.312500X-0.625000X0.312500X-0.625000X0.312500X0.625000X-0.312500X0.625000X0*%
%ADD72R,0.300000X0.550000*%
%ADD73R,0.400000X0.550000*%
%ADD74RoundRect,0.218750X0.256250X-0.218750X0.256250X0.218750X-0.256250X0.218750X-0.256250X-0.218750X0*%
%ADD75R,3.200000X3.200000*%
%ADD76C,11.000000*%
%ADD77R,0.700000X0.640000*%
%ADD78R,0.550000X1.550000*%
%ADD79R,1.850000X0.570000*%
%ADD80R,0.820000X0.520000*%
%ADD81R,1.150000X0.520000*%
%ADD82R,1.700000X1.010000*%
%ADD83R,0.450000X1.300000*%
%ADD84R,1.960000X0.570000*%
%ADD85R,1.650000X0.520000*%
%ADD86R,1.450000X0.570000*%
G04 APERTURE END LIST*
D10*
X-25778776Y47332707D02*
X-24578776Y47332707D01*
X-25035919Y47332707D02*
X-24978776Y47218422D01*
X-24978776Y47218422D02*
X-24978776Y46989850D01*
X-24978776Y46989850D02*
X-25035919Y46875564D01*
X-25035919Y46875564D02*
X-25093062Y46818422D01*
X-25093062Y46818422D02*
X-25207348Y46761279D01*
X-25207348Y46761279D02*
X-25550205Y46761279D01*
X-25550205Y46761279D02*
X-25664491Y46818422D01*
X-25664491Y46818422D02*
X-25721634Y46875564D01*
X-25721634Y46875564D02*
X-25778776Y46989850D01*
X-25778776Y46989850D02*
X-25778776Y47218422D01*
X-25778776Y47218422D02*
X-25721634Y47332707D01*
X-24978776Y45732708D02*
X-25778776Y45732708D01*
X-24978776Y46246993D02*
X-25607348Y46246993D01*
X-25607348Y46246993D02*
X-25721634Y46189850D01*
X-25721634Y46189850D02*
X-25778776Y46075565D01*
X-25778776Y46075565D02*
X-25778776Y45904136D01*
X-25778776Y45904136D02*
X-25721634Y45789850D01*
X-25721634Y45789850D02*
X-25664491Y45732708D01*
X-24978776Y44646994D02*
X-25950205Y44646994D01*
X-25950205Y44646994D02*
X-26064491Y44704136D01*
X-26064491Y44704136D02*
X-26121634Y44761279D01*
X-26121634Y44761279D02*
X-26178776Y44875565D01*
X-26178776Y44875565D02*
X-26178776Y45046994D01*
X-26178776Y45046994D02*
X-26121634Y45161279D01*
X-25721634Y44646994D02*
X-25778776Y44761279D01*
X-25778776Y44761279D02*
X-25778776Y44989851D01*
X-25778776Y44989851D02*
X-25721634Y45104136D01*
X-25721634Y45104136D02*
X-25664491Y45161279D01*
X-25664491Y45161279D02*
X-25550205Y45218422D01*
X-25550205Y45218422D02*
X-25207348Y45218422D01*
X-25207348Y45218422D02*
X-25093062Y45161279D01*
X-25093062Y45161279D02*
X-25035919Y45104136D01*
X-25035919Y45104136D02*
X-24978776Y44989851D01*
X-24978776Y44989851D02*
X-24978776Y44761279D01*
X-24978776Y44761279D02*
X-25035919Y44646994D01*
X-24978776Y43561280D02*
X-25950205Y43561280D01*
X-25950205Y43561280D02*
X-26064491Y43618422D01*
X-26064491Y43618422D02*
X-26121634Y43675565D01*
X-26121634Y43675565D02*
X-26178776Y43789851D01*
X-26178776Y43789851D02*
X-26178776Y43961280D01*
X-26178776Y43961280D02*
X-26121634Y44075565D01*
X-25721634Y43561280D02*
X-25778776Y43675565D01*
X-25778776Y43675565D02*
X-25778776Y43904137D01*
X-25778776Y43904137D02*
X-25721634Y44018422D01*
X-25721634Y44018422D02*
X-25664491Y44075565D01*
X-25664491Y44075565D02*
X-25550205Y44132708D01*
X-25550205Y44132708D02*
X-25207348Y44132708D01*
X-25207348Y44132708D02*
X-25093062Y44075565D01*
X-25093062Y44075565D02*
X-25035919Y44018422D01*
X-25035919Y44018422D02*
X-24978776Y43904137D01*
X-24978776Y43904137D02*
X-24978776Y43675565D01*
X-24978776Y43675565D02*
X-25035919Y43561280D01*
X-25321634Y42989851D02*
X-25321634Y42075566D01*
X-25778776Y41504137D02*
X-24978776Y41504137D01*
X-25093062Y41504137D02*
X-25035919Y41446994D01*
X-25035919Y41446994D02*
X-24978776Y41332709D01*
X-24978776Y41332709D02*
X-24978776Y41161280D01*
X-24978776Y41161280D02*
X-25035919Y41046994D01*
X-25035919Y41046994D02*
X-25150205Y40989852D01*
X-25150205Y40989852D02*
X-25778776Y40989852D01*
X-25150205Y40989852D02*
X-25035919Y40932709D01*
X-25035919Y40932709D02*
X-24978776Y40818423D01*
X-24978776Y40818423D02*
X-24978776Y40646994D01*
X-24978776Y40646994D02*
X-25035919Y40532709D01*
X-25035919Y40532709D02*
X-25150205Y40475566D01*
X-25150205Y40475566D02*
X-25778776Y40475566D01*
X-25778776Y39389852D02*
X-25150205Y39389852D01*
X-25150205Y39389852D02*
X-25035919Y39446994D01*
X-25035919Y39446994D02*
X-24978776Y39561280D01*
X-24978776Y39561280D02*
X-24978776Y39789852D01*
X-24978776Y39789852D02*
X-25035919Y39904137D01*
X-25721634Y39389852D02*
X-25778776Y39504137D01*
X-25778776Y39504137D02*
X-25778776Y39789852D01*
X-25778776Y39789852D02*
X-25721634Y39904137D01*
X-25721634Y39904137D02*
X-25607348Y39961280D01*
X-25607348Y39961280D02*
X-25493062Y39961280D01*
X-25493062Y39961280D02*
X-25378776Y39904137D01*
X-25378776Y39904137D02*
X-25321634Y39789852D01*
X-25321634Y39789852D02*
X-25321634Y39504137D01*
X-25321634Y39504137D02*
X-25264491Y39389852D01*
X-25778776Y38818423D02*
X-24978776Y38818423D01*
X-24578776Y38818423D02*
X-24635919Y38875566D01*
X-24635919Y38875566D02*
X-24693062Y38818423D01*
X-24693062Y38818423D02*
X-24635919Y38761280D01*
X-24635919Y38761280D02*
X-24578776Y38818423D01*
X-24578776Y38818423D02*
X-24693062Y38818423D01*
X-24978776Y38246994D02*
X-25778776Y38246994D01*
X-25093062Y38246994D02*
X-25035919Y38189851D01*
X-25035919Y38189851D02*
X-24978776Y38075566D01*
X-24978776Y38075566D02*
X-24978776Y37904137D01*
X-24978776Y37904137D02*
X-25035919Y37789851D01*
X-25035919Y37789851D02*
X-25150205Y37732709D01*
X-25150205Y37732709D02*
X-25778776Y37732709D01*
X-25321634Y37161280D02*
X-25321634Y36246995D01*
X-25778776Y35675566D02*
X-24978776Y35675566D01*
X-25207348Y35675566D02*
X-25093062Y35618423D01*
X-25093062Y35618423D02*
X-25035919Y35561281D01*
X-25035919Y35561281D02*
X-24978776Y35446995D01*
X-24978776Y35446995D02*
X-24978776Y35332709D01*
X-24578776Y34361281D02*
X-24578776Y34932709D01*
X-24578776Y34932709D02*
X-25150205Y34989852D01*
X-25150205Y34989852D02*
X-25093062Y34932709D01*
X-25093062Y34932709D02*
X-25035919Y34818424D01*
X-25035919Y34818424D02*
X-25035919Y34532709D01*
X-25035919Y34532709D02*
X-25093062Y34418424D01*
X-25093062Y34418424D02*
X-25150205Y34361281D01*
X-25150205Y34361281D02*
X-25264491Y34304138D01*
X-25264491Y34304138D02*
X-25550205Y34304138D01*
X-25550205Y34304138D02*
X-25664491Y34361281D01*
X-25664491Y34361281D02*
X-25721634Y34418424D01*
X-25721634Y34418424D02*
X-25778776Y34532709D01*
X-25778776Y34532709D02*
X-25778776Y34818424D01*
X-25778776Y34818424D02*
X-25721634Y34932709D01*
X-25721634Y34932709D02*
X-25664491Y34989852D01*
X-27710709Y47332707D02*
X-26510709Y47332707D01*
X-26510709Y47332707D02*
X-27367852Y46932707D01*
X-27367852Y46932707D02*
X-26510709Y46532707D01*
X-26510709Y46532707D02*
X-27710709Y46532707D01*
X-27710709Y45789850D02*
X-27653567Y45904135D01*
X-27653567Y45904135D02*
X-27596424Y45961278D01*
X-27596424Y45961278D02*
X-27482138Y46018421D01*
X-27482138Y46018421D02*
X-27139281Y46018421D01*
X-27139281Y46018421D02*
X-27024995Y45961278D01*
X-27024995Y45961278D02*
X-26967852Y45904135D01*
X-26967852Y45904135D02*
X-26910709Y45789850D01*
X-26910709Y45789850D02*
X-26910709Y45618421D01*
X-26910709Y45618421D02*
X-26967852Y45504135D01*
X-26967852Y45504135D02*
X-27024995Y45446993D01*
X-27024995Y45446993D02*
X-27139281Y45389850D01*
X-27139281Y45389850D02*
X-27482138Y45389850D01*
X-27482138Y45389850D02*
X-27596424Y45446993D01*
X-27596424Y45446993D02*
X-27653567Y45504135D01*
X-27653567Y45504135D02*
X-27710709Y45618421D01*
X-27710709Y45618421D02*
X-27710709Y45789850D01*
X-26910709Y44875564D02*
X-27710709Y44875564D01*
X-27024995Y44875564D02*
X-26967852Y44818421D01*
X-26967852Y44818421D02*
X-26910709Y44704136D01*
X-26910709Y44704136D02*
X-26910709Y44532707D01*
X-26910709Y44532707D02*
X-26967852Y44418421D01*
X-26967852Y44418421D02*
X-27082138Y44361279D01*
X-27082138Y44361279D02*
X-27710709Y44361279D01*
X-27710709Y43275565D02*
X-27082138Y43275565D01*
X-27082138Y43275565D02*
X-26967852Y43332707D01*
X-26967852Y43332707D02*
X-26910709Y43446993D01*
X-26910709Y43446993D02*
X-26910709Y43675565D01*
X-26910709Y43675565D02*
X-26967852Y43789850D01*
X-27653567Y43275565D02*
X-27710709Y43389850D01*
X-27710709Y43389850D02*
X-27710709Y43675565D01*
X-27710709Y43675565D02*
X-27653567Y43789850D01*
X-27653567Y43789850D02*
X-27539281Y43846993D01*
X-27539281Y43846993D02*
X-27424995Y43846993D01*
X-27424995Y43846993D02*
X-27310709Y43789850D01*
X-27310709Y43789850D02*
X-27253567Y43675565D01*
X-27253567Y43675565D02*
X-27253567Y43389850D01*
X-27253567Y43389850D02*
X-27196424Y43275565D01*
X-27710709Y42189851D02*
X-26510709Y42189851D01*
X-27653567Y42189851D02*
X-27710709Y42304136D01*
X-27710709Y42304136D02*
X-27710709Y42532708D01*
X-27710709Y42532708D02*
X-27653567Y42646993D01*
X-27653567Y42646993D02*
X-27596424Y42704136D01*
X-27596424Y42704136D02*
X-27482138Y42761279D01*
X-27482138Y42761279D02*
X-27139281Y42761279D01*
X-27139281Y42761279D02*
X-27024995Y42704136D01*
X-27024995Y42704136D02*
X-26967852Y42646993D01*
X-26967852Y42646993D02*
X-26910709Y42532708D01*
X-26910709Y42532708D02*
X-26910709Y42304136D01*
X-26910709Y42304136D02*
X-26967852Y42189851D01*
X-26624995Y40761279D02*
X-26567852Y40704136D01*
X-26567852Y40704136D02*
X-26510709Y40589851D01*
X-26510709Y40589851D02*
X-26510709Y40304136D01*
X-26510709Y40304136D02*
X-26567852Y40189851D01*
X-26567852Y40189851D02*
X-26624995Y40132708D01*
X-26624995Y40132708D02*
X-26739281Y40075565D01*
X-26739281Y40075565D02*
X-26853567Y40075565D01*
X-26853567Y40075565D02*
X-27024995Y40132708D01*
X-27024995Y40132708D02*
X-27710709Y40818422D01*
X-27710709Y40818422D02*
X-27710709Y40075565D01*
X-26510709Y39332708D02*
X-26510709Y39218422D01*
X-26510709Y39218422D02*
X-26567852Y39104136D01*
X-26567852Y39104136D02*
X-26624995Y39046994D01*
X-26624995Y39046994D02*
X-26739281Y38989851D01*
X-26739281Y38989851D02*
X-26967852Y38932708D01*
X-26967852Y38932708D02*
X-27253567Y38932708D01*
X-27253567Y38932708D02*
X-27482138Y38989851D01*
X-27482138Y38989851D02*
X-27596424Y39046994D01*
X-27596424Y39046994D02*
X-27653567Y39104136D01*
X-27653567Y39104136D02*
X-27710709Y39218422D01*
X-27710709Y39218422D02*
X-27710709Y39332708D01*
X-27710709Y39332708D02*
X-27653567Y39446994D01*
X-27653567Y39446994D02*
X-27596424Y39504136D01*
X-27596424Y39504136D02*
X-27482138Y39561279D01*
X-27482138Y39561279D02*
X-27253567Y39618422D01*
X-27253567Y39618422D02*
X-26967852Y39618422D01*
X-26967852Y39618422D02*
X-26739281Y39561279D01*
X-26739281Y39561279D02*
X-26624995Y39504136D01*
X-26624995Y39504136D02*
X-26567852Y39446994D01*
X-26567852Y39446994D02*
X-26510709Y39332708D01*
X-26624995Y38475565D02*
X-26567852Y38418422D01*
X-26567852Y38418422D02*
X-26510709Y38304137D01*
X-26510709Y38304137D02*
X-26510709Y38018422D01*
X-26510709Y38018422D02*
X-26567852Y37904137D01*
X-26567852Y37904137D02*
X-26624995Y37846994D01*
X-26624995Y37846994D02*
X-26739281Y37789851D01*
X-26739281Y37789851D02*
X-26853567Y37789851D01*
X-26853567Y37789851D02*
X-27024995Y37846994D01*
X-27024995Y37846994D02*
X-27710709Y38532708D01*
X-27710709Y38532708D02*
X-27710709Y37789851D01*
X-26510709Y37389851D02*
X-26510709Y36646994D01*
X-26510709Y36646994D02*
X-26967852Y37046994D01*
X-26967852Y37046994D02*
X-26967852Y36875565D01*
X-26967852Y36875565D02*
X-27024995Y36761280D01*
X-27024995Y36761280D02*
X-27082138Y36704137D01*
X-27082138Y36704137D02*
X-27196424Y36646994D01*
X-27196424Y36646994D02*
X-27482138Y36646994D01*
X-27482138Y36646994D02*
X-27596424Y36704137D01*
X-27596424Y36704137D02*
X-27653567Y36761280D01*
X-27653567Y36761280D02*
X-27710709Y36875565D01*
X-27710709Y36875565D02*
X-27710709Y37218422D01*
X-27710709Y37218422D02*
X-27653567Y37332708D01*
X-27653567Y37332708D02*
X-27596424Y37389851D01*
D11*
%TO.C,C29*%
X-22500000Y-1900000D03*
X-20600000Y-1900000D03*
%TD*%
D12*
%TO.C,R30*%
X-16460000Y11475000D03*
X-15440000Y11475000D03*
%TD*%
%TO.C,R29*%
X-16460000Y12425000D03*
X-15440000Y12425000D03*
%TD*%
D13*
%TO.C,C37*%
X15225000Y29555000D03*
X15225000Y28595000D03*
%TD*%
D14*
%TO.C,C36*%
X-14550000Y11495000D03*
X-14550000Y12455000D03*
%TD*%
D13*
%TO.C,C35*%
X-17350000Y12455000D03*
X-17350000Y11495000D03*
%TD*%
%TO.C,C34*%
X-18350000Y19280000D03*
X-18350000Y18320000D03*
%TD*%
D15*
%TO.C,C30*%
X-20970000Y-450000D03*
X-21930000Y-450000D03*
%TD*%
D14*
%TO.C,C21*%
X-8850000Y40780000D03*
X-8850000Y39820000D03*
%TD*%
D16*
%TO.C,U29*%
X24787500Y-20025000D03*
X24787500Y-19075000D03*
X24787500Y-18125000D03*
X22512500Y-18125000D03*
X22512500Y-20025000D03*
%TD*%
D17*
%TO.C,J15*%
X23200000Y30900000D03*
X23200000Y31550000D03*
X23200000Y32200000D03*
X23200000Y32850000D03*
X23200000Y33500000D03*
D18*
X25900000Y28700000D03*
D19*
X25900000Y29300000D03*
D20*
X23200000Y29700000D03*
D21*
X25900000Y31200000D03*
X25900000Y33200000D03*
D20*
X23200000Y34700000D03*
D19*
X25900000Y35100000D03*
D18*
X25900000Y35700000D03*
%TD*%
D22*
%TO.C,D27*%
X6625936Y-42315000D03*
X8025936Y-42315000D03*
%TD*%
D23*
%TO.C,D1*%
X-12200000Y-46100000D03*
X-10100000Y-46100000D03*
%TD*%
D24*
%TO.C,Q11*%
X4850000Y19150000D03*
X4850000Y20450000D03*
X2850000Y19800000D03*
%TD*%
D25*
%TO.C,R44*%
X1650000Y22440000D03*
X1650000Y23460000D03*
%TD*%
D26*
%TO.C,J10*%
X-10500000Y-34950000D03*
X-8500000Y-34950000D03*
X-6500000Y-34950000D03*
X-4500000Y-34950000D03*
X-2500000Y-34950000D03*
X-500000Y-34950000D03*
X1500000Y-34950000D03*
X3500000Y-34950000D03*
D27*
X-12850000Y-30300000D03*
X5850000Y-30300000D03*
%TD*%
D28*
%TO.C,C23*%
X-8700000Y38050000D03*
X-8700000Y36150000D03*
%TD*%
D29*
%TO.C,Q25*%
X12442500Y-34150936D03*
X12442500Y-32250936D03*
X10567500Y-33200936D03*
%TD*%
D24*
%TO.C,Q9*%
X4850000Y21950000D03*
X4850000Y23250000D03*
X2850000Y22600000D03*
%TD*%
D25*
%TO.C,R43*%
X6050000Y22440000D03*
X6050000Y23460000D03*
%TD*%
D30*
%TO.C,U13*%
X-17055000Y14125000D03*
X-15785000Y14125000D03*
X-14515000Y14125000D03*
X-13245000Y14125000D03*
X-13245000Y19075000D03*
X-14515000Y19075000D03*
X-15785000Y19075000D03*
X-17055000Y19075000D03*
%TD*%
D31*
%TO.C,FB3*%
X26450000Y-18087500D03*
X26450000Y-19662500D03*
%TD*%
D32*
%TO.C,R45*%
X18260000Y45800000D03*
X17240000Y45800000D03*
%TD*%
D33*
%TO.C,Q4*%
X21350000Y29550000D03*
X20050000Y29550000D03*
X20700000Y27550000D03*
%TD*%
D34*
%TO.C,U8*%
X-12569000Y-20507200D03*
X-12569000Y-20007200D03*
D35*
X-12569000Y-19507200D03*
D34*
X-12569000Y-19007200D03*
X-12569000Y-18507200D03*
X-13339000Y-18507200D03*
X-13339000Y-19007200D03*
D35*
X-13339000Y-19507200D03*
D34*
X-13339000Y-20007200D03*
X-13339000Y-20507200D03*
%TD*%
D32*
%TO.C,R65*%
X8710936Y-32025936D03*
X7690936Y-32025936D03*
%TD*%
D24*
%TO.C,Q21*%
X13175000Y-41799064D03*
X13175000Y-40499064D03*
X11175000Y-41149064D03*
%TD*%
D36*
%TO.C,R20*%
X-1200000Y55370000D03*
X-1200000Y54350000D03*
%TD*%
D37*
%TO.C,R104*%
X20855000Y-18030000D03*
X20855000Y-19680000D03*
%TD*%
D36*
%TO.C,R81*%
X23000000Y-28530000D03*
X23000000Y-29550000D03*
%TD*%
D38*
%TO.C,C83*%
X10600000Y-39100936D03*
X12150000Y-39100936D03*
%TD*%
D32*
%TO.C,R40*%
X5460000Y24700000D03*
X4440000Y24700000D03*
%TD*%
D39*
%TO.C,J12*%
X-12470000Y57950000D03*
D40*
X-13995000Y56475000D03*
X-13995000Y59425000D03*
%TD*%
D13*
%TO.C,C97*%
X27650000Y-18965000D03*
X27650000Y-19925000D03*
%TD*%
D12*
%TO.C,R85*%
X9014064Y-42150000D03*
X10034064Y-42150000D03*
%TD*%
D36*
%TO.C,R38*%
X1650000Y15160000D03*
X1650000Y14140000D03*
%TD*%
D12*
%TO.C,R22*%
X-9810000Y-16050000D03*
X-8790000Y-16050000D03*
%TD*%
D15*
%TO.C,C28*%
X-24195000Y-29675000D03*
X-25155000Y-29675000D03*
%TD*%
D32*
%TO.C,R41*%
X22010000Y45800000D03*
X20990000Y45800000D03*
%TD*%
%TO.C,R23*%
X-8840000Y-19300000D03*
X-9860000Y-19300000D03*
%TD*%
D29*
%TO.C,U36*%
X16292500Y-30750936D03*
X16292500Y-28850936D03*
X14417500Y-29800936D03*
%TD*%
D23*
%TO.C,D3*%
X-200000Y-46100000D03*
X1900000Y-46100000D03*
%TD*%
D41*
%TO.C,U7*%
X-2800000Y35020000D03*
X-2000000Y35020000D03*
X-1200000Y35020000D03*
X-400000Y35020000D03*
X400000Y35020000D03*
X1200000Y35020000D03*
X2000000Y35020000D03*
X2800000Y35020000D03*
X3600000Y35020000D03*
X4400000Y35020000D03*
X5200000Y35020000D03*
X6000000Y35020000D03*
X6800000Y35020000D03*
X7600000Y35020000D03*
X8400000Y35020000D03*
X9200000Y35020000D03*
X10000000Y35020000D03*
X10800000Y35020000D03*
D42*
X12180000Y36200000D03*
X12180000Y37000000D03*
X12180000Y37800000D03*
X12180000Y38600000D03*
X12180000Y39400000D03*
X12180000Y40200000D03*
X12180000Y41000000D03*
X12180000Y41800000D03*
X12180000Y42600000D03*
X12180000Y43400000D03*
X12180000Y44200000D03*
X12180000Y45000000D03*
X12180000Y45800000D03*
X12180000Y46600000D03*
X12180000Y47400000D03*
D41*
X10800000Y48580000D03*
X10000000Y48580000D03*
X9200000Y48580000D03*
X8400000Y48580000D03*
X7600000Y48580000D03*
X6800000Y48580000D03*
X6000000Y48580000D03*
X5200000Y48580000D03*
X4400000Y48580000D03*
X3600000Y48580000D03*
X2800000Y48580000D03*
X2000000Y48580000D03*
X1200000Y48580000D03*
X400000Y48580000D03*
X-400000Y48580000D03*
X-1200000Y48580000D03*
X-2000000Y48580000D03*
X-2800000Y48580000D03*
D42*
X-4180000Y47400000D03*
X-4180000Y46600000D03*
X-4180000Y45800000D03*
X-4180000Y45000000D03*
X-4180000Y44200000D03*
X-4180000Y43400000D03*
X-4180000Y42600000D03*
X-4180000Y41800000D03*
X-4180000Y41000000D03*
X-4180000Y40200000D03*
X-4180000Y39400000D03*
X-4180000Y38600000D03*
X-4180000Y37800000D03*
X-4180000Y37000000D03*
X-4180000Y36200000D03*
D43*
X-4180000Y35020000D03*
X12180000Y35020000D03*
X12180000Y48580000D03*
X-4180000Y48580000D03*
D41*
X-5600000Y31850000D03*
X-4800000Y31850000D03*
X-4000000Y31850000D03*
X-3200000Y31850000D03*
X-2400000Y31850000D03*
X-1600000Y31850000D03*
X-800000Y31850000D03*
X0Y31850000D03*
X800000Y31850000D03*
X1600000Y31850000D03*
X2400000Y31850000D03*
X3200000Y31850000D03*
X4000000Y31850000D03*
X4800000Y31850000D03*
X5600000Y31850000D03*
X6400000Y31850000D03*
X7200000Y31850000D03*
X8000000Y31850000D03*
X8800000Y31850000D03*
X9600000Y31850000D03*
X10400000Y31850000D03*
X11200000Y31850000D03*
X12000000Y31850000D03*
X12800000Y31850000D03*
X13600000Y31850000D03*
D42*
X14650000Y33000000D03*
X14650000Y33800000D03*
X14650000Y34600000D03*
X14650000Y35400000D03*
X14650000Y36200000D03*
X14650000Y37000000D03*
X14650000Y37800000D03*
X14650000Y38600000D03*
X14650000Y39400000D03*
X14650000Y40200000D03*
X14650000Y41000000D03*
X14650000Y41800000D03*
X14650000Y42600000D03*
X14650000Y43400000D03*
X14650000Y44200000D03*
X14650000Y45000000D03*
X14650000Y46600000D03*
X14650000Y47400000D03*
X14650000Y48200000D03*
X14650000Y49000000D03*
X14650000Y49800000D03*
X14650000Y50600000D03*
D41*
X13600000Y51750000D03*
X12800000Y51750000D03*
X12000000Y51750000D03*
X11200000Y51750000D03*
X10400000Y51750000D03*
X9600000Y51750000D03*
X8800000Y51750000D03*
X6400000Y51750000D03*
X5600000Y51750000D03*
X4800000Y51750000D03*
X4000000Y51750000D03*
X3200000Y51750000D03*
X2400000Y51750000D03*
X1600000Y51750000D03*
X800000Y51750000D03*
X0Y51750000D03*
X-2400000Y51750000D03*
X-3200000Y51750000D03*
X-4000000Y51750000D03*
X-4800000Y51750000D03*
X-5600000Y51750000D03*
D42*
X-6650000Y50600000D03*
X-6650000Y49800000D03*
X-6650000Y49000000D03*
X-6650000Y48200000D03*
X-6650000Y47400000D03*
X-6650000Y46600000D03*
X-6650000Y45800000D03*
X-6650000Y45000000D03*
X-6650000Y44200000D03*
X-6650000Y43400000D03*
X-6650000Y42600000D03*
X-6650000Y41800000D03*
X-6650000Y41000000D03*
X-6650000Y40200000D03*
X-6650000Y39400000D03*
X-6650000Y38600000D03*
X-6650000Y37800000D03*
X-6650000Y37000000D03*
X-6650000Y36200000D03*
X-6650000Y35400000D03*
X-6650000Y34600000D03*
X-6650000Y33800000D03*
X-6650000Y33000000D03*
D44*
X-6700000Y31850000D03*
X14700000Y31850000D03*
X14700000Y51750000D03*
X-6700000Y51750000D03*
D43*
X-2370000Y36655000D03*
X-2370000Y38125000D03*
X-2370000Y39595000D03*
X-2370000Y41065000D03*
X-2370000Y42535000D03*
X-2370000Y44005000D03*
X-2370000Y45475000D03*
X-2370000Y46945000D03*
X-550000Y46945000D03*
X1270000Y46945000D03*
X3090000Y46945000D03*
X4910000Y46945000D03*
X6730000Y46945000D03*
X8550000Y46945000D03*
X10370000Y46945000D03*
X10370000Y45475000D03*
X10370000Y44005000D03*
X10370000Y42535000D03*
X10370000Y41065000D03*
X10370000Y39595000D03*
X10370000Y38125000D03*
X10370000Y36655000D03*
X8550000Y36655000D03*
X6730000Y36655000D03*
X4910000Y36655000D03*
X3090000Y36655000D03*
X1270000Y36655000D03*
X-550000Y36655000D03*
X-550000Y38125000D03*
X-550000Y39595000D03*
X-550000Y41065000D03*
X-550000Y42535000D03*
X-550000Y44005000D03*
X-550000Y45475000D03*
X1270000Y45475000D03*
X3090000Y45475000D03*
X4910000Y45475000D03*
X6730000Y45475000D03*
X8550000Y45475000D03*
X8550000Y44005000D03*
X8550000Y42535000D03*
X8550000Y41065000D03*
X8550000Y39595000D03*
X8550000Y38125000D03*
X6730000Y38125000D03*
X4910000Y38125000D03*
X3090000Y38125000D03*
X1270000Y38125000D03*
X1270000Y39595000D03*
X1270000Y41065000D03*
X1270000Y42535000D03*
X1270000Y44005000D03*
X3090000Y44005000D03*
X4910000Y44005000D03*
X6730000Y44005000D03*
X6730000Y42535000D03*
X6730000Y41065000D03*
X6730000Y39595000D03*
X4910000Y39595000D03*
X3090000Y39595000D03*
X3090000Y41065000D03*
X3090000Y42535000D03*
X4910000Y42535000D03*
X4910000Y41065000D03*
D45*
X-2400000Y33320000D03*
X-1200000Y33320000D03*
X0Y33320000D03*
X1200000Y33320000D03*
X2400000Y33320000D03*
X3600000Y33320000D03*
X4800000Y33320000D03*
X6000000Y33320000D03*
X7200000Y33320000D03*
%TD*%
D46*
%TO.C,U15*%
X16550000Y29100000D03*
X17050000Y29100000D03*
X17550000Y29100000D03*
X18050000Y29100000D03*
X18550000Y29100000D03*
X18550000Y33500000D03*
X18050000Y33500000D03*
X17550000Y33500000D03*
X17050000Y33500000D03*
X16550000Y33500000D03*
%TD*%
D33*
%TO.C,Q19*%
X14525936Y-44425000D03*
X15825936Y-44425000D03*
X15175936Y-42425000D03*
%TD*%
D47*
%TO.C,D23*%
X3850000Y-40450000D03*
X1050000Y-40450000D03*
%TD*%
D33*
%TO.C,Q22*%
X20550000Y-34224064D03*
X21850000Y-34224064D03*
X21200000Y-32224064D03*
%TD*%
D48*
%TO.C,D22*%
X-3350000Y-40450000D03*
X-550000Y-40450000D03*
%TD*%
D36*
%TO.C,R33*%
X1650000Y17710000D03*
X1650000Y16690000D03*
%TD*%
D49*
%TO.C,SP3*%
X23500000Y-24000000D03*
D50*
X25915000Y-24000000D03*
%TD*%
D36*
%TO.C,R80*%
X25080936Y-28474064D03*
X25080936Y-29494064D03*
%TD*%
D51*
%TO.C,FID2*%
X-24850000Y-43000000D03*
%TD*%
D47*
%TO.C,D24*%
X3850000Y-38150000D03*
X1050000Y-38150000D03*
%TD*%
D36*
%TO.C,R37*%
X1650000Y12510000D03*
X1650000Y11490000D03*
%TD*%
D24*
%TO.C,Q17*%
X22600000Y-45024064D03*
X22600000Y-43724064D03*
X20600000Y-44374064D03*
%TD*%
D52*
%TO.C,C20*%
X-1180000Y53460000D03*
X-220000Y53460000D03*
%TD*%
D32*
%TO.C,R2*%
X-18290000Y15100000D03*
X-19310000Y15100000D03*
%TD*%
D36*
%TO.C,R5*%
X-17050000Y-38740000D03*
X-17050000Y-39760000D03*
%TD*%
D48*
%TO.C,D21*%
X-3350000Y-38150000D03*
X-550000Y-38150000D03*
%TD*%
D51*
%TO.C,FID3*%
X26150000Y-46000000D03*
%TD*%
D53*
%TO.C,Module1*%
X-11500000Y7300000D03*
X-8420000Y7300000D03*
X-11500000Y6900000D03*
X-8420000Y6900000D03*
X-11500000Y6500000D03*
X-8420000Y6500000D03*
X-11500000Y6100000D03*
X-8420000Y6100000D03*
X-11500000Y5700000D03*
X-8420000Y5700000D03*
X-11500000Y5300000D03*
X-8420000Y5300000D03*
X-11500000Y4900000D03*
X-8420000Y4900000D03*
X-11500000Y4500000D03*
X-8420000Y4500000D03*
X-11500000Y4100000D03*
X-8420000Y4100000D03*
X-11500000Y3700000D03*
X-8420000Y3700000D03*
X-11500000Y3300000D03*
X-8420000Y3300000D03*
X-11500000Y2900000D03*
X-8420000Y2900000D03*
X-11500000Y2500000D03*
X-8420000Y2500000D03*
X-11500000Y2100000D03*
X-8420000Y2100000D03*
X-11500000Y1700000D03*
X-8420000Y1700000D03*
X-11500000Y1300000D03*
X-8420000Y1300000D03*
X-11500000Y900000D03*
X-8420000Y900000D03*
X-11500000Y500000D03*
X-8420000Y500000D03*
X-11500000Y100000D03*
X-8420000Y100000D03*
X-11500000Y-300000D03*
X-8420000Y-300000D03*
X-11500000Y-700000D03*
X-8420000Y-700000D03*
X-11500000Y-1100000D03*
X-8420000Y-1100000D03*
X-11500000Y-1500000D03*
X-8420000Y-1500000D03*
X-11500000Y-1900000D03*
X-8420000Y-1900000D03*
X-11500000Y-2300000D03*
X-8420000Y-2300000D03*
X-11500000Y-2700000D03*
X-8420000Y-2700000D03*
X-11500000Y-3100000D03*
X-8420000Y-3100000D03*
X-11500000Y-3500000D03*
X-8420000Y-3500000D03*
X-11500000Y-3900000D03*
X-8420000Y-3900000D03*
X-11500000Y-4300000D03*
X-8420000Y-4300000D03*
X-11500000Y-4700000D03*
X-8420000Y-4700000D03*
X-11500000Y-5100000D03*
X-8420000Y-5100000D03*
X-11500000Y-5500000D03*
X-8420000Y-5500000D03*
X-11500000Y-5900000D03*
X-8420000Y-5900000D03*
X-11500000Y-6300000D03*
X-8420000Y-6300000D03*
X-11500000Y-6700000D03*
X-8420000Y-6700000D03*
X-11500000Y-7100000D03*
X-8420000Y-7100000D03*
X-11500000Y-7500000D03*
X-8420000Y-7500000D03*
X-11500000Y-7900000D03*
X-8420000Y-7900000D03*
X-11500000Y-8300000D03*
X-8420000Y-8300000D03*
X-11500000Y-8700000D03*
X-8420000Y-8700000D03*
X-11500000Y-9100000D03*
X-8420000Y-9100000D03*
X-11500000Y-9500000D03*
X-8420000Y-9500000D03*
X-11500000Y-9900000D03*
X-8420000Y-9900000D03*
X-11500000Y-10300000D03*
X-8420000Y-10300000D03*
X-11500000Y-10700000D03*
X-8420000Y-10700000D03*
X-11500000Y-11100000D03*
X-8420000Y-11100000D03*
X-11500000Y-11500000D03*
X-8420000Y-11500000D03*
X-11500000Y-11900000D03*
X-8420000Y-11900000D03*
X-11500000Y-12300000D03*
X-8420000Y-12300000D03*
X22420000Y7300000D03*
X25500000Y7300000D03*
X22420000Y6900000D03*
X25500000Y6900000D03*
X22420000Y6500000D03*
X25500000Y6500000D03*
X22420000Y6100000D03*
X25500000Y6100000D03*
X22420000Y5700000D03*
X25500000Y5700000D03*
X22420000Y5300000D03*
X25500000Y5300000D03*
X22420000Y4900000D03*
X25500000Y4900000D03*
X22420000Y4500000D03*
X25500000Y4500000D03*
X22420000Y4100000D03*
X25500000Y4100000D03*
X22420000Y3700000D03*
X25500000Y3700000D03*
X22420000Y3300000D03*
X25500000Y3300000D03*
X22420000Y2900000D03*
X25500000Y2900000D03*
X22420000Y2500000D03*
X25500000Y2500000D03*
X22420000Y2100000D03*
X25500000Y2100000D03*
X22420000Y1700000D03*
X25500000Y1700000D03*
X22420000Y1300000D03*
X25500000Y1300000D03*
X22420000Y900000D03*
X25500000Y900000D03*
X22420000Y500000D03*
X25500000Y500000D03*
X22420000Y100000D03*
X25500000Y100000D03*
X22420000Y-300000D03*
X25500000Y-300000D03*
X22420000Y-700000D03*
X25500000Y-700000D03*
X22420000Y-1100000D03*
X25500000Y-1100000D03*
X22420000Y-1500000D03*
X25500000Y-1500000D03*
X22420000Y-1900000D03*
X25500000Y-1900000D03*
X22420000Y-2300000D03*
X25500000Y-2300000D03*
X22420000Y-2700000D03*
X25500000Y-2700000D03*
X22420000Y-3100000D03*
X25500000Y-3100000D03*
X22420000Y-3500000D03*
X25500000Y-3500000D03*
X22420000Y-3900000D03*
X25500000Y-3900000D03*
X22420000Y-4300000D03*
X25500000Y-4300000D03*
X22420000Y-4700000D03*
X25500000Y-4700000D03*
X22420000Y-5100000D03*
X25500000Y-5100000D03*
X22420000Y-5500000D03*
X25500000Y-5500000D03*
X22420000Y-5900000D03*
X25500000Y-5900000D03*
X22420000Y-6300000D03*
X25500000Y-6300000D03*
X22420000Y-6700000D03*
X25500000Y-6700000D03*
X22420000Y-7100000D03*
X25500000Y-7100000D03*
X22420000Y-7500000D03*
X25500000Y-7500000D03*
X22420000Y-7900000D03*
X25500000Y-7900000D03*
X22420000Y-8300000D03*
X25500000Y-8300000D03*
X22420000Y-8700000D03*
X25500000Y-8700000D03*
X22420000Y-9100000D03*
X25500000Y-9100000D03*
X22420000Y-9500000D03*
X25500000Y-9500000D03*
X22420000Y-9900000D03*
X25500000Y-9900000D03*
X22420000Y-10300000D03*
X25500000Y-10300000D03*
X22420000Y-10700000D03*
X25500000Y-10700000D03*
X22420000Y-11100000D03*
X25500000Y-11100000D03*
X22420000Y-11500000D03*
X25500000Y-11500000D03*
X22420000Y-11900000D03*
X25500000Y-11900000D03*
X22420000Y-12300000D03*
X25500000Y-12300000D03*
%TD*%
D12*
%TO.C,R4*%
X-16610000Y-32100000D03*
X-15590000Y-32100000D03*
%TD*%
D54*
%TO.C,H4*%
X-13000000Y-40000000D03*
%TD*%
D33*
%TO.C,Q24*%
X19250000Y-32224064D03*
X17950000Y-32224064D03*
X18600000Y-34224064D03*
%TD*%
D49*
%TO.C,SP1*%
X-9500000Y24000000D03*
D50*
X-7085000Y24000000D03*
%TD*%
D12*
%TO.C,R68*%
X13290000Y-38825936D03*
X14310000Y-38825936D03*
%TD*%
%TO.C,R21*%
X-9810000Y-17000000D03*
X-8790000Y-17000000D03*
%TD*%
%TO.C,R3*%
X-8760000Y9400000D03*
X-7740000Y9400000D03*
%TD*%
%TO.C,R72*%
X6990000Y-37700936D03*
X8010000Y-37700936D03*
%TD*%
D24*
%TO.C,Q8*%
X-2000000Y25500000D03*
X-2000000Y26800000D03*
X-4000000Y26150000D03*
%TD*%
D15*
%TO.C,C100*%
X21155000Y-16900000D03*
X20195000Y-16900000D03*
%TD*%
D38*
%TO.C,C84*%
X11175000Y-30749064D03*
X12725000Y-30749064D03*
%TD*%
D55*
%TO.C,J13*%
X-26110000Y-24740000D03*
X-26110000Y-22200000D03*
X-26110000Y-19660000D03*
X-22940000Y-24740000D03*
X-22940000Y-22200000D03*
X-22940000Y-19660000D03*
D56*
X-19610000Y-17930000D03*
D57*
X-15935000Y-21650000D03*
D58*
X-26810000Y-28755000D03*
D59*
X-21960000Y-28755000D03*
D60*
X-16810000Y-28755000D03*
D61*
X-14860000Y-24400000D03*
D62*
X-27960000Y-23420000D03*
X-27960000Y-20980000D03*
D61*
X-14860000Y-19980000D03*
D63*
X-17810000Y-18105000D03*
D58*
X-26810000Y-17605000D03*
D59*
X-21960000Y-17605000D03*
%TD*%
D64*
%TO.C,U14*%
X-16250000Y8450000D03*
X-15600000Y8450000D03*
X-14950000Y8450000D03*
X-14950000Y10350000D03*
X-16250000Y10350000D03*
%TD*%
D16*
%TO.C,U30*%
X24787500Y-16625000D03*
X24787500Y-15675000D03*
X24787500Y-14725000D03*
X22512500Y-14725000D03*
X22512500Y-16625000D03*
%TD*%
D29*
%TO.C,Q29*%
X16292500Y-34150936D03*
X16292500Y-32250936D03*
X14417500Y-33200936D03*
%TD*%
D24*
%TO.C,Q18*%
X19200000Y-45025936D03*
X19200000Y-43725936D03*
X17200000Y-44375936D03*
%TD*%
D12*
%TO.C,R84*%
X9014064Y-43150000D03*
X10034064Y-43150000D03*
%TD*%
D36*
%TO.C,R34*%
X-8600000Y-41440000D03*
X-8600000Y-42460000D03*
%TD*%
D37*
%TO.C,R105*%
X20865000Y-14130000D03*
X20865000Y-15780000D03*
%TD*%
D15*
%TO.C,C19*%
X-220000Y56260000D03*
X-1180000Y56260000D03*
%TD*%
D33*
%TO.C,Q16*%
X14425000Y-35625936D03*
X13125000Y-35625936D03*
X13775000Y-37625936D03*
%TD*%
D14*
%TO.C,C99*%
X27650000Y-15805000D03*
X27650000Y-14845000D03*
%TD*%
D65*
%TO.C,D6*%
X-13475000Y-22435000D03*
X-13475000Y-21465000D03*
%TD*%
D66*
%TO.C,D20*%
X-13515000Y21050000D03*
X-14485000Y21050000D03*
%TD*%
D23*
%TO.C,D7*%
X11800000Y-46100000D03*
X13900000Y-46100000D03*
%TD*%
D33*
%TO.C,Q14*%
X11825000Y-35624064D03*
X10525000Y-35624064D03*
X11175000Y-37624064D03*
%TD*%
D67*
%TO.C,C22*%
X-8700000Y42550000D03*
X-8700000Y44450000D03*
%TD*%
D12*
%TO.C,R39*%
X2540000Y24650000D03*
X3560000Y24650000D03*
%TD*%
D65*
%TO.C,D25*%
X20100000Y44840000D03*
X20100000Y45810000D03*
%TD*%
D33*
%TO.C,Q30*%
X19249064Y-28810000D03*
X17949064Y-28810000D03*
X18599064Y-30810000D03*
%TD*%
D51*
%TO.C,FID1*%
X14150000Y59000000D03*
%TD*%
D68*
%TO.C,D15*%
X8424064Y-36500000D03*
X8424064Y-33200000D03*
%TD*%
D69*
%TO.C,J16*%
X-10850000Y46250000D03*
X-10850000Y45750000D03*
X-10850000Y45250000D03*
X-10850000Y44750000D03*
X-10850000Y44250000D03*
X-10850000Y43750000D03*
X-10850000Y43250000D03*
X-10850000Y42750000D03*
X-10850000Y42250000D03*
X-10850000Y41750000D03*
X-10850000Y41250000D03*
X-10850000Y40750000D03*
X-10850000Y40250000D03*
X-10850000Y39750000D03*
X-10850000Y39250000D03*
X-10850000Y38750000D03*
X-10850000Y38250000D03*
X-10850000Y37750000D03*
X-10850000Y37250000D03*
X-10850000Y36750000D03*
D70*
X-14100000Y48150000D03*
X-14100000Y34850000D03*
%TD*%
D32*
%TO.C,R24*%
X-16240000Y-2400000D03*
X-17260000Y-2400000D03*
%TD*%
D71*
%TO.C,R67*%
X-2262500Y-42725000D03*
X662500Y-42725000D03*
%TD*%
D25*
%TO.C,R42*%
X6050000Y19690000D03*
X6050000Y20710000D03*
%TD*%
D33*
%TO.C,Q12*%
X6624064Y-38900000D03*
X5324064Y-38900000D03*
X5974064Y-40900000D03*
%TD*%
D24*
%TO.C,Q20*%
X13175000Y-44424064D03*
X13175000Y-43124064D03*
X11175000Y-43774064D03*
%TD*%
D12*
%TO.C,R31*%
X19115000Y26350000D03*
X20135000Y26350000D03*
%TD*%
%TO.C,R86*%
X11990000Y-28575000D03*
X13010000Y-28575000D03*
%TD*%
D54*
%TO.C,H1*%
X-21000000Y40000000D03*
%TD*%
D71*
%TO.C,R66*%
X2312500Y-42725000D03*
X5237500Y-42725000D03*
%TD*%
D15*
%TO.C,C98*%
X21155000Y-20800000D03*
X20195000Y-20800000D03*
%TD*%
D12*
%TO.C,R64*%
X5115000Y-37699064D03*
X6135000Y-37699064D03*
%TD*%
%TO.C,R19*%
X-2210000Y58160000D03*
X-1190000Y58160000D03*
%TD*%
D25*
%TO.C,R46*%
X1650000Y19640000D03*
X1650000Y20660000D03*
%TD*%
D33*
%TO.C,Q15*%
X17025000Y-35625936D03*
X15725000Y-35625936D03*
X16375000Y-37625936D03*
%TD*%
D72*
%TO.C,U2*%
X-7800000Y-39220000D03*
X-7300000Y-39220000D03*
D73*
X-6800000Y-39220000D03*
D72*
X-6300000Y-39220000D03*
X-5800000Y-39220000D03*
X-5800000Y-38450000D03*
X-6300000Y-38450000D03*
D73*
X-6800000Y-38450000D03*
D72*
X-7300000Y-38450000D03*
X-7800000Y-38450000D03*
%TD*%
D49*
%TO.C,SP2*%
X23500000Y24000000D03*
D50*
X25915000Y24000000D03*
%TD*%
D74*
%TO.C,FB4*%
X26450000Y-16687500D03*
X26450000Y-15112500D03*
%TD*%
D33*
%TO.C,Q13*%
X9224064Y-38900000D03*
X7924064Y-38900000D03*
X8574064Y-40900000D03*
%TD*%
D14*
%TO.C,C51*%
X19150000Y44845000D03*
X19150000Y45805000D03*
%TD*%
D75*
%TO.C,BT1*%
X-22100000Y19025000D03*
X-22100000Y34775000D03*
D76*
X-22100000Y26900000D03*
%TD*%
D12*
%TO.C,R99*%
X11990000Y-29525000D03*
X13010000Y-29525000D03*
%TD*%
D24*
%TO.C,Q7*%
X2850000Y15250000D03*
X2850000Y13950000D03*
X4850000Y14600000D03*
%TD*%
D52*
%TO.C,C26*%
X-23330000Y-29675000D03*
X-22370000Y-29675000D03*
%TD*%
D66*
%TO.C,D9*%
X-215000Y57200000D03*
X-1185000Y57200000D03*
%TD*%
D32*
%TO.C,R1*%
X-18290000Y16050000D03*
X-19310000Y16050000D03*
%TD*%
D12*
%TO.C,R32*%
X19115000Y25400000D03*
X20135000Y25400000D03*
%TD*%
D24*
%TO.C,Q6*%
X2850000Y12650000D03*
X2850000Y11350000D03*
X4850000Y12000000D03*
%TD*%
D25*
%TO.C,R82*%
X14374064Y-41285000D03*
X14374064Y-40265000D03*
%TD*%
D22*
%TO.C,D26*%
X6640000Y-43799064D03*
X8040000Y-43799064D03*
%TD*%
D33*
%TO.C,Q23*%
X21850000Y-28800936D03*
X20550000Y-28800936D03*
X21200000Y-30800936D03*
%TD*%
D23*
%TO.C,D2*%
X-24200000Y-46100000D03*
X-22100000Y-46100000D03*
%TD*%
D24*
%TO.C,Q5*%
X2850000Y17850000D03*
X2850000Y16550000D03*
X4850000Y17200000D03*
%TD*%
D39*
%TO.C,J17*%
X23425000Y45775000D03*
D40*
X24950000Y47250000D03*
X24950000Y44300000D03*
%TD*%
D25*
%TO.C,R79*%
X16975000Y-42610936D03*
X16975000Y-41590936D03*
%TD*%
D54*
%TO.C,H2*%
X21000000Y40000000D03*
%TD*%
D77*
%TO.C,J14*%
X-20050000Y-12370000D03*
X-20050000Y-11270000D03*
X-20050000Y-10170000D03*
X-20050000Y-9070000D03*
X-20050000Y-7970000D03*
X-20050000Y-6870000D03*
X-20050000Y-5770000D03*
X-20050000Y-4670000D03*
D78*
X-13225000Y-4775000D03*
D56*
X-13850000Y-6670000D03*
D79*
X-13550000Y-3350000D03*
D80*
X-16910000Y-3350000D03*
D81*
X-19120000Y-3350000D03*
D82*
X-27150000Y-3535000D03*
D83*
X-13395000Y-15400000D03*
D84*
X-13680000Y-16685000D03*
D85*
X-20320000Y-16685000D03*
D86*
X-27275000Y-16685000D03*
%TD*%
D49*
%TO.C,SP4*%
X-9500000Y-24000000D03*
D50*
X-7085000Y-24000000D03*
%TD*%
D13*
%TO.C,C61*%
X16350000Y45830000D03*
X16350000Y44870000D03*
%TD*%
D64*
%TO.C,U1*%
X-15350000Y-34050000D03*
X-16000000Y-34050000D03*
X-16650000Y-34050000D03*
X-16650000Y-35950000D03*
X-15350000Y-35950000D03*
%TD*%
D54*
%TO.C,H3*%
X21000000Y-40000000D03*
%TD*%
D34*
%TO.C,U16*%
X21485000Y30850000D03*
X21485000Y31350000D03*
D35*
X21485000Y31850000D03*
D34*
X21485000Y32350000D03*
X21485000Y32850000D03*
X20715000Y32850000D03*
X20715000Y32350000D03*
D35*
X20715000Y31850000D03*
D34*
X20715000Y31350000D03*
X20715000Y30850000D03*
%TD*%
M02*
