%TF.GenerationSoftware,KiCad,Pcbnew,7.99.0-1.20230926git54171ec.fc37*%
%TF.CreationDate,2023-10-10T14:41:19+01:00*%
%TF.ProjectId,bugg-main-r5,62756767-2d6d-4616-996e-2d72352e6b69,rev?*%
%TF.SameCoordinates,Original*%
%TF.FileFunction,Paste,Top*%
%TF.FilePolarity,Positive*%
%FSLAX46Y46*%
G04 Gerber Fmt 4.6, Leading zero omitted, Abs format (unit mm)*
G04 Created by KiCad (PCBNEW 7.99.0-1.20230926git54171ec.fc37) date 2023-10-10 14:41:19*
%MOMM*%
%LPD*%
G01*
G04 APERTURE LIST*
G04 Aperture macros list*
%AMRoundRect*
0 Rectangle with rounded corners*
0 $1 Rounding radius*
0 $2 $3 $4 $5 $6 $7 $8 $9 X,Y pos of 4 corners*
0 Add a 4 corners polygon primitive as box body*
4,1,4,$2,$3,$4,$5,$6,$7,$8,$9,$2,$3,0*
0 Add four circle primitives for the rounded corners*
1,1,$1+$1,$2,$3*
1,1,$1+$1,$4,$5*
1,1,$1+$1,$6,$7*
1,1,$1+$1,$8,$9*
0 Add four rect primitives between the rounded corners*
20,1,$1+$1,$2,$3,$4,$5,0*
20,1,$1+$1,$4,$5,$6,$7,0*
20,1,$1+$1,$6,$7,$8,$9,0*
20,1,$1+$1,$8,$9,$2,$3,0*%
%AMFreePoly0*
4,1,101,-1.895792,2.944575,-1.557458,2.864389,-1.230721,2.745466,-0.920000,2.589416,-0.629496,2.398348,-0.363138,2.174847,-0.124527,1.921935,0.083109,1.643032,0.256962,1.341910,0.394681,1.022640,0.494404,0.689541,0.554783,0.347118,0.575000,0.000000,0.554783,-0.347118,0.494404,-0.689541,0.394681,-1.022640,0.256962,-1.341910,0.083109,-1.643032,-0.124527,-1.921935,-0.363138,-2.174847,
-0.629496,-2.398348,-0.920000,-2.589416,-1.230721,-2.745466,-1.557458,-2.864389,-1.895792,-2.944575,-2.241147,-2.984941,-2.588853,-2.984941,-2.934208,-2.944575,-3.272542,-2.864389,-3.599279,-2.745466,-3.910000,-2.589416,-4.200504,-2.398348,-4.466862,-2.174847,-4.705473,-1.921935,-4.913109,-1.643032,-5.086962,-1.341910,-5.224681,-1.022640,-5.324404,-0.689541,-5.384783,-0.347118,-5.405000,0.000000,
-4.259700,0.000000,-4.240924,-0.262528,-4.184977,-0.519712,-4.092998,-0.766316,-3.966860,-0.997320,-3.809131,-1.208022,-3.623022,-1.394131,-3.412320,-1.551860,-3.181316,-1.677998,-2.934712,-1.769977,-2.677528,-1.825924,-2.415000,-1.844700,-2.152472,-1.825924,-1.895288,-1.769977,-1.648684,-1.677998,-1.417680,-1.551860,-1.206978,-1.394131,-1.020869,-1.208022,-0.863140,-0.997320,-0.737002,-0.766316,
-0.645023,-0.519712,-0.589076,-0.262528,-0.570300,0.000000,-0.589076,0.262528,-0.645023,0.519712,-0.737002,0.766316,-0.863140,0.997320,-1.020869,1.208022,-1.206978,1.394131,-1.417680,1.551860,-1.648684,1.677998,-1.895288,1.769977,-2.152472,1.825924,-2.415000,1.844700,-2.677528,1.825924,-2.934712,1.769977,-3.181316,1.677998,-3.412320,1.551860,-3.623022,1.394131,-3.809131,1.208022,
-3.966860,0.997320,-4.092998,0.766316,-4.184977,0.519712,-4.240924,0.262528,-4.259700,0.000000,-5.405000,0.000000,-5.384783,0.347118,-5.324404,0.689541,-5.224681,1.022640,-5.086962,1.341910,-4.913109,1.643032,-4.705473,1.921935,-4.466862,2.174847,-4.200504,2.398348,-3.910000,2.589416,-3.599279,2.745466,-3.272542,2.864389,-2.934208,2.944575,-2.588853,2.984941,-2.241147,2.984941,
-1.895792,2.944575,-1.895792,2.944575,$1*%
G04 Aperture macros list end*
%ADD10C,0.010000*%
%ADD11RoundRect,0.150000X0.512500X0.150000X-0.512500X0.150000X-0.512500X-0.150000X0.512500X-0.150000X0*%
%ADD12O,1.550000X0.890000*%
%ADD13O,0.950000X1.250000*%
%ADD14R,1.350000X0.400000*%
%ADD15R,1.550000X1.200000*%
%ADD16R,1.550000X1.500000*%
%ADD17RoundRect,0.150000X0.150000X0.200000X-0.150000X0.200000X-0.150000X-0.200000X0.150000X-0.200000X0*%
%ADD18R,1.200000X1.200000*%
%ADD19R,0.700000X0.450000*%
%ADD20RoundRect,0.135000X0.185000X-0.135000X0.185000X0.135000X-0.185000X0.135000X-0.185000X-0.135000X0*%
%ADD21RoundRect,0.250000X-0.250000X-1.200000X0.250000X-1.200000X0.250000X1.200000X-0.250000X1.200000X0*%
%ADD22RoundRect,0.250000X-0.650000X-1.550000X0.650000X-1.550000X0.650000X1.550000X-0.650000X1.550000X0*%
%ADD23RoundRect,0.140000X0.170000X-0.140000X0.170000X0.140000X-0.170000X0.140000X-0.170000X-0.140000X0*%
%ADD24RoundRect,0.150000X0.587500X0.150000X-0.587500X0.150000X-0.587500X-0.150000X0.587500X-0.150000X0*%
%ADD25RoundRect,0.150000X0.150000X-0.825000X0.150000X0.825000X-0.150000X0.825000X-0.150000X-0.825000X0*%
%ADD26RoundRect,0.218750X-0.256250X0.218750X-0.256250X-0.218750X0.256250X-0.218750X0.256250X0.218750X0*%
%ADD27RoundRect,0.135000X0.135000X0.185000X-0.135000X0.185000X-0.135000X-0.185000X0.135000X-0.185000X0*%
%ADD28R,0.450000X0.700000*%
%ADD29R,0.550000X0.300000*%
%ADD30R,0.550000X0.400000*%
%ADD31RoundRect,0.135000X-0.185000X0.135000X-0.185000X-0.135000X0.185000X-0.135000X0.185000X0.135000X0*%
%ADD32RoundRect,0.200000X-0.275000X0.200000X-0.275000X-0.200000X0.275000X-0.200000X0.275000X0.200000X0*%
%ADD33RoundRect,0.225000X-0.225000X-0.250000X0.225000X-0.250000X0.225000X0.250000X-0.225000X0.250000X0*%
%ADD34R,1.050000X1.000000*%
%ADD35R,2.200000X1.050000*%
%ADD36RoundRect,0.140000X-0.170000X0.140000X-0.170000X-0.140000X0.170000X-0.140000X0.170000X0.140000X0*%
%ADD37RoundRect,0.135000X-0.135000X-0.185000X0.135000X-0.185000X0.135000X0.185000X-0.135000X0.185000X0*%
%ADD38RoundRect,0.140000X0.140000X0.170000X-0.140000X0.170000X-0.140000X-0.170000X0.140000X-0.170000X0*%
%ADD39R,0.500000X1.000000*%
%ADD40R,1.000000X0.500000*%
%ADD41R,1.000000X1.000000*%
%ADD42R,0.900000X1.000000*%
%ADD43C,0.800000*%
%ADD44R,0.300000X1.400000*%
%ADD45RoundRect,0.250000X0.300000X0.300000X-0.300000X0.300000X-0.300000X-0.300000X0.300000X-0.300000X0*%
%ADD46RoundRect,0.250000X-0.300000X-0.300000X0.300000X-0.300000X0.300000X0.300000X-0.300000X0.300000X0*%
%ADD47FreePoly0,0.000000*%
%ADD48RoundRect,0.140000X-0.140000X-0.170000X0.140000X-0.170000X0.140000X0.170000X-0.140000X0.170000X0*%
%ADD49R,0.700000X0.200000*%
%ADD50R,0.700000X0.900000*%
%ADD51R,0.700000X0.700000*%
%ADD52R,0.650000X1.200000*%
%ADD53R,2.900000X0.450000*%
%ADD54R,1.900000X0.450000*%
%ADD55R,2.400000X0.450000*%
%ADD56R,0.500000X1.400000*%
%ADD57R,0.600000X0.300000*%
%ADD58R,0.700000X0.750000*%
%ADD59R,0.400000X0.650000*%
%ADD60RoundRect,0.147500X0.172500X-0.147500X0.172500X0.147500X-0.172500X0.147500X-0.172500X-0.147500X0*%
%ADD61RoundRect,0.147500X0.147500X0.172500X-0.147500X0.172500X-0.147500X-0.172500X0.147500X-0.172500X0*%
%ADD62RoundRect,0.225000X0.375000X-0.225000X0.375000X0.225000X-0.375000X0.225000X-0.375000X-0.225000X0*%
%ADD63R,1.300000X0.300000*%
%ADD64R,2.200000X1.800000*%
%ADD65RoundRect,0.250000X-0.312500X-0.625000X0.312500X-0.625000X0.312500X0.625000X-0.312500X0.625000X0*%
%ADD66RoundRect,0.250000X0.325000X0.650000X-0.325000X0.650000X-0.325000X-0.650000X0.325000X-0.650000X0*%
%ADD67R,0.300000X0.550000*%
%ADD68R,0.400000X0.550000*%
%ADD69RoundRect,0.218750X0.256250X-0.218750X0.256250X0.218750X-0.256250X0.218750X-0.256250X-0.218750X0*%
%ADD70R,3.200000X3.200000*%
%ADD71R,0.700000X0.640000*%
%ADD72R,0.550000X1.550000*%
%ADD73R,1.850000X0.570000*%
%ADD74R,0.820000X0.520000*%
%ADD75R,1.150000X0.520000*%
%ADD76R,1.700000X1.010000*%
%ADD77R,0.450000X1.300000*%
%ADD78R,1.960000X0.570000*%
%ADD79R,1.650000X0.520000*%
%ADD80R,1.450000X0.570000*%
G04 APERTURE END LIST*
D10*
%TO.C,SP3*%
X21643000Y-24415000D02*
X21668000Y-24510000D01*
X21723000Y-24680000D01*
X21873000Y-24985000D01*
X21998000Y-25165000D01*
X22103000Y-25290000D01*
X22208000Y-25395000D01*
X22338000Y-25505000D01*
X22458000Y-25590000D01*
X22573000Y-25660000D01*
X22713000Y-25730000D01*
X22818000Y-25775000D01*
X22903000Y-25805000D01*
X23018000Y-25840000D01*
X23133000Y-25865000D01*
X23178000Y-25875000D01*
X23178000Y-26905000D01*
X23113000Y-26895000D01*
X22958000Y-26870000D01*
X22798000Y-26835000D01*
X22618000Y-26785000D01*
X22408000Y-26710000D01*
X22263000Y-26645000D01*
X22083000Y-26555000D01*
X21973000Y-26490000D01*
X21888000Y-26435000D01*
X21793000Y-26370000D01*
X21718000Y-26315000D01*
X21613000Y-26230000D01*
X21538000Y-26165000D01*
X21468000Y-26100000D01*
X21388000Y-26020000D01*
X21268000Y-25885000D01*
X21178000Y-25775000D01*
X21103000Y-25670000D01*
X20983000Y-25485000D01*
X20923000Y-25375000D01*
X20843000Y-25215000D01*
X20783000Y-25075000D01*
X20728000Y-24925000D01*
X20688000Y-24790000D01*
X20653000Y-24655000D01*
X20638000Y-24585000D01*
X20623000Y-24500000D01*
X20608000Y-24405000D01*
X20598000Y-24320000D01*
X21628000Y-24320000D01*
X21643000Y-24415000D01*
G36*
X21643000Y-24415000D02*
G01*
X21668000Y-24510000D01*
X21723000Y-24680000D01*
X21873000Y-24985000D01*
X21998000Y-25165000D01*
X22103000Y-25290000D01*
X22208000Y-25395000D01*
X22338000Y-25505000D01*
X22458000Y-25590000D01*
X22573000Y-25660000D01*
X22713000Y-25730000D01*
X22818000Y-25775000D01*
X22903000Y-25805000D01*
X23018000Y-25840000D01*
X23133000Y-25865000D01*
X23178000Y-25875000D01*
X23178000Y-26905000D01*
X23113000Y-26895000D01*
X22958000Y-26870000D01*
X22798000Y-26835000D01*
X22618000Y-26785000D01*
X22408000Y-26710000D01*
X22263000Y-26645000D01*
X22083000Y-26555000D01*
X21973000Y-26490000D01*
X21888000Y-26435000D01*
X21793000Y-26370000D01*
X21718000Y-26315000D01*
X21613000Y-26230000D01*
X21538000Y-26165000D01*
X21468000Y-26100000D01*
X21388000Y-26020000D01*
X21268000Y-25885000D01*
X21178000Y-25775000D01*
X21103000Y-25670000D01*
X20983000Y-25485000D01*
X20923000Y-25375000D01*
X20843000Y-25215000D01*
X20783000Y-25075000D01*
X20728000Y-24925000D01*
X20688000Y-24790000D01*
X20653000Y-24655000D01*
X20638000Y-24585000D01*
X20623000Y-24500000D01*
X20608000Y-24405000D01*
X20598000Y-24320000D01*
X21628000Y-24320000D01*
X21643000Y-24415000D01*
G37*
X23180000Y-22130000D02*
X23085000Y-22145000D01*
X22990000Y-22170000D01*
X22820000Y-22225000D01*
X22515000Y-22375000D01*
X22335000Y-22500000D01*
X22210000Y-22605000D01*
X22105000Y-22710000D01*
X21995000Y-22840000D01*
X21910000Y-22960000D01*
X21840000Y-23075000D01*
X21770000Y-23215000D01*
X21725000Y-23320000D01*
X21695000Y-23405000D01*
X21660000Y-23520000D01*
X21635000Y-23635000D01*
X21625000Y-23680000D01*
X20595000Y-23680000D01*
X20605000Y-23615000D01*
X20630000Y-23460000D01*
X20665000Y-23300000D01*
X20715000Y-23120000D01*
X20790000Y-22910000D01*
X20855000Y-22765000D01*
X20945000Y-22585000D01*
X21010000Y-22475000D01*
X21065000Y-22390000D01*
X21130000Y-22295000D01*
X21185000Y-22220000D01*
X21270000Y-22115000D01*
X21335000Y-22040000D01*
X21400000Y-21970000D01*
X21480000Y-21890000D01*
X21615000Y-21770000D01*
X21725000Y-21680000D01*
X21830000Y-21605000D01*
X22015000Y-21485000D01*
X22125000Y-21425000D01*
X22285000Y-21345000D01*
X22425000Y-21285000D01*
X22575000Y-21230000D01*
X22710000Y-21190000D01*
X22845000Y-21155000D01*
X22915000Y-21140000D01*
X23000000Y-21125000D01*
X23095000Y-21110000D01*
X23180000Y-21100000D01*
X23180000Y-22130000D01*
G36*
X23180000Y-22130000D02*
G01*
X23085000Y-22145000D01*
X22990000Y-22170000D01*
X22820000Y-22225000D01*
X22515000Y-22375000D01*
X22335000Y-22500000D01*
X22210000Y-22605000D01*
X22105000Y-22710000D01*
X21995000Y-22840000D01*
X21910000Y-22960000D01*
X21840000Y-23075000D01*
X21770000Y-23215000D01*
X21725000Y-23320000D01*
X21695000Y-23405000D01*
X21660000Y-23520000D01*
X21635000Y-23635000D01*
X21625000Y-23680000D01*
X20595000Y-23680000D01*
X20605000Y-23615000D01*
X20630000Y-23460000D01*
X20665000Y-23300000D01*
X20715000Y-23120000D01*
X20790000Y-22910000D01*
X20855000Y-22765000D01*
X20945000Y-22585000D01*
X21010000Y-22475000D01*
X21065000Y-22390000D01*
X21130000Y-22295000D01*
X21185000Y-22220000D01*
X21270000Y-22115000D01*
X21335000Y-22040000D01*
X21400000Y-21970000D01*
X21480000Y-21890000D01*
X21615000Y-21770000D01*
X21725000Y-21680000D01*
X21830000Y-21605000D01*
X22015000Y-21485000D01*
X22125000Y-21425000D01*
X22285000Y-21345000D01*
X22425000Y-21285000D01*
X22575000Y-21230000D01*
X22710000Y-21190000D01*
X22845000Y-21155000D01*
X22915000Y-21140000D01*
X23000000Y-21125000D01*
X23095000Y-21110000D01*
X23180000Y-21100000D01*
X23180000Y-22130000D01*
G37*
X26395000Y-24386000D02*
X26370000Y-24541000D01*
X26335000Y-24701000D01*
X26285000Y-24881000D01*
X26210000Y-25091000D01*
X26145000Y-25236000D01*
X26055000Y-25416000D01*
X25990000Y-25526000D01*
X25935000Y-25611000D01*
X25870000Y-25706000D01*
X25815000Y-25781000D01*
X25730000Y-25886000D01*
X25665000Y-25961000D01*
X25600000Y-26031000D01*
X25520000Y-26111000D01*
X25385000Y-26231000D01*
X25275000Y-26321000D01*
X25170000Y-26396000D01*
X24985000Y-26516000D01*
X24875000Y-26576000D01*
X24715000Y-26656000D01*
X24575000Y-26716000D01*
X24425000Y-26771000D01*
X24290000Y-26811000D01*
X24155000Y-26846000D01*
X24085000Y-26861000D01*
X24000000Y-26876000D01*
X23905000Y-26891000D01*
X23820000Y-26901000D01*
X23820000Y-25871000D01*
X23915000Y-25856000D01*
X24010000Y-25831000D01*
X24180000Y-25776000D01*
X24485000Y-25626000D01*
X24665000Y-25501000D01*
X24790000Y-25396000D01*
X24895000Y-25291000D01*
X25005000Y-25161000D01*
X25090000Y-25041000D01*
X25160000Y-24926000D01*
X25230000Y-24786000D01*
X25275000Y-24681000D01*
X25305000Y-24596000D01*
X25340000Y-24481000D01*
X25365000Y-24366000D01*
X25375000Y-24321000D01*
X26405000Y-24321000D01*
X26395000Y-24386000D01*
G36*
X26395000Y-24386000D02*
G01*
X26370000Y-24541000D01*
X26335000Y-24701000D01*
X26285000Y-24881000D01*
X26210000Y-25091000D01*
X26145000Y-25236000D01*
X26055000Y-25416000D01*
X25990000Y-25526000D01*
X25935000Y-25611000D01*
X25870000Y-25706000D01*
X25815000Y-25781000D01*
X25730000Y-25886000D01*
X25665000Y-25961000D01*
X25600000Y-26031000D01*
X25520000Y-26111000D01*
X25385000Y-26231000D01*
X25275000Y-26321000D01*
X25170000Y-26396000D01*
X24985000Y-26516000D01*
X24875000Y-26576000D01*
X24715000Y-26656000D01*
X24575000Y-26716000D01*
X24425000Y-26771000D01*
X24290000Y-26811000D01*
X24155000Y-26846000D01*
X24085000Y-26861000D01*
X24000000Y-26876000D01*
X23905000Y-26891000D01*
X23820000Y-26901000D01*
X23820000Y-25871000D01*
X23915000Y-25856000D01*
X24010000Y-25831000D01*
X24180000Y-25776000D01*
X24485000Y-25626000D01*
X24665000Y-25501000D01*
X24790000Y-25396000D01*
X24895000Y-25291000D01*
X25005000Y-25161000D01*
X25090000Y-25041000D01*
X25160000Y-24926000D01*
X25230000Y-24786000D01*
X25275000Y-24681000D01*
X25305000Y-24596000D01*
X25340000Y-24481000D01*
X25365000Y-24366000D01*
X25375000Y-24321000D01*
X26405000Y-24321000D01*
X26395000Y-24386000D01*
G37*
X23885401Y-21107903D02*
X24040401Y-21132903D01*
X24200401Y-21167903D01*
X24380401Y-21217903D01*
X24590401Y-21292903D01*
X24735401Y-21357903D01*
X24915401Y-21447903D01*
X25025401Y-21512903D01*
X25110401Y-21567903D01*
X25205401Y-21632903D01*
X25280401Y-21687903D01*
X25385401Y-21772903D01*
X25460401Y-21837903D01*
X25530401Y-21902903D01*
X25610401Y-21982903D01*
X25730401Y-22117903D01*
X25820401Y-22227903D01*
X25895401Y-22332903D01*
X26015401Y-22517903D01*
X26075401Y-22627903D01*
X26155401Y-22787903D01*
X26215401Y-22927903D01*
X26270401Y-23077903D01*
X26310401Y-23212903D01*
X26345401Y-23347903D01*
X26360401Y-23417903D01*
X26375401Y-23502903D01*
X26390401Y-23597903D01*
X26400401Y-23682903D01*
X25370401Y-23682903D01*
X25355401Y-23587903D01*
X25330401Y-23492903D01*
X25275401Y-23322903D01*
X25125401Y-23017903D01*
X25000401Y-22837903D01*
X24895401Y-22712903D01*
X24790401Y-22607903D01*
X24660401Y-22497903D01*
X24540401Y-22412903D01*
X24425401Y-22342903D01*
X24285401Y-22272903D01*
X24180401Y-22227903D01*
X24095401Y-22197903D01*
X23980401Y-22162903D01*
X23865401Y-22137903D01*
X23820401Y-22127903D01*
X23820401Y-21097903D01*
X23885401Y-21107903D01*
G36*
X23885401Y-21107903D02*
G01*
X24040401Y-21132903D01*
X24200401Y-21167903D01*
X24380401Y-21217903D01*
X24590401Y-21292903D01*
X24735401Y-21357903D01*
X24915401Y-21447903D01*
X25025401Y-21512903D01*
X25110401Y-21567903D01*
X25205401Y-21632903D01*
X25280401Y-21687903D01*
X25385401Y-21772903D01*
X25460401Y-21837903D01*
X25530401Y-21902903D01*
X25610401Y-21982903D01*
X25730401Y-22117903D01*
X25820401Y-22227903D01*
X25895401Y-22332903D01*
X26015401Y-22517903D01*
X26075401Y-22627903D01*
X26155401Y-22787903D01*
X26215401Y-22927903D01*
X26270401Y-23077903D01*
X26310401Y-23212903D01*
X26345401Y-23347903D01*
X26360401Y-23417903D01*
X26375401Y-23502903D01*
X26390401Y-23597903D01*
X26400401Y-23682903D01*
X25370401Y-23682903D01*
X25355401Y-23587903D01*
X25330401Y-23492903D01*
X25275401Y-23322903D01*
X25125401Y-23017903D01*
X25000401Y-22837903D01*
X24895401Y-22712903D01*
X24790401Y-22607903D01*
X24660401Y-22497903D01*
X24540401Y-22412903D01*
X24425401Y-22342903D01*
X24285401Y-22272903D01*
X24180401Y-22227903D01*
X24095401Y-22197903D01*
X23980401Y-22162903D01*
X23865401Y-22137903D01*
X23820401Y-22127903D01*
X23820401Y-21097903D01*
X23885401Y-21107903D01*
G37*
%TO.C,SP1*%
X-11357000Y23585000D02*
X-11332000Y23490000D01*
X-11277000Y23320000D01*
X-11127000Y23015000D01*
X-11002000Y22835000D01*
X-10897000Y22710000D01*
X-10792000Y22605000D01*
X-10662000Y22495000D01*
X-10542000Y22410000D01*
X-10427000Y22340000D01*
X-10287000Y22270000D01*
X-10182000Y22225000D01*
X-10097000Y22195000D01*
X-9982000Y22160000D01*
X-9867000Y22135000D01*
X-9822000Y22125000D01*
X-9822000Y21095000D01*
X-9887000Y21105000D01*
X-10042000Y21130000D01*
X-10202000Y21165000D01*
X-10382000Y21215000D01*
X-10592000Y21290000D01*
X-10737000Y21355000D01*
X-10917000Y21445000D01*
X-11027000Y21510000D01*
X-11112000Y21565000D01*
X-11207000Y21630000D01*
X-11282000Y21685000D01*
X-11387000Y21770000D01*
X-11462000Y21835000D01*
X-11532000Y21900000D01*
X-11612000Y21980000D01*
X-11732000Y22115000D01*
X-11822000Y22225000D01*
X-11897000Y22330000D01*
X-12017000Y22515000D01*
X-12077000Y22625000D01*
X-12157000Y22785000D01*
X-12217000Y22925000D01*
X-12272000Y23075000D01*
X-12312000Y23210000D01*
X-12347000Y23345000D01*
X-12362000Y23415000D01*
X-12377000Y23500000D01*
X-12392000Y23595000D01*
X-12402000Y23680000D01*
X-11372000Y23680000D01*
X-11357000Y23585000D01*
G36*
X-11357000Y23585000D02*
G01*
X-11332000Y23490000D01*
X-11277000Y23320000D01*
X-11127000Y23015000D01*
X-11002000Y22835000D01*
X-10897000Y22710000D01*
X-10792000Y22605000D01*
X-10662000Y22495000D01*
X-10542000Y22410000D01*
X-10427000Y22340000D01*
X-10287000Y22270000D01*
X-10182000Y22225000D01*
X-10097000Y22195000D01*
X-9982000Y22160000D01*
X-9867000Y22135000D01*
X-9822000Y22125000D01*
X-9822000Y21095000D01*
X-9887000Y21105000D01*
X-10042000Y21130000D01*
X-10202000Y21165000D01*
X-10382000Y21215000D01*
X-10592000Y21290000D01*
X-10737000Y21355000D01*
X-10917000Y21445000D01*
X-11027000Y21510000D01*
X-11112000Y21565000D01*
X-11207000Y21630000D01*
X-11282000Y21685000D01*
X-11387000Y21770000D01*
X-11462000Y21835000D01*
X-11532000Y21900000D01*
X-11612000Y21980000D01*
X-11732000Y22115000D01*
X-11822000Y22225000D01*
X-11897000Y22330000D01*
X-12017000Y22515000D01*
X-12077000Y22625000D01*
X-12157000Y22785000D01*
X-12217000Y22925000D01*
X-12272000Y23075000D01*
X-12312000Y23210000D01*
X-12347000Y23345000D01*
X-12362000Y23415000D01*
X-12377000Y23500000D01*
X-12392000Y23595000D01*
X-12402000Y23680000D01*
X-11372000Y23680000D01*
X-11357000Y23585000D01*
G37*
X-9820000Y25870000D02*
X-9915000Y25855000D01*
X-10010000Y25830000D01*
X-10180000Y25775000D01*
X-10485000Y25625000D01*
X-10665000Y25500000D01*
X-10790000Y25395000D01*
X-10895000Y25290000D01*
X-11005000Y25160000D01*
X-11090000Y25040000D01*
X-11160000Y24925000D01*
X-11230000Y24785000D01*
X-11275000Y24680000D01*
X-11305000Y24595000D01*
X-11340000Y24480000D01*
X-11365000Y24365000D01*
X-11375000Y24320000D01*
X-12405000Y24320000D01*
X-12395000Y24385000D01*
X-12370000Y24540000D01*
X-12335000Y24700000D01*
X-12285000Y24880000D01*
X-12210000Y25090000D01*
X-12145000Y25235000D01*
X-12055000Y25415000D01*
X-11990000Y25525000D01*
X-11935000Y25610000D01*
X-11870000Y25705000D01*
X-11815000Y25780000D01*
X-11730000Y25885000D01*
X-11665000Y25960000D01*
X-11600000Y26030000D01*
X-11520000Y26110000D01*
X-11385000Y26230000D01*
X-11275000Y26320000D01*
X-11170000Y26395000D01*
X-10985000Y26515000D01*
X-10875000Y26575000D01*
X-10715000Y26655000D01*
X-10575000Y26715000D01*
X-10425000Y26770000D01*
X-10290000Y26810000D01*
X-10155000Y26845000D01*
X-10085000Y26860000D01*
X-10000000Y26875000D01*
X-9905000Y26890000D01*
X-9820000Y26900000D01*
X-9820000Y25870000D01*
G36*
X-9820000Y25870000D02*
G01*
X-9915000Y25855000D01*
X-10010000Y25830000D01*
X-10180000Y25775000D01*
X-10485000Y25625000D01*
X-10665000Y25500000D01*
X-10790000Y25395000D01*
X-10895000Y25290000D01*
X-11005000Y25160000D01*
X-11090000Y25040000D01*
X-11160000Y24925000D01*
X-11230000Y24785000D01*
X-11275000Y24680000D01*
X-11305000Y24595000D01*
X-11340000Y24480000D01*
X-11365000Y24365000D01*
X-11375000Y24320000D01*
X-12405000Y24320000D01*
X-12395000Y24385000D01*
X-12370000Y24540000D01*
X-12335000Y24700000D01*
X-12285000Y24880000D01*
X-12210000Y25090000D01*
X-12145000Y25235000D01*
X-12055000Y25415000D01*
X-11990000Y25525000D01*
X-11935000Y25610000D01*
X-11870000Y25705000D01*
X-11815000Y25780000D01*
X-11730000Y25885000D01*
X-11665000Y25960000D01*
X-11600000Y26030000D01*
X-11520000Y26110000D01*
X-11385000Y26230000D01*
X-11275000Y26320000D01*
X-11170000Y26395000D01*
X-10985000Y26515000D01*
X-10875000Y26575000D01*
X-10715000Y26655000D01*
X-10575000Y26715000D01*
X-10425000Y26770000D01*
X-10290000Y26810000D01*
X-10155000Y26845000D01*
X-10085000Y26860000D01*
X-10000000Y26875000D01*
X-9905000Y26890000D01*
X-9820000Y26900000D01*
X-9820000Y25870000D01*
G37*
X-6605000Y23614000D02*
X-6630000Y23459000D01*
X-6665000Y23299000D01*
X-6715000Y23119000D01*
X-6790000Y22909000D01*
X-6855000Y22764000D01*
X-6945000Y22584000D01*
X-7010000Y22474000D01*
X-7065000Y22389000D01*
X-7130000Y22294000D01*
X-7185000Y22219000D01*
X-7270000Y22114000D01*
X-7335000Y22039000D01*
X-7400000Y21969000D01*
X-7480000Y21889000D01*
X-7615000Y21769000D01*
X-7725000Y21679000D01*
X-7830000Y21604000D01*
X-8015000Y21484000D01*
X-8125000Y21424000D01*
X-8285000Y21344000D01*
X-8425000Y21284000D01*
X-8575000Y21229000D01*
X-8710000Y21189000D01*
X-8845000Y21154000D01*
X-8915000Y21139000D01*
X-9000000Y21124000D01*
X-9095000Y21109000D01*
X-9180000Y21099000D01*
X-9180000Y22129000D01*
X-9085000Y22144000D01*
X-8990000Y22169000D01*
X-8820000Y22224000D01*
X-8515000Y22374000D01*
X-8335000Y22499000D01*
X-8210000Y22604000D01*
X-8105000Y22709000D01*
X-7995000Y22839000D01*
X-7910000Y22959000D01*
X-7840000Y23074000D01*
X-7770000Y23214000D01*
X-7725000Y23319000D01*
X-7695000Y23404000D01*
X-7660000Y23519000D01*
X-7635000Y23634000D01*
X-7625000Y23679000D01*
X-6595000Y23679000D01*
X-6605000Y23614000D01*
G36*
X-6605000Y23614000D02*
G01*
X-6630000Y23459000D01*
X-6665000Y23299000D01*
X-6715000Y23119000D01*
X-6790000Y22909000D01*
X-6855000Y22764000D01*
X-6945000Y22584000D01*
X-7010000Y22474000D01*
X-7065000Y22389000D01*
X-7130000Y22294000D01*
X-7185000Y22219000D01*
X-7270000Y22114000D01*
X-7335000Y22039000D01*
X-7400000Y21969000D01*
X-7480000Y21889000D01*
X-7615000Y21769000D01*
X-7725000Y21679000D01*
X-7830000Y21604000D01*
X-8015000Y21484000D01*
X-8125000Y21424000D01*
X-8285000Y21344000D01*
X-8425000Y21284000D01*
X-8575000Y21229000D01*
X-8710000Y21189000D01*
X-8845000Y21154000D01*
X-8915000Y21139000D01*
X-9000000Y21124000D01*
X-9095000Y21109000D01*
X-9180000Y21099000D01*
X-9180000Y22129000D01*
X-9085000Y22144000D01*
X-8990000Y22169000D01*
X-8820000Y22224000D01*
X-8515000Y22374000D01*
X-8335000Y22499000D01*
X-8210000Y22604000D01*
X-8105000Y22709000D01*
X-7995000Y22839000D01*
X-7910000Y22959000D01*
X-7840000Y23074000D01*
X-7770000Y23214000D01*
X-7725000Y23319000D01*
X-7695000Y23404000D01*
X-7660000Y23519000D01*
X-7635000Y23634000D01*
X-7625000Y23679000D01*
X-6595000Y23679000D01*
X-6605000Y23614000D01*
G37*
X-9114599Y26892097D02*
X-8959599Y26867097D01*
X-8799599Y26832097D01*
X-8619599Y26782097D01*
X-8409599Y26707097D01*
X-8264599Y26642097D01*
X-8084599Y26552097D01*
X-7974599Y26487097D01*
X-7889599Y26432097D01*
X-7794599Y26367097D01*
X-7719599Y26312097D01*
X-7614599Y26227097D01*
X-7539599Y26162097D01*
X-7469599Y26097097D01*
X-7389599Y26017097D01*
X-7269599Y25882097D01*
X-7179599Y25772097D01*
X-7104599Y25667097D01*
X-6984599Y25482097D01*
X-6924599Y25372097D01*
X-6844599Y25212097D01*
X-6784599Y25072097D01*
X-6729599Y24922097D01*
X-6689599Y24787097D01*
X-6654599Y24652097D01*
X-6639599Y24582097D01*
X-6624599Y24497097D01*
X-6609599Y24402097D01*
X-6599599Y24317097D01*
X-7629599Y24317097D01*
X-7644599Y24412097D01*
X-7669599Y24507097D01*
X-7724599Y24677097D01*
X-7874599Y24982097D01*
X-7999599Y25162097D01*
X-8104599Y25287097D01*
X-8209599Y25392097D01*
X-8339599Y25502097D01*
X-8459599Y25587097D01*
X-8574599Y25657097D01*
X-8714599Y25727097D01*
X-8819599Y25772097D01*
X-8904599Y25802097D01*
X-9019599Y25837097D01*
X-9134599Y25862097D01*
X-9179599Y25872097D01*
X-9179599Y26902097D01*
X-9114599Y26892097D01*
G36*
X-9114599Y26892097D02*
G01*
X-8959599Y26867097D01*
X-8799599Y26832097D01*
X-8619599Y26782097D01*
X-8409599Y26707097D01*
X-8264599Y26642097D01*
X-8084599Y26552097D01*
X-7974599Y26487097D01*
X-7889599Y26432097D01*
X-7794599Y26367097D01*
X-7719599Y26312097D01*
X-7614599Y26227097D01*
X-7539599Y26162097D01*
X-7469599Y26097097D01*
X-7389599Y26017097D01*
X-7269599Y25882097D01*
X-7179599Y25772097D01*
X-7104599Y25667097D01*
X-6984599Y25482097D01*
X-6924599Y25372097D01*
X-6844599Y25212097D01*
X-6784599Y25072097D01*
X-6729599Y24922097D01*
X-6689599Y24787097D01*
X-6654599Y24652097D01*
X-6639599Y24582097D01*
X-6624599Y24497097D01*
X-6609599Y24402097D01*
X-6599599Y24317097D01*
X-7629599Y24317097D01*
X-7644599Y24412097D01*
X-7669599Y24507097D01*
X-7724599Y24677097D01*
X-7874599Y24982097D01*
X-7999599Y25162097D01*
X-8104599Y25287097D01*
X-8209599Y25392097D01*
X-8339599Y25502097D01*
X-8459599Y25587097D01*
X-8574599Y25657097D01*
X-8714599Y25727097D01*
X-8819599Y25772097D01*
X-8904599Y25802097D01*
X-9019599Y25837097D01*
X-9134599Y25862097D01*
X-9179599Y25872097D01*
X-9179599Y26902097D01*
X-9114599Y26892097D01*
G37*
%TO.C,SP2*%
X21643000Y23585000D02*
X21668000Y23490000D01*
X21723000Y23320000D01*
X21873000Y23015000D01*
X21998000Y22835000D01*
X22103000Y22710000D01*
X22208000Y22605000D01*
X22338000Y22495000D01*
X22458000Y22410000D01*
X22573000Y22340000D01*
X22713000Y22270000D01*
X22818000Y22225000D01*
X22903000Y22195000D01*
X23018000Y22160000D01*
X23133000Y22135000D01*
X23178000Y22125000D01*
X23178000Y21095000D01*
X23113000Y21105000D01*
X22958000Y21130000D01*
X22798000Y21165000D01*
X22618000Y21215000D01*
X22408000Y21290000D01*
X22263000Y21355000D01*
X22083000Y21445000D01*
X21973000Y21510000D01*
X21888000Y21565000D01*
X21793000Y21630000D01*
X21718000Y21685000D01*
X21613000Y21770000D01*
X21538000Y21835000D01*
X21468000Y21900000D01*
X21388000Y21980000D01*
X21268000Y22115000D01*
X21178000Y22225000D01*
X21103000Y22330000D01*
X20983000Y22515000D01*
X20923000Y22625000D01*
X20843000Y22785000D01*
X20783000Y22925000D01*
X20728000Y23075000D01*
X20688000Y23210000D01*
X20653000Y23345000D01*
X20638000Y23415000D01*
X20623000Y23500000D01*
X20608000Y23595000D01*
X20598000Y23680000D01*
X21628000Y23680000D01*
X21643000Y23585000D01*
G36*
X21643000Y23585000D02*
G01*
X21668000Y23490000D01*
X21723000Y23320000D01*
X21873000Y23015000D01*
X21998000Y22835000D01*
X22103000Y22710000D01*
X22208000Y22605000D01*
X22338000Y22495000D01*
X22458000Y22410000D01*
X22573000Y22340000D01*
X22713000Y22270000D01*
X22818000Y22225000D01*
X22903000Y22195000D01*
X23018000Y22160000D01*
X23133000Y22135000D01*
X23178000Y22125000D01*
X23178000Y21095000D01*
X23113000Y21105000D01*
X22958000Y21130000D01*
X22798000Y21165000D01*
X22618000Y21215000D01*
X22408000Y21290000D01*
X22263000Y21355000D01*
X22083000Y21445000D01*
X21973000Y21510000D01*
X21888000Y21565000D01*
X21793000Y21630000D01*
X21718000Y21685000D01*
X21613000Y21770000D01*
X21538000Y21835000D01*
X21468000Y21900000D01*
X21388000Y21980000D01*
X21268000Y22115000D01*
X21178000Y22225000D01*
X21103000Y22330000D01*
X20983000Y22515000D01*
X20923000Y22625000D01*
X20843000Y22785000D01*
X20783000Y22925000D01*
X20728000Y23075000D01*
X20688000Y23210000D01*
X20653000Y23345000D01*
X20638000Y23415000D01*
X20623000Y23500000D01*
X20608000Y23595000D01*
X20598000Y23680000D01*
X21628000Y23680000D01*
X21643000Y23585000D01*
G37*
X23180000Y25870000D02*
X23085000Y25855000D01*
X22990000Y25830000D01*
X22820000Y25775000D01*
X22515000Y25625000D01*
X22335000Y25500000D01*
X22210000Y25395000D01*
X22105000Y25290000D01*
X21995000Y25160000D01*
X21910000Y25040000D01*
X21840000Y24925000D01*
X21770000Y24785000D01*
X21725000Y24680000D01*
X21695000Y24595000D01*
X21660000Y24480000D01*
X21635000Y24365000D01*
X21625000Y24320000D01*
X20595000Y24320000D01*
X20605000Y24385000D01*
X20630000Y24540000D01*
X20665000Y24700000D01*
X20715000Y24880000D01*
X20790000Y25090000D01*
X20855000Y25235000D01*
X20945000Y25415000D01*
X21010000Y25525000D01*
X21065000Y25610000D01*
X21130000Y25705000D01*
X21185000Y25780000D01*
X21270000Y25885000D01*
X21335000Y25960000D01*
X21400000Y26030000D01*
X21480000Y26110000D01*
X21615000Y26230000D01*
X21725000Y26320000D01*
X21830000Y26395000D01*
X22015000Y26515000D01*
X22125000Y26575000D01*
X22285000Y26655000D01*
X22425000Y26715000D01*
X22575000Y26770000D01*
X22710000Y26810000D01*
X22845000Y26845000D01*
X22915000Y26860000D01*
X23000000Y26875000D01*
X23095000Y26890000D01*
X23180000Y26900000D01*
X23180000Y25870000D01*
G36*
X23180000Y25870000D02*
G01*
X23085000Y25855000D01*
X22990000Y25830000D01*
X22820000Y25775000D01*
X22515000Y25625000D01*
X22335000Y25500000D01*
X22210000Y25395000D01*
X22105000Y25290000D01*
X21995000Y25160000D01*
X21910000Y25040000D01*
X21840000Y24925000D01*
X21770000Y24785000D01*
X21725000Y24680000D01*
X21695000Y24595000D01*
X21660000Y24480000D01*
X21635000Y24365000D01*
X21625000Y24320000D01*
X20595000Y24320000D01*
X20605000Y24385000D01*
X20630000Y24540000D01*
X20665000Y24700000D01*
X20715000Y24880000D01*
X20790000Y25090000D01*
X20855000Y25235000D01*
X20945000Y25415000D01*
X21010000Y25525000D01*
X21065000Y25610000D01*
X21130000Y25705000D01*
X21185000Y25780000D01*
X21270000Y25885000D01*
X21335000Y25960000D01*
X21400000Y26030000D01*
X21480000Y26110000D01*
X21615000Y26230000D01*
X21725000Y26320000D01*
X21830000Y26395000D01*
X22015000Y26515000D01*
X22125000Y26575000D01*
X22285000Y26655000D01*
X22425000Y26715000D01*
X22575000Y26770000D01*
X22710000Y26810000D01*
X22845000Y26845000D01*
X22915000Y26860000D01*
X23000000Y26875000D01*
X23095000Y26890000D01*
X23180000Y26900000D01*
X23180000Y25870000D01*
G37*
X26395000Y23614000D02*
X26370000Y23459000D01*
X26335000Y23299000D01*
X26285000Y23119000D01*
X26210000Y22909000D01*
X26145000Y22764000D01*
X26055000Y22584000D01*
X25990000Y22474000D01*
X25935000Y22389000D01*
X25870000Y22294000D01*
X25815000Y22219000D01*
X25730000Y22114000D01*
X25665000Y22039000D01*
X25600000Y21969000D01*
X25520000Y21889000D01*
X25385000Y21769000D01*
X25275000Y21679000D01*
X25170000Y21604000D01*
X24985000Y21484000D01*
X24875000Y21424000D01*
X24715000Y21344000D01*
X24575000Y21284000D01*
X24425000Y21229000D01*
X24290000Y21189000D01*
X24155000Y21154000D01*
X24085000Y21139000D01*
X24000000Y21124000D01*
X23905000Y21109000D01*
X23820000Y21099000D01*
X23820000Y22129000D01*
X23915000Y22144000D01*
X24010000Y22169000D01*
X24180000Y22224000D01*
X24485000Y22374000D01*
X24665000Y22499000D01*
X24790000Y22604000D01*
X24895000Y22709000D01*
X25005000Y22839000D01*
X25090000Y22959000D01*
X25160000Y23074000D01*
X25230000Y23214000D01*
X25275000Y23319000D01*
X25305000Y23404000D01*
X25340000Y23519000D01*
X25365000Y23634000D01*
X25375000Y23679000D01*
X26405000Y23679000D01*
X26395000Y23614000D01*
G36*
X26395000Y23614000D02*
G01*
X26370000Y23459000D01*
X26335000Y23299000D01*
X26285000Y23119000D01*
X26210000Y22909000D01*
X26145000Y22764000D01*
X26055000Y22584000D01*
X25990000Y22474000D01*
X25935000Y22389000D01*
X25870000Y22294000D01*
X25815000Y22219000D01*
X25730000Y22114000D01*
X25665000Y22039000D01*
X25600000Y21969000D01*
X25520000Y21889000D01*
X25385000Y21769000D01*
X25275000Y21679000D01*
X25170000Y21604000D01*
X24985000Y21484000D01*
X24875000Y21424000D01*
X24715000Y21344000D01*
X24575000Y21284000D01*
X24425000Y21229000D01*
X24290000Y21189000D01*
X24155000Y21154000D01*
X24085000Y21139000D01*
X24000000Y21124000D01*
X23905000Y21109000D01*
X23820000Y21099000D01*
X23820000Y22129000D01*
X23915000Y22144000D01*
X24010000Y22169000D01*
X24180000Y22224000D01*
X24485000Y22374000D01*
X24665000Y22499000D01*
X24790000Y22604000D01*
X24895000Y22709000D01*
X25005000Y22839000D01*
X25090000Y22959000D01*
X25160000Y23074000D01*
X25230000Y23214000D01*
X25275000Y23319000D01*
X25305000Y23404000D01*
X25340000Y23519000D01*
X25365000Y23634000D01*
X25375000Y23679000D01*
X26405000Y23679000D01*
X26395000Y23614000D01*
G37*
X23885401Y26892097D02*
X24040401Y26867097D01*
X24200401Y26832097D01*
X24380401Y26782097D01*
X24590401Y26707097D01*
X24735401Y26642097D01*
X24915401Y26552097D01*
X25025401Y26487097D01*
X25110401Y26432097D01*
X25205401Y26367097D01*
X25280401Y26312097D01*
X25385401Y26227097D01*
X25460401Y26162097D01*
X25530401Y26097097D01*
X25610401Y26017097D01*
X25730401Y25882097D01*
X25820401Y25772097D01*
X25895401Y25667097D01*
X26015401Y25482097D01*
X26075401Y25372097D01*
X26155401Y25212097D01*
X26215401Y25072097D01*
X26270401Y24922097D01*
X26310401Y24787097D01*
X26345401Y24652097D01*
X26360401Y24582097D01*
X26375401Y24497097D01*
X26390401Y24402097D01*
X26400401Y24317097D01*
X25370401Y24317097D01*
X25355401Y24412097D01*
X25330401Y24507097D01*
X25275401Y24677097D01*
X25125401Y24982097D01*
X25000401Y25162097D01*
X24895401Y25287097D01*
X24790401Y25392097D01*
X24660401Y25502097D01*
X24540401Y25587097D01*
X24425401Y25657097D01*
X24285401Y25727097D01*
X24180401Y25772097D01*
X24095401Y25802097D01*
X23980401Y25837097D01*
X23865401Y25862097D01*
X23820401Y25872097D01*
X23820401Y26902097D01*
X23885401Y26892097D01*
G36*
X23885401Y26892097D02*
G01*
X24040401Y26867097D01*
X24200401Y26832097D01*
X24380401Y26782097D01*
X24590401Y26707097D01*
X24735401Y26642097D01*
X24915401Y26552097D01*
X25025401Y26487097D01*
X25110401Y26432097D01*
X25205401Y26367097D01*
X25280401Y26312097D01*
X25385401Y26227097D01*
X25460401Y26162097D01*
X25530401Y26097097D01*
X25610401Y26017097D01*
X25730401Y25882097D01*
X25820401Y25772097D01*
X25895401Y25667097D01*
X26015401Y25482097D01*
X26075401Y25372097D01*
X26155401Y25212097D01*
X26215401Y25072097D01*
X26270401Y24922097D01*
X26310401Y24787097D01*
X26345401Y24652097D01*
X26360401Y24582097D01*
X26375401Y24497097D01*
X26390401Y24402097D01*
X26400401Y24317097D01*
X25370401Y24317097D01*
X25355401Y24412097D01*
X25330401Y24507097D01*
X25275401Y24677097D01*
X25125401Y24982097D01*
X25000401Y25162097D01*
X24895401Y25287097D01*
X24790401Y25392097D01*
X24660401Y25502097D01*
X24540401Y25587097D01*
X24425401Y25657097D01*
X24285401Y25727097D01*
X24180401Y25772097D01*
X24095401Y25802097D01*
X23980401Y25837097D01*
X23865401Y25862097D01*
X23820401Y25872097D01*
X23820401Y26902097D01*
X23885401Y26892097D01*
G37*
%TO.C,SP4*%
X-11357000Y-24415000D02*
X-11332000Y-24510000D01*
X-11277000Y-24680000D01*
X-11127000Y-24985000D01*
X-11002000Y-25165000D01*
X-10897000Y-25290000D01*
X-10792000Y-25395000D01*
X-10662000Y-25505000D01*
X-10542000Y-25590000D01*
X-10427000Y-25660000D01*
X-10287000Y-25730000D01*
X-10182000Y-25775000D01*
X-10097000Y-25805000D01*
X-9982000Y-25840000D01*
X-9867000Y-25865000D01*
X-9822000Y-25875000D01*
X-9822000Y-26905000D01*
X-9887000Y-26895000D01*
X-10042000Y-26870000D01*
X-10202000Y-26835000D01*
X-10382000Y-26785000D01*
X-10592000Y-26710000D01*
X-10737000Y-26645000D01*
X-10917000Y-26555000D01*
X-11027000Y-26490000D01*
X-11112000Y-26435000D01*
X-11207000Y-26370000D01*
X-11282000Y-26315000D01*
X-11387000Y-26230000D01*
X-11462000Y-26165000D01*
X-11532000Y-26100000D01*
X-11612000Y-26020000D01*
X-11732000Y-25885000D01*
X-11822000Y-25775000D01*
X-11897000Y-25670000D01*
X-12017000Y-25485000D01*
X-12077000Y-25375000D01*
X-12157000Y-25215000D01*
X-12217000Y-25075000D01*
X-12272000Y-24925000D01*
X-12312000Y-24790000D01*
X-12347000Y-24655000D01*
X-12362000Y-24585000D01*
X-12377000Y-24500000D01*
X-12392000Y-24405000D01*
X-12402000Y-24320000D01*
X-11372000Y-24320000D01*
X-11357000Y-24415000D01*
G36*
X-11357000Y-24415000D02*
G01*
X-11332000Y-24510000D01*
X-11277000Y-24680000D01*
X-11127000Y-24985000D01*
X-11002000Y-25165000D01*
X-10897000Y-25290000D01*
X-10792000Y-25395000D01*
X-10662000Y-25505000D01*
X-10542000Y-25590000D01*
X-10427000Y-25660000D01*
X-10287000Y-25730000D01*
X-10182000Y-25775000D01*
X-10097000Y-25805000D01*
X-9982000Y-25840000D01*
X-9867000Y-25865000D01*
X-9822000Y-25875000D01*
X-9822000Y-26905000D01*
X-9887000Y-26895000D01*
X-10042000Y-26870000D01*
X-10202000Y-26835000D01*
X-10382000Y-26785000D01*
X-10592000Y-26710000D01*
X-10737000Y-26645000D01*
X-10917000Y-26555000D01*
X-11027000Y-26490000D01*
X-11112000Y-26435000D01*
X-11207000Y-26370000D01*
X-11282000Y-26315000D01*
X-11387000Y-26230000D01*
X-11462000Y-26165000D01*
X-11532000Y-26100000D01*
X-11612000Y-26020000D01*
X-11732000Y-25885000D01*
X-11822000Y-25775000D01*
X-11897000Y-25670000D01*
X-12017000Y-25485000D01*
X-12077000Y-25375000D01*
X-12157000Y-25215000D01*
X-12217000Y-25075000D01*
X-12272000Y-24925000D01*
X-12312000Y-24790000D01*
X-12347000Y-24655000D01*
X-12362000Y-24585000D01*
X-12377000Y-24500000D01*
X-12392000Y-24405000D01*
X-12402000Y-24320000D01*
X-11372000Y-24320000D01*
X-11357000Y-24415000D01*
G37*
X-9820000Y-22130000D02*
X-9915000Y-22145000D01*
X-10010000Y-22170000D01*
X-10180000Y-22225000D01*
X-10485000Y-22375000D01*
X-10665000Y-22500000D01*
X-10790000Y-22605000D01*
X-10895000Y-22710000D01*
X-11005000Y-22840000D01*
X-11090000Y-22960000D01*
X-11160000Y-23075000D01*
X-11230000Y-23215000D01*
X-11275000Y-23320000D01*
X-11305000Y-23405000D01*
X-11340000Y-23520000D01*
X-11365000Y-23635000D01*
X-11375000Y-23680000D01*
X-12405000Y-23680000D01*
X-12395000Y-23615000D01*
X-12370000Y-23460000D01*
X-12335000Y-23300000D01*
X-12285000Y-23120000D01*
X-12210000Y-22910000D01*
X-12145000Y-22765000D01*
X-12055000Y-22585000D01*
X-11990000Y-22475000D01*
X-11935000Y-22390000D01*
X-11870000Y-22295000D01*
X-11815000Y-22220000D01*
X-11730000Y-22115000D01*
X-11665000Y-22040000D01*
X-11600000Y-21970000D01*
X-11520000Y-21890000D01*
X-11385000Y-21770000D01*
X-11275000Y-21680000D01*
X-11170000Y-21605000D01*
X-10985000Y-21485000D01*
X-10875000Y-21425000D01*
X-10715000Y-21345000D01*
X-10575000Y-21285000D01*
X-10425000Y-21230000D01*
X-10290000Y-21190000D01*
X-10155000Y-21155000D01*
X-10085000Y-21140000D01*
X-10000000Y-21125000D01*
X-9905000Y-21110000D01*
X-9820000Y-21100000D01*
X-9820000Y-22130000D01*
G36*
X-9820000Y-22130000D02*
G01*
X-9915000Y-22145000D01*
X-10010000Y-22170000D01*
X-10180000Y-22225000D01*
X-10485000Y-22375000D01*
X-10665000Y-22500000D01*
X-10790000Y-22605000D01*
X-10895000Y-22710000D01*
X-11005000Y-22840000D01*
X-11090000Y-22960000D01*
X-11160000Y-23075000D01*
X-11230000Y-23215000D01*
X-11275000Y-23320000D01*
X-11305000Y-23405000D01*
X-11340000Y-23520000D01*
X-11365000Y-23635000D01*
X-11375000Y-23680000D01*
X-12405000Y-23680000D01*
X-12395000Y-23615000D01*
X-12370000Y-23460000D01*
X-12335000Y-23300000D01*
X-12285000Y-23120000D01*
X-12210000Y-22910000D01*
X-12145000Y-22765000D01*
X-12055000Y-22585000D01*
X-11990000Y-22475000D01*
X-11935000Y-22390000D01*
X-11870000Y-22295000D01*
X-11815000Y-22220000D01*
X-11730000Y-22115000D01*
X-11665000Y-22040000D01*
X-11600000Y-21970000D01*
X-11520000Y-21890000D01*
X-11385000Y-21770000D01*
X-11275000Y-21680000D01*
X-11170000Y-21605000D01*
X-10985000Y-21485000D01*
X-10875000Y-21425000D01*
X-10715000Y-21345000D01*
X-10575000Y-21285000D01*
X-10425000Y-21230000D01*
X-10290000Y-21190000D01*
X-10155000Y-21155000D01*
X-10085000Y-21140000D01*
X-10000000Y-21125000D01*
X-9905000Y-21110000D01*
X-9820000Y-21100000D01*
X-9820000Y-22130000D01*
G37*
X-6605000Y-24386000D02*
X-6630000Y-24541000D01*
X-6665000Y-24701000D01*
X-6715000Y-24881000D01*
X-6790000Y-25091000D01*
X-6855000Y-25236000D01*
X-6945000Y-25416000D01*
X-7010000Y-25526000D01*
X-7065000Y-25611000D01*
X-7130000Y-25706000D01*
X-7185000Y-25781000D01*
X-7270000Y-25886000D01*
X-7335000Y-25961000D01*
X-7400000Y-26031000D01*
X-7480000Y-26111000D01*
X-7615000Y-26231000D01*
X-7725000Y-26321000D01*
X-7830000Y-26396000D01*
X-8015000Y-26516000D01*
X-8125000Y-26576000D01*
X-8285000Y-26656000D01*
X-8425000Y-26716000D01*
X-8575000Y-26771000D01*
X-8710000Y-26811000D01*
X-8845000Y-26846000D01*
X-8915000Y-26861000D01*
X-9000000Y-26876000D01*
X-9095000Y-26891000D01*
X-9180000Y-26901000D01*
X-9180000Y-25871000D01*
X-9085000Y-25856000D01*
X-8990000Y-25831000D01*
X-8820000Y-25776000D01*
X-8515000Y-25626000D01*
X-8335000Y-25501000D01*
X-8210000Y-25396000D01*
X-8105000Y-25291000D01*
X-7995000Y-25161000D01*
X-7910000Y-25041000D01*
X-7840000Y-24926000D01*
X-7770000Y-24786000D01*
X-7725000Y-24681000D01*
X-7695000Y-24596000D01*
X-7660000Y-24481000D01*
X-7635000Y-24366000D01*
X-7625000Y-24321000D01*
X-6595000Y-24321000D01*
X-6605000Y-24386000D01*
G36*
X-6605000Y-24386000D02*
G01*
X-6630000Y-24541000D01*
X-6665000Y-24701000D01*
X-6715000Y-24881000D01*
X-6790000Y-25091000D01*
X-6855000Y-25236000D01*
X-6945000Y-25416000D01*
X-7010000Y-25526000D01*
X-7065000Y-25611000D01*
X-7130000Y-25706000D01*
X-7185000Y-25781000D01*
X-7270000Y-25886000D01*
X-7335000Y-25961000D01*
X-7400000Y-26031000D01*
X-7480000Y-26111000D01*
X-7615000Y-26231000D01*
X-7725000Y-26321000D01*
X-7830000Y-26396000D01*
X-8015000Y-26516000D01*
X-8125000Y-26576000D01*
X-8285000Y-26656000D01*
X-8425000Y-26716000D01*
X-8575000Y-26771000D01*
X-8710000Y-26811000D01*
X-8845000Y-26846000D01*
X-8915000Y-26861000D01*
X-9000000Y-26876000D01*
X-9095000Y-26891000D01*
X-9180000Y-26901000D01*
X-9180000Y-25871000D01*
X-9085000Y-25856000D01*
X-8990000Y-25831000D01*
X-8820000Y-25776000D01*
X-8515000Y-25626000D01*
X-8335000Y-25501000D01*
X-8210000Y-25396000D01*
X-8105000Y-25291000D01*
X-7995000Y-25161000D01*
X-7910000Y-25041000D01*
X-7840000Y-24926000D01*
X-7770000Y-24786000D01*
X-7725000Y-24681000D01*
X-7695000Y-24596000D01*
X-7660000Y-24481000D01*
X-7635000Y-24366000D01*
X-7625000Y-24321000D01*
X-6595000Y-24321000D01*
X-6605000Y-24386000D01*
G37*
X-9114599Y-21107903D02*
X-8959599Y-21132903D01*
X-8799599Y-21167903D01*
X-8619599Y-21217903D01*
X-8409599Y-21292903D01*
X-8264599Y-21357903D01*
X-8084599Y-21447903D01*
X-7974599Y-21512903D01*
X-7889599Y-21567903D01*
X-7794599Y-21632903D01*
X-7719599Y-21687903D01*
X-7614599Y-21772903D01*
X-7539599Y-21837903D01*
X-7469599Y-21902903D01*
X-7389599Y-21982903D01*
X-7269599Y-22117903D01*
X-7179599Y-22227903D01*
X-7104599Y-22332903D01*
X-6984599Y-22517903D01*
X-6924599Y-22627903D01*
X-6844599Y-22787903D01*
X-6784599Y-22927903D01*
X-6729599Y-23077903D01*
X-6689599Y-23212903D01*
X-6654599Y-23347903D01*
X-6639599Y-23417903D01*
X-6624599Y-23502903D01*
X-6609599Y-23597903D01*
X-6599599Y-23682903D01*
X-7629599Y-23682903D01*
X-7644599Y-23587903D01*
X-7669599Y-23492903D01*
X-7724599Y-23322903D01*
X-7874599Y-23017903D01*
X-7999599Y-22837903D01*
X-8104599Y-22712903D01*
X-8209599Y-22607903D01*
X-8339599Y-22497903D01*
X-8459599Y-22412903D01*
X-8574599Y-22342903D01*
X-8714599Y-22272903D01*
X-8819599Y-22227903D01*
X-8904599Y-22197903D01*
X-9019599Y-22162903D01*
X-9134599Y-22137903D01*
X-9179599Y-22127903D01*
X-9179599Y-21097903D01*
X-9114599Y-21107903D01*
G36*
X-9114599Y-21107903D02*
G01*
X-8959599Y-21132903D01*
X-8799599Y-21167903D01*
X-8619599Y-21217903D01*
X-8409599Y-21292903D01*
X-8264599Y-21357903D01*
X-8084599Y-21447903D01*
X-7974599Y-21512903D01*
X-7889599Y-21567903D01*
X-7794599Y-21632903D01*
X-7719599Y-21687903D01*
X-7614599Y-21772903D01*
X-7539599Y-21837903D01*
X-7469599Y-21902903D01*
X-7389599Y-21982903D01*
X-7269599Y-22117903D01*
X-7179599Y-22227903D01*
X-7104599Y-22332903D01*
X-6984599Y-22517903D01*
X-6924599Y-22627903D01*
X-6844599Y-22787903D01*
X-6784599Y-22927903D01*
X-6729599Y-23077903D01*
X-6689599Y-23212903D01*
X-6654599Y-23347903D01*
X-6639599Y-23417903D01*
X-6624599Y-23502903D01*
X-6609599Y-23597903D01*
X-6599599Y-23682903D01*
X-7629599Y-23682903D01*
X-7644599Y-23587903D01*
X-7669599Y-23492903D01*
X-7724599Y-23322903D01*
X-7874599Y-23017903D01*
X-7999599Y-22837903D01*
X-8104599Y-22712903D01*
X-8209599Y-22607903D01*
X-8339599Y-22497903D01*
X-8459599Y-22412903D01*
X-8574599Y-22342903D01*
X-8714599Y-22272903D01*
X-8819599Y-22227903D01*
X-8904599Y-22197903D01*
X-9019599Y-22162903D01*
X-9134599Y-22137903D01*
X-9179599Y-22127903D01*
X-9179599Y-21097903D01*
X-9114599Y-21107903D01*
G37*
%TD*%
D11*
%TO.C,U29*%
X24787500Y-20025000D03*
X24787500Y-19075000D03*
X24787500Y-18125000D03*
X22512500Y-18125000D03*
X22512500Y-20025000D03*
%TD*%
D12*
%TO.C,J15*%
X25900000Y28700000D03*
D13*
X23200000Y29700000D03*
X23200000Y34700000D03*
D12*
X25900000Y35700000D03*
D14*
X23200000Y30900000D03*
X23200000Y31550000D03*
X23200000Y32200000D03*
X23200000Y32850000D03*
X23200000Y33500000D03*
D15*
X25900000Y29300000D03*
D16*
X25900000Y31200000D03*
X25900000Y33200000D03*
D15*
X25900000Y35100000D03*
%TD*%
D17*
%TO.C,D27*%
X6625936Y-42315000D03*
X8025936Y-42315000D03*
%TD*%
D18*
%TO.C,D1*%
X-12200000Y-46100000D03*
X-10100000Y-46100000D03*
%TD*%
D19*
%TO.C,Q11*%
X4850000Y19150000D03*
X4850000Y20450000D03*
X2850000Y19800000D03*
%TD*%
D20*
%TO.C,R44*%
X1650000Y22440000D03*
X1650000Y23460000D03*
%TD*%
D21*
%TO.C,J10*%
X-10500000Y-34950000D03*
X-8500000Y-34950000D03*
X-6500000Y-34950000D03*
X-4500000Y-34950000D03*
X-2500000Y-34950000D03*
X-500000Y-34950000D03*
X1500000Y-34950000D03*
X3500000Y-34950000D03*
D22*
X-12850000Y-30300000D03*
X5850000Y-30300000D03*
%TD*%
D23*
%TO.C,C36*%
X-14550000Y11495000D03*
X-14550000Y12455000D03*
%TD*%
D24*
%TO.C,Q25*%
X12442500Y-34150936D03*
X12442500Y-32250936D03*
X10567500Y-33200936D03*
%TD*%
D19*
%TO.C,Q9*%
X4850000Y21950000D03*
X4850000Y23250000D03*
X2850000Y22600000D03*
%TD*%
D20*
%TO.C,R43*%
X6050000Y22440000D03*
X6050000Y23460000D03*
%TD*%
D25*
%TO.C,U13*%
X-17055000Y14125000D03*
X-15785000Y14125000D03*
X-14515000Y14125000D03*
X-13245000Y14125000D03*
X-13245000Y19075000D03*
X-14515000Y19075000D03*
X-15785000Y19075000D03*
X-17055000Y19075000D03*
%TD*%
D26*
%TO.C,FB3*%
X26450000Y-18087500D03*
X26450000Y-19662500D03*
%TD*%
D27*
%TO.C,R45*%
X18260000Y45800000D03*
X17240000Y45800000D03*
%TD*%
D28*
%TO.C,Q4*%
X21350000Y29550000D03*
X20050000Y29550000D03*
X20700000Y27550000D03*
%TD*%
D29*
%TO.C,U8*%
X-12569000Y-20507200D03*
X-12569000Y-20007200D03*
D30*
X-12569000Y-19507200D03*
D29*
X-12569000Y-19007200D03*
X-12569000Y-18507200D03*
X-13339000Y-18507200D03*
X-13339000Y-19007200D03*
D30*
X-13339000Y-19507200D03*
D29*
X-13339000Y-20007200D03*
X-13339000Y-20507200D03*
%TD*%
D27*
%TO.C,R65*%
X8710936Y-32025936D03*
X7690936Y-32025936D03*
%TD*%
D19*
%TO.C,Q21*%
X13175000Y-41799064D03*
X13175000Y-40499064D03*
X11175000Y-41149064D03*
%TD*%
D31*
%TO.C,R20*%
X-1200000Y55370000D03*
X-1200000Y54350000D03*
%TD*%
D32*
%TO.C,R104*%
X20855000Y-18030000D03*
X20855000Y-19680000D03*
%TD*%
D31*
%TO.C,R81*%
X23000000Y-28530000D03*
X23000000Y-29550000D03*
%TD*%
D33*
%TO.C,C83*%
X10600000Y-39100936D03*
X12150000Y-39100936D03*
%TD*%
D27*
%TO.C,R40*%
X5460000Y24700000D03*
X4440000Y24700000D03*
%TD*%
D34*
%TO.C,J12*%
X-12470000Y57950000D03*
D35*
X-13995000Y56475000D03*
X-13995000Y59425000D03*
%TD*%
D36*
%TO.C,C97*%
X27650000Y-18965000D03*
X27650000Y-19925000D03*
%TD*%
D37*
%TO.C,R85*%
X9014064Y-42150000D03*
X10034064Y-42150000D03*
%TD*%
D31*
%TO.C,R38*%
X1650000Y15160000D03*
X1650000Y14140000D03*
%TD*%
D37*
%TO.C,R22*%
X-9810000Y-16050000D03*
X-8790000Y-16050000D03*
%TD*%
D38*
%TO.C,C28*%
X-24195000Y-29675000D03*
X-25155000Y-29675000D03*
%TD*%
D27*
%TO.C,R41*%
X22010000Y45800000D03*
X20990000Y45800000D03*
%TD*%
%TO.C,R23*%
X-8840000Y-19300000D03*
X-9860000Y-19300000D03*
%TD*%
D24*
%TO.C,U36*%
X16292500Y-30750936D03*
X16292500Y-28850936D03*
X14417500Y-29800936D03*
%TD*%
D18*
%TO.C,D3*%
X-200000Y-46100000D03*
X1900000Y-46100000D03*
%TD*%
D39*
%TO.C,U7*%
X-2800000Y35020000D03*
X-2000000Y35020000D03*
X-1200000Y35020000D03*
X-400000Y35020000D03*
X400000Y35020000D03*
X1200000Y35020000D03*
X2000000Y35020000D03*
X2800000Y35020000D03*
X3600000Y35020000D03*
X4400000Y35020000D03*
X5200000Y35020000D03*
X6000000Y35020000D03*
X6800000Y35020000D03*
X7600000Y35020000D03*
X8400000Y35020000D03*
X9200000Y35020000D03*
X10000000Y35020000D03*
X10800000Y35020000D03*
D40*
X12180000Y36200000D03*
X12180000Y37000000D03*
X12180000Y37800000D03*
X12180000Y38600000D03*
X12180000Y39400000D03*
X12180000Y40200000D03*
X12180000Y41000000D03*
X12180000Y41800000D03*
X12180000Y42600000D03*
X12180000Y43400000D03*
X12180000Y44200000D03*
X12180000Y45000000D03*
X12180000Y45800000D03*
X12180000Y46600000D03*
X12180000Y47400000D03*
D39*
X10800000Y48580000D03*
X10000000Y48580000D03*
X9200000Y48580000D03*
X8400000Y48580000D03*
X7600000Y48580000D03*
X6800000Y48580000D03*
X6000000Y48580000D03*
X5200000Y48580000D03*
X4400000Y48580000D03*
X3600000Y48580000D03*
X2800000Y48580000D03*
X2000000Y48580000D03*
X1200000Y48580000D03*
X400000Y48580000D03*
X-400000Y48580000D03*
X-1200000Y48580000D03*
X-2000000Y48580000D03*
X-2800000Y48580000D03*
D40*
X-4180000Y47400000D03*
X-4180000Y46600000D03*
X-4180000Y45800000D03*
X-4180000Y45000000D03*
X-4180000Y44200000D03*
X-4180000Y43400000D03*
X-4180000Y42600000D03*
X-4180000Y41800000D03*
X-4180000Y41000000D03*
X-4180000Y40200000D03*
X-4180000Y39400000D03*
X-4180000Y38600000D03*
X-4180000Y37800000D03*
X-4180000Y37000000D03*
X-4180000Y36200000D03*
D41*
X-4180000Y35020000D03*
X12180000Y35020000D03*
X12180000Y48580000D03*
X-4180000Y48580000D03*
D39*
X-5600000Y31850000D03*
X-4800000Y31850000D03*
X-4000000Y31850000D03*
X-3200000Y31850000D03*
X-2400000Y31850000D03*
X-1600000Y31850000D03*
X-800000Y31850000D03*
X0Y31850000D03*
X800000Y31850000D03*
X1600000Y31850000D03*
X2400000Y31850000D03*
X3200000Y31850000D03*
X4000000Y31850000D03*
X4800000Y31850000D03*
X5600000Y31850000D03*
X6400000Y31850000D03*
X7200000Y31850000D03*
X8000000Y31850000D03*
X8800000Y31850000D03*
X9600000Y31850000D03*
X10400000Y31850000D03*
X11200000Y31850000D03*
X12000000Y31850000D03*
X12800000Y31850000D03*
X13600000Y31850000D03*
D40*
X14650000Y33000000D03*
X14650000Y33800000D03*
X14650000Y34600000D03*
X14650000Y35400000D03*
X14650000Y36200000D03*
X14650000Y37000000D03*
X14650000Y37800000D03*
X14650000Y38600000D03*
X14650000Y39400000D03*
X14650000Y40200000D03*
X14650000Y41000000D03*
X14650000Y41800000D03*
X14650000Y42600000D03*
X14650000Y43400000D03*
X14650000Y44200000D03*
X14650000Y45000000D03*
X14650000Y46600000D03*
X14650000Y47400000D03*
X14650000Y48200000D03*
X14650000Y49000000D03*
X14650000Y49800000D03*
X14650000Y50600000D03*
D39*
X13600000Y51750000D03*
X12800000Y51750000D03*
X12000000Y51750000D03*
X11200000Y51750000D03*
X10400000Y51750000D03*
X9600000Y51750000D03*
X8800000Y51750000D03*
X6400000Y51750000D03*
X5600000Y51750000D03*
X4800000Y51750000D03*
X4000000Y51750000D03*
X3200000Y51750000D03*
X2400000Y51750000D03*
X1600000Y51750000D03*
X800000Y51750000D03*
X0Y51750000D03*
X-2400000Y51750000D03*
X-3200000Y51750000D03*
X-4000000Y51750000D03*
X-4800000Y51750000D03*
X-5600000Y51750000D03*
D40*
X-6650000Y50600000D03*
X-6650000Y49800000D03*
X-6650000Y49000000D03*
X-6650000Y48200000D03*
X-6650000Y47400000D03*
X-6650000Y46600000D03*
X-6650000Y45800000D03*
X-6650000Y45000000D03*
X-6650000Y44200000D03*
X-6650000Y43400000D03*
X-6650000Y42600000D03*
X-6650000Y41800000D03*
X-6650000Y41000000D03*
X-6650000Y40200000D03*
X-6650000Y39400000D03*
X-6650000Y38600000D03*
X-6650000Y37800000D03*
X-6650000Y37000000D03*
X-6650000Y36200000D03*
X-6650000Y35400000D03*
X-6650000Y34600000D03*
X-6650000Y33800000D03*
X-6650000Y33000000D03*
D42*
X-6700000Y31850000D03*
X14700000Y31850000D03*
X14700000Y51750000D03*
X-6700000Y51750000D03*
D41*
X-2370000Y36655000D03*
X-2370000Y38125000D03*
X-2370000Y39595000D03*
X-2370000Y41065000D03*
X-2370000Y42535000D03*
X-2370000Y44005000D03*
X-2370000Y45475000D03*
X-2370000Y46945000D03*
X-550000Y46945000D03*
X1270000Y46945000D03*
X3090000Y46945000D03*
X4910000Y46945000D03*
X6730000Y46945000D03*
X8550000Y46945000D03*
X10370000Y46945000D03*
X10370000Y45475000D03*
X10370000Y44005000D03*
X10370000Y42535000D03*
X10370000Y41065000D03*
X10370000Y39595000D03*
X10370000Y38125000D03*
X10370000Y36655000D03*
X8550000Y36655000D03*
X6730000Y36655000D03*
X4910000Y36655000D03*
X3090000Y36655000D03*
X1270000Y36655000D03*
X-550000Y36655000D03*
X-550000Y38125000D03*
X-550000Y39595000D03*
X-550000Y41065000D03*
X-550000Y42535000D03*
X-550000Y44005000D03*
X-550000Y45475000D03*
X1270000Y45475000D03*
X3090000Y45475000D03*
X4910000Y45475000D03*
X6730000Y45475000D03*
X8550000Y45475000D03*
X8550000Y44005000D03*
X8550000Y42535000D03*
X8550000Y41065000D03*
X8550000Y39595000D03*
X8550000Y38125000D03*
X6730000Y38125000D03*
X4910000Y38125000D03*
X3090000Y38125000D03*
X1270000Y38125000D03*
X1270000Y39595000D03*
X1270000Y41065000D03*
X1270000Y42535000D03*
X1270000Y44005000D03*
X3090000Y44005000D03*
X4910000Y44005000D03*
X6730000Y44005000D03*
X6730000Y42535000D03*
X6730000Y41065000D03*
X6730000Y39595000D03*
X4910000Y39595000D03*
X3090000Y39595000D03*
X3090000Y41065000D03*
X3090000Y42535000D03*
X4910000Y42535000D03*
X4910000Y41065000D03*
D43*
X-2400000Y33320000D03*
X-1200000Y33320000D03*
X0Y33320000D03*
X1200000Y33320000D03*
X2400000Y33320000D03*
X3600000Y33320000D03*
X4800000Y33320000D03*
X6000000Y33320000D03*
X7200000Y33320000D03*
%TD*%
D44*
%TO.C,U15*%
X16550000Y29100000D03*
X17050000Y29100000D03*
X17550000Y29100000D03*
X18050000Y29100000D03*
X18550000Y29100000D03*
X18550000Y33500000D03*
X18050000Y33500000D03*
X17550000Y33500000D03*
X17050000Y33500000D03*
X16550000Y33500000D03*
%TD*%
D28*
%TO.C,Q19*%
X14525936Y-44425000D03*
X15825936Y-44425000D03*
X15175936Y-42425000D03*
%TD*%
D45*
%TO.C,D23*%
X3850000Y-40450000D03*
X1050000Y-40450000D03*
%TD*%
D28*
%TO.C,Q22*%
X20550000Y-34224064D03*
X21850000Y-34224064D03*
X21200000Y-32224064D03*
%TD*%
D46*
%TO.C,D22*%
X-3350000Y-40450000D03*
X-550000Y-40450000D03*
%TD*%
D31*
%TO.C,R33*%
X1650000Y17710000D03*
X1650000Y16690000D03*
%TD*%
D47*
%TO.C,SP3*%
X25915000Y-24000000D03*
%TD*%
D31*
%TO.C,R80*%
X25080936Y-28474064D03*
X25080936Y-29494064D03*
%TD*%
D45*
%TO.C,D24*%
X3850000Y-38150000D03*
X1050000Y-38150000D03*
%TD*%
D31*
%TO.C,R37*%
X1650000Y12510000D03*
X1650000Y11490000D03*
%TD*%
D19*
%TO.C,Q17*%
X22600000Y-45024064D03*
X22600000Y-43724064D03*
X20600000Y-44374064D03*
%TD*%
D48*
%TO.C,C20*%
X-1180000Y53460000D03*
X-220000Y53460000D03*
%TD*%
D27*
%TO.C,R2*%
X-18290000Y15100000D03*
X-19310000Y15100000D03*
%TD*%
D31*
%TO.C,R5*%
X-17050000Y-38740000D03*
X-17050000Y-39760000D03*
%TD*%
D46*
%TO.C,D21*%
X-3350000Y-38150000D03*
X-550000Y-38150000D03*
%TD*%
D49*
%TO.C,Module1*%
X-11500000Y7300000D03*
X-8420000Y7300000D03*
X-11500000Y6900000D03*
X-8420000Y6900000D03*
X-11500000Y6500000D03*
X-8420000Y6500000D03*
X-11500000Y6100000D03*
X-8420000Y6100000D03*
X-11500000Y5700000D03*
X-8420000Y5700000D03*
X-11500000Y5300000D03*
X-8420000Y5300000D03*
X-11500000Y4900000D03*
X-8420000Y4900000D03*
X-11500000Y4500000D03*
X-8420000Y4500000D03*
X-11500000Y4100000D03*
X-8420000Y4100000D03*
X-11500000Y3700000D03*
X-8420000Y3700000D03*
X-11500000Y3300000D03*
X-8420000Y3300000D03*
X-11500000Y2900000D03*
X-8420000Y2900000D03*
X-11500000Y2500000D03*
X-8420000Y2500000D03*
X-11500000Y2100000D03*
X-8420000Y2100000D03*
X-11500000Y1700000D03*
X-8420000Y1700000D03*
X-11500000Y1300000D03*
X-8420000Y1300000D03*
X-11500000Y900000D03*
X-8420000Y900000D03*
X-11500000Y500000D03*
X-8420000Y500000D03*
X-11500000Y100000D03*
X-8420000Y100000D03*
X-11500000Y-300000D03*
X-8420000Y-300000D03*
X-11500000Y-700000D03*
X-8420000Y-700000D03*
X-11500000Y-1100000D03*
X-8420000Y-1100000D03*
X-11500000Y-1500000D03*
X-8420000Y-1500000D03*
X-11500000Y-1900000D03*
X-8420000Y-1900000D03*
X-11500000Y-2300000D03*
X-8420000Y-2300000D03*
X-11500000Y-2700000D03*
X-8420000Y-2700000D03*
X-11500000Y-3100000D03*
X-8420000Y-3100000D03*
X-11500000Y-3500000D03*
X-8420000Y-3500000D03*
X-11500000Y-3900000D03*
X-8420000Y-3900000D03*
X-11500000Y-4300000D03*
X-8420000Y-4300000D03*
X-11500000Y-4700000D03*
X-8420000Y-4700000D03*
X-11500000Y-5100000D03*
X-8420000Y-5100000D03*
X-11500000Y-5500000D03*
X-8420000Y-5500000D03*
X-11500000Y-5900000D03*
X-8420000Y-5900000D03*
X-11500000Y-6300000D03*
X-8420000Y-6300000D03*
X-11500000Y-6700000D03*
X-8420000Y-6700000D03*
X-11500000Y-7100000D03*
X-8420000Y-7100000D03*
X-11500000Y-7500000D03*
X-8420000Y-7500000D03*
X-11500000Y-7900000D03*
X-8420000Y-7900000D03*
X-11500000Y-8300000D03*
X-8420000Y-8300000D03*
X-11500000Y-8700000D03*
X-8420000Y-8700000D03*
X-11500000Y-9100000D03*
X-8420000Y-9100000D03*
X-11500000Y-9500000D03*
X-8420000Y-9500000D03*
X-11500000Y-9900000D03*
X-8420000Y-9900000D03*
X-11500000Y-10300000D03*
X-8420000Y-10300000D03*
X-11500000Y-10700000D03*
X-8420000Y-10700000D03*
X-11500000Y-11100000D03*
X-8420000Y-11100000D03*
X-11500000Y-11500000D03*
X-8420000Y-11500000D03*
X-11500000Y-11900000D03*
X-8420000Y-11900000D03*
X-11500000Y-12300000D03*
X-8420000Y-12300000D03*
X22420000Y7300000D03*
X25500000Y7300000D03*
X22420000Y6900000D03*
X25500000Y6900000D03*
X22420000Y6500000D03*
X25500000Y6500000D03*
X22420000Y6100000D03*
X25500000Y6100000D03*
X22420000Y5700000D03*
X25500000Y5700000D03*
X22420000Y5300000D03*
X25500000Y5300000D03*
X22420000Y4900000D03*
X25500000Y4900000D03*
X22420000Y4500000D03*
X25500000Y4500000D03*
X22420000Y4100000D03*
X25500000Y4100000D03*
X22420000Y3700000D03*
X25500000Y3700000D03*
X22420000Y3300000D03*
X25500000Y3300000D03*
X22420000Y2900000D03*
X25500000Y2900000D03*
X22420000Y2500000D03*
X25500000Y2500000D03*
X22420000Y2100000D03*
X25500000Y2100000D03*
X22420000Y1700000D03*
X25500000Y1700000D03*
X22420000Y1300000D03*
X25500000Y1300000D03*
X22420000Y900000D03*
X25500000Y900000D03*
X22420000Y500000D03*
X25500000Y500000D03*
X22420000Y100000D03*
X25500000Y100000D03*
X22420000Y-300000D03*
X25500000Y-300000D03*
X22420000Y-700000D03*
X25500000Y-700000D03*
X22420000Y-1100000D03*
X25500000Y-1100000D03*
X22420000Y-1500000D03*
X25500000Y-1500000D03*
X22420000Y-1900000D03*
X25500000Y-1900000D03*
X22420000Y-2300000D03*
X25500000Y-2300000D03*
X22420000Y-2700000D03*
X25500000Y-2700000D03*
X22420000Y-3100000D03*
X25500000Y-3100000D03*
X22420000Y-3500000D03*
X25500000Y-3500000D03*
X22420000Y-3900000D03*
X25500000Y-3900000D03*
X22420000Y-4300000D03*
X25500000Y-4300000D03*
X22420000Y-4700000D03*
X25500000Y-4700000D03*
X22420000Y-5100000D03*
X25500000Y-5100000D03*
X22420000Y-5500000D03*
X25500000Y-5500000D03*
X22420000Y-5900000D03*
X25500000Y-5900000D03*
X22420000Y-6300000D03*
X25500000Y-6300000D03*
X22420000Y-6700000D03*
X25500000Y-6700000D03*
X22420000Y-7100000D03*
X25500000Y-7100000D03*
X22420000Y-7500000D03*
X25500000Y-7500000D03*
X22420000Y-7900000D03*
X25500000Y-7900000D03*
X22420000Y-8300000D03*
X25500000Y-8300000D03*
X22420000Y-8700000D03*
X25500000Y-8700000D03*
X22420000Y-9100000D03*
X25500000Y-9100000D03*
X22420000Y-9500000D03*
X25500000Y-9500000D03*
X22420000Y-9900000D03*
X25500000Y-9900000D03*
X22420000Y-10300000D03*
X25500000Y-10300000D03*
X22420000Y-10700000D03*
X25500000Y-10700000D03*
X22420000Y-11100000D03*
X25500000Y-11100000D03*
X22420000Y-11500000D03*
X25500000Y-11500000D03*
X22420000Y-11900000D03*
X25500000Y-11900000D03*
X22420000Y-12300000D03*
X25500000Y-12300000D03*
%TD*%
D37*
%TO.C,R4*%
X-16610000Y-32100000D03*
X-15590000Y-32100000D03*
%TD*%
D28*
%TO.C,Q24*%
X19250000Y-32224064D03*
X17950000Y-32224064D03*
X18600000Y-34224064D03*
%TD*%
D47*
%TO.C,SP1*%
X-7085000Y24000000D03*
%TD*%
D37*
%TO.C,R68*%
X13290000Y-38825936D03*
X14310000Y-38825936D03*
%TD*%
%TO.C,R21*%
X-9810000Y-17000000D03*
X-8790000Y-17000000D03*
%TD*%
%TO.C,R3*%
X-8760000Y9400000D03*
X-7740000Y9400000D03*
%TD*%
D23*
%TO.C,C30*%
X-17775000Y-2455000D03*
X-17775000Y-1495000D03*
%TD*%
D37*
%TO.C,R72*%
X6990000Y-37700936D03*
X8010000Y-37700936D03*
%TD*%
D23*
%TO.C,C21*%
X-8850000Y39820000D03*
X-8850000Y40780000D03*
%TD*%
D19*
%TO.C,Q8*%
X-2000000Y25500000D03*
X-2000000Y26800000D03*
X-4000000Y26150000D03*
%TD*%
D38*
%TO.C,C100*%
X21155000Y-16900000D03*
X20195000Y-16900000D03*
%TD*%
D33*
%TO.C,C84*%
X11175000Y-30749064D03*
X12725000Y-30749064D03*
%TD*%
D50*
%TO.C,J13*%
X-26110000Y-24740000D03*
X-26110000Y-22200000D03*
X-26110000Y-19660000D03*
X-22940000Y-24740000D03*
X-22940000Y-22200000D03*
X-22940000Y-19660000D03*
D51*
X-19610000Y-17930000D03*
D52*
X-15935000Y-21650000D03*
D53*
X-26810000Y-28755000D03*
D54*
X-21960000Y-28755000D03*
D55*
X-16810000Y-28755000D03*
D56*
X-14860000Y-24400000D03*
D57*
X-27960000Y-23420000D03*
X-27960000Y-20980000D03*
D56*
X-14860000Y-19980000D03*
D58*
X-17810000Y-18105000D03*
D53*
X-26810000Y-17605000D03*
D54*
X-21960000Y-17605000D03*
%TD*%
D59*
%TO.C,U14*%
X-16250000Y8450000D03*
X-15600000Y8450000D03*
X-14950000Y8450000D03*
X-14950000Y10350000D03*
X-16250000Y10350000D03*
%TD*%
D36*
%TO.C,C35*%
X-17350000Y12455000D03*
X-17350000Y11495000D03*
%TD*%
D11*
%TO.C,U30*%
X24787500Y-16625000D03*
X24787500Y-15675000D03*
X24787500Y-14725000D03*
X22512500Y-14725000D03*
X22512500Y-16625000D03*
%TD*%
D24*
%TO.C,Q29*%
X16292500Y-34150936D03*
X16292500Y-32250936D03*
X14417500Y-33200936D03*
%TD*%
D19*
%TO.C,Q18*%
X19200000Y-45025936D03*
X19200000Y-43725936D03*
X17200000Y-44375936D03*
%TD*%
D37*
%TO.C,R84*%
X9014064Y-43150000D03*
X10034064Y-43150000D03*
%TD*%
D31*
%TO.C,R34*%
X-8600000Y-41440000D03*
X-8600000Y-42460000D03*
%TD*%
D32*
%TO.C,R105*%
X20865000Y-14130000D03*
X20865000Y-15780000D03*
%TD*%
D38*
%TO.C,C19*%
X-220000Y56260000D03*
X-1180000Y56260000D03*
%TD*%
D28*
%TO.C,Q16*%
X14425000Y-35625936D03*
X13125000Y-35625936D03*
X13775000Y-37625936D03*
%TD*%
D23*
%TO.C,C99*%
X27650000Y-15805000D03*
X27650000Y-14845000D03*
%TD*%
D60*
%TO.C,D6*%
X-13475000Y-22435000D03*
X-13475000Y-21465000D03*
%TD*%
D61*
%TO.C,D20*%
X-13515000Y21050000D03*
X-14485000Y21050000D03*
%TD*%
D18*
%TO.C,D7*%
X11800000Y-46100000D03*
X13900000Y-46100000D03*
%TD*%
D28*
%TO.C,Q14*%
X11825000Y-35624064D03*
X10525000Y-35624064D03*
X11175000Y-37624064D03*
%TD*%
D37*
%TO.C,R39*%
X2540000Y24650000D03*
X3560000Y24650000D03*
%TD*%
D60*
%TO.C,D25*%
X20100000Y44840000D03*
X20100000Y45810000D03*
%TD*%
D28*
%TO.C,Q30*%
X19249064Y-28810000D03*
X17949064Y-28810000D03*
X18599064Y-30810000D03*
%TD*%
D62*
%TO.C,D15*%
X8424064Y-36500000D03*
X8424064Y-33200000D03*
%TD*%
D63*
%TO.C,J16*%
X-10850000Y46250000D03*
X-10850000Y45750000D03*
X-10850000Y45250000D03*
X-10850000Y44750000D03*
X-10850000Y44250000D03*
X-10850000Y43750000D03*
X-10850000Y43250000D03*
X-10850000Y42750000D03*
X-10850000Y42250000D03*
X-10850000Y41750000D03*
X-10850000Y41250000D03*
X-10850000Y40750000D03*
X-10850000Y40250000D03*
X-10850000Y39750000D03*
X-10850000Y39250000D03*
X-10850000Y38750000D03*
X-10850000Y38250000D03*
X-10850000Y37750000D03*
X-10850000Y37250000D03*
X-10850000Y36750000D03*
D64*
X-14100000Y48150000D03*
X-14100000Y34850000D03*
%TD*%
D27*
%TO.C,R24*%
X-15840000Y-2400000D03*
X-16860000Y-2400000D03*
%TD*%
D65*
%TO.C,R67*%
X-2262500Y-42725000D03*
X662500Y-42725000D03*
%TD*%
D20*
%TO.C,R42*%
X6050000Y19690000D03*
X6050000Y20710000D03*
%TD*%
D28*
%TO.C,Q12*%
X6624064Y-38900000D03*
X5324064Y-38900000D03*
X5974064Y-40900000D03*
%TD*%
D19*
%TO.C,Q20*%
X13175000Y-44424064D03*
X13175000Y-43124064D03*
X11175000Y-43774064D03*
%TD*%
D37*
%TO.C,R31*%
X19115000Y26350000D03*
X20135000Y26350000D03*
%TD*%
%TO.C,R86*%
X11990000Y-28575000D03*
X13010000Y-28575000D03*
%TD*%
D65*
%TO.C,R66*%
X2312500Y-42725000D03*
X5237500Y-42725000D03*
%TD*%
D38*
%TO.C,C98*%
X21155000Y-20800000D03*
X20195000Y-20800000D03*
%TD*%
D37*
%TO.C,R64*%
X5115000Y-37699064D03*
X6135000Y-37699064D03*
%TD*%
%TO.C,R19*%
X-2210000Y58160000D03*
X-1190000Y58160000D03*
%TD*%
D20*
%TO.C,R46*%
X1650000Y19640000D03*
X1650000Y20660000D03*
%TD*%
D66*
%TO.C,C29*%
X-19075000Y-1750000D03*
X-22025000Y-1750000D03*
%TD*%
D28*
%TO.C,Q15*%
X17025000Y-35625936D03*
X15725000Y-35625936D03*
X16375000Y-37625936D03*
%TD*%
D67*
%TO.C,U2*%
X-7800000Y-39220000D03*
X-7300000Y-39220000D03*
D68*
X-6800000Y-39220000D03*
D67*
X-6300000Y-39220000D03*
X-5800000Y-39220000D03*
X-5800000Y-38450000D03*
X-6300000Y-38450000D03*
D68*
X-6800000Y-38450000D03*
D67*
X-7300000Y-38450000D03*
X-7800000Y-38450000D03*
%TD*%
D47*
%TO.C,SP2*%
X25915000Y24000000D03*
%TD*%
D69*
%TO.C,FB4*%
X26450000Y-16687500D03*
X26450000Y-15112500D03*
%TD*%
D28*
%TO.C,Q13*%
X9224064Y-38900000D03*
X7924064Y-38900000D03*
X8574064Y-40900000D03*
%TD*%
D23*
%TO.C,C51*%
X19150000Y44845000D03*
X19150000Y45805000D03*
%TD*%
D37*
%TO.C,R30*%
X-16460000Y11475000D03*
X-15440000Y11475000D03*
%TD*%
D70*
%TO.C,BT1*%
X-22100000Y19025000D03*
X-22100000Y34775000D03*
%TD*%
D37*
%TO.C,R29*%
X-16460000Y12425000D03*
X-15440000Y12425000D03*
%TD*%
%TO.C,R99*%
X11990000Y-29525000D03*
X13010000Y-29525000D03*
%TD*%
D19*
%TO.C,Q7*%
X2850000Y15250000D03*
X2850000Y13950000D03*
X4850000Y14600000D03*
%TD*%
D48*
%TO.C,C26*%
X-23330000Y-29675000D03*
X-22370000Y-29675000D03*
%TD*%
D61*
%TO.C,D9*%
X-215000Y57200000D03*
X-1185000Y57200000D03*
%TD*%
D27*
%TO.C,R1*%
X-18290000Y16050000D03*
X-19310000Y16050000D03*
%TD*%
D37*
%TO.C,R32*%
X19115000Y25400000D03*
X20135000Y25400000D03*
%TD*%
D19*
%TO.C,Q6*%
X2850000Y12650000D03*
X2850000Y11350000D03*
X4850000Y12000000D03*
%TD*%
D20*
%TO.C,R82*%
X14374064Y-41285000D03*
X14374064Y-40265000D03*
%TD*%
D17*
%TO.C,D26*%
X6640000Y-43799064D03*
X8040000Y-43799064D03*
%TD*%
D28*
%TO.C,Q23*%
X21850000Y-28800936D03*
X20550000Y-28800936D03*
X21200000Y-30800936D03*
%TD*%
D18*
%TO.C,D2*%
X-24200000Y-46100000D03*
X-22100000Y-46100000D03*
%TD*%
D36*
%TO.C,C34*%
X-18350000Y19280000D03*
X-18350000Y18320000D03*
%TD*%
D19*
%TO.C,Q5*%
X2850000Y17850000D03*
X2850000Y16550000D03*
X4850000Y17200000D03*
%TD*%
D34*
%TO.C,J17*%
X23425000Y45775000D03*
D35*
X24950000Y47250000D03*
X24950000Y44300000D03*
%TD*%
D20*
%TO.C,R79*%
X16975000Y-42610936D03*
X16975000Y-41590936D03*
%TD*%
D71*
%TO.C,J14*%
X-20050000Y-12370000D03*
X-20050000Y-11270000D03*
X-20050000Y-10170000D03*
X-20050000Y-9070000D03*
X-20050000Y-7970000D03*
X-20050000Y-6870000D03*
X-20050000Y-5770000D03*
X-20050000Y-4670000D03*
D72*
X-13225000Y-4775000D03*
D51*
X-13850000Y-6670000D03*
D73*
X-13550000Y-3350000D03*
D74*
X-16910000Y-3350000D03*
D75*
X-19120000Y-3350000D03*
D76*
X-27150000Y-3535000D03*
D77*
X-13395000Y-15400000D03*
D78*
X-13680000Y-16685000D03*
D79*
X-20320000Y-16685000D03*
D80*
X-27275000Y-16685000D03*
%TD*%
D47*
%TO.C,SP4*%
X-7085000Y-24000000D03*
%TD*%
D36*
%TO.C,C61*%
X16350000Y45830000D03*
X16350000Y44870000D03*
%TD*%
D59*
%TO.C,U1*%
X-15350000Y-34050000D03*
X-16000000Y-34050000D03*
X-16650000Y-34050000D03*
X-16650000Y-35950000D03*
X-15350000Y-35950000D03*
%TD*%
D36*
%TO.C,C37*%
X15225000Y29555000D03*
X15225000Y28595000D03*
%TD*%
D29*
%TO.C,U16*%
X21485000Y30850000D03*
X21485000Y31350000D03*
D30*
X21485000Y31850000D03*
D29*
X21485000Y32350000D03*
X21485000Y32850000D03*
X20715000Y32850000D03*
X20715000Y32350000D03*
D30*
X20715000Y31850000D03*
D29*
X20715000Y31350000D03*
X20715000Y30850000D03*
%TD*%
M02*
