%TF.GenerationSoftware,KiCad,Pcbnew,7.99.0-1.20230926git54171ec.fc37*%
%TF.CreationDate,2023-10-05T18:33:59+01:00*%
%TF.ProjectId,bugg-main-r5,62756767-2d6d-4616-996e-2d72352e6b69,rev?*%
%TF.SameCoordinates,Original*%
%TF.FileFunction,Copper,L4,Inr*%
%TF.FilePolarity,Positive*%
%FSLAX46Y46*%
G04 Gerber Fmt 4.6, Leading zero omitted, Abs format (unit mm)*
G04 Created by KiCad (PCBNEW 7.99.0-1.20230926git54171ec.fc37) date 2023-10-05 18:33:59*
%MOMM*%
%LPD*%
G01*
G04 APERTURE LIST*
%TA.AperFunction,ComponentPad*%
%ADD10O,1.550000X0.890000*%
%TD*%
%TA.AperFunction,ComponentPad*%
%ADD11O,0.950000X1.250000*%
%TD*%
%TA.AperFunction,ComponentPad*%
%ADD12C,0.500000*%
%TD*%
%TA.AperFunction,ComponentPad*%
%ADD13C,0.600000*%
%TD*%
%TA.AperFunction,ViaPad*%
%ADD14C,0.600000*%
%TD*%
%TA.AperFunction,ViaPad*%
%ADD15C,0.500000*%
%TD*%
%TA.AperFunction,Conductor*%
%ADD16C,0.150000*%
%TD*%
%TA.AperFunction,Conductor*%
%ADD17C,0.600000*%
%TD*%
%TA.AperFunction,Conductor*%
%ADD18C,0.300000*%
%TD*%
%TA.AperFunction,Conductor*%
%ADD19C,0.200000*%
%TD*%
%TA.AperFunction,Conductor*%
%ADD20C,1.200000*%
%TD*%
G04 APERTURE END LIST*
D10*
%TO.N,GND*%
%TO.C,J15*%
X25900000Y28700000D03*
D11*
X23200000Y29700000D03*
X23200000Y34700000D03*
D10*
X25900000Y35700000D03*
%TD*%
D12*
%TO.N,-15V*%
%TO.C,U18*%
X4467462Y-15175000D03*
X4467462Y-16625000D03*
X4467462Y-18075000D03*
X5917462Y-15175000D03*
X5917462Y-16625000D03*
X5917462Y-18075000D03*
X7367462Y-15175000D03*
X7367462Y-16625000D03*
X7367462Y-18075000D03*
%TD*%
%TO.N,GNDA*%
%TO.C,U28*%
X15464286Y-23059762D03*
X16439286Y-23059762D03*
X17414286Y-23059762D03*
X15464286Y-22084762D03*
X16439286Y-22084762D03*
X17414286Y-22084762D03*
X15464286Y-21109762D03*
X16439286Y-21109762D03*
X17414286Y-21109762D03*
%TD*%
D13*
%TO.N,-15V*%
%TO.C,U23*%
X875000Y-17375000D03*
X875000Y-16625000D03*
X875000Y-15875000D03*
X125000Y-17375000D03*
X125000Y-16625000D03*
X125000Y-15875000D03*
X-625000Y-17375000D03*
X-625000Y-16625000D03*
X-625000Y-15875000D03*
%TD*%
D14*
%TO.N,+3.3VADC*%
X-1400000Y19800000D03*
X19700000Y9750000D03*
X3650000Y21200000D03*
X-450000Y24300000D03*
X14800000Y10050000D03*
X17100000Y19900000D03*
X7800000Y24300000D03*
X12150000Y15950000D03*
X14900000Y17300000D03*
X6950000Y10050000D03*
X11450000Y19250000D03*
X-450000Y24900000D03*
X11450000Y17950000D03*
X11400000Y12700000D03*
X-475000Y11375000D03*
X14900000Y18600000D03*
X5050000Y12750000D03*
X153631Y24896369D03*
X6775000Y-12175000D03*
X150000Y24300000D03*
X850000Y8500000D03*
D15*
%TO.N,/SCL*%
X-7700000Y-3600000D03*
X-14450000Y26275000D03*
X-14900000Y16350000D03*
X-14400000Y33325000D03*
%TO.N,/SDA*%
X-15350000Y16850000D03*
X-15500000Y26250000D03*
X-15500000Y-4900000D03*
X-9150000Y-3900000D03*
X-18800000Y14400000D03*
X-14850000Y32825000D03*
%TO.N,/FSYNC*%
X-12750000Y3950000D03*
X11850000Y18600000D03*
X6850000Y20050000D03*
X-650000Y19900000D03*
X-9300000Y2600000D03*
X-12450000Y38750000D03*
X-12100000Y17500000D03*
%TO.N,/BCLK*%
X-13600000Y39200000D03*
X-12550000Y20250000D03*
X-1050000Y12100000D03*
X-500000Y20550000D03*
X-12900000Y-2600000D03*
X7200000Y21700000D03*
X-500000Y15250000D03*
%TO.N,/SDOUT*%
X-12750000Y2500000D03*
D14*
%TO.N,GND*%
X17650000Y15000000D03*
X15625000Y58325000D03*
X350000Y40300000D03*
X9500000Y38900000D03*
D15*
X22100000Y31850000D03*
D14*
X-12450000Y59381420D03*
X-6625000Y52900000D03*
X-2400000Y52825000D03*
X6950000Y12750000D03*
X-13450000Y60300000D03*
X9500000Y40350000D03*
D15*
X19250000Y44050000D03*
D14*
X-14200000Y55403621D03*
X-2400000Y53800000D03*
D15*
X24700000Y48250000D03*
D14*
X-5500000Y-35600000D03*
X4050000Y38900000D03*
X-6350000Y30850000D03*
X-10600000Y58900000D03*
X-10600000Y-42250000D03*
X-10450000Y-1300000D03*
X3750000Y49900000D03*
X19400000Y28700000D03*
X19900000Y24400000D03*
X1900000Y9350000D03*
D15*
X19150000Y46500000D03*
D14*
X-9700000Y41700000D03*
D15*
X6600000Y56000000D03*
D14*
X-3200000Y49875000D03*
X9950000Y21700000D03*
X-17850000Y-37200000D03*
X8950000Y53275000D03*
X2175000Y42150000D03*
X16950000Y52400000D03*
X-7050000Y30850000D03*
X-14200000Y54825000D03*
X15850000Y35500000D03*
X9425000Y50675000D03*
X-11250000Y58900000D03*
X14300000Y30900000D03*
X1400000Y54000000D03*
D15*
X22050000Y45050000D03*
X24150000Y48250000D03*
X-8000000Y55500000D03*
X-2250000Y58950000D03*
D14*
X-3450000Y-34350000D03*
X4275000Y53275000D03*
X12350000Y50400000D03*
X16950000Y51800000D03*
D15*
X-3000000Y58925000D03*
D14*
X7650000Y40350000D03*
D15*
X18100000Y41600000D03*
D14*
X-9700000Y40300000D03*
X-3450000Y-36150000D03*
X-25000Y52725000D03*
X-3275000Y53800000D03*
X-21225000Y-375000D03*
X-6200000Y-43550000D03*
D15*
X21000000Y45050000D03*
D14*
X8400000Y-13800000D03*
X-14300000Y-31250000D03*
D15*
X-7650000Y-4300000D03*
D14*
X-3450000Y-35550000D03*
D15*
X20100000Y43850000D03*
D14*
X5850000Y36000000D03*
D15*
X-13850000Y-100000D03*
X21000000Y46550000D03*
D14*
X-10050000Y33950000D03*
X-11950000Y56975000D03*
X23300000Y6150000D03*
X-5500000Y-34400000D03*
X15600000Y31600000D03*
X-13150000Y-23850000D03*
D15*
X25800000Y48250000D03*
D14*
X-1475000Y42875000D03*
X15900000Y34000000D03*
X-16125000Y35600000D03*
D15*
X-3925000Y58925000D03*
D14*
X11150000Y38900000D03*
X27600000Y20800000D03*
X-6200000Y-42200000D03*
X-20700000Y-29675000D03*
X-14100000Y60300000D03*
D15*
X-17000000Y-400000D03*
X-8000000Y56500000D03*
D14*
X8950000Y16600000D03*
X-400000Y49800000D03*
D15*
X15950000Y44100000D03*
D14*
X-19200000Y-42000000D03*
X-25975000Y-29625000D03*
D15*
X20050000Y46550000D03*
D14*
X5376400Y50086400D03*
X19400000Y7750000D03*
X-10650000Y57375000D03*
X15625000Y59525000D03*
X-10025000Y59150000D03*
X-11200000Y60400000D03*
X-5950000Y52900000D03*
X5800000Y44975000D03*
X15900000Y33300000D03*
X5850000Y38850000D03*
X12275000Y49100000D03*
X5800000Y37400000D03*
D15*
X20050000Y31850000D03*
X17050000Y47450000D03*
D14*
X6350000Y50550000D03*
D15*
X-6850000Y59300000D03*
D14*
X-6200000Y-44200000D03*
D15*
X23450000Y47250000D03*
D14*
X9500000Y37400000D03*
X-7700000Y50100000D03*
X27600000Y16000000D03*
X-8325000Y41600000D03*
X5800000Y15000000D03*
X-14600000Y-45150000D03*
X15600000Y32350000D03*
X9425000Y42925000D03*
D15*
X3750000Y16250000D03*
D14*
X-1450000Y38850000D03*
X8350000Y53275000D03*
X-1450000Y41800000D03*
X-5450000Y30750000D03*
D15*
X-8000000Y56000000D03*
D14*
X-10750000Y52800000D03*
X-18400000Y-32400000D03*
X13400000Y33900000D03*
X-20100000Y17100000D03*
X-11150000Y-19400000D03*
X-9700000Y41000000D03*
X7650000Y37400000D03*
X-8325000Y42300000D03*
D15*
X22000000Y46550000D03*
D14*
X2175000Y42875000D03*
X-5500000Y-35000000D03*
X-100000Y55500000D03*
X-9450000Y52850000D03*
D15*
X25200000Y43300000D03*
D14*
X11150000Y43250000D03*
D15*
X21900000Y48050000D03*
D14*
X4000000Y44950000D03*
X11225000Y44275000D03*
X11150000Y40400000D03*
D15*
X18125000Y44000000D03*
D14*
X13350000Y37150000D03*
X-1575000Y60100000D03*
D15*
X-15400000Y2550000D03*
D14*
X-1575000Y59000000D03*
X11400000Y15900000D03*
X-4550000Y9300000D03*
X-9050000Y59150000D03*
X-7050000Y-41450000D03*
D15*
X6600000Y56500000D03*
D14*
X2200000Y36050000D03*
X-5950000Y59200000D03*
D15*
X-4600000Y33000000D03*
D14*
X-9800000Y50086400D03*
X-14250000Y-37650000D03*
X-17600000Y-3350000D03*
X-8850000Y50086400D03*
X-20850000Y-6850000D03*
X7650000Y38850000D03*
X-1375000Y44950000D03*
X-16500000Y45800000D03*
X400000Y41800000D03*
D15*
X25250000Y48250000D03*
D14*
X-3450000Y-34950000D03*
X-12450000Y56500000D03*
X-14600000Y-22000000D03*
X7600000Y44975000D03*
X13400000Y33250000D03*
D15*
X-4925000Y59175000D03*
D14*
X-7950000Y59150000D03*
D15*
X23450000Y44300000D03*
D14*
X15625000Y60125000D03*
X-3275000Y52850000D03*
X-550000Y17150000D03*
X13300000Y34750000D03*
X-19400000Y49600000D03*
X-11850000Y58925000D03*
X-5400000Y35700000D03*
D15*
X6600000Y55500000D03*
D14*
X8850000Y50675000D03*
X-4956400Y49900000D03*
X-1575000Y59550000D03*
X-12300000Y-34825000D03*
X-25700000Y-45650000D03*
X-25550000Y-3350000D03*
X-3450000Y-33750000D03*
X-4350000Y6100000D03*
X27600000Y11000000D03*
X20650000Y6100000D03*
X-5500000Y-36200000D03*
X-10750000Y50050000D03*
X-4000000Y15900000D03*
X15625000Y58925000D03*
X2475000Y6175000D03*
D15*
X24100000Y43300000D03*
D14*
X-5350000Y52900000D03*
X-11400000Y57350000D03*
X5825000Y42925000D03*
X7900000Y7150000D03*
X1350000Y53350000D03*
X-8750000Y-31900000D03*
X-1975000Y50950000D03*
X7625000Y42925000D03*
X-14750000Y60300000D03*
X350000Y44975000D03*
X23350000Y8300000D03*
X13300000Y35350000D03*
X-16500000Y45225000D03*
X-13600000Y53200000D03*
X8500000Y7150000D03*
X-1975000Y49825000D03*
X-19200000Y-7400000D03*
X-1450000Y40300000D03*
D15*
X-16000000Y-9550000D03*
D14*
X10850000Y33800000D03*
X-100000Y54500000D03*
X-15050000Y33600000D03*
X14900000Y30900000D03*
X5850000Y40300000D03*
D15*
X-20900000Y-10750000D03*
X25750000Y43300000D03*
D14*
X-7500000Y32050000D03*
X4875000Y53275000D03*
D15*
X24650000Y43300000D03*
D14*
X-14850000Y55400000D03*
X4050000Y37400000D03*
X4000000Y36000000D03*
X-23200000Y-2400000D03*
%TO.N,+3V3*%
X-22050000Y-13750000D03*
X-17000000Y23675000D03*
X-7750000Y-9300000D03*
X-22050000Y-9100000D03*
X-11350000Y-31000000D03*
X-12225000Y46275000D03*
X-14250000Y-29000000D03*
X-20800000Y16625000D03*
X-14450000Y6050000D03*
X-22650000Y-9100000D03*
X-2800000Y22200000D03*
X-20100000Y-2400000D03*
X-12000000Y-14550000D03*
%TO.N,/Power and input connector/Vin*%
X13700000Y50650000D03*
X1175000Y58225000D03*
X13350000Y50150000D03*
X75000Y58225000D03*
X12550000Y60350000D03*
X625000Y58225000D03*
X13350000Y49150000D03*
X13700000Y49650000D03*
X12550000Y59250000D03*
X12550000Y59800000D03*
D15*
%TO.N,/Modem/UIM_SIM_DET*%
X-5400000Y36750000D03*
X-3975000Y27075000D03*
D14*
%TO.N,/Modem/UIM_VCC*%
X-25300000Y-24739600D03*
X-5550000Y-20300000D03*
D15*
X-13650000Y-25850000D03*
X13206594Y41793406D03*
D14*
X-9000000Y-17800000D03*
X-14600000Y-22800000D03*
%TO.N,/Power and input connector/5V_O*%
X-4375000Y56975000D03*
X-4375000Y56425000D03*
X-5200000Y48800000D03*
%TO.N,/Modem/UIM_RESET_N*%
X-6600000Y-19700000D03*
X-25325000Y-22200000D03*
X-14125000Y-19875000D03*
D15*
X13200000Y44200000D03*
D14*
%TO.N,/Modem/UIM_CLK_R*%
X-16400000Y-19100000D03*
X-25325000Y-19659600D03*
%TO.N,/Power and input connector/VIN_DCDC_3V7*%
X10600000Y55100000D03*
X2450000Y56250000D03*
X1800000Y56250000D03*
X11150000Y55100000D03*
X10600000Y55700000D03*
X3100000Y56250000D03*
X11150000Y55700000D03*
D15*
%TO.N,/SD_DAT2*%
X-9400000Y3350000D03*
X-20830000Y-12370000D03*
%TO.N,/SD_DAT3*%
X-9250000Y-2000000D03*
X-20850000Y-11550000D03*
D14*
%TO.N,/SD_CMD*%
X-20900000Y-9900000D03*
D15*
X-13850000Y-2650000D03*
%TO.N,/SD_CLK*%
X-20800000Y-8000000D03*
D14*
X-9250000Y-1250000D03*
D15*
%TO.N,/SD_DAT0*%
X-13300000Y-1550000D03*
X-20700000Y-5750000D03*
%TO.N,/SD_DAT1*%
X-12750000Y-1050000D03*
X-20700000Y-4670000D03*
%TO.N,/SD_nDET*%
X-19950000Y-3950000D03*
X-7700000Y-2300000D03*
D14*
%TO.N,/LED driver\u002C LED board connections/LED3_B*%
X-12700000Y40350000D03*
%TO.N,VBUS*%
X-14950000Y43900000D03*
X-4600000Y-37750000D03*
X-5200000Y-38350000D03*
X-4600000Y-38350000D03*
X-15250000Y44400000D03*
X-11050000Y8100000D03*
X-5350000Y-32200000D03*
X10925000Y-29125000D03*
X-15550000Y43900000D03*
X-14650000Y44400000D03*
X18850000Y4550000D03*
X-13475000Y-35050000D03*
X-5200000Y-37750000D03*
X2550000Y7650000D03*
%TO.N,/USB_OTG_ID*%
X22550000Y8300000D03*
X19115000Y24700000D03*
X16950000Y24725000D03*
%TO.N,/Power and input connector/VIN_DCDC_5*%
X-4700000Y55600000D03*
X-4700000Y55000000D03*
X-11900000Y53850000D03*
X-12500000Y53850000D03*
X-5300000Y55600000D03*
X-5300000Y55000000D03*
X-12500000Y54450000D03*
X-11900000Y54450000D03*
D15*
%TO.N,/RXD*%
X-10200000Y-6300000D03*
X-14800000Y-28500000D03*
X-6600000Y-28850000D03*
%TO.N,/TXD*%
X-15375000Y-25450000D03*
X-10700000Y-5650000D03*
X-6600000Y-27900000D03*
D14*
%TO.N,/LED driver\u002C LED board connections/LED3_G*%
X-12000000Y40700000D03*
%TO.N,/nPWR_LED*%
X-13850000Y41100000D03*
X-17325000Y-35525000D03*
%TO.N,/LED driver\u002C LED board connections/LED2_B*%
X-12700000Y41700000D03*
D15*
%TO.N,/LED driver\u002C LED board connections/LED2_G*%
X-11900000Y42250000D03*
%TO.N,/LED driver\u002C LED board connections/LED2_R*%
X-13300000Y42850000D03*
%TO.N,/LED driver\u002C LED board connections/LED1_B*%
X-16100000Y42300000D03*
X-11900000Y43250000D03*
%TO.N,/LED driver\u002C LED board connections/LED1_G*%
X-12700000Y43250000D03*
D14*
%TO.N,/LED driver\u002C LED board connections/LED1_R*%
X-9700000Y43275000D03*
%TO.N,+5V*%
X14050000Y-24850000D03*
X2450000Y-9800000D03*
X-9100000Y14500000D03*
X-9850000Y-8500000D03*
X-8935000Y45480000D03*
X14050000Y-25950000D03*
X27675000Y-16525000D03*
X27050000Y2300000D03*
X-9850000Y-9100000D03*
X-9460000Y46305000D03*
X-9250000Y-7900000D03*
X10100000Y3850000D03*
X-7825000Y46050000D03*
X27675000Y-18250000D03*
X-11800000Y33250000D03*
X27675000Y-17675000D03*
X27650000Y2300000D03*
X-9850000Y-7900000D03*
X-8385000Y45480000D03*
X26450000Y2300000D03*
X-9850000Y-9700000D03*
X27050000Y1700000D03*
X-9250000Y-9100000D03*
X27650000Y1700000D03*
X-7835000Y46600000D03*
X27675000Y-17100000D03*
X26450000Y1700000D03*
X-9250000Y-8500000D03*
X-9485000Y45505000D03*
X14050000Y-27050000D03*
X-11900000Y36600000D03*
X14050000Y-25400000D03*
X-9250000Y-9700000D03*
X-7835000Y45480000D03*
X14050000Y-26500000D03*
%TO.N,/USB_UART_DN*%
X-8150000Y-40700000D03*
%TO.N,/USB_UART_DP*%
X-6900000Y-40700000D03*
D15*
%TO.N,/POWER_ON_N*%
X-7700000Y900000D03*
X-3000000Y16600000D03*
X-7750000Y16250000D03*
%TO.N,/RESET_IN_N*%
X-2150000Y11050000D03*
X-9150000Y10400000D03*
X-9250000Y1250000D03*
%TO.N,/BOOT_MODE*%
X-8000000Y10950000D03*
X-3900000Y11550000D03*
X-9250000Y-300000D03*
%TO.N,/WAKE*%
X-2000000Y22000000D03*
X1950000Y24600000D03*
D14*
%TO.N,GNDA*%
X3750000Y-43075000D03*
X12500000Y-5500000D03*
X12525000Y-10900000D03*
X27050000Y-28050000D03*
X11225000Y-17475000D03*
X18425000Y-17325000D03*
X-3275000Y-44400000D03*
X11225000Y-18075000D03*
X27075000Y-33450000D03*
X11800000Y-24800000D03*
X27075000Y-34625000D03*
X27050000Y-30450000D03*
X12500000Y-6100000D03*
X-3650000Y5250000D03*
X12525000Y-11500000D03*
X12500000Y-7300000D03*
X-3275000Y-43500000D03*
X18500000Y-33400000D03*
X11225000Y-18675000D03*
X11225000Y-16275000D03*
X18900000Y-15875000D03*
X15075000Y-31875000D03*
X19450000Y-1750000D03*
X4900000Y-34750000D03*
X21350000Y-5825000D03*
X8675000Y-9725000D03*
X1450000Y-7450000D03*
X-4550000Y-1600000D03*
X10700000Y-27425000D03*
X16450000Y-25550000D03*
X25125000Y-30200000D03*
X27100000Y5000000D03*
X7825000Y-31000000D03*
X12525000Y-9700000D03*
X10700000Y-26225000D03*
X7725000Y-21325000D03*
X10578849Y-8870138D03*
X1900000Y-3350000D03*
X9300000Y-21925000D03*
X10700000Y-25025000D03*
X2475000Y5225000D03*
X25025000Y-27250000D03*
X15625000Y-46350000D03*
X3900000Y-10350000D03*
X12525000Y-9100000D03*
X25800000Y-26700000D03*
X12500000Y-6700000D03*
X4900000Y-34200000D03*
X23400000Y-43200000D03*
X15900000Y-43650000D03*
X27075000Y-32850000D03*
X19450000Y-3550000D03*
X4350000Y-34750000D03*
X24650000Y-5250000D03*
X27050000Y-29250000D03*
X12725000Y-2500000D03*
X11775000Y-14475000D03*
X19450000Y-2950000D03*
X19250000Y5250000D03*
X18300000Y-15875000D03*
X24650000Y-4650000D03*
X12725000Y-1900000D03*
X6250000Y-19900000D03*
X6925000Y-21150000D03*
X3000000Y-26500000D03*
X18500000Y-32850000D03*
X-2200000Y2150000D03*
X27075000Y-35225000D03*
X1550000Y-1350000D03*
X12525000Y-13875000D03*
X10700000Y-25625000D03*
X23800000Y-39075000D03*
X27075000Y-32250000D03*
X19425000Y-15475000D03*
X12525000Y-12675000D03*
X12525000Y-12100000D03*
X17950000Y-32850000D03*
D15*
X19425000Y-14275000D03*
D14*
X19450000Y-2350000D03*
X11850000Y-31450000D03*
X27050000Y-29850000D03*
X-4650000Y-18550000D03*
X12525000Y-10300000D03*
X12700000Y-37550000D03*
X18500000Y-20275000D03*
X4350000Y-34200000D03*
D15*
X19425000Y-13700000D03*
D14*
X19425000Y-14875000D03*
X20775000Y-42800000D03*
X11800000Y-24200000D03*
X13500000Y5250000D03*
X27050000Y-28650000D03*
X-3850000Y-42250000D03*
X17000000Y-25000000D03*
X17000000Y-25550000D03*
X12725000Y-3100000D03*
X19325000Y-17325000D03*
X10700000Y-28025000D03*
X8050000Y-34750000D03*
X18100000Y-43400000D03*
X10700000Y-26825000D03*
X15075000Y-32450000D03*
X11225000Y-16875000D03*
X16450000Y-25000000D03*
X12500000Y-7900000D03*
X400000Y-28300000D03*
X7000000Y5250000D03*
X-4150000Y-8200000D03*
X12525000Y-13275000D03*
X15575000Y-34900000D03*
X-4650000Y-22625000D03*
X11775000Y-15075000D03*
X21300000Y-10700000D03*
X12500000Y-8500000D03*
X27075000Y-31050000D03*
X21300000Y-10100000D03*
X27075000Y-31650000D03*
X5200000Y-28000000D03*
X27075000Y-34050000D03*
X6950000Y550000D03*
X27050000Y-27450000D03*
X17950000Y-33400000D03*
X27075000Y-35825000D03*
X21350000Y-5225000D03*
X12175000Y-3100000D03*
X-4400000Y350000D03*
%TO.N,/MIC_IN_P*%
X6350000Y-44600000D03*
X2200000Y-40475000D03*
X-550000Y-41300000D03*
D15*
%TO.N,/WAKE_ON_WWAN*%
X3850000Y18050000D03*
X-10650000Y1700000D03*
X-8450000Y18200000D03*
%TO.N,/TX_ON*%
X4350000Y19800000D03*
X-10800000Y2400000D03*
X-9600000Y18550000D03*
D14*
%TO.N,/Modem/1V8_TX_ON*%
X-5400000Y41700000D03*
X4850000Y21200000D03*
%TO.N,/Modem/1V8_WAKE_ON_WWAN*%
X5900000Y19100000D03*
X15650000Y42275000D03*
%TO.N,/Modem/1V8_WAKE*%
X3450000Y25550000D03*
D15*
X4400000Y34100000D03*
D14*
%TO.N,/Modem/1V8_BOOT_MODE*%
X5250000Y13950000D03*
X1150000Y49750000D03*
D15*
%TO.N,/Modem/1V8_RESET_IN_N*%
X5250000Y34050000D03*
D14*
X4850000Y11300000D03*
%TO.N,/Modem/1V8_POWER_ON_N*%
X4850000Y17850000D03*
X-5250000Y42700000D03*
%TO.N,Net-(D1-K)*%
X-14300000Y-36100000D03*
X-16025000Y-31475000D03*
D15*
%TO.N,/MODEM_USB_DN*%
X6050000Y34200000D03*
D14*
X18700000Y35050000D03*
D15*
%TO.N,/MODEM_USB_DP*%
X6850000Y34200000D03*
D14*
X17900000Y35050000D03*
%TO.N,Net-(D3-K)*%
X-9500000Y-44350000D03*
X1650000Y21850000D03*
X-16000000Y20950000D03*
%TO.N,+3V7*%
X9200000Y33200000D03*
X11050000Y49600000D03*
X9250000Y49600000D03*
X9850000Y49600000D03*
X-5450000Y39100000D03*
X10450000Y49600000D03*
X-5450000Y40200000D03*
X-5450000Y38550000D03*
X-5450000Y39650000D03*
D15*
%TO.N,/Modem/UIM_CLK*%
X13200000Y42600000D03*
D14*
X-6150000Y-17100000D03*
%TO.N,/GLOBAL_EN_o*%
X-12800000Y-12350000D03*
X-14950000Y9650000D03*
D15*
%TO.N,/nRPIBOOT*%
X-14300000Y-10850000D03*
X-15200000Y20400000D03*
D14*
X18750000Y27300000D03*
D15*
%TO.N,/3V7_EN*%
X-10800000Y100000D03*
X8925000Y56125000D03*
D14*
%TO.N,/Power and input connector/3V7_O*%
X10275000Y56800000D03*
X7975000Y49675000D03*
X10275000Y57375000D03*
%TO.N,/Power and input connector/3.3VA_O*%
X22850000Y-19150000D03*
%TO.N,/Power and input connector/1V8_O*%
X22850000Y-15775000D03*
D15*
%TO.N,/nPWR_LED_BUF*%
X-25900000Y-18600000D03*
X-15800000Y-33050000D03*
X-12300000Y-11600000D03*
D14*
%TO.N,/MIC_IN_N*%
X4225000Y-44350000D03*
X1050000Y-41300000D03*
%TO.N,Net-(Module1A-RUN_PG)*%
X-12950000Y-13750000D03*
D15*
%TO.N,Net-(U7-UART1_TX)*%
X-600000Y34050000D03*
D14*
X-10109200Y32715200D03*
X-5283200Y34645600D03*
%TO.N,Net-(U7-UART1_RX)*%
X-10109200Y31902400D03*
D15*
X650000Y34050000D03*
D14*
X-5283200Y33578800D03*
%TO.N,Net-(U7-SYS_CLK)*%
X13200000Y38600000D03*
X17100000Y38900000D03*
%TO.N,Net-(U7-SLEEP_CLK)*%
X16500000Y41000000D03*
X13650000Y39400000D03*
%TO.N,/Modem/UIM_DATA*%
X-22150000Y-19659600D03*
D15*
X13200000Y43412246D03*
D14*
X-16400000Y-18200000D03*
X-6150000Y-18000000D03*
%TO.N,Net-(U18A-SOUT2)*%
X4150000Y-31150000D03*
X6050000Y-24150000D03*
%TO.N,Net-(U18A-SOUT1)*%
X5500000Y-20200000D03*
X5600000Y-21450000D03*
%TO.N,+15V*%
X7550000Y-20250000D03*
X-1550000Y-37650000D03*
X550000Y-6500000D03*
X19625000Y-35350000D03*
X5100000Y-3850000D03*
X-100000Y-13750000D03*
X19625000Y-34800000D03*
X11850000Y-36850000D03*
%TO.N,-15V*%
X-3950000Y-32100000D03*
X8425000Y-19075000D03*
X1800000Y-5450000D03*
X18825000Y-5650000D03*
X11500000Y-34800000D03*
X-3300000Y-16850000D03*
X18275000Y-5650000D03*
X-4150000Y-10850000D03*
%TO.N,Net-(U27-IN+)*%
X-400000Y400000D03*
X-1350000Y-550000D03*
%TO.N,Net-(U27-IN-)*%
X-3700000Y2500000D03*
X-1300000Y400000D03*
%TO.N,+1V8*%
X770000Y1575000D03*
X20525000Y-13250000D03*
X21075000Y-13250000D03*
%TO.N,+48V*%
X8900000Y-27100000D03*
X5725000Y-36025000D03*
X8475000Y-6250000D03*
X9050000Y-6250000D03*
%TO.N,/Power and input connector/BSW*%
X11275000Y-29800000D03*
X13475000Y-23600000D03*
%TO.N,Net-(C71-Pad2)*%
X-150000Y-8550000D03*
X-1300000Y-7450000D03*
X-1300000Y-1550000D03*
%TO.N,Net-(D14-A)*%
X-3750000Y-19300000D03*
X1000000Y-13650000D03*
%TO.N,/SDOUT_INT_MIC*%
X-12550000Y11800000D03*
X-13400000Y39950000D03*
%TO.N,+5VA*%
X2600000Y-4000000D03*
X-4150000Y-2450000D03*
%TO.N,/EXT_MIC_EN*%
X1000000Y24400000D03*
X24775000Y-13850000D03*
D15*
X-10250000Y1100000D03*
D14*
X-4800000Y27100000D03*
X24775000Y-17375000D03*
X11825000Y-21650000D03*
X-3050000Y8650000D03*
D15*
X-10200000Y10350000D03*
%TO.N,/SPI_SCLK*%
X-7800000Y100000D03*
%TO.N,/SPI_nCS*%
X-10750000Y-600000D03*
%TO.N,/SPI_MOSI*%
X-7650000Y-1550000D03*
D14*
%TO.N,Net-(Q14-D)*%
X8650000Y-31200000D03*
X11725000Y-37624064D03*
%TO.N,/External Microphone Interface/PIP_EN*%
X9375000Y-16150000D03*
X18225000Y-40750000D03*
%TO.N,/External Microphone Interface/P3V3_EN*%
X16500000Y-45025000D03*
X23000000Y-41975000D03*
X15150000Y-37825000D03*
X9375000Y-16900000D03*
%TO.N,Net-(U18A-IN1)*%
X2450000Y-20600000D03*
X2062500Y-18587500D03*
X-1275000Y-13775000D03*
%TO.N,Net-(U18A-IN2)*%
X1950000Y-14950000D03*
X-600000Y-21600000D03*
X-1950000Y-14250000D03*
%TO.N,/External Microphone Interface/CNV*%
X14300000Y21550000D03*
X13950000Y10300000D03*
X-2400000Y9300000D03*
%TO.N,/External Microphone Interface/SCK*%
X-1500000Y11450000D03*
X-3900000Y17100000D03*
%TO.N,/External Microphone Interface/AMP_MOSI*%
X-3050000Y7800000D03*
X5000000Y-11500000D03*
%TO.N,/External Microphone Interface/AMP_SCLK*%
X4450000Y-12400000D03*
X-3850000Y7800000D03*
%TO.N,/External Microphone Interface/AMP_nCS*%
X-3850000Y8600000D03*
X3850000Y-12950000D03*
%TO.N,/External Microphone Interface/Q0*%
X19116421Y10316421D03*
X-3350000Y12650000D03*
X11550000Y10700000D03*
X4050000Y10750000D03*
%TO.N,/External Microphone Interface/Q1*%
X-3975000Y13325000D03*
X11850000Y12000000D03*
X19650000Y10950000D03*
X3750000Y12000000D03*
%TO.N,/External Microphone Interface/Q2*%
X-3300000Y14000000D03*
X19150000Y12250000D03*
X11900000Y13350000D03*
X4150000Y13350000D03*
%TO.N,/External Microphone Interface/Q3*%
X3750000Y14600000D03*
X19650000Y12900000D03*
X-3950000Y14600000D03*
X11900000Y14150000D03*
%TO.N,/External Microphone Interface/Q4*%
X14900000Y15900000D03*
X7050000Y15950000D03*
X-1200000Y14850000D03*
X4250000Y15200000D03*
X-8300000Y16850000D03*
X5050000Y16250000D03*
%TO.N,/External Microphone Interface/CLK_H*%
X-1100000Y16000000D03*
X19100000Y13550000D03*
%TO.N,/External Microphone Interface/RST*%
X11850000Y20400000D03*
X13200000Y16950000D03*
X-1850000Y15550000D03*
%TO.N,/External Microphone Interface/!Qeq2*%
X6675000Y18475000D03*
X3900000Y19200000D03*
%TO.N,/External Microphone Interface/!Qeq10*%
X14400000Y17950000D03*
X14800000Y10850000D03*
%TO.N,/External Microphone Interface/Qeq2*%
X6900000Y20950000D03*
X6750000Y17650000D03*
X14800000Y19400000D03*
%TO.N,/External Microphone Interface/AMP_RST*%
X-3050000Y15850000D03*
X3467462Y-14282538D03*
X-4950000Y6950000D03*
X4050000Y17300000D03*
%TO.N,Net-(U19A-~{R})*%
X12300000Y17850000D03*
X6900000Y19300000D03*
D15*
%TO.N,/SHDNZ*%
X-9250000Y500000D03*
X-7900000Y20400000D03*
%TO.N,/LED_ACT*%
X-16700000Y-32950000D03*
X-17400000Y3200000D03*
X-12750000Y3300000D03*
%TO.N,/LED_USER*%
X-9450000Y-5750000D03*
X-8750000Y-39650000D03*
D14*
%TO.N,/Power and input connector/LT_VIN*%
X24700000Y-800000D03*
X12350000Y450000D03*
X24100000Y-200000D03*
X12350000Y1050000D03*
X12350000Y-150000D03*
X24700000Y-200000D03*
X12950000Y1050000D03*
X23500000Y-800000D03*
X23500000Y-200000D03*
X12950000Y-150000D03*
X12950000Y450000D03*
X24100000Y-800000D03*
%TO.N,/Power and input connector/LT_VOUT*%
X15450000Y-4900000D03*
X16000000Y1600000D03*
%TO.N,/Modem/UIM_DSW*%
X-5550000Y-21100000D03*
X-17170400Y-21640800D03*
X-11950000Y-21550000D03*
X-9850000Y-17800000D03*
X-2850000Y27150000D03*
D15*
%TO.N,/Modem/J1*%
X-3170000Y32950000D03*
%TO.N,/Modem/J2*%
X-1700000Y32800000D03*
%TO.N,/Modem/J3*%
X-510000Y32810000D03*
%TO.N,/Modem/J4*%
X650000Y32820000D03*
%TO.N,/Modem/J5*%
X1810000Y32800000D03*
%TO.N,/Modem/J6*%
X3100000Y32830000D03*
%TO.N,/Modem/J7*%
X5380000Y32800000D03*
%TO.N,/Modem/J8*%
X6550000Y32800000D03*
%TO.N,/Modem/J9*%
X7700000Y32800000D03*
D14*
%TO.N,IN_VIN*%
X-7300000Y-36250000D03*
X-7300000Y-33850000D03*
X-7300000Y-35050000D03*
X19700000Y48750000D03*
X-7300000Y-34450000D03*
X20300000Y49350000D03*
X20300000Y48750000D03*
X19700000Y49350000D03*
X-7800000Y-41450000D03*
X-7300000Y-35650000D03*
X19100000Y49350000D03*
X19100000Y48750000D03*
%TO.N,/External Microphone Interface/P3V3_DISABLE*%
X26425000Y-26175000D03*
%TO.N,/48V_EN*%
X9400000Y-17850000D03*
X15125000Y-45200000D03*
X12075000Y-1100000D03*
X22600000Y-44475000D03*
X13850000Y-39425000D03*
D15*
X21500000Y-950000D03*
%TD*%
D16*
%TO.N,/SDA*%
X-14800000Y-4900000D02*
X-15500000Y-4900000D01*
X-14250000Y-4350000D02*
X-14800000Y-4900000D01*
X-9600000Y-4350000D02*
X-14250000Y-4350000D01*
X-9150000Y-3900000D02*
X-9600000Y-4350000D01*
%TO.N,/FSYNC*%
X-9300000Y2600000D02*
X-9325000Y2600000D01*
X-650000Y19550000D02*
X-650000Y19900000D01*
X-9325000Y2600000D02*
X-9900000Y3175000D01*
X11050000Y18600000D02*
X11850000Y18600000D01*
X6850000Y20050000D02*
X6300000Y20600000D01*
X9600000Y20050000D02*
X11050000Y18600000D01*
X-450000Y19900000D02*
X-650000Y19900000D01*
X-9900000Y3175000D02*
X-9900000Y3700000D01*
X6850000Y20050000D02*
X9600000Y20050000D01*
X-3950000Y19200000D02*
X-1000000Y19200000D01*
X-1000000Y19200000D02*
X-650000Y19550000D01*
X-4050000Y19100000D02*
X-3950000Y19200000D01*
X6300000Y20600000D02*
X250000Y20600000D01*
X-12100000Y18800000D02*
X-11800000Y19100000D01*
X-12100000Y17500000D02*
X-12100000Y18800000D01*
X-9900000Y3700000D02*
X-10150000Y3950000D01*
X-11800000Y19100000D02*
X-4050000Y19100000D01*
X-10150000Y3950000D02*
X-12750000Y3950000D01*
X250000Y20600000D02*
X-450000Y19900000D01*
%TO.N,/BCLK*%
X-11800000Y19500000D02*
X-12550000Y20250000D01*
X7000000Y21900000D02*
X7200000Y21700000D01*
X-150000Y20900000D02*
X2536827Y20900000D01*
X-1650000Y20400000D02*
X-2550000Y19500000D01*
X-650000Y20400000D02*
X-1650000Y20400000D01*
X-2550000Y19500000D02*
X-11800000Y19500000D01*
X-500000Y20550000D02*
X-650000Y20400000D01*
X3536827Y21900000D02*
X7000000Y21900000D01*
X-500000Y20550000D02*
X-150000Y20900000D01*
X2536827Y20900000D02*
X3536827Y21900000D01*
D17*
%TO.N,+3V3*%
X-22050000Y-4350000D02*
X-22050000Y-9100000D01*
X-11600000Y22500000D02*
X-17000000Y22500000D01*
X-14350000Y-13750000D02*
X-13550000Y-14550000D01*
X-17000000Y40250000D02*
X-17000000Y22500000D01*
D18*
X-17150000Y16450000D02*
X-17100000Y16500000D01*
X-14450000Y6050000D02*
X-16400000Y6050000D01*
D17*
X-17100000Y16500000D02*
X-16400000Y15800000D01*
X-2800000Y22200000D02*
X-3400000Y21600000D01*
X-7750000Y-10850000D02*
X-7750000Y-9300000D01*
X-17000000Y16600000D02*
X-17100000Y16500000D01*
X-11450000Y-14550000D02*
X-7750000Y-10850000D01*
X-13550000Y-14550000D02*
X-11450000Y-14550000D01*
X-3400000Y21600000D02*
X-10700000Y21600000D01*
X-10700000Y21600000D02*
X-11600000Y22500000D01*
X-16400000Y15800000D02*
X-16400000Y6050000D01*
X-22050000Y-13750000D02*
X-14350000Y-13750000D01*
X-12225000Y45025000D02*
X-17000000Y40250000D01*
X-16400000Y6050000D02*
X-16400000Y1300000D01*
D18*
X-20800000Y16625000D02*
X-20625000Y16450000D01*
D17*
X-22650000Y-9100000D02*
X-22050000Y-9100000D01*
D18*
X-20625000Y16450000D02*
X-17150000Y16450000D01*
D17*
X-17000000Y22500000D02*
X-17000000Y16600000D01*
X-12225000Y46275000D02*
X-12225000Y45025000D01*
X-16400000Y1300000D02*
X-22050000Y-4350000D01*
D18*
%TO.N,/Modem/UIM_VCC*%
X-23979200Y-23418800D02*
X-15218800Y-23418800D01*
D19*
X-9000000Y-19550000D02*
X-8250000Y-20300000D01*
X-8250000Y-20300000D02*
X-5550000Y-20300000D01*
D18*
X-15218800Y-23418800D02*
X-14600000Y-22800000D01*
D19*
X-9000000Y-17800000D02*
X-9000000Y-19550000D01*
D18*
X-25300000Y-24739600D02*
X-23979200Y-23418800D01*
D19*
%TO.N,/Modem/UIM_RESET_N*%
X-25324600Y-22199600D02*
X-19849600Y-22199600D01*
X-14163600Y-19913600D02*
X-14125000Y-19875000D01*
X-19849600Y-22199600D02*
X-17563600Y-19913600D01*
X-25325000Y-22200000D02*
X-25324600Y-22199600D01*
X-17563600Y-19913600D02*
X-14163600Y-19913600D01*
%TO.N,/Modem/UIM_CLK_R*%
X-25325000Y-19659600D02*
X-24359800Y-20624800D01*
X-16400800Y-19100800D02*
X-16400000Y-19100000D01*
X-17650800Y-19100800D02*
X-16400800Y-19100800D01*
X-24359800Y-20624800D02*
X-19174800Y-20624800D01*
X-19174800Y-20624800D02*
X-17650800Y-19100800D01*
D16*
%TO.N,/SD_nDET*%
X-14050000Y-4850000D02*
X-14700000Y-5500000D01*
X-8650000Y-4300000D02*
X-9200000Y-4850000D01*
X-14700000Y-5500000D02*
X-18400000Y-5500000D01*
X-7700000Y-2650000D02*
X-8650000Y-3600000D01*
X-18400000Y-5500000D02*
X-19950000Y-3950000D01*
X-8650000Y-3600000D02*
X-8650000Y-4300000D01*
X-7700000Y-2300000D02*
X-7700000Y-2650000D01*
X-9200000Y-4850000D02*
X-14050000Y-4850000D01*
D18*
%TO.N,VBUS*%
X-13475000Y-35050000D02*
X-12625000Y-34200000D01*
X-12625000Y-34200000D02*
X-9875000Y-34200000D01*
X-5350000Y-32100000D02*
X-5350000Y-32200000D01*
D19*
X-4050000Y7000000D02*
X-5150000Y8100000D01*
X-5150000Y8100000D02*
X-11050000Y8100000D01*
D18*
X-7875000Y-32200000D02*
X-5350000Y-32200000D01*
D19*
X1900000Y7000000D02*
X-4050000Y7000000D01*
D18*
X-9875000Y-34200000D02*
X-7875000Y-32200000D01*
D19*
X2550000Y7650000D02*
X1900000Y7000000D01*
D16*
%TO.N,/RXD*%
X-11800000Y-28200000D02*
X-11150000Y-28850000D01*
X-14800000Y-28500000D02*
X-14500000Y-28200000D01*
X-14500000Y-28200000D02*
X-11800000Y-28200000D01*
X-11150000Y-28850000D02*
X-6600000Y-28850000D01*
%TO.N,/TXD*%
X-15375000Y-25450000D02*
X-14850000Y-25450000D01*
X-14850000Y-25450000D02*
X-12400000Y-27900000D01*
X-12400000Y-27900000D02*
X-6600000Y-27900000D01*
D18*
%TO.N,+5V*%
X9950000Y4050000D02*
X4000000Y4050000D01*
X3375000Y3425000D02*
X3375000Y-8875000D01*
X10100000Y3900000D02*
X9950000Y4050000D01*
X3375000Y-8875000D02*
X2450000Y-9800000D01*
X10100000Y3850000D02*
X10100000Y3900000D01*
X4000000Y4050000D02*
X3375000Y3425000D01*
D16*
%TO.N,/POWER_ON_N*%
X-3000000Y16600000D02*
X-3100000Y16500000D01*
X-7500000Y16500000D02*
X-7750000Y16250000D01*
X-3100000Y16500000D02*
X-7500000Y16500000D01*
%TO.N,/RESET_IN_N*%
X-9100000Y10350000D02*
X-9150000Y10400000D01*
X-2150000Y11050000D02*
X-6850000Y11050000D01*
X-6850000Y11050000D02*
X-7550000Y10350000D01*
X-7550000Y10350000D02*
X-9100000Y10350000D01*
%TO.N,/BOOT_MODE*%
X-7400000Y11550000D02*
X-8000000Y10950000D01*
X-3900000Y11550000D02*
X-7400000Y11550000D01*
%TO.N,/WAKE*%
X800000Y22650000D02*
X1950000Y23800000D01*
X1950000Y23800000D02*
X1950000Y24600000D01*
X-1350000Y22650000D02*
X800000Y22650000D01*
X-2000000Y22000000D02*
X-1350000Y22650000D01*
%TO.N,/WAKE_ON_WWAN*%
X2750000Y18200000D02*
X2900000Y18050000D01*
X-8450000Y18200000D02*
X2750000Y18200000D01*
X2900000Y18050000D02*
X3850000Y18050000D01*
%TO.N,/TX_ON*%
X2350000Y18800000D02*
X-9350000Y18800000D01*
X4350000Y19800000D02*
X3350000Y19800000D01*
X-9350000Y18800000D02*
X-9600000Y18550000D01*
X3350000Y19800000D02*
X2350000Y18800000D01*
D19*
%TO.N,/MODEM_USB_DN*%
X18500000Y35250000D02*
X18500000Y35732844D01*
X7267156Y36550000D02*
X6250000Y35532844D01*
X6250000Y35532844D02*
X6250000Y34400000D01*
X6250000Y34400000D02*
X6050000Y34200000D01*
X18700000Y35050000D02*
X18500000Y35250000D01*
X18500000Y35732844D02*
X17682844Y36550000D01*
X17682844Y36550000D02*
X7267156Y36550000D01*
%TO.N,/MODEM_USB_DP*%
X6650000Y35367156D02*
X6650000Y34400000D01*
X6650000Y34400000D02*
X6850000Y34200000D01*
X17900000Y35050000D02*
X18100000Y35250000D01*
X18100000Y35250000D02*
X18100000Y35567156D01*
X7432844Y36150000D02*
X6650000Y35367156D01*
X17517156Y36150000D02*
X7432844Y36150000D01*
X18100000Y35567156D02*
X17517156Y36150000D01*
%TO.N,Net-(D3-K)*%
X-1350000Y21850000D02*
X1650000Y21850000D01*
X-11775000Y21850000D02*
X-10875000Y20950000D01*
X-2250000Y20950000D02*
X-1350000Y21850000D01*
X-15100000Y21850000D02*
X-11775000Y21850000D01*
X-10875000Y20950000D02*
X-2250000Y20950000D01*
X-16000000Y20950000D02*
X-15100000Y21850000D01*
D18*
%TO.N,+3V7*%
X-1250000Y33450000D02*
X-5450000Y37650000D01*
D20*
X-2750000Y48400000D02*
X8375000Y48400000D01*
X-3800000Y47350000D02*
X-2750000Y48400000D01*
D18*
X8950000Y33450000D02*
X-1250000Y33450000D01*
X-5450000Y37650000D02*
X-5450000Y38550000D01*
D20*
X9575000Y49600000D02*
X10750000Y49600000D01*
X-5450000Y39800000D02*
X-3800000Y41450000D01*
D18*
X9200000Y33200000D02*
X8950000Y33450000D01*
D20*
X-5450000Y38550000D02*
X-5450000Y39800000D01*
X-3800000Y41450000D02*
X-3800000Y47350000D01*
X8375000Y48400000D02*
X9575000Y49600000D01*
D16*
%TO.N,/nRPIBOOT*%
X-10250000Y19800000D02*
X-11400000Y20950000D01*
X13350000Y22400000D02*
X3600000Y22400000D01*
X-11400000Y20950000D02*
X-14650000Y20950000D01*
X-1450000Y21200000D02*
X-2850000Y19800000D01*
X3600000Y22400000D02*
X2400000Y21200000D01*
X2400000Y21200000D02*
X-1450000Y21200000D01*
X-14650000Y20950000D02*
X-15200000Y20400000D01*
X18750000Y27300000D02*
X18250000Y27300000D01*
X-2850000Y19800000D02*
X-10250000Y19800000D01*
X18250000Y27300000D02*
X13350000Y22400000D01*
%TO.N,/nPWR_LED_BUF*%
X-18800000Y-11500000D02*
X-20400000Y-13100000D01*
X-12400000Y-11500000D02*
X-18800000Y-11500000D01*
X-20400000Y-13100000D02*
X-24900000Y-13100000D01*
X-25900000Y-14100000D02*
X-25900000Y-18600000D01*
X-12300000Y-11600000D02*
X-12400000Y-11500000D01*
X-24900000Y-13100000D02*
X-25900000Y-14100000D01*
D19*
%TO.N,Net-(U7-UART1_TX)*%
X-10109200Y32715200D02*
X-8178800Y34645600D01*
X-8178800Y34645600D02*
X-5283200Y34645600D01*
%TO.N,Net-(U7-UART1_RX)*%
X-9194800Y31902400D02*
X-7518400Y33578800D01*
X-10109200Y31902400D02*
X-9194800Y31902400D01*
X-7518400Y33578800D02*
X-5283200Y33578800D01*
%TO.N,Net-(U7-SYS_CLK)*%
X13200000Y38600000D02*
X13598400Y38201600D01*
X16401600Y38201600D02*
X17100000Y38900000D01*
X13598400Y38201600D02*
X16401600Y38201600D01*
%TO.N,Net-(U7-SLEEP_CLK)*%
X14050000Y39800000D02*
X15300000Y39800000D01*
X15300000Y39800000D02*
X16500000Y41000000D01*
X13650000Y39400000D02*
X14050000Y39800000D01*
%TO.N,/Modem/UIM_DATA*%
X-16538800Y-18338800D02*
X-16400000Y-18200000D01*
X-17738800Y-18338800D02*
X-16538800Y-18338800D01*
X-22150000Y-19659600D02*
X-19059600Y-19659600D01*
X-19059600Y-19659600D02*
X-17738800Y-18338800D01*
%TO.N,Net-(U18A-SOUT1)*%
X5600000Y-20300000D02*
X5500000Y-20200000D01*
X5600000Y-21450000D02*
X5600000Y-20300000D01*
%TO.N,Net-(U27-IN+)*%
X-400000Y400000D02*
X-1350000Y-550000D01*
%TO.N,Net-(U27-IN-)*%
X-1300000Y400000D02*
X-3000000Y400000D01*
X-3000000Y400000D02*
X-3700000Y1100000D01*
X-3700000Y1100000D02*
X-3700000Y2500000D01*
%TO.N,Net-(C71-Pad2)*%
X-1300000Y-7450000D02*
X-1300000Y-1550000D01*
X-1300000Y-7450000D02*
X-1250000Y-7450000D01*
X-1250000Y-7450000D02*
X-150000Y-8550000D01*
D16*
%TO.N,/EXT_MIC_EN*%
X375000Y23775000D02*
X-3225000Y23775000D01*
D19*
X-9950000Y10350000D02*
X-8950000Y9350000D01*
D16*
X-4800000Y25350000D02*
X-4800000Y27100000D01*
D19*
X-8950000Y9350000D02*
X-6500000Y9350000D01*
D16*
X1000000Y24400000D02*
X375000Y23775000D01*
D19*
X-6500000Y9350000D02*
X-5800000Y10050000D01*
D16*
X-3225000Y23775000D02*
X-4800000Y25350000D01*
D19*
X-10200000Y10350000D02*
X-9950000Y10350000D01*
X-5800000Y10050000D02*
X-4450000Y10050000D01*
X-4450000Y10050000D02*
X-3050000Y8650000D01*
%TO.N,Net-(U18A-IN1)*%
X2250000Y-14350000D02*
X2550000Y-14650000D01*
X2450000Y-18975000D02*
X2450000Y-20600000D01*
X2062500Y-18587500D02*
X2450000Y-18975000D01*
X2550000Y-18100000D02*
X2062500Y-18587500D01*
X-1250000Y-13800000D02*
X-700000Y-14350000D01*
X2550000Y-14650000D02*
X2550000Y-18100000D01*
X-700000Y-14350000D02*
X2250000Y-14350000D01*
%TO.N,Net-(U18A-IN2)*%
X1950000Y-17550000D02*
X1250000Y-18250000D01*
X500000Y-21600000D02*
X-600000Y-21600000D01*
X1250000Y-20850000D02*
X500000Y-21600000D01*
X1250000Y-18250000D02*
X1250000Y-20850000D01*
X1950000Y-14950000D02*
X1950000Y-17550000D01*
X-1250000Y-14950000D02*
X1950000Y-14950000D01*
X-1950000Y-14250000D02*
X-1250000Y-14950000D01*
%TO.N,/External Microphone Interface/CNV*%
X-2400000Y9300000D02*
X-1750000Y9950000D01*
X6450000Y9400000D02*
X13050000Y9400000D01*
X13050000Y9400000D02*
X13950000Y10300000D01*
X-1750000Y9950000D02*
X5900000Y9950000D01*
X5900000Y9950000D02*
X6450000Y9400000D01*
%TO.N,/External Microphone Interface/Q0*%
X4050000Y10750000D02*
X4100000Y10700000D01*
X-600000Y12650000D02*
X1300000Y10750000D01*
X11550000Y10700000D02*
X13100000Y10700000D01*
X16267893Y10316421D02*
X19116421Y10316421D01*
X14000000Y11600000D02*
X14984314Y11600000D01*
X14984314Y11600000D02*
X16267893Y10316421D01*
X1300000Y10750000D02*
X4050000Y10750000D01*
X13100000Y10700000D02*
X14000000Y11600000D01*
X4100000Y10700000D02*
X11550000Y10700000D01*
X-3350000Y12650000D02*
X-600000Y12650000D01*
%TO.N,/External Microphone Interface/Q1*%
X11850000Y12000000D02*
X15150000Y12000000D01*
X3750000Y12000000D02*
X700000Y12000000D01*
X11800000Y11950000D02*
X11850000Y12000000D01*
X3800000Y11950000D02*
X11800000Y11950000D01*
X-625000Y13325000D02*
X-3975000Y13325000D01*
X15150000Y12000000D02*
X16200000Y10950000D01*
X700000Y12000000D02*
X-625000Y13325000D01*
X3750000Y12000000D02*
X3800000Y11950000D01*
X16200000Y10950000D02*
X19650000Y10950000D01*
%TO.N,/External Microphone Interface/Q2*%
X15550000Y12250000D02*
X19150000Y12250000D01*
X-450000Y13750000D02*
X850000Y12450000D01*
X-3300000Y14000000D02*
X-3050000Y13750000D01*
X11900000Y13350000D02*
X14450000Y13350000D01*
X-3050000Y13750000D02*
X-450000Y13750000D01*
X14450000Y13350000D02*
X15550000Y12250000D01*
X4150000Y13350000D02*
X11900000Y13350000D01*
X850000Y12450000D02*
X3250000Y12450000D01*
X3250000Y12450000D02*
X4150000Y13350000D01*
%TO.N,/External Microphone Interface/Q3*%
X-3950000Y14600000D02*
X-3025000Y14600000D01*
X-2575000Y14150000D02*
X200000Y14150000D01*
X11900000Y14150000D02*
X11850000Y14200000D01*
X200000Y14150000D02*
X650000Y14600000D01*
X11850000Y14200000D02*
X5800000Y14200000D01*
X5400000Y14600000D02*
X3750000Y14600000D01*
X650000Y14600000D02*
X3750000Y14600000D01*
X11900000Y14150000D02*
X14500000Y14150000D01*
X-3025000Y14600000D02*
X-2575000Y14150000D01*
X5800000Y14200000D02*
X5400000Y14600000D01*
X14500000Y14150000D02*
X15750000Y12900000D01*
X15750000Y12900000D02*
X19650000Y12900000D01*
%TO.N,/External Microphone Interface/Q4*%
X-3037500Y15200000D02*
X-7500000Y15200000D01*
X6650000Y16350000D02*
X7050000Y15950000D01*
X-8300000Y16000000D02*
X-8300000Y16850000D01*
X13300000Y16250000D02*
X14350000Y16250000D01*
X12200000Y15150000D02*
X13300000Y16250000D01*
X-7500000Y15200000D02*
X-8300000Y16000000D01*
X-50000Y14550000D02*
X-900000Y14550000D01*
X-1200000Y14850000D02*
X-1500000Y14550000D01*
X5050000Y16250000D02*
X5150000Y16350000D01*
X700000Y15300000D02*
X-50000Y14550000D01*
X14350000Y16250000D02*
X14700000Y15900000D01*
X14700000Y15900000D02*
X14900000Y15900000D01*
X7050000Y15950000D02*
X7850000Y15150000D01*
X-900000Y14550000D02*
X-1200000Y14850000D01*
X-2387500Y14550000D02*
X-3037500Y15200000D01*
X-1500000Y14550000D02*
X-2387500Y14550000D01*
X7850000Y15150000D02*
X12200000Y15150000D01*
X5150000Y16350000D02*
X6650000Y16350000D01*
X4150000Y15300000D02*
X700000Y15300000D01*
X4250000Y15200000D02*
X4150000Y15300000D01*
%TO.N,/External Microphone Interface/CLK_H*%
X19000000Y13450000D02*
X19100000Y13550000D01*
X14500000Y14750000D02*
X15800000Y13450000D01*
X7400000Y14750000D02*
X14500000Y14750000D01*
X-850000Y15750000D02*
X4700000Y15750000D01*
X6500000Y15650000D02*
X7400000Y14750000D01*
X-1100000Y16000000D02*
X-850000Y15750000D01*
X4800000Y15650000D02*
X6500000Y15650000D01*
X15800000Y13450000D02*
X19000000Y13450000D01*
X4700000Y15750000D02*
X4800000Y15650000D01*
%TO.N,/External Microphone Interface/RST*%
X3822182Y16750000D02*
X3511091Y17061091D01*
X-1450000Y16600000D02*
X-1850000Y16200000D01*
X4400000Y16750000D02*
X3822182Y16750000D01*
X7450000Y17000000D02*
X4650000Y17000000D01*
X-1850000Y16200000D02*
X-1850000Y15550000D01*
X12800000Y16550000D02*
X10600000Y16550000D01*
X4650000Y17000000D02*
X4400000Y16750000D01*
X3511091Y17061091D02*
X561091Y17061091D01*
X100000Y16600000D02*
X-1450000Y16600000D01*
X9750000Y17400000D02*
X7850000Y17400000D01*
X7850000Y17400000D02*
X7450000Y17000000D01*
X561091Y17061091D02*
X100000Y16600000D01*
X10600000Y16550000D02*
X9750000Y17400000D01*
X13200000Y16950000D02*
X12800000Y16550000D01*
%TO.N,/External Microphone Interface/!Qeq2*%
X4625000Y18475000D02*
X6675000Y18475000D01*
X3900000Y19200000D02*
X4625000Y18475000D01*
%TO.N,/External Microphone Interface/Qeq2*%
X10750000Y16950000D02*
X9800000Y17900000D01*
X12300000Y16950000D02*
X10750000Y16950000D01*
X13250000Y17900000D02*
X12300000Y16950000D01*
X14050000Y19400000D02*
X13250000Y18600000D01*
X7000000Y17900000D02*
X6750000Y17650000D01*
X9800000Y17900000D02*
X7000000Y17900000D01*
X13250000Y18600000D02*
X13250000Y17900000D01*
X14800000Y19400000D02*
X14050000Y19400000D01*
%TO.N,/External Microphone Interface/AMP_RST*%
X-2207843Y16542157D02*
X-1050000Y17700000D01*
X-2625000Y15850000D02*
X-2207843Y16267157D01*
X3850000Y17300000D02*
X4050000Y17300000D01*
X-3050000Y15850000D02*
X-2625000Y15850000D01*
X-1050000Y17700000D02*
X3450000Y17700000D01*
X3450000Y17700000D02*
X3850000Y17300000D01*
X-2207843Y16267157D02*
X-2207843Y16542157D01*
%TO.N,Net-(U19A-~{R})*%
X11800000Y17350000D02*
X10950000Y17350000D01*
X9000000Y19300000D02*
X6900000Y19300000D01*
X10950000Y17350000D02*
X9000000Y19300000D01*
X12300000Y17850000D02*
X11800000Y17350000D01*
%TO.N,/Modem/UIM_DSW*%
X-11950000Y-21550000D02*
X-12450000Y-21050000D01*
X-16579600Y-21050000D02*
X-17170400Y-21640800D01*
X-11950000Y-21550000D02*
X-11500000Y-21100000D01*
X-12450000Y-21050000D02*
X-16579600Y-21050000D01*
X-11500000Y-21100000D02*
X-5550000Y-21100000D01*
%TO.N,/48V_EN*%
X12225000Y-950000D02*
X12075000Y-1100000D01*
X21500000Y-950000D02*
X12225000Y-950000D01*
%TD*%
M02*
