%TF.GenerationSoftware,KiCad,Pcbnew,7.99.0-1.20230926git54171ec.fc37*%
%TF.CreationDate,2023-10-05T18:34:00+01:00*%
%TF.ProjectId,bugg-main-r5,62756767-2d6d-4616-996e-2d72352e6b69,rev?*%
%TF.SameCoordinates,Original*%
%TF.FileFunction,Legend,Top*%
%TF.FilePolarity,Positive*%
%FSLAX46Y46*%
G04 Gerber Fmt 4.6, Leading zero omitted, Abs format (unit mm)*
G04 Created by KiCad (PCBNEW 7.99.0-1.20230926git54171ec.fc37) date 2023-10-05 18:34:00*
%MOMM*%
%LPD*%
G01*
G04 APERTURE LIST*
%ADD10C,0.475000*%
%ADD11C,0.200000*%
%ADD12C,0.150000*%
%ADD13C,0.120000*%
%ADD14C,0.127000*%
%ADD15C,0.508000*%
%ADD16C,0.100000*%
G04 APERTURE END LIST*
D10*
X-6612500Y29950000D02*
G75*
G02*
X-6612500Y29950000I-237500J0D01*
G01*
D11*
X-11700000Y-20900000D02*
G75*
G02*
X-11700000Y-20900000I-100000J0D01*
G01*
X22450000Y30450000D02*
G75*
G02*
X22450000Y30450000I-100000J0D01*
G01*
X15343482Y-45644742D02*
X15343482Y-46616171D01*
X15343482Y-46616171D02*
X15395863Y-46730457D01*
X15395863Y-46730457D02*
X15448244Y-46787600D01*
X15448244Y-46787600D02*
X15553006Y-46844742D01*
X15553006Y-46844742D02*
X15762530Y-46844742D01*
X15762530Y-46844742D02*
X15867292Y-46787600D01*
X15867292Y-46787600D02*
X15919673Y-46730457D01*
X15919673Y-46730457D02*
X15972054Y-46616171D01*
X15972054Y-46616171D02*
X15972054Y-45644742D01*
X16443482Y-46787600D02*
X16548244Y-46844742D01*
X16548244Y-46844742D02*
X16757768Y-46844742D01*
X16757768Y-46844742D02*
X16862530Y-46787600D01*
X16862530Y-46787600D02*
X16914911Y-46673314D01*
X16914911Y-46673314D02*
X16914911Y-46616171D01*
X16914911Y-46616171D02*
X16862530Y-46501885D01*
X16862530Y-46501885D02*
X16757768Y-46444742D01*
X16757768Y-46444742D02*
X16600625Y-46444742D01*
X16600625Y-46444742D02*
X16495863Y-46387600D01*
X16495863Y-46387600D02*
X16443482Y-46273314D01*
X16443482Y-46273314D02*
X16443482Y-46216171D01*
X16443482Y-46216171D02*
X16495863Y-46101885D01*
X16495863Y-46101885D02*
X16600625Y-46044742D01*
X16600625Y-46044742D02*
X16757768Y-46044742D01*
X16757768Y-46044742D02*
X16862530Y-46101885D01*
X17805387Y-46787600D02*
X17700625Y-46844742D01*
X17700625Y-46844742D02*
X17491101Y-46844742D01*
X17491101Y-46844742D02*
X17386339Y-46787600D01*
X17386339Y-46787600D02*
X17333958Y-46673314D01*
X17333958Y-46673314D02*
X17333958Y-46216171D01*
X17333958Y-46216171D02*
X17386339Y-46101885D01*
X17386339Y-46101885D02*
X17491101Y-46044742D01*
X17491101Y-46044742D02*
X17700625Y-46044742D01*
X17700625Y-46044742D02*
X17805387Y-46101885D01*
X17805387Y-46101885D02*
X17857768Y-46216171D01*
X17857768Y-46216171D02*
X17857768Y-46330457D01*
X17857768Y-46330457D02*
X17333958Y-46444742D01*
X18329196Y-46844742D02*
X18329196Y-46044742D01*
X18329196Y-46273314D02*
X18381577Y-46159028D01*
X18381577Y-46159028D02*
X18433958Y-46101885D01*
X18433958Y-46101885D02*
X18538720Y-46044742D01*
X18538720Y-46044742D02*
X18643482Y-46044742D01*
X-8708898Y-46501885D02*
X-8185088Y-46501885D01*
X-8813660Y-46844742D02*
X-8446993Y-45644742D01*
X-8446993Y-45644742D02*
X-8080326Y-46844742D01*
X-7242231Y-46787600D02*
X-7346993Y-46844742D01*
X-7346993Y-46844742D02*
X-7556517Y-46844742D01*
X-7556517Y-46844742D02*
X-7661279Y-46787600D01*
X-7661279Y-46787600D02*
X-7713660Y-46730457D01*
X-7713660Y-46730457D02*
X-7766041Y-46616171D01*
X-7766041Y-46616171D02*
X-7766041Y-46273314D01*
X-7766041Y-46273314D02*
X-7713660Y-46159028D01*
X-7713660Y-46159028D02*
X-7661279Y-46101885D01*
X-7661279Y-46101885D02*
X-7556517Y-46044742D01*
X-7556517Y-46044742D02*
X-7346993Y-46044742D01*
X-7346993Y-46044742D02*
X-7242231Y-46101885D01*
X-6927946Y-46044742D02*
X-6508898Y-46044742D01*
X-6770803Y-45644742D02*
X-6770803Y-46673314D01*
X-6770803Y-46673314D02*
X-6718422Y-46787600D01*
X-6718422Y-46787600D02*
X-6613660Y-46844742D01*
X-6613660Y-46844742D02*
X-6508898Y-46844742D01*
X-6142232Y-46844742D02*
X-6142232Y-46044742D01*
X-6142232Y-45644742D02*
X-6194613Y-45701885D01*
X-6194613Y-45701885D02*
X-6142232Y-45759028D01*
X-6142232Y-45759028D02*
X-6089851Y-45701885D01*
X-6089851Y-45701885D02*
X-6142232Y-45644742D01*
X-6142232Y-45644742D02*
X-6142232Y-45759028D01*
X-5723184Y-46044742D02*
X-5461279Y-46844742D01*
X-5461279Y-46844742D02*
X-5199374Y-46044742D01*
X-4780327Y-46844742D02*
X-4780327Y-46044742D01*
X-4780327Y-45644742D02*
X-4832708Y-45701885D01*
X-4832708Y-45701885D02*
X-4780327Y-45759028D01*
X-4780327Y-45759028D02*
X-4727946Y-45701885D01*
X-4727946Y-45701885D02*
X-4780327Y-45644742D01*
X-4780327Y-45644742D02*
X-4780327Y-45759028D01*
X-4413660Y-46044742D02*
X-3994612Y-46044742D01*
X-4256517Y-45644742D02*
X-4256517Y-46673314D01*
X-4256517Y-46673314D02*
X-4204136Y-46787600D01*
X-4204136Y-46787600D02*
X-4099374Y-46844742D01*
X-4099374Y-46844742D02*
X-3994612Y-46844742D01*
X-3732708Y-46044742D02*
X-3470803Y-46844742D01*
X-3208898Y-46044742D02*
X-3470803Y-46844742D01*
X-3470803Y-46844742D02*
X-3575565Y-47130457D01*
X-3575565Y-47130457D02*
X-3627946Y-47187600D01*
X-3627946Y-47187600D02*
X-3732708Y-47244742D01*
D12*
X-25463220Y-30628152D02*
X-25463220Y-31294819D01*
X-25463220Y-30723390D02*
X-25415601Y-30675771D01*
X-25415601Y-30675771D02*
X-25320363Y-30628152D01*
X-25320363Y-30628152D02*
X-25177506Y-30628152D01*
X-25177506Y-30628152D02*
X-25082268Y-30675771D01*
X-25082268Y-30675771D02*
X-25034649Y-30771009D01*
X-25034649Y-30771009D02*
X-25034649Y-31294819D01*
X-24129887Y-31294819D02*
X-24129887Y-30771009D01*
X-24129887Y-30771009D02*
X-24177506Y-30675771D01*
X-24177506Y-30675771D02*
X-24272744Y-30628152D01*
X-24272744Y-30628152D02*
X-24463220Y-30628152D01*
X-24463220Y-30628152D02*
X-24558458Y-30675771D01*
X-24129887Y-31247200D02*
X-24225125Y-31294819D01*
X-24225125Y-31294819D02*
X-24463220Y-31294819D01*
X-24463220Y-31294819D02*
X-24558458Y-31247200D01*
X-24558458Y-31247200D02*
X-24606077Y-31151961D01*
X-24606077Y-31151961D02*
X-24606077Y-31056723D01*
X-24606077Y-31056723D02*
X-24558458Y-30961485D01*
X-24558458Y-30961485D02*
X-24463220Y-30913866D01*
X-24463220Y-30913866D02*
X-24225125Y-30913866D01*
X-24225125Y-30913866D02*
X-24129887Y-30866247D01*
X-23653696Y-30628152D02*
X-23653696Y-31294819D01*
X-23653696Y-30723390D02*
X-23606077Y-30675771D01*
X-23606077Y-30675771D02*
X-23510839Y-30628152D01*
X-23510839Y-30628152D02*
X-23367982Y-30628152D01*
X-23367982Y-30628152D02*
X-23272744Y-30675771D01*
X-23272744Y-30675771D02*
X-23225125Y-30771009D01*
X-23225125Y-30771009D02*
X-23225125Y-31294819D01*
X-22606077Y-31294819D02*
X-22701315Y-31247200D01*
X-22701315Y-31247200D02*
X-22748934Y-31199580D01*
X-22748934Y-31199580D02*
X-22796553Y-31104342D01*
X-22796553Y-31104342D02*
X-22796553Y-30818628D01*
X-22796553Y-30818628D02*
X-22748934Y-30723390D01*
X-22748934Y-30723390D02*
X-22701315Y-30675771D01*
X-22701315Y-30675771D02*
X-22606077Y-30628152D01*
X-22606077Y-30628152D02*
X-22463220Y-30628152D01*
X-22463220Y-30628152D02*
X-22367982Y-30675771D01*
X-22367982Y-30675771D02*
X-22320363Y-30723390D01*
X-22320363Y-30723390D02*
X-22272744Y-30818628D01*
X-22272744Y-30818628D02*
X-22272744Y-31104342D01*
X-22272744Y-31104342D02*
X-22320363Y-31199580D01*
X-22320363Y-31199580D02*
X-22367982Y-31247200D01*
X-22367982Y-31247200D02*
X-22463220Y-31294819D01*
X-22463220Y-31294819D02*
X-22606077Y-31294819D01*
X-21891791Y-31247200D02*
X-21748934Y-31294819D01*
X-21748934Y-31294819D02*
X-21510839Y-31294819D01*
X-21510839Y-31294819D02*
X-21415601Y-31247200D01*
X-21415601Y-31247200D02*
X-21367982Y-31199580D01*
X-21367982Y-31199580D02*
X-21320363Y-31104342D01*
X-21320363Y-31104342D02*
X-21320363Y-31009104D01*
X-21320363Y-31009104D02*
X-21367982Y-30913866D01*
X-21367982Y-30913866D02*
X-21415601Y-30866247D01*
X-21415601Y-30866247D02*
X-21510839Y-30818628D01*
X-21510839Y-30818628D02*
X-21701315Y-30771009D01*
X-21701315Y-30771009D02*
X-21796553Y-30723390D01*
X-21796553Y-30723390D02*
X-21844172Y-30675771D01*
X-21844172Y-30675771D02*
X-21891791Y-30580533D01*
X-21891791Y-30580533D02*
X-21891791Y-30485295D01*
X-21891791Y-30485295D02*
X-21844172Y-30390057D01*
X-21844172Y-30390057D02*
X-21796553Y-30342438D01*
X-21796553Y-30342438D02*
X-21701315Y-30294819D01*
X-21701315Y-30294819D02*
X-21463220Y-30294819D01*
X-21463220Y-30294819D02*
X-21320363Y-30342438D01*
X-20891791Y-31294819D02*
X-20891791Y-30294819D01*
X-20415601Y-31294819D02*
X-20415601Y-30294819D01*
X-20415601Y-30294819D02*
X-20082268Y-31009104D01*
X-20082268Y-31009104D02*
X-19748935Y-30294819D01*
X-19748935Y-30294819D02*
X-19748935Y-31294819D01*
X-11638220Y-36087295D02*
X-12266792Y-36087295D01*
X-11952506Y-36087295D02*
X-11952506Y-35287295D01*
X-11952506Y-35287295D02*
X-12057268Y-35401580D01*
X-12057268Y-35401580D02*
X-12162030Y-35477771D01*
X-12162030Y-35477771D02*
X-12266792Y-35515866D01*
D11*
X3186339Y-45644742D02*
X3814911Y-45644742D01*
X3500625Y-46844742D02*
X3500625Y-45644742D01*
X4181577Y-46844742D02*
X4181577Y-46044742D01*
X4181577Y-46273314D02*
X4233958Y-46159028D01*
X4233958Y-46159028D02*
X4286339Y-46101885D01*
X4286339Y-46101885D02*
X4391101Y-46044742D01*
X4391101Y-46044742D02*
X4495863Y-46044742D01*
X5333958Y-46844742D02*
X5333958Y-46216171D01*
X5333958Y-46216171D02*
X5281577Y-46101885D01*
X5281577Y-46101885D02*
X5176815Y-46044742D01*
X5176815Y-46044742D02*
X4967291Y-46044742D01*
X4967291Y-46044742D02*
X4862529Y-46101885D01*
X5333958Y-46787600D02*
X5229196Y-46844742D01*
X5229196Y-46844742D02*
X4967291Y-46844742D01*
X4967291Y-46844742D02*
X4862529Y-46787600D01*
X4862529Y-46787600D02*
X4810148Y-46673314D01*
X4810148Y-46673314D02*
X4810148Y-46559028D01*
X4810148Y-46559028D02*
X4862529Y-46444742D01*
X4862529Y-46444742D02*
X4967291Y-46387600D01*
X4967291Y-46387600D02*
X5229196Y-46387600D01*
X5229196Y-46387600D02*
X5333958Y-46330457D01*
X5857767Y-46044742D02*
X5857767Y-46844742D01*
X5857767Y-46159028D02*
X5910148Y-46101885D01*
X5910148Y-46101885D02*
X6014910Y-46044742D01*
X6014910Y-46044742D02*
X6172053Y-46044742D01*
X6172053Y-46044742D02*
X6276815Y-46101885D01*
X6276815Y-46101885D02*
X6329196Y-46216171D01*
X6329196Y-46216171D02*
X6329196Y-46844742D01*
X6800624Y-46787600D02*
X6905386Y-46844742D01*
X6905386Y-46844742D02*
X7114910Y-46844742D01*
X7114910Y-46844742D02*
X7219672Y-46787600D01*
X7219672Y-46787600D02*
X7272053Y-46673314D01*
X7272053Y-46673314D02*
X7272053Y-46616171D01*
X7272053Y-46616171D02*
X7219672Y-46501885D01*
X7219672Y-46501885D02*
X7114910Y-46444742D01*
X7114910Y-46444742D02*
X6957767Y-46444742D01*
X6957767Y-46444742D02*
X6853005Y-46387600D01*
X6853005Y-46387600D02*
X6800624Y-46273314D01*
X6800624Y-46273314D02*
X6800624Y-46216171D01*
X6800624Y-46216171D02*
X6853005Y-46101885D01*
X6853005Y-46101885D02*
X6957767Y-46044742D01*
X6957767Y-46044742D02*
X7114910Y-46044742D01*
X7114910Y-46044742D02*
X7219672Y-46101885D01*
X7743481Y-46844742D02*
X7743481Y-46044742D01*
X7743481Y-46159028D02*
X7795862Y-46101885D01*
X7795862Y-46101885D02*
X7900624Y-46044742D01*
X7900624Y-46044742D02*
X8057767Y-46044742D01*
X8057767Y-46044742D02*
X8162529Y-46101885D01*
X8162529Y-46101885D02*
X8214910Y-46216171D01*
X8214910Y-46216171D02*
X8214910Y-46844742D01*
X8214910Y-46216171D02*
X8267291Y-46101885D01*
X8267291Y-46101885D02*
X8372053Y-46044742D01*
X8372053Y-46044742D02*
X8529196Y-46044742D01*
X8529196Y-46044742D02*
X8633957Y-46101885D01*
X8633957Y-46101885D02*
X8686338Y-46216171D01*
X8686338Y-46216171D02*
X8686338Y-46844742D01*
X9210148Y-46844742D02*
X9210148Y-46044742D01*
X9210148Y-45644742D02*
X9157767Y-45701885D01*
X9157767Y-45701885D02*
X9210148Y-45759028D01*
X9210148Y-45759028D02*
X9262529Y-45701885D01*
X9262529Y-45701885D02*
X9210148Y-45644742D01*
X9210148Y-45644742D02*
X9210148Y-45759028D01*
X9576815Y-46044742D02*
X9995863Y-46044742D01*
X9733958Y-45644742D02*
X9733958Y-46673314D01*
X9733958Y-46673314D02*
X9786339Y-46787600D01*
X9786339Y-46787600D02*
X9891101Y-46844742D01*
X9891101Y-46844742D02*
X9995863Y-46844742D01*
D12*
X27594295Y43407143D02*
X26794295Y43407143D01*
X26794295Y43407143D02*
X26794295Y43597619D01*
X26794295Y43597619D02*
X26832390Y43711905D01*
X26832390Y43711905D02*
X26908580Y43788095D01*
X26908580Y43788095D02*
X26984771Y43826190D01*
X26984771Y43826190D02*
X27137152Y43864286D01*
X27137152Y43864286D02*
X27251438Y43864286D01*
X27251438Y43864286D02*
X27403819Y43826190D01*
X27403819Y43826190D02*
X27480009Y43788095D01*
X27480009Y43788095D02*
X27556200Y43711905D01*
X27556200Y43711905D02*
X27594295Y43597619D01*
X27594295Y43597619D02*
X27594295Y43407143D01*
X27594295Y44207143D02*
X27060961Y44207143D01*
X26794295Y44207143D02*
X26832390Y44169047D01*
X26832390Y44169047D02*
X26870485Y44207143D01*
X26870485Y44207143D02*
X26832390Y44245238D01*
X26832390Y44245238D02*
X26794295Y44207143D01*
X26794295Y44207143D02*
X26870485Y44207143D01*
X27060961Y44511904D02*
X27594295Y44702380D01*
X27594295Y44702380D02*
X27060961Y44892857D01*
X27556200Y45502381D02*
X27594295Y45426190D01*
X27594295Y45426190D02*
X27594295Y45273809D01*
X27594295Y45273809D02*
X27556200Y45197619D01*
X27556200Y45197619D02*
X27480009Y45159523D01*
X27480009Y45159523D02*
X27175247Y45159523D01*
X27175247Y45159523D02*
X27099057Y45197619D01*
X27099057Y45197619D02*
X27060961Y45273809D01*
X27060961Y45273809D02*
X27060961Y45426190D01*
X27060961Y45426190D02*
X27099057Y45502381D01*
X27099057Y45502381D02*
X27175247Y45540476D01*
X27175247Y45540476D02*
X27251438Y45540476D01*
X27251438Y45540476D02*
X27327628Y45159523D01*
X27594295Y45883333D02*
X27060961Y45883333D01*
X27213342Y45883333D02*
X27137152Y45921428D01*
X27137152Y45921428D02*
X27099057Y45959523D01*
X27099057Y45959523D02*
X27060961Y46035714D01*
X27060961Y46035714D02*
X27060961Y46111904D01*
X27556200Y46340475D02*
X27594295Y46416666D01*
X27594295Y46416666D02*
X27594295Y46569047D01*
X27594295Y46569047D02*
X27556200Y46645237D01*
X27556200Y46645237D02*
X27480009Y46683333D01*
X27480009Y46683333D02*
X27441914Y46683333D01*
X27441914Y46683333D02*
X27365723Y46645237D01*
X27365723Y46645237D02*
X27327628Y46569047D01*
X27327628Y46569047D02*
X27327628Y46454761D01*
X27327628Y46454761D02*
X27289533Y46378571D01*
X27289533Y46378571D02*
X27213342Y46340475D01*
X27213342Y46340475D02*
X27175247Y46340475D01*
X27175247Y46340475D02*
X27099057Y46378571D01*
X27099057Y46378571D02*
X27060961Y46454761D01*
X27060961Y46454761D02*
X27060961Y46569047D01*
X27060961Y46569047D02*
X27099057Y46645237D01*
X27594295Y47026190D02*
X27060961Y47026190D01*
X26794295Y47026190D02*
X26832390Y46988094D01*
X26832390Y46988094D02*
X26870485Y47026190D01*
X26870485Y47026190D02*
X26832390Y47064285D01*
X26832390Y47064285D02*
X26794295Y47026190D01*
X26794295Y47026190D02*
X26870485Y47026190D01*
X27060961Y47292856D02*
X27060961Y47597618D01*
X26794295Y47407142D02*
X27480009Y47407142D01*
X27480009Y47407142D02*
X27556200Y47445237D01*
X27556200Y47445237D02*
X27594295Y47521427D01*
X27594295Y47521427D02*
X27594295Y47597618D01*
X27060961Y47788094D02*
X27594295Y47978570D01*
X27060961Y48169047D02*
X27594295Y47978570D01*
X27594295Y47978570D02*
X27784771Y47902380D01*
X27784771Y47902380D02*
X27822866Y47864285D01*
X27822866Y47864285D02*
X27860961Y47788094D01*
X-25134649Y-653152D02*
X-25134649Y-1319819D01*
X-25563220Y-653152D02*
X-25563220Y-1176961D01*
X-25563220Y-1176961D02*
X-25515601Y-1272200D01*
X-25515601Y-1272200D02*
X-25420363Y-1319819D01*
X-25420363Y-1319819D02*
X-25277506Y-1319819D01*
X-25277506Y-1319819D02*
X-25182268Y-1272200D01*
X-25182268Y-1272200D02*
X-25134649Y-1224580D01*
X-24706077Y-1272200D02*
X-24563220Y-1319819D01*
X-24563220Y-1319819D02*
X-24325125Y-1319819D01*
X-24325125Y-1319819D02*
X-24229887Y-1272200D01*
X-24229887Y-1272200D02*
X-24182268Y-1224580D01*
X-24182268Y-1224580D02*
X-24134649Y-1129342D01*
X-24134649Y-1129342D02*
X-24134649Y-1034104D01*
X-24134649Y-1034104D02*
X-24182268Y-938866D01*
X-24182268Y-938866D02*
X-24229887Y-891247D01*
X-24229887Y-891247D02*
X-24325125Y-843628D01*
X-24325125Y-843628D02*
X-24515601Y-796009D01*
X-24515601Y-796009D02*
X-24610839Y-748390D01*
X-24610839Y-748390D02*
X-24658458Y-700771D01*
X-24658458Y-700771D02*
X-24706077Y-605533D01*
X-24706077Y-605533D02*
X-24706077Y-510295D01*
X-24706077Y-510295D02*
X-24658458Y-415057D01*
X-24658458Y-415057D02*
X-24610839Y-367438D01*
X-24610839Y-367438D02*
X-24515601Y-319819D01*
X-24515601Y-319819D02*
X-24277506Y-319819D01*
X-24277506Y-319819D02*
X-24134649Y-367438D01*
X-23706077Y-1319819D02*
X-23706077Y-319819D01*
X-23706077Y-319819D02*
X-23467982Y-319819D01*
X-23467982Y-319819D02*
X-23325125Y-367438D01*
X-23325125Y-367438D02*
X-23229887Y-462676D01*
X-23229887Y-462676D02*
X-23182268Y-557914D01*
X-23182268Y-557914D02*
X-23134649Y-748390D01*
X-23134649Y-748390D02*
X-23134649Y-891247D01*
X-23134649Y-891247D02*
X-23182268Y-1081723D01*
X-23182268Y-1081723D02*
X-23229887Y-1176961D01*
X-23229887Y-1176961D02*
X-23325125Y-1272200D01*
X-23325125Y-1272200D02*
X-23467982Y-1319819D01*
X-23467982Y-1319819D02*
X-23706077Y-1319819D01*
D11*
X-20656517Y-46844742D02*
X-20656517Y-45644742D01*
X-20656517Y-45644742D02*
X-20237469Y-45644742D01*
X-20237469Y-45644742D02*
X-20132707Y-45701885D01*
X-20132707Y-45701885D02*
X-20080326Y-45759028D01*
X-20080326Y-45759028D02*
X-20027945Y-45873314D01*
X-20027945Y-45873314D02*
X-20027945Y-46044742D01*
X-20027945Y-46044742D02*
X-20080326Y-46159028D01*
X-20080326Y-46159028D02*
X-20132707Y-46216171D01*
X-20132707Y-46216171D02*
X-20237469Y-46273314D01*
X-20237469Y-46273314D02*
X-20656517Y-46273314D01*
X-19399374Y-46844742D02*
X-19504136Y-46787600D01*
X-19504136Y-46787600D02*
X-19556517Y-46730457D01*
X-19556517Y-46730457D02*
X-19608898Y-46616171D01*
X-19608898Y-46616171D02*
X-19608898Y-46273314D01*
X-19608898Y-46273314D02*
X-19556517Y-46159028D01*
X-19556517Y-46159028D02*
X-19504136Y-46101885D01*
X-19504136Y-46101885D02*
X-19399374Y-46044742D01*
X-19399374Y-46044742D02*
X-19242231Y-46044742D01*
X-19242231Y-46044742D02*
X-19137469Y-46101885D01*
X-19137469Y-46101885D02*
X-19085088Y-46159028D01*
X-19085088Y-46159028D02*
X-19032707Y-46273314D01*
X-19032707Y-46273314D02*
X-19032707Y-46616171D01*
X-19032707Y-46616171D02*
X-19085088Y-46730457D01*
X-19085088Y-46730457D02*
X-19137469Y-46787600D01*
X-19137469Y-46787600D02*
X-19242231Y-46844742D01*
X-19242231Y-46844742D02*
X-19399374Y-46844742D01*
X-18666041Y-46044742D02*
X-18456517Y-46844742D01*
X-18456517Y-46844742D02*
X-18246993Y-46273314D01*
X-18246993Y-46273314D02*
X-18037469Y-46844742D01*
X-18037469Y-46844742D02*
X-17827945Y-46044742D01*
X-16989850Y-46787600D02*
X-17094612Y-46844742D01*
X-17094612Y-46844742D02*
X-17304136Y-46844742D01*
X-17304136Y-46844742D02*
X-17408898Y-46787600D01*
X-17408898Y-46787600D02*
X-17461279Y-46673314D01*
X-17461279Y-46673314D02*
X-17461279Y-46216171D01*
X-17461279Y-46216171D02*
X-17408898Y-46101885D01*
X-17408898Y-46101885D02*
X-17304136Y-46044742D01*
X-17304136Y-46044742D02*
X-17094612Y-46044742D01*
X-17094612Y-46044742D02*
X-16989850Y-46101885D01*
X-16989850Y-46101885D02*
X-16937469Y-46216171D01*
X-16937469Y-46216171D02*
X-16937469Y-46330457D01*
X-16937469Y-46330457D02*
X-17461279Y-46444742D01*
X-16466041Y-46844742D02*
X-16466041Y-46044742D01*
X-16466041Y-46273314D02*
X-16413660Y-46159028D01*
X-16413660Y-46159028D02*
X-16361279Y-46101885D01*
X-16361279Y-46101885D02*
X-16256517Y-46044742D01*
X-16256517Y-46044742D02*
X-16151755Y-46044742D01*
D12*
X-15060839Y54805704D02*
X-15060839Y55605704D01*
X-15060839Y55605704D02*
X-14794173Y55034276D01*
X-14794173Y55034276D02*
X-14527506Y55605704D01*
X-14527506Y55605704D02*
X-14527506Y54805704D01*
X-13803696Y54805704D02*
X-13803696Y55224752D01*
X-13803696Y55224752D02*
X-13841791Y55300942D01*
X-13841791Y55300942D02*
X-13917982Y55339038D01*
X-13917982Y55339038D02*
X-14070363Y55339038D01*
X-14070363Y55339038D02*
X-14146553Y55300942D01*
X-13803696Y54843800D02*
X-13879887Y54805704D01*
X-13879887Y54805704D02*
X-14070363Y54805704D01*
X-14070363Y54805704D02*
X-14146553Y54843800D01*
X-14146553Y54843800D02*
X-14184649Y54919990D01*
X-14184649Y54919990D02*
X-14184649Y54996180D01*
X-14184649Y54996180D02*
X-14146553Y55072371D01*
X-14146553Y55072371D02*
X-14070363Y55110466D01*
X-14070363Y55110466D02*
X-13879887Y55110466D01*
X-13879887Y55110466D02*
X-13803696Y55148561D01*
X-13422743Y54805704D02*
X-13422743Y55339038D01*
X-13422743Y55605704D02*
X-13460839Y55567609D01*
X-13460839Y55567609D02*
X-13422743Y55529514D01*
X-13422743Y55529514D02*
X-13384648Y55567609D01*
X-13384648Y55567609D02*
X-13422743Y55605704D01*
X-13422743Y55605704D02*
X-13422743Y55529514D01*
X-13041791Y55339038D02*
X-13041791Y54805704D01*
X-13041791Y55262847D02*
X-13003696Y55300942D01*
X-13003696Y55300942D02*
X-12927506Y55339038D01*
X-12927506Y55339038D02*
X-12813220Y55339038D01*
X-12813220Y55339038D02*
X-12737029Y55300942D01*
X-12737029Y55300942D02*
X-12698934Y55224752D01*
X-12698934Y55224752D02*
X-12698934Y54805704D01*
X23355826Y36874752D02*
X23470112Y36836657D01*
X23470112Y36836657D02*
X23508207Y36798561D01*
X23508207Y36798561D02*
X23546303Y36722371D01*
X23546303Y36722371D02*
X23546303Y36608085D01*
X23546303Y36608085D02*
X23508207Y36531895D01*
X23508207Y36531895D02*
X23470112Y36493800D01*
X23470112Y36493800D02*
X23393922Y36455704D01*
X23393922Y36455704D02*
X23089160Y36455704D01*
X23089160Y36455704D02*
X23089160Y37255704D01*
X23089160Y37255704D02*
X23355826Y37255704D01*
X23355826Y37255704D02*
X23432017Y37217609D01*
X23432017Y37217609D02*
X23470112Y37179514D01*
X23470112Y37179514D02*
X23508207Y37103323D01*
X23508207Y37103323D02*
X23508207Y37027133D01*
X23508207Y37027133D02*
X23470112Y36950942D01*
X23470112Y36950942D02*
X23432017Y36912847D01*
X23432017Y36912847D02*
X23355826Y36874752D01*
X23355826Y36874752D02*
X23089160Y36874752D01*
X24003445Y36455704D02*
X23927255Y36493800D01*
X23927255Y36493800D02*
X23889160Y36531895D01*
X23889160Y36531895D02*
X23851064Y36608085D01*
X23851064Y36608085D02*
X23851064Y36836657D01*
X23851064Y36836657D02*
X23889160Y36912847D01*
X23889160Y36912847D02*
X23927255Y36950942D01*
X23927255Y36950942D02*
X24003445Y36989038D01*
X24003445Y36989038D02*
X24117731Y36989038D01*
X24117731Y36989038D02*
X24193922Y36950942D01*
X24193922Y36950942D02*
X24232017Y36912847D01*
X24232017Y36912847D02*
X24270112Y36836657D01*
X24270112Y36836657D02*
X24270112Y36608085D01*
X24270112Y36608085D02*
X24232017Y36531895D01*
X24232017Y36531895D02*
X24193922Y36493800D01*
X24193922Y36493800D02*
X24117731Y36455704D01*
X24117731Y36455704D02*
X24003445Y36455704D01*
X24727255Y36455704D02*
X24651065Y36493800D01*
X24651065Y36493800D02*
X24612970Y36531895D01*
X24612970Y36531895D02*
X24574874Y36608085D01*
X24574874Y36608085D02*
X24574874Y36836657D01*
X24574874Y36836657D02*
X24612970Y36912847D01*
X24612970Y36912847D02*
X24651065Y36950942D01*
X24651065Y36950942D02*
X24727255Y36989038D01*
X24727255Y36989038D02*
X24841541Y36989038D01*
X24841541Y36989038D02*
X24917732Y36950942D01*
X24917732Y36950942D02*
X24955827Y36912847D01*
X24955827Y36912847D02*
X24993922Y36836657D01*
X24993922Y36836657D02*
X24993922Y36608085D01*
X24993922Y36608085D02*
X24955827Y36531895D01*
X24955827Y36531895D02*
X24917732Y36493800D01*
X24917732Y36493800D02*
X24841541Y36455704D01*
X24841541Y36455704D02*
X24727255Y36455704D01*
X25222494Y36989038D02*
X25527256Y36989038D01*
X25336780Y37255704D02*
X25336780Y36569990D01*
X25336780Y36569990D02*
X25374875Y36493800D01*
X25374875Y36493800D02*
X25451065Y36455704D01*
X25451065Y36455704D02*
X25527256Y36455704D01*
X25908208Y36455704D02*
X25832018Y36493800D01*
X25832018Y36493800D02*
X25793923Y36569990D01*
X25793923Y36569990D02*
X25793923Y37255704D01*
X26327256Y36455704D02*
X26251066Y36493800D01*
X26251066Y36493800D02*
X26212971Y36531895D01*
X26212971Y36531895D02*
X26174875Y36608085D01*
X26174875Y36608085D02*
X26174875Y36836657D01*
X26174875Y36836657D02*
X26212971Y36912847D01*
X26212971Y36912847D02*
X26251066Y36950942D01*
X26251066Y36950942D02*
X26327256Y36989038D01*
X26327256Y36989038D02*
X26441542Y36989038D01*
X26441542Y36989038D02*
X26517733Y36950942D01*
X26517733Y36950942D02*
X26555828Y36912847D01*
X26555828Y36912847D02*
X26593923Y36836657D01*
X26593923Y36836657D02*
X26593923Y36608085D01*
X26593923Y36608085D02*
X26555828Y36531895D01*
X26555828Y36531895D02*
X26517733Y36493800D01*
X26517733Y36493800D02*
X26441542Y36455704D01*
X26441542Y36455704D02*
X26327256Y36455704D01*
X27279638Y36455704D02*
X27279638Y36874752D01*
X27279638Y36874752D02*
X27241543Y36950942D01*
X27241543Y36950942D02*
X27165352Y36989038D01*
X27165352Y36989038D02*
X27012971Y36989038D01*
X27012971Y36989038D02*
X26936781Y36950942D01*
X27279638Y36493800D02*
X27203447Y36455704D01*
X27203447Y36455704D02*
X27012971Y36455704D01*
X27012971Y36455704D02*
X26936781Y36493800D01*
X26936781Y36493800D02*
X26898685Y36569990D01*
X26898685Y36569990D02*
X26898685Y36646180D01*
X26898685Y36646180D02*
X26936781Y36722371D01*
X26936781Y36722371D02*
X27012971Y36760466D01*
X27012971Y36760466D02*
X27203447Y36760466D01*
X27203447Y36760466D02*
X27279638Y36798561D01*
X28003448Y36455704D02*
X28003448Y37255704D01*
X28003448Y36493800D02*
X27927257Y36455704D01*
X27927257Y36455704D02*
X27774876Y36455704D01*
X27774876Y36455704D02*
X27698686Y36493800D01*
X27698686Y36493800D02*
X27660591Y36531895D01*
X27660591Y36531895D02*
X27622495Y36608085D01*
X27622495Y36608085D02*
X27622495Y36836657D01*
X27622495Y36836657D02*
X27660591Y36912847D01*
X27660591Y36912847D02*
X27698686Y36950942D01*
X27698686Y36950942D02*
X27774876Y36989038D01*
X27774876Y36989038D02*
X27927257Y36989038D01*
X27927257Y36989038D02*
X28003448Y36950942D01*
X-9830180Y48260588D02*
X-9830180Y47689160D01*
X-9830180Y47974874D02*
X-10830180Y47974874D01*
X-10830180Y47974874D02*
X-10687323Y47879636D01*
X-10687323Y47879636D02*
X-10592085Y47784398D01*
X-10592085Y47784398D02*
X-10544466Y47689160D01*
X-14818104Y28851190D02*
X-14856200Y28889286D01*
X-14856200Y28889286D02*
X-14894295Y29003571D01*
X-14894295Y29003571D02*
X-14894295Y29079762D01*
X-14894295Y29079762D02*
X-14856200Y29194048D01*
X-14856200Y29194048D02*
X-14780009Y29270238D01*
X-14780009Y29270238D02*
X-14703819Y29308333D01*
X-14703819Y29308333D02*
X-14551438Y29346429D01*
X-14551438Y29346429D02*
X-14437152Y29346429D01*
X-14437152Y29346429D02*
X-14284771Y29308333D01*
X-14284771Y29308333D02*
X-14208580Y29270238D01*
X-14208580Y29270238D02*
X-14132390Y29194048D01*
X-14132390Y29194048D02*
X-14094295Y29079762D01*
X-14094295Y29079762D02*
X-14094295Y29003571D01*
X-14094295Y29003571D02*
X-14132390Y28889286D01*
X-14132390Y28889286D02*
X-14170485Y28851190D01*
X-14894295Y28051190D02*
X-14513342Y28317857D01*
X-14894295Y28508333D02*
X-14094295Y28508333D01*
X-14094295Y28508333D02*
X-14094295Y28203571D01*
X-14094295Y28203571D02*
X-14132390Y28127381D01*
X-14132390Y28127381D02*
X-14170485Y28089286D01*
X-14170485Y28089286D02*
X-14246676Y28051190D01*
X-14246676Y28051190D02*
X-14360961Y28051190D01*
X-14360961Y28051190D02*
X-14437152Y28089286D01*
X-14437152Y28089286D02*
X-14475247Y28127381D01*
X-14475247Y28127381D02*
X-14513342Y28203571D01*
X-14513342Y28203571D02*
X-14513342Y28508333D01*
X-14894295Y27289286D02*
X-14894295Y27746429D01*
X-14894295Y27517857D02*
X-14094295Y27517857D01*
X-14094295Y27517857D02*
X-14208580Y27594048D01*
X-14208580Y27594048D02*
X-14284771Y27670238D01*
X-14284771Y27670238D02*
X-14322866Y27746429D01*
X-14170485Y26984524D02*
X-14132390Y26946428D01*
X-14132390Y26946428D02*
X-14094295Y26870238D01*
X-14094295Y26870238D02*
X-14094295Y26679762D01*
X-14094295Y26679762D02*
X-14132390Y26603571D01*
X-14132390Y26603571D02*
X-14170485Y26565476D01*
X-14170485Y26565476D02*
X-14246676Y26527381D01*
X-14246676Y26527381D02*
X-14322866Y26527381D01*
X-14322866Y26527381D02*
X-14437152Y26565476D01*
X-14437152Y26565476D02*
X-14894295Y27022619D01*
X-14894295Y27022619D02*
X-14894295Y26527381D01*
X-14170485Y26222619D02*
X-14132390Y26184523D01*
X-14132390Y26184523D02*
X-14094295Y26108333D01*
X-14094295Y26108333D02*
X-14094295Y25917857D01*
X-14094295Y25917857D02*
X-14132390Y25841666D01*
X-14132390Y25841666D02*
X-14170485Y25803571D01*
X-14170485Y25803571D02*
X-14246676Y25765476D01*
X-14246676Y25765476D02*
X-14322866Y25765476D01*
X-14322866Y25765476D02*
X-14437152Y25803571D01*
X-14437152Y25803571D02*
X-14894295Y26260714D01*
X-14894295Y26260714D02*
X-14894295Y25765476D01*
X-14094295Y25270237D02*
X-14094295Y25194047D01*
X-14094295Y25194047D02*
X-14132390Y25117856D01*
X-14132390Y25117856D02*
X-14170485Y25079761D01*
X-14170485Y25079761D02*
X-14246676Y25041666D01*
X-14246676Y25041666D02*
X-14399057Y25003571D01*
X-14399057Y25003571D02*
X-14589533Y25003571D01*
X-14589533Y25003571D02*
X-14741914Y25041666D01*
X-14741914Y25041666D02*
X-14818104Y25079761D01*
X-14818104Y25079761D02*
X-14856200Y25117856D01*
X-14856200Y25117856D02*
X-14894295Y25194047D01*
X-14894295Y25194047D02*
X-14894295Y25270237D01*
X-14894295Y25270237D02*
X-14856200Y25346428D01*
X-14856200Y25346428D02*
X-14818104Y25384523D01*
X-14818104Y25384523D02*
X-14741914Y25422618D01*
X-14741914Y25422618D02*
X-14589533Y25460714D01*
X-14589533Y25460714D02*
X-14399057Y25460714D01*
X-14399057Y25460714D02*
X-14246676Y25422618D01*
X-14246676Y25422618D02*
X-14170485Y25384523D01*
X-14170485Y25384523D02*
X-14132390Y25346428D01*
X-14132390Y25346428D02*
X-14094295Y25270237D01*
X4292857Y-27204819D02*
X4292857Y-26204819D01*
X4292857Y-26204819D02*
X4626190Y-26919104D01*
X4626190Y-26919104D02*
X4959523Y-26204819D01*
X4959523Y-26204819D02*
X4959523Y-27204819D01*
X5578571Y-27204819D02*
X5483333Y-27157200D01*
X5483333Y-27157200D02*
X5435714Y-27109580D01*
X5435714Y-27109580D02*
X5388095Y-27014342D01*
X5388095Y-27014342D02*
X5388095Y-26728628D01*
X5388095Y-26728628D02*
X5435714Y-26633390D01*
X5435714Y-26633390D02*
X5483333Y-26585771D01*
X5483333Y-26585771D02*
X5578571Y-26538152D01*
X5578571Y-26538152D02*
X5721428Y-26538152D01*
X5721428Y-26538152D02*
X5816666Y-26585771D01*
X5816666Y-26585771D02*
X5864285Y-26633390D01*
X5864285Y-26633390D02*
X5911904Y-26728628D01*
X5911904Y-26728628D02*
X5911904Y-27014342D01*
X5911904Y-27014342D02*
X5864285Y-27109580D01*
X5864285Y-27109580D02*
X5816666Y-27157200D01*
X5816666Y-27157200D02*
X5721428Y-27204819D01*
X5721428Y-27204819D02*
X5578571Y-27204819D01*
X6769047Y-27204819D02*
X6769047Y-26204819D01*
X6769047Y-27157200D02*
X6673809Y-27204819D01*
X6673809Y-27204819D02*
X6483333Y-27204819D01*
X6483333Y-27204819D02*
X6388095Y-27157200D01*
X6388095Y-27157200D02*
X6340476Y-27109580D01*
X6340476Y-27109580D02*
X6292857Y-27014342D01*
X6292857Y-27014342D02*
X6292857Y-26728628D01*
X6292857Y-26728628D02*
X6340476Y-26633390D01*
X6340476Y-26633390D02*
X6388095Y-26585771D01*
X6388095Y-26585771D02*
X6483333Y-26538152D01*
X6483333Y-26538152D02*
X6673809Y-26538152D01*
X6673809Y-26538152D02*
X6769047Y-26585771D01*
X7673809Y-26538152D02*
X7673809Y-27204819D01*
X7245238Y-26538152D02*
X7245238Y-27061961D01*
X7245238Y-27061961D02*
X7292857Y-27157200D01*
X7292857Y-27157200D02*
X7388095Y-27204819D01*
X7388095Y-27204819D02*
X7530952Y-27204819D01*
X7530952Y-27204819D02*
X7626190Y-27157200D01*
X7626190Y-27157200D02*
X7673809Y-27109580D01*
X8292857Y-27204819D02*
X8197619Y-27157200D01*
X8197619Y-27157200D02*
X8150000Y-27061961D01*
X8150000Y-27061961D02*
X8150000Y-26204819D01*
X9054762Y-27157200D02*
X8959524Y-27204819D01*
X8959524Y-27204819D02*
X8769048Y-27204819D01*
X8769048Y-27204819D02*
X8673810Y-27157200D01*
X8673810Y-27157200D02*
X8626191Y-27061961D01*
X8626191Y-27061961D02*
X8626191Y-26681009D01*
X8626191Y-26681009D02*
X8673810Y-26585771D01*
X8673810Y-26585771D02*
X8769048Y-26538152D01*
X8769048Y-26538152D02*
X8959524Y-26538152D01*
X8959524Y-26538152D02*
X9054762Y-26585771D01*
X9054762Y-26585771D02*
X9102381Y-26681009D01*
X9102381Y-26681009D02*
X9102381Y-26776247D01*
X9102381Y-26776247D02*
X8626191Y-26871485D01*
X10054762Y-27204819D02*
X9483334Y-27204819D01*
X9769048Y-27204819D02*
X9769048Y-26204819D01*
X9769048Y-26204819D02*
X9673810Y-26347676D01*
X9673810Y-26347676D02*
X9578572Y-26442914D01*
X9578572Y-26442914D02*
X9483334Y-26490533D01*
D13*
%TO.C,U29*%
X23650000Y-17515000D02*
X22850000Y-17515000D01*
X23650000Y-17515000D02*
X24450000Y-17515000D01*
X23650000Y-20635000D02*
X22850000Y-20635000D01*
X23650000Y-20635000D02*
X25450000Y-20635000D01*
%TO.C,J15*%
X22260000Y30890000D02*
X22260000Y30440000D01*
X22710000Y30440000D02*
X22260000Y30440000D01*
X22940000Y35960000D02*
X22940000Y35540000D01*
X22940000Y28440000D02*
X22940000Y28860000D01*
X24920000Y35960000D02*
X22940000Y35960000D01*
X24920000Y28440000D02*
X22940000Y28440000D01*
X26890000Y35960000D02*
X27290000Y35960000D01*
X27290000Y28440000D02*
X26890000Y28440000D01*
%TO.C,D27*%
X6065936Y-41715000D02*
X6065936Y-42915000D01*
X8025936Y-41715000D02*
X6065936Y-41715000D01*
X8025936Y-42915000D02*
X6065936Y-42915000D01*
%TO.C,D1*%
X-13050000Y-45140000D02*
X-13050000Y-47060000D01*
X-13050000Y-47060000D02*
X-11407500Y-47060000D01*
X-11407500Y-45140000D02*
X-13050000Y-45140000D01*
%TO.C,Q11*%
X3120000Y20300000D02*
X3120000Y20960000D01*
X3120000Y18640000D02*
X3120000Y19300000D01*
X3120000Y18640000D02*
X5150000Y18640000D01*
X4530000Y20960000D02*
X3120000Y20960000D01*
%TO.C,R44*%
X1270000Y22796359D02*
X1270000Y23103641D01*
X2030000Y22796359D02*
X2030000Y23103641D01*
%TO.C,J10*%
X-13610000Y-32360000D02*
X-13610000Y-35010000D01*
X-13610000Y-35010000D02*
X-11260000Y-35010000D01*
X-13500000Y-27940000D02*
X6500000Y-27940000D01*
X-11260000Y-35010000D02*
X-11260000Y-36400000D01*
X6610000Y-32360000D02*
X6610000Y-35010000D01*
X6610000Y-35010000D02*
X4260000Y-35010000D01*
%TO.C,C36*%
X-14910000Y11867164D02*
X-14910000Y12082836D01*
X-14190000Y11867164D02*
X-14190000Y12082836D01*
%TO.C,Q25*%
X11505000Y-31640936D02*
X10855000Y-31640936D01*
X11505000Y-31640936D02*
X12155000Y-31640936D01*
X11505000Y-34760936D02*
X10855000Y-34760936D01*
X11505000Y-34760936D02*
X13180000Y-34760936D01*
%TO.C,Q9*%
X3120000Y23100000D02*
X3120000Y23760000D01*
X3120000Y21440000D02*
X3120000Y22100000D01*
X3120000Y21440000D02*
X5150000Y21440000D01*
X4530000Y23760000D02*
X3120000Y23760000D01*
%TO.C,R43*%
X5670000Y22796359D02*
X5670000Y23103641D01*
X6430000Y22796359D02*
X6430000Y23103641D01*
%TO.C,U13*%
X-17710000Y16600000D02*
X-17710000Y18550000D01*
X-17710000Y16600000D02*
X-17710000Y13150000D01*
X-12590000Y16600000D02*
X-12590000Y18550000D01*
X-12590000Y16600000D02*
X-12590000Y14650000D01*
%TO.C,FB3*%
X25940000Y-18712221D02*
X25940000Y-19037779D01*
X26960000Y-18712221D02*
X26960000Y-19037779D01*
%TO.C,R45*%
X17903641Y46180000D02*
X17596359Y46180000D01*
X17903641Y45420000D02*
X17596359Y45420000D01*
%TO.C,Q4*%
X19540000Y29230000D02*
X19540000Y27820000D01*
X20200000Y27820000D02*
X19540000Y27820000D01*
X21860000Y27820000D02*
X21200000Y27820000D01*
X21860000Y27820000D02*
X21860000Y29850000D01*
%TO.C,U8*%
X-13454000Y-18107200D02*
X-12454000Y-18107200D01*
X-13454000Y-20907200D02*
X-12154000Y-20907200D01*
%TO.C,R65*%
X8354577Y-31645936D02*
X8047295Y-31645936D01*
X8354577Y-32405936D02*
X8047295Y-32405936D01*
%TO.C,Q21*%
X11445000Y-40649064D02*
X11445000Y-39989064D01*
X11445000Y-42309064D02*
X11445000Y-41649064D01*
X11445000Y-42309064D02*
X13475000Y-42309064D01*
X12855000Y-39989064D02*
X11445000Y-39989064D01*
%TO.C,R20*%
X-1580000Y55013641D02*
X-1580000Y54706359D01*
X-820000Y55013641D02*
X-820000Y54706359D01*
%TO.C,R104*%
X20332500Y-18617742D02*
X20332500Y-19092258D01*
X21377500Y-18617742D02*
X21377500Y-19092258D01*
%TO.C,R81*%
X22620000Y-28886359D02*
X22620000Y-29193641D01*
X23380000Y-28886359D02*
X23380000Y-29193641D01*
%TO.C,C83*%
X11234420Y-38590936D02*
X11515580Y-38590936D01*
X11234420Y-39610936D02*
X11515580Y-39610936D01*
%TO.C,R40*%
X5103641Y25080000D02*
X4796359Y25080000D01*
X5103641Y24320000D02*
X4796359Y24320000D01*
%TO.C,J12*%
X-15355000Y56600000D02*
X-15355000Y59300000D01*
X-12635000Y59350000D02*
X-12635000Y58710000D01*
X-12635000Y57190000D02*
X-12005000Y57190000D01*
X-12635000Y56550000D02*
X-12635000Y57190000D01*
%TO.C,C97*%
X27290000Y-19337164D02*
X27290000Y-19552836D01*
X28010000Y-19337164D02*
X28010000Y-19552836D01*
%TO.C,R85*%
X9370423Y-41770000D02*
X9677705Y-41770000D01*
X9370423Y-42530000D02*
X9677705Y-42530000D01*
%TO.C,R38*%
X1270000Y14803641D02*
X1270000Y14496359D01*
X2030000Y14803641D02*
X2030000Y14496359D01*
%TO.C,R22*%
X-9453641Y-15670000D02*
X-9146359Y-15670000D01*
X-9453641Y-16430000D02*
X-9146359Y-16430000D01*
%TO.C,C28*%
X-24567164Y-29315000D02*
X-24782836Y-29315000D01*
X-24567164Y-30035000D02*
X-24782836Y-30035000D01*
%TO.C,R41*%
X21653641Y46180000D02*
X21346359Y46180000D01*
X21653641Y45420000D02*
X21346359Y45420000D01*
%TO.C,R23*%
X-9196359Y-18920000D02*
X-9503641Y-18920000D01*
X-9196359Y-19680000D02*
X-9503641Y-19680000D01*
%TO.C,U36*%
X15355000Y-28240936D02*
X14705000Y-28240936D01*
X15355000Y-28240936D02*
X16005000Y-28240936D01*
X15355000Y-31360936D02*
X14705000Y-31360936D01*
X15355000Y-31360936D02*
X17030000Y-31360936D01*
%TO.C,D3*%
X-1050000Y-45140000D02*
X-1050000Y-47060000D01*
X-1050000Y-47060000D02*
X592500Y-47060000D01*
X592500Y-45140000D02*
X-1050000Y-45140000D01*
D14*
%TO.C,U7*%
X-7500000Y52800000D02*
X-7500000Y30800000D01*
X-7500000Y30800000D02*
X15500000Y30800000D01*
X15500000Y52800000D02*
X-7500000Y52800000D01*
X15500000Y30800000D02*
X15500000Y52800000D01*
D15*
X-3926000Y33520000D02*
G75*
G02*
X-3926000Y33520000I-254000J0D01*
G01*
D12*
%TO.C,U15*%
X15875000Y32975000D02*
X16175000Y32975000D01*
X15875000Y29625000D02*
X15875000Y32975000D01*
X15875000Y29625000D02*
X16100000Y29625000D01*
X16100000Y29625000D02*
X16100000Y28400000D01*
X19225000Y32975000D02*
X18925000Y32975000D01*
X19225000Y29625000D02*
X18925000Y29625000D01*
X19225000Y29625000D02*
X19225000Y32975000D01*
D13*
%TO.C,Q19*%
X14015936Y-42695000D02*
X14015936Y-44725000D01*
X14015936Y-42695000D02*
X14675936Y-42695000D01*
X15675936Y-42695000D02*
X16335936Y-42695000D01*
X16335936Y-44105000D02*
X16335936Y-42695000D01*
%TO.C,D23*%
X4660000Y-39450000D02*
X800000Y-39450000D01*
X4660000Y-41450000D02*
X800000Y-41450000D01*
X4660000Y-41450000D02*
X4660000Y-39450000D01*
%TO.C,Q22*%
X20040000Y-32494064D02*
X20040000Y-34524064D01*
X20040000Y-32494064D02*
X20700000Y-32494064D01*
X21700000Y-32494064D02*
X22360000Y-32494064D01*
X22360000Y-33904064D02*
X22360000Y-32494064D01*
%TO.C,D22*%
X-4160000Y-39450000D02*
X-4160000Y-41450000D01*
X-4160000Y-39450000D02*
X-300000Y-39450000D01*
X-4160000Y-41450000D02*
X-300000Y-41450000D01*
%TO.C,R33*%
X1270000Y17353641D02*
X1270000Y17046359D01*
X2030000Y17353641D02*
X2030000Y17046359D01*
%TO.C,R80*%
X24700936Y-28830423D02*
X24700936Y-29137705D01*
X25460936Y-28830423D02*
X25460936Y-29137705D01*
%TO.C,D24*%
X4660000Y-37150000D02*
X800000Y-37150000D01*
X4660000Y-39150000D02*
X800000Y-39150000D01*
X4660000Y-39150000D02*
X4660000Y-37150000D01*
%TO.C,R37*%
X1270000Y12153641D02*
X1270000Y11846359D01*
X2030000Y12153641D02*
X2030000Y11846359D01*
%TO.C,Q17*%
X20870000Y-43874064D02*
X20870000Y-43214064D01*
X20870000Y-45534064D02*
X20870000Y-44874064D01*
X20870000Y-45534064D02*
X22900000Y-45534064D01*
X22280000Y-43214064D02*
X20870000Y-43214064D01*
%TO.C,C20*%
X-807836Y53820000D02*
X-592164Y53820000D01*
X-807836Y53100000D02*
X-592164Y53100000D01*
%TO.C,R2*%
X-18646359Y15480000D02*
X-18953641Y15480000D01*
X-18646359Y14720000D02*
X-18953641Y14720000D01*
%TO.C,R5*%
X-17430000Y-39096359D02*
X-17430000Y-39403641D01*
X-16670000Y-39096359D02*
X-16670000Y-39403641D01*
%TO.C,D21*%
X-4160000Y-37150000D02*
X-4160000Y-39150000D01*
X-4160000Y-37150000D02*
X-300000Y-37150000D01*
X-4160000Y-39150000D02*
X-300000Y-39150000D01*
%TO.C,Module1*%
X-13000000Y24000000D02*
X-13000000Y-24000000D01*
X-11850000Y8900000D02*
X-8070000Y8900000D01*
X-11850000Y-13900000D02*
X-11850000Y-12900000D01*
X-11850000Y-13900000D02*
X-8070000Y-13900000D01*
X-9500000Y-27500000D02*
X23500000Y-27500000D01*
X-8070000Y-13900000D02*
X-8070000Y-12900000D01*
X22070000Y8900000D02*
X22070000Y7900000D01*
X22070000Y8900000D02*
X25850000Y8900000D01*
X22070000Y-13900000D02*
X22070000Y-12900000D01*
X22070000Y-13900000D02*
X25850000Y-13900000D01*
X23500000Y27500000D02*
X-9500000Y27500000D01*
X25850000Y8900000D02*
X25850000Y7900000D01*
X25850000Y-13900000D02*
X25850000Y-12900000D01*
X27000000Y-24000000D02*
X27000000Y24000000D01*
X-13000000Y24000000D02*
G75*
G02*
X-9500000Y27500000I3499999J1D01*
G01*
X-9500000Y-27500000D02*
G75*
G02*
X-13000000Y-24000000I-1J3499999D01*
G01*
X23500000Y27500000D02*
G75*
G02*
X27000000Y24000000I0J-3500000D01*
G01*
X27000000Y-24000000D02*
G75*
G02*
X23500000Y-27500000I-3500000J0D01*
G01*
%TO.C,R4*%
X-16253641Y-31720000D02*
X-15946359Y-31720000D01*
X-16253641Y-32480000D02*
X-15946359Y-32480000D01*
%TO.C,Q24*%
X17440000Y-32544064D02*
X17440000Y-33954064D01*
X18100000Y-33954064D02*
X17440000Y-33954064D01*
X19760000Y-33954064D02*
X19100000Y-33954064D01*
X19760000Y-33954064D02*
X19760000Y-31924064D01*
%TO.C,R68*%
X13646359Y-38445936D02*
X13953641Y-38445936D01*
X13646359Y-39205936D02*
X13953641Y-39205936D01*
%TO.C,R21*%
X-9453641Y-16620000D02*
X-9146359Y-16620000D01*
X-9453641Y-17380000D02*
X-9146359Y-17380000D01*
%TO.C,R3*%
X-8403641Y9780000D02*
X-8096359Y9780000D01*
X-8403641Y9020000D02*
X-8096359Y9020000D01*
%TO.C,C30*%
X-18135000Y-2082836D02*
X-18135000Y-1867164D01*
X-17415000Y-2082836D02*
X-17415000Y-1867164D01*
%TO.C,R72*%
X7346359Y-37320936D02*
X7653641Y-37320936D01*
X7346359Y-38080936D02*
X7653641Y-38080936D01*
%TO.C,C21*%
X-9210000Y40192164D02*
X-9210000Y40407836D01*
X-8490000Y40192164D02*
X-8490000Y40407836D01*
%TO.C,Q8*%
X-3730000Y26650000D02*
X-3730000Y27310000D01*
X-3730000Y24990000D02*
X-3730000Y25650000D01*
X-3730000Y24990000D02*
X-1700000Y24990000D01*
X-2320000Y27310000D02*
X-3730000Y27310000D01*
%TO.C,C100*%
X20782836Y-16540000D02*
X20567164Y-16540000D01*
X20782836Y-17260000D02*
X20567164Y-17260000D01*
%TO.C,C84*%
X11809420Y-30239064D02*
X12090580Y-30239064D01*
X11809420Y-31259064D02*
X12090580Y-31259064D01*
%TO.C,J13*%
X-28920500Y-17380000D02*
X-28920500Y-28994500D01*
X-28920500Y-17380000D02*
X-28412500Y-17380000D01*
X-28412500Y-28994500D02*
X-28920500Y-28994500D01*
X-25174000Y-17374000D02*
X-23078500Y-17374000D01*
X-23078500Y-28994500D02*
X-25174000Y-28994500D01*
X-20835000Y-17374000D02*
X-14635000Y-17374000D01*
X-18189000Y-28994500D02*
X-20835000Y-28994500D01*
X-14635000Y-17374000D02*
X-14635000Y-19152000D01*
X-14635000Y-25248000D02*
X-14635000Y-26200500D01*
X-14633000Y-20803000D02*
X-14635000Y-23597000D01*
X-14188500Y-26200500D02*
X-14633000Y-26200500D01*
X-14188500Y-26200500D02*
X-14188500Y-28994500D01*
X-14188500Y-28994500D02*
X-15458500Y-28994500D01*
%TO.C,U14*%
X-16760000Y10100000D02*
X-16760000Y8200000D01*
X-14440000Y8700000D02*
X-14440000Y10100000D01*
%TO.C,C35*%
X-17710000Y12082836D02*
X-17710000Y11867164D01*
X-16990000Y12082836D02*
X-16990000Y11867164D01*
%TO.C,U30*%
X23650000Y-14115000D02*
X22850000Y-14115000D01*
X23650000Y-14115000D02*
X24450000Y-14115000D01*
X23650000Y-17235000D02*
X22850000Y-17235000D01*
X23650000Y-17235000D02*
X25450000Y-17235000D01*
%TO.C,Q29*%
X15355000Y-31640936D02*
X14705000Y-31640936D01*
X15355000Y-31640936D02*
X16005000Y-31640936D01*
X15355000Y-34760936D02*
X14705000Y-34760936D01*
X15355000Y-34760936D02*
X17030000Y-34760936D01*
%TO.C,Q18*%
X17470000Y-43875936D02*
X17470000Y-43215936D01*
X17470000Y-45535936D02*
X17470000Y-44875936D01*
X17470000Y-45535936D02*
X19500000Y-45535936D01*
X18880000Y-43215936D02*
X17470000Y-43215936D01*
%TO.C,R84*%
X9370423Y-42770000D02*
X9677705Y-42770000D01*
X9370423Y-43530000D02*
X9677705Y-43530000D01*
%TO.C,R34*%
X-8980000Y-41796359D02*
X-8980000Y-42103641D01*
X-8220000Y-41796359D02*
X-8220000Y-42103641D01*
%TO.C,R105*%
X20342500Y-14717742D02*
X20342500Y-15192258D01*
X21387500Y-14717742D02*
X21387500Y-15192258D01*
%TO.C,C19*%
X-592164Y56620000D02*
X-807836Y56620000D01*
X-592164Y55900000D02*
X-807836Y55900000D01*
%TO.C,Q16*%
X12615000Y-35945936D02*
X12615000Y-37355936D01*
X13275000Y-37355936D02*
X12615000Y-37355936D01*
X14935000Y-37355936D02*
X14275000Y-37355936D01*
X14935000Y-37355936D02*
X14935000Y-35325936D01*
%TO.C,C99*%
X27290000Y-15432836D02*
X27290000Y-15217164D01*
X28010000Y-15432836D02*
X28010000Y-15217164D01*
D16*
%TO.C,D6*%
X-13425000Y-23040000D02*
G75*
G02*
X-13425000Y-23040000I-50000J0D01*
G01*
%TO.C,D20*%
X-12860000Y21050000D02*
G75*
G02*
X-12860000Y21050000I-50000J0D01*
G01*
D13*
%TO.C,D7*%
X10950000Y-45140000D02*
X10950000Y-47060000D01*
X10950000Y-47060000D02*
X12592500Y-47060000D01*
X12592500Y-45140000D02*
X10950000Y-45140000D01*
%TO.C,Q14*%
X10015000Y-35944064D02*
X10015000Y-37354064D01*
X10675000Y-37354064D02*
X10015000Y-37354064D01*
X12335000Y-37354064D02*
X11675000Y-37354064D01*
X12335000Y-37354064D02*
X12335000Y-35324064D01*
%TO.C,R39*%
X2896359Y25030000D02*
X3203641Y25030000D01*
X2896359Y24270000D02*
X3203641Y24270000D01*
D16*
%TO.C,D25*%
X20150000Y44235000D02*
G75*
G02*
X20150000Y44235000I-50000J0D01*
G01*
D13*
%TO.C,Q30*%
X17439064Y-29130000D02*
X17439064Y-30540000D01*
X18099064Y-30540000D02*
X17439064Y-30540000D01*
X19759064Y-30540000D02*
X19099064Y-30540000D01*
X19759064Y-30540000D02*
X19759064Y-28510000D01*
%TO.C,D15*%
X7424064Y-37210000D02*
X7424064Y-33200000D01*
X7424064Y-37210000D02*
X9424064Y-37210000D01*
X9424064Y-37210000D02*
X9424064Y-33200000D01*
%TO.C,J16*%
X-17200000Y48150000D02*
X-17200000Y34850000D01*
X-17200000Y34850000D02*
X-15460000Y34850000D01*
X-15460000Y48150000D02*
X-17200000Y48150000D01*
X-11400000Y48150000D02*
X-12740000Y48150000D01*
X-11400000Y46660000D02*
X-11400000Y48150000D01*
X-11400000Y46660000D02*
X-10200000Y46660000D01*
X-11400000Y36340000D02*
X-11400000Y34850000D01*
X-11400000Y34850000D02*
X-12740000Y34850000D01*
%TO.C,R24*%
X-16196359Y-2020000D02*
X-16503641Y-2020000D01*
X-16196359Y-2780000D02*
X-16503641Y-2780000D01*
%TO.C,R67*%
X-1527064Y-41815000D02*
X-72936Y-41815000D01*
X-1527064Y-43635000D02*
X-72936Y-43635000D01*
%TO.C,R42*%
X5670000Y20046359D02*
X5670000Y20353641D01*
X6430000Y20046359D02*
X6430000Y20353641D01*
%TO.C,Q12*%
X4814064Y-39220000D02*
X4814064Y-40630000D01*
X5474064Y-40630000D02*
X4814064Y-40630000D01*
X7134064Y-40630000D02*
X6474064Y-40630000D01*
X7134064Y-40630000D02*
X7134064Y-38600000D01*
%TO.C,Q20*%
X11445000Y-43274064D02*
X11445000Y-42614064D01*
X11445000Y-44934064D02*
X11445000Y-44274064D01*
X11445000Y-44934064D02*
X13475000Y-44934064D01*
X12855000Y-42614064D02*
X11445000Y-42614064D01*
%TO.C,R31*%
X19471359Y26730000D02*
X19778641Y26730000D01*
X19471359Y25970000D02*
X19778641Y25970000D01*
%TO.C,R86*%
X12346359Y-28195000D02*
X12653641Y-28195000D01*
X12346359Y-28955000D02*
X12653641Y-28955000D01*
%TO.C,R66*%
X3047936Y-41815000D02*
X4502064Y-41815000D01*
X3047936Y-43635000D02*
X4502064Y-43635000D01*
%TO.C,C98*%
X20782836Y-20440000D02*
X20567164Y-20440000D01*
X20782836Y-21160000D02*
X20567164Y-21160000D01*
%TO.C,R64*%
X5471359Y-37319064D02*
X5778641Y-37319064D01*
X5471359Y-38079064D02*
X5778641Y-38079064D01*
%TO.C,R19*%
X-1853641Y58540000D02*
X-1546359Y58540000D01*
X-1853641Y57780000D02*
X-1546359Y57780000D01*
%TO.C,R46*%
X1270000Y19996359D02*
X1270000Y20303641D01*
X2030000Y19996359D02*
X2030000Y20303641D01*
%TO.C,C29*%
X-19838748Y-840000D02*
X-21261252Y-840000D01*
X-19838748Y-2660000D02*
X-21261252Y-2660000D01*
%TO.C,Q15*%
X15215000Y-35945936D02*
X15215000Y-37355936D01*
X15875000Y-37355936D02*
X15215000Y-37355936D01*
X17535000Y-37355936D02*
X16875000Y-37355936D01*
X17535000Y-37355936D02*
X17535000Y-35325936D01*
%TO.C,U2*%
X-8200000Y-38335000D02*
X-8200000Y-39635000D01*
X-5400000Y-38335000D02*
X-5400000Y-39335000D01*
%TO.C,FB4*%
X25940000Y-16062779D02*
X25940000Y-15737221D01*
X26960000Y-16062779D02*
X26960000Y-15737221D01*
%TO.C,Q13*%
X7414064Y-39220000D02*
X7414064Y-40630000D01*
X8074064Y-40630000D02*
X7414064Y-40630000D01*
X9734064Y-40630000D02*
X9074064Y-40630000D01*
X9734064Y-40630000D02*
X9734064Y-38600000D01*
%TO.C,C51*%
X18790000Y45217164D02*
X18790000Y45432836D01*
X19510000Y45217164D02*
X19510000Y45432836D01*
%TO.C,R30*%
X-16103641Y11855000D02*
X-15796359Y11855000D01*
X-16103641Y11095000D02*
X-15796359Y11095000D01*
%TO.C,R29*%
X-16103641Y12805000D02*
X-15796359Y12805000D01*
X-16103641Y12045000D02*
X-15796359Y12045000D01*
%TO.C,R99*%
X12346359Y-29145000D02*
X12653641Y-29145000D01*
X12346359Y-29905000D02*
X12653641Y-29905000D01*
%TO.C,Q7*%
X3170000Y13440000D02*
X4580000Y13440000D01*
X4580000Y15760000D02*
X2550000Y15760000D01*
X4580000Y15760000D02*
X4580000Y15100000D01*
X4580000Y14100000D02*
X4580000Y13440000D01*
%TO.C,C26*%
X-22957836Y-29315000D02*
X-22742164Y-29315000D01*
X-22957836Y-30035000D02*
X-22742164Y-30035000D01*
D16*
%TO.C,D9*%
X440000Y57200000D02*
G75*
G02*
X440000Y57200000I-50000J0D01*
G01*
D13*
%TO.C,R1*%
X-18646359Y16430000D02*
X-18953641Y16430000D01*
X-18646359Y15670000D02*
X-18953641Y15670000D01*
%TO.C,R32*%
X19471359Y25780000D02*
X19778641Y25780000D01*
X19471359Y25020000D02*
X19778641Y25020000D01*
%TO.C,Q6*%
X3170000Y10840000D02*
X4580000Y10840000D01*
X4580000Y13160000D02*
X2550000Y13160000D01*
X4580000Y13160000D02*
X4580000Y12500000D01*
X4580000Y11500000D02*
X4580000Y10840000D01*
%TO.C,R82*%
X13994064Y-40928641D02*
X13994064Y-40621359D01*
X14754064Y-40928641D02*
X14754064Y-40621359D01*
%TO.C,D26*%
X6080000Y-43199064D02*
X6080000Y-44399064D01*
X8040000Y-43199064D02*
X6080000Y-43199064D01*
X8040000Y-44399064D02*
X6080000Y-44399064D01*
%TO.C,Q23*%
X20040000Y-29120936D02*
X20040000Y-30530936D01*
X20700000Y-30530936D02*
X20040000Y-30530936D01*
X22360000Y-30530936D02*
X21700000Y-30530936D01*
X22360000Y-30530936D02*
X22360000Y-28500936D01*
%TO.C,D2*%
X-25050000Y-45140000D02*
X-25050000Y-47060000D01*
X-25050000Y-47060000D02*
X-23407500Y-47060000D01*
X-23407500Y-45140000D02*
X-25050000Y-45140000D01*
%TO.C,C34*%
X-18710000Y18907836D02*
X-18710000Y18692164D01*
X-17990000Y18907836D02*
X-17990000Y18692164D01*
%TO.C,Q5*%
X3170000Y16040000D02*
X4580000Y16040000D01*
X4580000Y18360000D02*
X2550000Y18360000D01*
X4580000Y18360000D02*
X4580000Y17700000D01*
X4580000Y16700000D02*
X4580000Y16040000D01*
%TO.C,J17*%
X23590000Y47175000D02*
X23590000Y46535000D01*
X23590000Y46535000D02*
X22960000Y46535000D01*
X23590000Y44375000D02*
X23590000Y45015000D01*
X26310000Y47125000D02*
X26310000Y44425000D01*
%TO.C,R79*%
X16595000Y-42254577D02*
X16595000Y-41947295D01*
X17355000Y-42254577D02*
X17355000Y-41947295D01*
%TO.C,C61*%
X15990000Y45457836D02*
X15990000Y45242164D01*
X16710000Y45457836D02*
X16710000Y45242164D01*
%TO.C,U1*%
X-17160000Y-34300000D02*
X-17160000Y-35700000D01*
X-14840000Y-35700000D02*
X-14840000Y-33800000D01*
%TO.C,C37*%
X14865000Y29182836D02*
X14865000Y28967164D01*
X15585000Y29182836D02*
X15585000Y28967164D01*
%TO.C,U16*%
X20600000Y33250000D02*
X21600000Y33250000D01*
X20600000Y30450000D02*
X21900000Y30450000D01*
%TD*%
M02*
