%TF.GenerationSoftware,KiCad,Pcbnew,7.99.0-1.20230926git54171ec.fc37*%
%TF.CreationDate,2023-10-03T14:10:53+01:00*%
%TF.ProjectId,bugg-main-r5,62756767-2d6d-4616-996e-2d72352e6b69,rev?*%
%TF.SameCoordinates,Original*%
%TF.FileFunction,Paste,Bot*%
%TF.FilePolarity,Positive*%
%FSLAX46Y46*%
G04 Gerber Fmt 4.6, Leading zero omitted, Abs format (unit mm)*
G04 Created by KiCad (PCBNEW 7.99.0-1.20230926git54171ec.fc37) date 2023-10-03 14:10:53*
%MOMM*%
%LPD*%
G01*
G04 APERTURE LIST*
G04 Aperture macros list*
%AMRoundRect*
0 Rectangle with rounded corners*
0 $1 Rounding radius*
0 $2 $3 $4 $5 $6 $7 $8 $9 X,Y pos of 4 corners*
0 Add a 4 corners polygon primitive as box body*
4,1,4,$2,$3,$4,$5,$6,$7,$8,$9,$2,$3,0*
0 Add four circle primitives for the rounded corners*
1,1,$1+$1,$2,$3*
1,1,$1+$1,$4,$5*
1,1,$1+$1,$6,$7*
1,1,$1+$1,$8,$9*
0 Add four rect primitives between the rounded corners*
20,1,$1+$1,$2,$3,$4,$5,0*
20,1,$1+$1,$4,$5,$6,$7,0*
20,1,$1+$1,$6,$7,$8,$9,0*
20,1,$1+$1,$8,$9,$2,$3,0*%
%AMFreePoly0*
4,1,21,1.372500,0.787500,0.862500,0.787500,0.862500,0.532500,1.372500,0.532500,1.372500,0.127500,0.862500,0.127500,0.862500,-0.127500,1.372500,-0.127500,1.372500,-0.532500,0.862500,-0.532500,0.862500,-0.787500,1.372500,-0.787500,1.372500,-1.195000,0.612500,-1.195000,0.612500,-1.117500,-0.862500,-1.117500,-0.862500,1.117500,0.612500,1.117500,0.612500,1.195000,1.372500,1.195000,
1.372500,0.787500,1.372500,0.787500,$1*%
%AMFreePoly1*
4,1,25,0.251037,0.433748,0.282717,0.409439,0.409439,0.282717,0.449030,0.214145,0.454242,0.174554,0.454242,-0.174554,0.433748,-0.251037,0.409439,-0.282717,0.282717,-0.409439,0.214145,-0.449030,0.174554,-0.454242,-0.174554,-0.454242,-0.251037,-0.433748,-0.282717,-0.409439,-0.409439,-0.282717,-0.449030,-0.214145,-0.454242,-0.174554,-0.454242,0.174554,-0.433748,0.251037,-0.409439,0.282717,
-0.282717,0.409439,-0.214145,0.449030,-0.174554,0.454242,0.174554,0.454242,0.251037,0.433748,0.251037,0.433748,$1*%
G04 Aperture macros list end*
%ADD10RoundRect,0.135000X0.135000X0.185000X-0.135000X0.185000X-0.135000X-0.185000X0.135000X-0.185000X0*%
%ADD11RoundRect,0.135000X-0.185000X0.135000X-0.185000X-0.135000X0.185000X-0.135000X0.185000X0.135000X0*%
%ADD12RoundRect,0.135000X-0.135000X-0.185000X0.135000X-0.185000X0.135000X0.185000X-0.135000X0.185000X0*%
%ADD13RoundRect,0.140000X0.170000X-0.140000X0.170000X0.140000X-0.170000X0.140000X-0.170000X-0.140000X0*%
%ADD14RoundRect,0.140000X0.140000X0.170000X-0.140000X0.170000X-0.140000X-0.170000X0.140000X-0.170000X0*%
%ADD15RoundRect,0.140000X-0.140000X-0.170000X0.140000X-0.170000X0.140000X0.170000X-0.140000X0.170000X0*%
%ADD16RoundRect,0.140000X-0.170000X0.140000X-0.170000X-0.140000X0.170000X-0.140000X0.170000X0.140000X0*%
%ADD17R,0.990000X0.405000*%
%ADD18FreePoly0,0.000000*%
%ADD19RoundRect,0.200000X0.200000X0.275000X-0.200000X0.275000X-0.200000X-0.275000X0.200000X-0.275000X0*%
%ADD20RoundRect,0.250000X-0.325000X-0.650000X0.325000X-0.650000X0.325000X0.650000X-0.325000X0.650000X0*%
%ADD21RoundRect,0.150000X-0.587500X-0.150000X0.587500X-0.150000X0.587500X0.150000X-0.587500X0.150000X0*%
%ADD22FreePoly0,180.000000*%
%ADD23R,0.980000X3.400000*%
%ADD24RoundRect,0.050000X-0.287500X-0.075000X0.287500X-0.075000X0.287500X0.075000X-0.287500X0.075000X0*%
%ADD25RoundRect,0.050000X-0.075000X0.287500X-0.075000X-0.287500X0.075000X-0.287500X0.075000X0.287500X0*%
%ADD26RoundRect,0.050000X-0.275000X-0.075000X0.275000X-0.075000X0.275000X0.075000X-0.275000X0.075000X0*%
%ADD27RoundRect,0.050050X0.124950X0.274950X-0.124950X0.274950X-0.124950X-0.274950X0.124950X-0.274950X0*%
%ADD28RoundRect,0.049950X-0.175050X-0.675050X0.175050X-0.675050X0.175050X0.675050X-0.175050X0.675050X0*%
%ADD29R,1.200000X1.200000*%
%ADD30R,3.800000X2.000000*%
%ADD31RoundRect,0.225000X0.375000X-0.225000X0.375000X0.225000X-0.375000X0.225000X-0.375000X-0.225000X0*%
%ADD32RoundRect,0.135000X0.185000X-0.135000X0.185000X0.135000X-0.185000X0.135000X-0.185000X-0.135000X0*%
%ADD33RoundRect,0.250000X0.650000X-0.325000X0.650000X0.325000X-0.650000X0.325000X-0.650000X-0.325000X0*%
%ADD34RoundRect,0.100000X-0.637500X-0.100000X0.637500X-0.100000X0.637500X0.100000X-0.637500X0.100000X0*%
%ADD35RoundRect,0.250000X0.325000X0.650000X-0.325000X0.650000X-0.325000X-0.650000X0.325000X-0.650000X0*%
%ADD36R,0.550000X0.300000*%
%ADD37R,0.550000X0.400000*%
%ADD38RoundRect,0.218750X0.218750X0.256250X-0.218750X0.256250X-0.218750X-0.256250X0.218750X-0.256250X0*%
%ADD39RoundRect,0.100000X0.637500X0.100000X-0.637500X0.100000X-0.637500X-0.100000X0.637500X-0.100000X0*%
%ADD40R,0.450000X0.700000*%
%ADD41RoundRect,0.250000X1.250000X0.550000X-1.250000X0.550000X-1.250000X-0.550000X1.250000X-0.550000X0*%
%ADD42RoundRect,0.250000X0.625000X-0.312500X0.625000X0.312500X-0.625000X0.312500X-0.625000X-0.312500X0*%
%ADD43RoundRect,0.250000X1.000000X-1.950000X1.000000X1.950000X-1.000000X1.950000X-1.000000X-1.950000X0*%
%ADD44RoundRect,0.250000X0.450000X-0.262500X0.450000X0.262500X-0.450000X0.262500X-0.450000X-0.262500X0*%
%ADD45RoundRect,0.150000X0.150000X-0.825000X0.150000X0.825000X-0.150000X0.825000X-0.150000X-0.825000X0*%
%ADD46RoundRect,0.250000X-0.650000X0.325000X-0.650000X-0.325000X0.650000X-0.325000X0.650000X0.325000X0*%
%ADD47RoundRect,0.250000X-0.325000X-1.100000X0.325000X-1.100000X0.325000X1.100000X-0.325000X1.100000X0*%
%ADD48RoundRect,0.250000X0.550000X-1.250000X0.550000X1.250000X-0.550000X1.250000X-0.550000X-1.250000X0*%
%ADD49RoundRect,0.250000X-0.485000X-0.485000X0.485000X-0.485000X0.485000X0.485000X-0.485000X0.485000X0*%
%ADD50RoundRect,0.062500X-0.362500X-0.062500X0.362500X-0.062500X0.362500X0.062500X-0.362500X0.062500X0*%
%ADD51RoundRect,0.062500X-0.062500X-0.362500X0.062500X-0.362500X0.062500X0.362500X-0.062500X0.362500X0*%
%ADD52RoundRect,0.225000X0.250000X-0.225000X0.250000X0.225000X-0.250000X0.225000X-0.250000X-0.225000X0*%
%ADD53FreePoly1,90.000000*%
%ADD54RoundRect,0.062500X0.062500X-0.325000X0.062500X0.325000X-0.062500X0.325000X-0.062500X-0.325000X0*%
%ADD55RoundRect,0.062500X0.325000X-0.062500X0.325000X0.062500X-0.325000X0.062500X-0.325000X-0.062500X0*%
%ADD56RoundRect,0.250000X0.275000X-0.275000X0.275000X0.275000X-0.275000X0.275000X-0.275000X-0.275000X0*%
%ADD57RoundRect,0.062500X0.062500X-0.350000X0.062500X0.350000X-0.062500X0.350000X-0.062500X-0.350000X0*%
%ADD58RoundRect,0.062500X0.350000X-0.062500X0.350000X0.062500X-0.350000X0.062500X-0.350000X-0.062500X0*%
%ADD59RoundRect,0.225000X-0.250000X0.225000X-0.250000X-0.225000X0.250000X-0.225000X0.250000X0.225000X0*%
%ADD60R,0.980000X3.700000*%
%ADD61RoundRect,0.200000X-0.200000X-0.275000X0.200000X-0.275000X0.200000X0.275000X-0.200000X0.275000X0*%
%ADD62RoundRect,0.250000X-0.850000X0.375000X-0.850000X-0.375000X0.850000X-0.375000X0.850000X0.375000X0*%
%ADD63RoundRect,0.250000X0.262500X0.450000X-0.262500X0.450000X-0.262500X-0.450000X0.262500X-0.450000X0*%
%ADD64RoundRect,0.227500X0.227500X0.227500X-0.227500X0.227500X-0.227500X-0.227500X0.227500X-0.227500X0*%
%ADD65RoundRect,0.075000X0.350000X0.075000X-0.350000X0.075000X-0.350000X-0.075000X0.350000X-0.075000X0*%
%ADD66RoundRect,0.075000X0.075000X0.350000X-0.075000X0.350000X-0.075000X-0.350000X0.075000X-0.350000X0*%
%ADD67RoundRect,0.225000X-0.375000X0.225000X-0.375000X-0.225000X0.375000X-0.225000X0.375000X0.225000X0*%
%ADD68RoundRect,0.125000X-0.125000X0.587500X-0.125000X-0.587500X0.125000X-0.587500X0.125000X0.587500X0*%
%ADD69R,0.400000X1.000000*%
%ADD70R,4.700000X1.180000*%
%ADD71R,3.400000X0.980000*%
%ADD72R,0.300000X1.400000*%
%ADD73R,0.800000X0.900000*%
%ADD74R,0.400000X0.650000*%
%ADD75RoundRect,0.167500X0.167500X0.312500X-0.167500X0.312500X-0.167500X-0.312500X0.167500X-0.312500X0*%
%ADD76RoundRect,0.062500X0.362500X0.062500X-0.362500X0.062500X-0.362500X-0.062500X0.362500X-0.062500X0*%
%ADD77RoundRect,0.225000X0.225000X0.250000X-0.225000X0.250000X-0.225000X-0.250000X0.225000X-0.250000X0*%
%ADD78RoundRect,0.150000X-0.512500X-0.150000X0.512500X-0.150000X0.512500X0.150000X-0.512500X0.150000X0*%
%ADD79RoundRect,0.218750X0.256250X-0.218750X0.256250X0.218750X-0.256250X0.218750X-0.256250X-0.218750X0*%
%ADD80RoundRect,0.218750X-0.218750X-0.256250X0.218750X-0.256250X0.218750X0.256250X-0.218750X0.256250X0*%
%ADD81RoundRect,0.250000X0.250000X0.475000X-0.250000X0.475000X-0.250000X-0.475000X0.250000X-0.475000X0*%
G04 APERTURE END LIST*
D10*
%TO.C,R8*%
X17472500Y43627500D03*
X16452500Y43627500D03*
%TD*%
D11*
%TO.C,R36*%
X12350000Y53276400D03*
X12350000Y54296400D03*
%TD*%
%TO.C,R35*%
X-1000000Y55910000D03*
X-1000000Y54890000D03*
%TD*%
D10*
%TO.C,R17*%
X7585000Y58375000D03*
X6565000Y58375000D03*
%TD*%
%TO.C,R16*%
X9460000Y57656400D03*
X8440000Y57656400D03*
%TD*%
%TO.C,R15*%
X-7065000Y58375000D03*
X-8085000Y58375000D03*
%TD*%
%TO.C,R14*%
X-5135000Y57425000D03*
X-6155000Y57425000D03*
%TD*%
%TO.C,R13*%
X9440000Y56701400D03*
X8420000Y56701400D03*
%TD*%
%TO.C,R12*%
X-5140000Y56475000D03*
X-6160000Y56475000D03*
%TD*%
D12*
%TO.C,R11*%
X15910000Y51650000D03*
X14890000Y51650000D03*
%TD*%
D10*
%TO.C,R7*%
X-14765000Y45650000D03*
X-15785000Y45650000D03*
%TD*%
D13*
%TO.C,C38*%
X-11775000Y31195000D03*
X-11775000Y32155000D03*
%TD*%
D14*
%TO.C,C18*%
X130000Y46425000D03*
X-830000Y46425000D03*
%TD*%
D15*
%TO.C,C17*%
X-4155000Y46575000D03*
X-3195000Y46575000D03*
%TD*%
D14*
%TO.C,C12*%
X9405000Y58591400D03*
X8445000Y58591400D03*
%TD*%
%TO.C,C11*%
X-5165000Y58375000D03*
X-6125000Y58375000D03*
%TD*%
D16*
%TO.C,C10*%
X4716600Y57459400D03*
X4716600Y56499400D03*
%TD*%
D13*
%TO.C,C9*%
X-9875000Y56495000D03*
X-9875000Y57455000D03*
%TD*%
D14*
%TO.C,C115*%
X4155000Y3825000D03*
X3195000Y3825000D03*
%TD*%
D17*
%TO.C,Q3*%
X15215000Y48410000D03*
X15215000Y49070000D03*
X15215000Y49730000D03*
X15215000Y50390000D03*
D18*
X17207500Y49400000D03*
%TD*%
D15*
%TO.C,C101*%
X6070000Y-9675000D03*
X7030000Y-9675000D03*
%TD*%
%TO.C,C46*%
X2970000Y-46400000D03*
X3930000Y-46400000D03*
%TD*%
D19*
%TO.C,R109*%
X8885000Y46580000D03*
X7235000Y46580000D03*
%TD*%
D20*
%TO.C,C91*%
X11584762Y-10835714D03*
X14534762Y-10835714D03*
%TD*%
D21*
%TO.C,U31*%
X2762500Y-10750000D03*
X2762500Y-8850000D03*
X4637500Y-9800000D03*
%TD*%
D17*
%TO.C,Q1*%
X-17150000Y48910000D03*
X-17150000Y48250000D03*
X-17150000Y47590000D03*
X-17150000Y46930000D03*
D22*
X-19142500Y47920000D03*
%TD*%
D23*
%TO.C,L4*%
X10354286Y-17484762D03*
X12724286Y-17484762D03*
%TD*%
D21*
%TO.C,Q10*%
X12777500Y-30775000D03*
X12777500Y-28875000D03*
X14652500Y-29825000D03*
%TD*%
D16*
%TO.C,C120*%
X-6925000Y25455000D03*
X-6925000Y24495000D03*
%TD*%
D24*
%TO.C,U5*%
X-8862500Y54850000D03*
D25*
X-8650000Y54637500D03*
D26*
X-8875000Y55500000D03*
X-8875000Y56000000D03*
X-8875000Y56500000D03*
D24*
X-8862500Y57150000D03*
D25*
X-8650000Y57362500D03*
D27*
X-8000000Y57375000D03*
D25*
X-7350000Y57362500D03*
D24*
X-7137500Y57150000D03*
D26*
X-7125000Y56500000D03*
X-7125000Y56000000D03*
X-7125000Y55500000D03*
D25*
X-7350000Y54637500D03*
D24*
X-7137500Y54850000D03*
D27*
X-8000000Y54625000D03*
D28*
X-8000000Y56000000D03*
%TD*%
D29*
%TO.C,D10*%
X10450000Y-31550000D03*
X10450000Y-34350000D03*
%TD*%
D30*
%TO.C,GC1*%
X-24750000Y17900000D03*
%TD*%
D31*
%TO.C,D4*%
X20100000Y44500000D03*
X20100000Y47800000D03*
%TD*%
D13*
%TO.C,C126*%
X24350000Y5270000D03*
X24350000Y6230000D03*
%TD*%
D14*
%TO.C,C64*%
X-3020000Y-16000000D03*
X-3980000Y-16000000D03*
%TD*%
D20*
%TO.C,C43*%
X11525000Y59786400D03*
X14475000Y59786400D03*
%TD*%
D32*
%TO.C,R57*%
X-2220000Y-3460000D03*
X-2220000Y-2440000D03*
%TD*%
D11*
%TO.C,R59*%
X-2500000Y-11790000D03*
X-2500000Y-12810000D03*
%TD*%
D15*
%TO.C,C87*%
X15670000Y-26125000D03*
X16630000Y-26125000D03*
%TD*%
%TO.C,C139*%
X12420238Y-14749286D03*
X13380238Y-14749286D03*
%TD*%
D16*
%TO.C,C42*%
X-9875000Y55480000D03*
X-9875000Y54520000D03*
%TD*%
D13*
%TO.C,C54*%
X8850000Y-34780000D03*
X8850000Y-33820000D03*
%TD*%
D29*
%TO.C,D13*%
X-50000Y-26200000D03*
X-50000Y-23400000D03*
%TD*%
D32*
%TO.C,R94*%
X17450000Y-17160000D03*
X17450000Y-16140000D03*
%TD*%
D33*
%TO.C,C13*%
X-3925000Y47875000D03*
X-3925000Y50825000D03*
%TD*%
D34*
%TO.C,U19*%
X10287500Y17300000D03*
X10287500Y17950000D03*
X10287500Y18600000D03*
X10287500Y19250000D03*
X10287500Y19900000D03*
X10287500Y20550000D03*
X10287500Y21200000D03*
X16012500Y21200000D03*
X16012500Y20550000D03*
X16012500Y19900000D03*
X16012500Y19250000D03*
X16012500Y18600000D03*
X16012500Y17950000D03*
X16012500Y17300000D03*
%TD*%
D16*
%TO.C,C69*%
X600000Y-2495000D03*
X600000Y-3455000D03*
%TD*%
D15*
%TO.C,C72*%
X-1580000Y-11800000D03*
X-620000Y-11800000D03*
%TD*%
D35*
%TO.C,C127*%
X-4325000Y-43900000D03*
X-7275000Y-43900000D03*
%TD*%
D13*
%TO.C,C94*%
X16500000Y-17155000D03*
X16500000Y-16195000D03*
%TD*%
D36*
%TO.C,U11*%
X-18985000Y-5800000D03*
X-18985000Y-5300000D03*
D37*
X-18985000Y-4800000D03*
D36*
X-18985000Y-4300000D03*
X-18985000Y-3800000D03*
X-18215000Y-3800000D03*
X-18215000Y-4300000D03*
D37*
X-18215000Y-4800000D03*
D36*
X-18215000Y-5300000D03*
X-18215000Y-5800000D03*
%TD*%
D38*
%TO.C,FB7*%
X7787500Y-12775000D03*
X6212500Y-12775000D03*
%TD*%
D12*
%TO.C,R26*%
X-14510000Y-32275000D03*
X-13490000Y-32275000D03*
%TD*%
%TO.C,R91*%
X19479286Y-23384762D03*
X20499286Y-23384762D03*
%TD*%
D11*
%TO.C,R52*%
X2200000Y-31940000D03*
X2200000Y-32960000D03*
%TD*%
D39*
%TO.C,U20*%
X8312500Y21200000D03*
X8312500Y20550000D03*
X8312500Y19900000D03*
X8312500Y19250000D03*
X8312500Y18600000D03*
X8312500Y17950000D03*
X8312500Y17300000D03*
X2587500Y17300000D03*
X2587500Y17950000D03*
X2587500Y18600000D03*
X2587500Y19250000D03*
X2587500Y19900000D03*
X2587500Y20550000D03*
X2587500Y21200000D03*
%TD*%
D16*
%TO.C,C76*%
X600000Y-570000D03*
X600000Y-1530000D03*
%TD*%
D20*
%TO.C,C90*%
X11584762Y-13135714D03*
X14534762Y-13135714D03*
%TD*%
D40*
%TO.C,Q28*%
X-17425000Y27200000D03*
X-18725000Y27200000D03*
X-18075000Y29200000D03*
%TD*%
D30*
%TO.C,GC2*%
X-24700000Y23400000D03*
%TD*%
D29*
%TO.C,D17*%
X14914286Y-18609762D03*
X14914286Y-15809762D03*
%TD*%
D41*
%TO.C,C59*%
X7275000Y-28500000D03*
X2875000Y-28500000D03*
%TD*%
D42*
%TO.C,R48*%
X3800000Y-36087500D03*
X3800000Y-33162500D03*
%TD*%
D11*
%TO.C,R113*%
X-15340000Y28975000D03*
X-15340000Y27955000D03*
%TD*%
D13*
%TO.C,C60*%
X1050000Y9470000D03*
X1050000Y10430000D03*
%TD*%
D43*
%TO.C,C49*%
X10025000Y-45125000D03*
X10025000Y-37725000D03*
%TD*%
D15*
%TO.C,C56*%
X5020000Y-31875000D03*
X5980000Y-31875000D03*
%TD*%
D32*
%TO.C,R103*%
X18805000Y-7380000D03*
X18805000Y-6360000D03*
%TD*%
D39*
%TO.C,U22*%
X562500Y21200000D03*
X562500Y20550000D03*
X562500Y19900000D03*
X562500Y19250000D03*
X562500Y18600000D03*
X562500Y17950000D03*
X562500Y17300000D03*
X-5162500Y17300000D03*
X-5162500Y17950000D03*
X-5162500Y18600000D03*
X-5162500Y19250000D03*
X-5162500Y19900000D03*
X-5162500Y20550000D03*
X-5162500Y21200000D03*
%TD*%
D29*
%TO.C,D8*%
X12700000Y-36000000D03*
X12700000Y-33200000D03*
%TD*%
D33*
%TO.C,C80*%
X5800000Y2225000D03*
X5800000Y5175000D03*
%TD*%
D44*
%TO.C,R112*%
X20290000Y-8062500D03*
X20290000Y-6237500D03*
%TD*%
D13*
%TO.C,C48*%
X17500000Y16040000D03*
X17500000Y17000000D03*
%TD*%
D16*
%TO.C,C25*%
X25200000Y11330000D03*
X25200000Y10370000D03*
%TD*%
D20*
%TO.C,C133*%
X23119286Y-28174762D03*
X26069286Y-28174762D03*
%TD*%
D15*
%TO.C,C117*%
X5220000Y925000D03*
X6180000Y925000D03*
%TD*%
D33*
%TO.C,C103*%
X24200000Y-1675000D03*
X24200000Y1275000D03*
%TD*%
D45*
%TO.C,U33*%
X6355000Y-5875000D03*
X5085000Y-5875000D03*
X3815000Y-5875000D03*
X2545000Y-5875000D03*
X2545000Y-925000D03*
X3815000Y-925000D03*
X5085000Y-925000D03*
X6355000Y-925000D03*
%TD*%
D32*
%TO.C,R93*%
X17450000Y-19035000D03*
X17450000Y-18015000D03*
%TD*%
%TO.C,R101*%
X16495000Y-19025000D03*
X16495000Y-18005000D03*
%TD*%
D15*
%TO.C,C47*%
X4970000Y-46400000D03*
X5930000Y-46400000D03*
%TD*%
D46*
%TO.C,C45*%
X10700000Y50875000D03*
X10700000Y53825000D03*
%TD*%
D32*
%TO.C,R61*%
X-2175000Y-1560000D03*
X-2175000Y-540000D03*
%TD*%
D16*
%TO.C,C53*%
X2450000Y23430000D03*
X2450000Y22470000D03*
%TD*%
D35*
%TO.C,C129*%
X-3525000Y-850000D03*
X-6475000Y-850000D03*
%TD*%
D36*
%TO.C,U10*%
X-18885000Y-10550000D03*
X-18885000Y-10050000D03*
D37*
X-18885000Y-9550000D03*
D36*
X-18885000Y-9050000D03*
X-18885000Y-8550000D03*
X-18115000Y-8550000D03*
X-18115000Y-9050000D03*
D37*
X-18115000Y-9550000D03*
D36*
X-18115000Y-10050000D03*
X-18115000Y-10550000D03*
%TD*%
D29*
%TO.C,D14*%
X-2250000Y-26200000D03*
X-2250000Y-23400000D03*
%TD*%
D11*
%TO.C,R78*%
X14750000Y-26670000D03*
X14750000Y-27690000D03*
%TD*%
D47*
%TO.C,C107*%
X17775000Y3900000D03*
X20725000Y3900000D03*
%TD*%
D33*
%TO.C,C16*%
X2190000Y47725000D03*
X2190000Y50675000D03*
%TD*%
D15*
%TO.C,C121*%
X2220000Y-7600000D03*
X3180000Y-7600000D03*
%TD*%
D32*
%TO.C,R71*%
X-1400000Y9390000D03*
X-1400000Y10410000D03*
%TD*%
%TO.C,R54*%
X-3450000Y-12810000D03*
X-3450000Y-11790000D03*
%TD*%
D12*
%TO.C,R90*%
X14940000Y-3300000D03*
X15960000Y-3300000D03*
%TD*%
D48*
%TO.C,C119*%
X18270000Y-13950000D03*
X18270000Y-9550000D03*
%TD*%
D15*
%TO.C,C74*%
X15570000Y9000000D03*
X16530000Y9000000D03*
%TD*%
D49*
%TO.C,U18*%
X5067462Y-15775000D03*
X5067462Y-17475000D03*
X6767462Y-15775000D03*
X6767462Y-17475000D03*
D50*
X3467462Y-18250000D03*
X3467462Y-17600000D03*
X3467462Y-16950000D03*
X3467462Y-16300000D03*
X3467462Y-15650000D03*
X3467462Y-15000000D03*
D51*
X4292462Y-14175000D03*
X4942462Y-14175000D03*
X5592462Y-14175000D03*
X6242462Y-14175000D03*
X6892462Y-14175000D03*
X7542462Y-14175000D03*
D50*
X8367462Y-15000000D03*
X8367462Y-15650000D03*
X8367462Y-16300000D03*
X8367462Y-16950000D03*
X8367462Y-17600000D03*
X8367462Y-18250000D03*
D51*
X7542462Y-19075000D03*
X6892462Y-19075000D03*
X6242462Y-19075000D03*
X5592462Y-19075000D03*
X4942462Y-19075000D03*
X4292462Y-19075000D03*
%TD*%
D24*
%TO.C,U6*%
X5737500Y54850000D03*
D25*
X5950000Y54637500D03*
D26*
X5725000Y55500000D03*
X5725000Y56000000D03*
X5725000Y56500000D03*
D24*
X5737500Y57150000D03*
D25*
X5950000Y57362500D03*
D27*
X6600000Y57375000D03*
D25*
X7250000Y57362500D03*
D24*
X7462500Y57150000D03*
D26*
X7475000Y56500000D03*
X7475000Y56000000D03*
X7475000Y55500000D03*
D25*
X7250000Y54637500D03*
D24*
X7462500Y54850000D03*
D27*
X6600000Y54625000D03*
D28*
X6600000Y56000000D03*
%TD*%
D12*
%TO.C,R98*%
X5690000Y-7625000D03*
X6710000Y-7625000D03*
%TD*%
D10*
%TO.C,R69*%
X14960000Y22500000D03*
X13940000Y22500000D03*
%TD*%
D46*
%TO.C,C6*%
X-12425000Y55425000D03*
X-12425000Y52475000D03*
%TD*%
D52*
%TO.C,C102*%
X25550000Y3125000D03*
X25550000Y4675000D03*
%TD*%
D40*
%TO.C,Q27*%
X-12900000Y27175000D03*
X-14200000Y27175000D03*
X-13550000Y29175000D03*
%TD*%
D53*
%TO.C,U28*%
X15951786Y-22572262D03*
X16926786Y-22572262D03*
X15951786Y-21597262D03*
X16926786Y-21597262D03*
D54*
X17689286Y-24072262D03*
X17189286Y-24072262D03*
X16689286Y-24072262D03*
X16189286Y-24072262D03*
X15689286Y-24072262D03*
X15189286Y-24072262D03*
D55*
X14451786Y-23334762D03*
X14451786Y-22834762D03*
X14451786Y-22334762D03*
X14451786Y-21834762D03*
X14451786Y-21334762D03*
X14451786Y-20834762D03*
D54*
X15189286Y-20097262D03*
X15689286Y-20097262D03*
X16189286Y-20097262D03*
X16689286Y-20097262D03*
X17189286Y-20097262D03*
X17689286Y-20097262D03*
D55*
X18426786Y-20834762D03*
X18426786Y-21334762D03*
X18426786Y-21834762D03*
X18426786Y-22334762D03*
X18426786Y-22834762D03*
X18426786Y-23334762D03*
%TD*%
D16*
%TO.C,C55*%
X2200000Y-33820000D03*
X2200000Y-34780000D03*
%TD*%
D56*
%TO.C,U12*%
X-10150000Y-29750000D03*
X-8850000Y-29750000D03*
X-10150000Y-28450000D03*
X-8850000Y-28450000D03*
D57*
X-8250000Y-31037500D03*
X-8750000Y-31037500D03*
X-9250000Y-31037500D03*
X-9750000Y-31037500D03*
X-10250000Y-31037500D03*
X-10750000Y-31037500D03*
D58*
X-11437500Y-30350000D03*
X-11437500Y-29850000D03*
X-11437500Y-29350000D03*
X-11437500Y-28850000D03*
X-11437500Y-28350000D03*
X-11437500Y-27850000D03*
D57*
X-10750000Y-27162500D03*
X-10250000Y-27162500D03*
X-9750000Y-27162500D03*
X-9250000Y-27162500D03*
X-8750000Y-27162500D03*
X-8250000Y-27162500D03*
D58*
X-7562500Y-27850000D03*
X-7562500Y-28350000D03*
X-7562500Y-28850000D03*
X-7562500Y-29350000D03*
X-7562500Y-29850000D03*
X-7562500Y-30350000D03*
%TD*%
D59*
%TO.C,C104*%
X22300000Y-25000D03*
X22300000Y-1575000D03*
%TD*%
D15*
%TO.C,C138*%
X24099762Y-26545714D03*
X25059762Y-26545714D03*
%TD*%
D60*
%TO.C,L5*%
X11565000Y1350000D03*
X13935000Y1350000D03*
%TD*%
D10*
%TO.C,R97*%
X15960000Y-2350000D03*
X14940000Y-2350000D03*
%TD*%
%TO.C,R107*%
X2225000Y775000D03*
X1205000Y775000D03*
%TD*%
D12*
%TO.C,R88*%
X12365000Y-20700000D03*
X13385000Y-20700000D03*
%TD*%
%TO.C,R50*%
X6940000Y-31875000D03*
X7960000Y-31875000D03*
%TD*%
D30*
%TO.C,GC3*%
X-24700000Y28900000D03*
%TD*%
D10*
%TO.C,R6*%
X-12290000Y200000D03*
X-13310000Y200000D03*
%TD*%
D33*
%TO.C,C15*%
X-12425000Y47850000D03*
X-12425000Y50800000D03*
%TD*%
D46*
%TO.C,C5*%
X2200000Y55325000D03*
X2200000Y52375000D03*
%TD*%
D32*
%TO.C,R75*%
X-6000000Y1565000D03*
X-6000000Y2585000D03*
%TD*%
D12*
%TO.C,R18*%
X12370000Y-22610000D03*
X13390000Y-22610000D03*
%TD*%
D13*
%TO.C,C124*%
X-3050000Y5270000D03*
X-3050000Y6230000D03*
%TD*%
D16*
%TO.C,C41*%
X8475000Y55355000D03*
X8475000Y54395000D03*
%TD*%
D33*
%TO.C,C131*%
X22700000Y4275000D03*
X22700000Y7225000D03*
%TD*%
D41*
%TO.C,C58*%
X7275000Y-22675000D03*
X2875000Y-22675000D03*
%TD*%
D11*
%TO.C,R63*%
X100000Y10460000D03*
X100000Y9440000D03*
%TD*%
D13*
%TO.C,C114*%
X23000000Y-3930000D03*
X23000000Y-2970000D03*
%TD*%
D33*
%TO.C,C130*%
X8150000Y5225000D03*
X8150000Y8175000D03*
%TD*%
D16*
%TO.C,C4*%
X-6100000Y55355000D03*
X-6100000Y54395000D03*
%TD*%
D11*
%TO.C,R27*%
X-13550000Y-33165000D03*
X-13550000Y-34185000D03*
%TD*%
D61*
%TO.C,R110*%
X-8535000Y46355000D03*
X-6885000Y46355000D03*
%TD*%
D29*
%TO.C,D16*%
X20964286Y-25909762D03*
X18164286Y-25909762D03*
%TD*%
D14*
%TO.C,C32*%
X-11670000Y-32250000D03*
X-12630000Y-32250000D03*
%TD*%
D47*
%TO.C,C109*%
X10725000Y-2950000D03*
X13675000Y-2950000D03*
%TD*%
D62*
%TO.C,L8*%
X12550000Y55611400D03*
X12550000Y57761400D03*
%TD*%
D30*
%TO.C,GC4*%
X-24650000Y34400000D03*
%TD*%
D14*
%TO.C,C123*%
X-4670000Y-19450000D03*
X-5630000Y-19450000D03*
%TD*%
D13*
%TO.C,C70*%
X-4150000Y-9930000D03*
X-4150000Y-8970000D03*
%TD*%
D12*
%TO.C,R74*%
X6040000Y-11575000D03*
X7060000Y-11575000D03*
%TD*%
D15*
%TO.C,C96*%
X19510238Y-21464286D03*
X20470238Y-21464286D03*
%TD*%
D11*
%TO.C,R114*%
X-16300000Y28975000D03*
X-16300000Y27955000D03*
%TD*%
D17*
%TO.C,Q2*%
X15275000Y46740000D03*
X15275000Y46080000D03*
X15275000Y45420000D03*
X15275000Y44760000D03*
D22*
X13282500Y45750000D03*
%TD*%
D10*
%TO.C,R100*%
X-2990000Y10250000D03*
X-4010000Y10250000D03*
%TD*%
D35*
%TO.C,C128*%
X-3905000Y-21100000D03*
X-6855000Y-21100000D03*
%TD*%
D12*
%TO.C,R60*%
X-1330000Y-2450000D03*
X-310000Y-2450000D03*
%TD*%
%TO.C,R87*%
X14690000Y-25175000D03*
X15710000Y-25175000D03*
%TD*%
D15*
%TO.C,C27*%
X7125000Y-46425000D03*
X8085000Y-46425000D03*
%TD*%
D32*
%TO.C,R77*%
X-11650000Y1240000D03*
X-11650000Y2260000D03*
%TD*%
D43*
%TO.C,C50*%
X1000000Y-45125000D03*
X1000000Y-37725000D03*
%TD*%
D20*
%TO.C,C88*%
X23114286Y-35109762D03*
X26064286Y-35109762D03*
%TD*%
%TO.C,C134*%
X11579762Y-8535714D03*
X14529762Y-8535714D03*
%TD*%
D11*
%TO.C,R55*%
X-3170000Y-2440000D03*
X-3170000Y-3460000D03*
%TD*%
%TO.C,R95*%
X16850000Y-3250000D03*
X16850000Y-4270000D03*
%TD*%
D12*
%TO.C,R92*%
X19504286Y-22434762D03*
X20524286Y-22434762D03*
%TD*%
D13*
%TO.C,C105*%
X12700000Y4220000D03*
X12700000Y5180000D03*
%TD*%
D63*
%TO.C,R111*%
X25987500Y-37210000D03*
X24162500Y-37210000D03*
%TD*%
D42*
%TO.C,R47*%
X7250000Y-36087500D03*
X7250000Y-33162500D03*
%TD*%
D15*
%TO.C,C132*%
X-7880000Y-42200000D03*
X-6920000Y-42200000D03*
%TD*%
D12*
%TO.C,R83*%
X12370000Y-21655000D03*
X13390000Y-21655000D03*
%TD*%
D20*
%TO.C,C136*%
X11579762Y-6215714D03*
X14529762Y-6215714D03*
%TD*%
D32*
%TO.C,R51*%
X8850000Y-32960000D03*
X8850000Y-31940000D03*
%TD*%
D14*
%TO.C,C82*%
X7030000Y-10625000D03*
X6070000Y-10625000D03*
%TD*%
%TO.C,C113*%
X15955000Y-1400000D03*
X14995000Y-1400000D03*
%TD*%
D16*
%TO.C,C33*%
X-10750000Y-33120000D03*
X-10750000Y-34080000D03*
%TD*%
D15*
%TO.C,C73*%
X-1300000Y-3400000D03*
X-340000Y-3400000D03*
%TD*%
D32*
%TO.C,R96*%
X23950000Y-3960000D03*
X23950000Y-2940000D03*
%TD*%
D64*
%TO.C,U23*%
X650000Y-17150000D03*
X650000Y-16100000D03*
X-400000Y-17150000D03*
X-400000Y-16100000D03*
D65*
X2075000Y-15650000D03*
X2075000Y-16300000D03*
X2075000Y-16950000D03*
X2075000Y-17600000D03*
D66*
X1100000Y-18575000D03*
X450000Y-18575000D03*
X-200000Y-18575000D03*
X-850000Y-18575000D03*
D65*
X-1825000Y-17600000D03*
X-1825000Y-16950000D03*
X-1825000Y-16300000D03*
X-1825000Y-15650000D03*
D66*
X-850000Y-14675000D03*
X-200000Y-14675000D03*
X450000Y-14675000D03*
X1100000Y-14675000D03*
%TD*%
D48*
%TO.C,C118*%
X16700000Y-36650000D03*
X16700000Y-32250000D03*
%TD*%
D11*
%TO.C,R89*%
X10275000Y160000D03*
X10275000Y-860000D03*
%TD*%
D13*
%TO.C,C67*%
X6500000Y8070000D03*
X6500000Y9030000D03*
%TD*%
D12*
%TO.C,R28*%
X-13560000Y-29000000D03*
X-12540000Y-29000000D03*
%TD*%
D14*
%TO.C,C122*%
X-4570000Y-42200000D03*
X-5530000Y-42200000D03*
%TD*%
D13*
%TO.C,C93*%
X18400000Y-19030000D03*
X18400000Y-18070000D03*
%TD*%
D32*
%TO.C,R108*%
X9860000Y-6225000D03*
X9860000Y-5205000D03*
%TD*%
D13*
%TO.C,C78*%
X-125000Y1195000D03*
X-125000Y2155000D03*
%TD*%
D34*
%TO.C,U17*%
X17987500Y10300000D03*
X17987500Y10950000D03*
X17987500Y11600000D03*
X17987500Y12250000D03*
X17987500Y12900000D03*
X17987500Y13550000D03*
X17987500Y14200000D03*
X23712500Y14200000D03*
X23712500Y13550000D03*
X23712500Y12900000D03*
X23712500Y12250000D03*
X23712500Y11600000D03*
X23712500Y10950000D03*
X23712500Y10300000D03*
%TD*%
D67*
%TO.C,D5*%
X15050000Y53400000D03*
X15050000Y56700000D03*
%TD*%
D14*
%TO.C,C40*%
X-12570000Y-30300000D03*
X-13530000Y-30300000D03*
%TD*%
D32*
%TO.C,R73*%
X8775000Y22490000D03*
X8775000Y23510000D03*
%TD*%
D15*
%TO.C,C63*%
X-3980000Y-14100000D03*
X-3020000Y-14100000D03*
%TD*%
D11*
%TO.C,R70*%
X-6650000Y17760000D03*
X-6650000Y16740000D03*
%TD*%
D16*
%TO.C,C68*%
X-4150000Y-5420000D03*
X-4150000Y-6380000D03*
%TD*%
D45*
%TO.C,U25*%
X955000Y-10075000D03*
X-315000Y-10075000D03*
X-1585000Y-10075000D03*
X-2855000Y-10075000D03*
X-2855000Y-5125000D03*
X-1585000Y-5125000D03*
X-315000Y-5125000D03*
X955000Y-5125000D03*
%TD*%
D14*
%TO.C,C141*%
X13370000Y-24660000D03*
X12410000Y-24660000D03*
%TD*%
D68*
%TO.C,U34*%
X-9250000Y9237500D03*
X-8300000Y9237500D03*
X-7350000Y9237500D03*
X-7350000Y6962500D03*
X-8300000Y6962500D03*
X-9250000Y6962500D03*
%TD*%
D69*
%TO.C,U9*%
X-12875000Y30650000D03*
X-13525000Y30650000D03*
X-14175000Y30650000D03*
X-14825000Y30650000D03*
X-15475000Y30650000D03*
X-16125000Y30650000D03*
X-16775000Y30650000D03*
X-17425000Y30650000D03*
X-18075000Y30650000D03*
X-18725000Y30650000D03*
X-18725000Y36450000D03*
X-18075000Y36450000D03*
X-17425000Y36450000D03*
X-16775000Y36450000D03*
X-16125000Y36450000D03*
X-15475000Y36450000D03*
X-14825000Y36450000D03*
X-14175000Y36450000D03*
X-13525000Y36450000D03*
X-12875000Y36450000D03*
%TD*%
D47*
%TO.C,C108*%
X17775000Y700000D03*
X20725000Y700000D03*
%TD*%
D13*
%TO.C,C106*%
X11700000Y4220000D03*
X11700000Y5180000D03*
%TD*%
D14*
%TO.C,C39*%
X-12570000Y-31250000D03*
X-13530000Y-31250000D03*
%TD*%
D52*
%TO.C,C85*%
X16389286Y-28864762D03*
X16389286Y-27314762D03*
%TD*%
D33*
%TO.C,C2*%
X-175000Y60165000D03*
X-175000Y57215000D03*
%TD*%
D32*
%TO.C,R62*%
X-350000Y-1560000D03*
X-350000Y-540000D03*
%TD*%
D70*
%TO.C,L1*%
X-8175000Y51730000D03*
X-8175000Y48420000D03*
%TD*%
D15*
%TO.C,C92*%
X19509286Y-24334762D03*
X20469286Y-24334762D03*
%TD*%
%TO.C,C7*%
X-9905000Y58375000D03*
X-8945000Y58375000D03*
%TD*%
D62*
%TO.C,L6*%
X26700000Y525000D03*
X26700000Y-1625000D03*
%TD*%
D71*
%TO.C,L3*%
X20014286Y-30469762D03*
X20014286Y-28099762D03*
%TD*%
D34*
%TO.C,U24*%
X2537500Y10075000D03*
X2537500Y10725000D03*
X2537500Y11375000D03*
X2537500Y12025000D03*
X2537500Y12675000D03*
X2537500Y13325000D03*
X2537500Y13975000D03*
X2537500Y14625000D03*
X2537500Y15275000D03*
X2537500Y15925000D03*
X8262500Y15925000D03*
X8262500Y15275000D03*
X8262500Y14625000D03*
X8262500Y13975000D03*
X8262500Y13325000D03*
X8262500Y12675000D03*
X8262500Y12025000D03*
X8262500Y11375000D03*
X8262500Y10725000D03*
X8262500Y10075000D03*
%TD*%
D72*
%TO.C,U27*%
X300000Y3550000D03*
X-200000Y3550000D03*
X-700000Y3550000D03*
X-1200000Y3550000D03*
X-1700000Y3550000D03*
X-1700000Y7950000D03*
X-1200000Y7950000D03*
X-700000Y7950000D03*
X-200000Y7950000D03*
X300000Y7950000D03*
%TD*%
D73*
%TO.C,Q26*%
X9900000Y1300000D03*
X8000000Y1300000D03*
X8950000Y3700000D03*
%TD*%
D16*
%TO.C,C52*%
X7950000Y-10645000D03*
X7950000Y-11605000D03*
%TD*%
D13*
%TO.C,C95*%
X19334762Y-19015714D03*
X19334762Y-18055714D03*
%TD*%
D16*
%TO.C,C111*%
X22050000Y-2720000D03*
X22050000Y-3680000D03*
%TD*%
D13*
%TO.C,C137*%
X-10460000Y6430000D03*
X-10460000Y7390000D03*
%TD*%
D14*
%TO.C,C31*%
X-11670000Y-33200000D03*
X-12630000Y-33200000D03*
%TD*%
D16*
%TO.C,C79*%
X1700000Y8480000D03*
X1700000Y7520000D03*
%TD*%
D74*
%TO.C,U3*%
X-14335000Y46970000D03*
X-14985000Y46970000D03*
X-15635000Y46970000D03*
X-15635000Y48870000D03*
X-14985000Y48870000D03*
X-14335000Y48870000D03*
%TD*%
D11*
%TO.C,R102*%
X20326428Y-34790476D03*
X20326428Y-35810476D03*
%TD*%
D16*
%TO.C,C3*%
X4725000Y55505000D03*
X4725000Y54545000D03*
%TD*%
D13*
%TO.C,C65*%
X8450000Y-21155000D03*
X8450000Y-20195000D03*
%TD*%
D75*
%TO.C,U32*%
X19860000Y-3245000D03*
X19860000Y-2055000D03*
X19040000Y-3245000D03*
X19040000Y-2055000D03*
D76*
X20900000Y-1650000D03*
X20900000Y-2150000D03*
X20900000Y-2650000D03*
X20900000Y-3150000D03*
X20900000Y-3650000D03*
X18000000Y-3650000D03*
X18000000Y-3150000D03*
X18000000Y-2650000D03*
X18000000Y-2150000D03*
X18000000Y-1650000D03*
%TD*%
D15*
%TO.C,C8*%
X4755000Y58380000D03*
X5715000Y58380000D03*
%TD*%
D77*
%TO.C,C140*%
X13105000Y-25870000D03*
X11555000Y-25870000D03*
%TD*%
D12*
%TO.C,R10*%
X15600000Y43500000D03*
X14580000Y43500000D03*
%TD*%
D14*
%TO.C,C62*%
X-3020000Y-15050000D03*
X-3980000Y-15050000D03*
%TD*%
D20*
%TO.C,C89*%
X23114286Y-32809762D03*
X26064286Y-32809762D03*
%TD*%
%TO.C,C135*%
X23119286Y-30494762D03*
X26069286Y-30494762D03*
%TD*%
D15*
%TO.C,C71*%
X320000Y-11800000D03*
X1280000Y-11800000D03*
%TD*%
D29*
%TO.C,D12*%
X600000Y-31550000D03*
X600000Y-34350000D03*
%TD*%
D78*
%TO.C,U35*%
X-5537500Y24450000D03*
X-5537500Y25400000D03*
X-5537500Y26350000D03*
X-3262500Y26350000D03*
X-3262500Y25400000D03*
X-3262500Y24450000D03*
%TD*%
D34*
%TO.C,U26*%
X10287500Y10075000D03*
X10287500Y10725000D03*
X10287500Y11375000D03*
X10287500Y12025000D03*
X10287500Y12675000D03*
X10287500Y13325000D03*
X10287500Y13975000D03*
X10287500Y14625000D03*
X10287500Y15275000D03*
X10287500Y15925000D03*
X16012500Y15925000D03*
X16012500Y15275000D03*
X16012500Y14625000D03*
X16012500Y13975000D03*
X16012500Y13325000D03*
X16012500Y12675000D03*
X16012500Y12025000D03*
X16012500Y11375000D03*
X16012500Y10725000D03*
X16012500Y10075000D03*
%TD*%
D13*
%TO.C,C125*%
X1750000Y5245000D03*
X1750000Y6205000D03*
%TD*%
%TO.C,C75*%
X-2175000Y320000D03*
X-2175000Y1280000D03*
%TD*%
D33*
%TO.C,C14*%
X-125000Y47725000D03*
X-125000Y50675000D03*
%TD*%
D29*
%TO.C,D19*%
X8700000Y-3075000D03*
X8700000Y-275000D03*
%TD*%
D32*
%TO.C,R25*%
X-14500000Y-34185000D03*
X-14500000Y-33165000D03*
%TD*%
D34*
%TO.C,U21*%
X-5162500Y11375000D03*
X-5162500Y12025000D03*
X-5162500Y12675000D03*
X-5162500Y13325000D03*
X-5162500Y13975000D03*
X-5162500Y14625000D03*
X-5162500Y15275000D03*
X-5162500Y15925000D03*
X562500Y15925000D03*
X562500Y15275000D03*
X562500Y14625000D03*
X562500Y13975000D03*
X562500Y13325000D03*
X562500Y12675000D03*
X562500Y12025000D03*
X562500Y11375000D03*
%TD*%
D29*
%TO.C,D18*%
X15850000Y2750000D03*
X15850000Y-50000D03*
%TD*%
D79*
%TO.C,FB5*%
X21540238Y-35551786D03*
X21540238Y-33976786D03*
%TD*%
D16*
%TO.C,C81*%
X7825000Y23480000D03*
X7825000Y22520000D03*
%TD*%
D14*
%TO.C,C116*%
X7030000Y-8750000D03*
X6070000Y-8750000D03*
%TD*%
D15*
%TO.C,C110*%
X14985000Y-4250000D03*
X15945000Y-4250000D03*
%TD*%
D80*
%TO.C,FB6*%
X16062500Y-7050000D03*
X17637500Y-7050000D03*
%TD*%
D12*
%TO.C,R53*%
X-1610000Y-13000000D03*
X-590000Y-13000000D03*
%TD*%
%TO.C,R58*%
X290000Y-12800000D03*
X1310000Y-12800000D03*
%TD*%
%TO.C,R9*%
X-18210000Y45650000D03*
X-17190000Y45650000D03*
%TD*%
D13*
%TO.C,C66*%
X9375000Y-21155000D03*
X9375000Y-20195000D03*
%TD*%
D32*
%TO.C,R76*%
X-6950000Y1565000D03*
X-6950000Y2585000D03*
%TD*%
D35*
%TO.C,C44*%
X-1275000Y53300000D03*
X-4225000Y53300000D03*
%TD*%
D77*
%TO.C,C86*%
X13095000Y-27375000D03*
X11545000Y-27375000D03*
%TD*%
D70*
%TO.C,L2*%
X6450000Y51955000D03*
X6450000Y48645000D03*
%TD*%
D16*
%TO.C,C112*%
X24900000Y-2970000D03*
X24900000Y-3930000D03*
%TD*%
D11*
%TO.C,R56*%
X-4120000Y-3540000D03*
X-4120000Y-4560000D03*
%TD*%
D59*
%TO.C,C77*%
X1900000Y4100000D03*
X1900000Y2550000D03*
%TD*%
D74*
%TO.C,U4*%
X18115000Y44752500D03*
X17465000Y44752500D03*
X16815000Y44752500D03*
X16815000Y46652500D03*
X17465000Y46652500D03*
X18115000Y46652500D03*
%TD*%
D29*
%TO.C,D11*%
X-1600000Y-36000000D03*
X-1600000Y-33200000D03*
%TD*%
D62*
%TO.C,L7*%
X-2825000Y57500000D03*
X-2825000Y55350000D03*
%TD*%
D15*
%TO.C,C57*%
X-6230000Y22500000D03*
X-5270000Y22500000D03*
%TD*%
D14*
%TO.C,C1*%
X14030000Y48000000D03*
X13070000Y48000000D03*
%TD*%
D10*
%TO.C,R49*%
X4110000Y-31875000D03*
X3090000Y-31875000D03*
%TD*%
D81*
%TO.C,C24*%
X-14225000Y-24275000D03*
X-16125000Y-24275000D03*
%TD*%
M02*
