%TF.GenerationSoftware,KiCad,Pcbnew,7.99.0-1.20230926git54171ec.fc37*%
%TF.CreationDate,2023-10-03T22:10:03+01:00*%
%TF.ProjectId,bugg-main-r5,62756767-2d6d-4616-996e-2d72352e6b69,rev?*%
%TF.SameCoordinates,Original*%
%TF.FileFunction,Profile,NP*%
%FSLAX46Y46*%
G04 Gerber Fmt 4.6, Leading zero omitted, Abs format (unit mm)*
G04 Created by KiCad (PCBNEW 7.99.0-1.20230926git54171ec.fc37) date 2023-10-03 22:10:03*
%MOMM*%
%LPD*%
G01*
G04 APERTURE LIST*
%TA.AperFunction,Profile*%
%ADD10C,0.160000*%
%TD*%
G04 APERTURE END LIST*
D10*
X-28000000Y16000000D02*
G75*
G02*
X-26500000Y14500000I-1J-1500001D01*
G01*
X-19448000Y9380000D02*
X-26500000Y9750000D01*
X-26500000Y-32250000D02*
X-26500000Y-30250000D01*
X-26500000Y-46500000D02*
X-26500000Y-41750000D01*
X-28800000Y-29250000D02*
X-28800000Y-2750000D01*
X28500000Y47500000D02*
X28500000Y36500000D01*
X-28800000Y-2750000D02*
X-27500000Y-2750000D01*
X27000000Y49000000D02*
G75*
G02*
X28500000Y47500000I0J-1500000D01*
G01*
X24000000Y49000000D02*
G75*
G02*
X16500000Y56500000I0J7500000D01*
G01*
X28500000Y-46500000D02*
G75*
G02*
X27000000Y-48000000I-1500000J0D01*
G01*
X-16500000Y59500000D02*
G75*
G02*
X-15000000Y61000000I1500001J-1D01*
G01*
X15000000Y61000000D02*
X-15000000Y61000000D01*
X28500000Y36500000D02*
X28100000Y36100000D01*
X-28500000Y47500000D02*
X-28500000Y16000000D01*
X28500000Y27900000D02*
X28500000Y-46500000D01*
X-16500000Y56500000D02*
G75*
G02*
X-24000000Y49000000I-7500000J0D01*
G01*
X24000000Y49000000D02*
X27000000Y49000000D01*
X-26500000Y-1750000D02*
G75*
G02*
X-27500000Y-2750000I-999999J-1D01*
G01*
X-18500000Y1618000D02*
X-18500000Y8382000D01*
X-18500000Y-40382000D02*
X-18500000Y-33618000D01*
X27000000Y-48000000D02*
X-25000000Y-48000000D01*
X-26500000Y-1750000D02*
X-26500000Y250000D01*
X-26500000Y250000D02*
X-19448000Y620000D01*
X28100000Y28300000D02*
X28500000Y27900000D01*
X-19448000Y9379999D02*
G75*
G02*
X-18500001Y8382000I-51836J-998490D01*
G01*
X-26500000Y9750000D02*
X-26500000Y14500000D01*
X-18500000Y-40382000D02*
G75*
G02*
X-19448000Y-41379999I-999837J493D01*
G01*
X-27500000Y-29250000D02*
G75*
G02*
X-26500000Y-30250000I1J-999999D01*
G01*
X-28500000Y47500000D02*
G75*
G02*
X-27000000Y49000000I1500001J-1D01*
G01*
X-19448000Y-32620001D02*
G75*
G02*
X-18500001Y-33618000I-51836J-998490D01*
G01*
X-19448000Y-32620000D02*
X-26500000Y-32250000D01*
X-26500000Y-41750000D02*
X-19448000Y-41380000D01*
X16500000Y56500000D02*
X16500000Y59500000D01*
X-16500000Y56500000D02*
X-16500000Y59500000D01*
X-28000000Y16000000D02*
X-28500000Y16000000D01*
X-18500000Y1618000D02*
G75*
G02*
X-19448000Y620001I-999837J493D01*
G01*
X-25000000Y-48000000D02*
G75*
G02*
X-26500000Y-46500000I1J1500001D01*
G01*
X-24000000Y49000000D02*
X-27000000Y49000000D01*
X15000000Y61000000D02*
G75*
G02*
X16500000Y59500000I0J-1500000D01*
G01*
X-27500000Y-29250000D02*
X-28800000Y-29250000D01*
X28100000Y36100000D02*
X28100000Y28300000D01*
M02*
