%TF.GenerationSoftware,KiCad,Pcbnew,6.99.0-1.20221101gitf80c150.fc36*%
%TF.CreationDate,2022-11-16T22:50:15+00:00*%
%TF.ProjectId,bugg-main-r4,62756767-2d6d-4616-996e-2d72342e6b69,rev?*%
%TF.SameCoordinates,Original*%
%TF.FileFunction,Legend,Top*%
%TF.FilePolarity,Positive*%
%FSLAX46Y46*%
G04 Gerber Fmt 4.6, Leading zero omitted, Abs format (unit mm)*
G04 Created by KiCad (PCBNEW 6.99.0-1.20221101gitf80c150.fc36) date 2022-11-16 22:50:15*
%MOMM*%
%LPD*%
G01*
G04 APERTURE LIST*
%ADD10C,0.475000*%
%ADD11C,0.150000*%
%ADD12C,0.200000*%
%ADD13C,0.120000*%
%ADD14C,0.127000*%
%ADD15C,0.508000*%
%ADD16C,0.100000*%
G04 APERTURE END LIST*
D10*
X-6612500Y29950000D02*
G75*
G03*
X-6612500Y29950000I-237500J0D01*
G01*
D11*
X-25661904Y-30215714D02*
X-25661904Y-30882380D01*
X-25661904Y-30310952D02*
X-25614285Y-30263333D01*
X-25614285Y-30263333D02*
X-25519047Y-30215714D01*
X-25519047Y-30215714D02*
X-25376190Y-30215714D01*
X-25376190Y-30215714D02*
X-25280952Y-30263333D01*
X-25280952Y-30263333D02*
X-25233333Y-30358571D01*
X-25233333Y-30358571D02*
X-25233333Y-30882380D01*
X-24328571Y-30882380D02*
X-24328571Y-30358571D01*
X-24328571Y-30358571D02*
X-24376190Y-30263333D01*
X-24376190Y-30263333D02*
X-24471428Y-30215714D01*
X-24471428Y-30215714D02*
X-24661904Y-30215714D01*
X-24661904Y-30215714D02*
X-24757142Y-30263333D01*
X-24328571Y-30834761D02*
X-24423809Y-30882380D01*
X-24423809Y-30882380D02*
X-24661904Y-30882380D01*
X-24661904Y-30882380D02*
X-24757142Y-30834761D01*
X-24757142Y-30834761D02*
X-24804761Y-30739523D01*
X-24804761Y-30739523D02*
X-24804761Y-30644285D01*
X-24804761Y-30644285D02*
X-24757142Y-30549047D01*
X-24757142Y-30549047D02*
X-24661904Y-30501428D01*
X-24661904Y-30501428D02*
X-24423809Y-30501428D01*
X-24423809Y-30501428D02*
X-24328571Y-30453809D01*
X-23852380Y-30215714D02*
X-23852380Y-30882380D01*
X-23852380Y-30310952D02*
X-23804761Y-30263333D01*
X-23804761Y-30263333D02*
X-23709523Y-30215714D01*
X-23709523Y-30215714D02*
X-23566666Y-30215714D01*
X-23566666Y-30215714D02*
X-23471428Y-30263333D01*
X-23471428Y-30263333D02*
X-23423809Y-30358571D01*
X-23423809Y-30358571D02*
X-23423809Y-30882380D01*
X-22804761Y-30882380D02*
X-22899999Y-30834761D01*
X-22899999Y-30834761D02*
X-22947618Y-30787142D01*
X-22947618Y-30787142D02*
X-22995237Y-30691904D01*
X-22995237Y-30691904D02*
X-22995237Y-30406190D01*
X-22995237Y-30406190D02*
X-22947618Y-30310952D01*
X-22947618Y-30310952D02*
X-22899999Y-30263333D01*
X-22899999Y-30263333D02*
X-22804761Y-30215714D01*
X-22804761Y-30215714D02*
X-22661904Y-30215714D01*
X-22661904Y-30215714D02*
X-22566666Y-30263333D01*
X-22566666Y-30263333D02*
X-22519047Y-30310952D01*
X-22519047Y-30310952D02*
X-22471428Y-30406190D01*
X-22471428Y-30406190D02*
X-22471428Y-30691904D01*
X-22471428Y-30691904D02*
X-22519047Y-30787142D01*
X-22519047Y-30787142D02*
X-22566666Y-30834761D01*
X-22566666Y-30834761D02*
X-22661904Y-30882380D01*
X-22661904Y-30882380D02*
X-22804761Y-30882380D01*
X-22090475Y-30834761D02*
X-21947618Y-30882380D01*
X-21947618Y-30882380D02*
X-21709523Y-30882380D01*
X-21709523Y-30882380D02*
X-21614285Y-30834761D01*
X-21614285Y-30834761D02*
X-21566666Y-30787142D01*
X-21566666Y-30787142D02*
X-21519047Y-30691904D01*
X-21519047Y-30691904D02*
X-21519047Y-30596666D01*
X-21519047Y-30596666D02*
X-21566666Y-30501428D01*
X-21566666Y-30501428D02*
X-21614285Y-30453809D01*
X-21614285Y-30453809D02*
X-21709523Y-30406190D01*
X-21709523Y-30406190D02*
X-21899999Y-30358571D01*
X-21899999Y-30358571D02*
X-21995237Y-30310952D01*
X-21995237Y-30310952D02*
X-22042856Y-30263333D01*
X-22042856Y-30263333D02*
X-22090475Y-30168095D01*
X-22090475Y-30168095D02*
X-22090475Y-30072857D01*
X-22090475Y-30072857D02*
X-22042856Y-29977619D01*
X-22042856Y-29977619D02*
X-21995237Y-29930000D01*
X-21995237Y-29930000D02*
X-21899999Y-29882380D01*
X-21899999Y-29882380D02*
X-21661904Y-29882380D01*
X-21661904Y-29882380D02*
X-21519047Y-29930000D01*
X-21090475Y-30882380D02*
X-21090475Y-29882380D01*
X-20614285Y-30882380D02*
X-20614285Y-29882380D01*
X-20614285Y-29882380D02*
X-20280952Y-30596666D01*
X-20280952Y-30596666D02*
X-19947619Y-29882380D01*
X-19947619Y-29882380D02*
X-19947619Y-30882380D01*
X-25233333Y-565714D02*
X-25233333Y-1232380D01*
X-25661904Y-565714D02*
X-25661904Y-1089523D01*
X-25661904Y-1089523D02*
X-25614285Y-1184761D01*
X-25614285Y-1184761D02*
X-25519047Y-1232380D01*
X-25519047Y-1232380D02*
X-25376190Y-1232380D01*
X-25376190Y-1232380D02*
X-25280952Y-1184761D01*
X-25280952Y-1184761D02*
X-25233333Y-1137142D01*
X-24804761Y-1184761D02*
X-24661904Y-1232380D01*
X-24661904Y-1232380D02*
X-24423809Y-1232380D01*
X-24423809Y-1232380D02*
X-24328571Y-1184761D01*
X-24328571Y-1184761D02*
X-24280952Y-1137142D01*
X-24280952Y-1137142D02*
X-24233333Y-1041904D01*
X-24233333Y-1041904D02*
X-24233333Y-946666D01*
X-24233333Y-946666D02*
X-24280952Y-851428D01*
X-24280952Y-851428D02*
X-24328571Y-803809D01*
X-24328571Y-803809D02*
X-24423809Y-756190D01*
X-24423809Y-756190D02*
X-24614285Y-708571D01*
X-24614285Y-708571D02*
X-24709523Y-660952D01*
X-24709523Y-660952D02*
X-24757142Y-613333D01*
X-24757142Y-613333D02*
X-24804761Y-518095D01*
X-24804761Y-518095D02*
X-24804761Y-422857D01*
X-24804761Y-422857D02*
X-24757142Y-327619D01*
X-24757142Y-327619D02*
X-24709523Y-280000D01*
X-24709523Y-280000D02*
X-24614285Y-232380D01*
X-24614285Y-232380D02*
X-24376190Y-232380D01*
X-24376190Y-232380D02*
X-24233333Y-280000D01*
X-23804761Y-1232380D02*
X-23804761Y-232380D01*
X-23804761Y-232380D02*
X-23566666Y-232380D01*
X-23566666Y-232380D02*
X-23423809Y-280000D01*
X-23423809Y-280000D02*
X-23328571Y-375238D01*
X-23328571Y-375238D02*
X-23280952Y-470476D01*
X-23280952Y-470476D02*
X-23233333Y-660952D01*
X-23233333Y-660952D02*
X-23233333Y-803809D01*
X-23233333Y-803809D02*
X-23280952Y-994285D01*
X-23280952Y-994285D02*
X-23328571Y-1089523D01*
X-23328571Y-1089523D02*
X-23423809Y-1184761D01*
X-23423809Y-1184761D02*
X-23566666Y-1232380D01*
X-23566666Y-1232380D02*
X-23804761Y-1232380D01*
D12*
X17250000Y-23150000D02*
G75*
G03*
X17250000Y-23150000I-100000J0D01*
G01*
X-18100000Y900000D02*
G75*
G03*
X-18100000Y900000I-100000J0D01*
G01*
X-15000000Y900000D02*
G75*
G03*
X-15000000Y900000I-100000J0D01*
G01*
X-11700000Y-20900000D02*
G75*
G03*
X-11700000Y-20900000I-100000J0D01*
G01*
X22450000Y30450000D02*
G75*
G03*
X22450000Y30450000I-100000J0D01*
G01*
X15211904Y-45540857D02*
X15211904Y-46512285D01*
X15211904Y-46512285D02*
X15264285Y-46626571D01*
X15264285Y-46626571D02*
X15316666Y-46683714D01*
X15316666Y-46683714D02*
X15421428Y-46740857D01*
X15421428Y-46740857D02*
X15630952Y-46740857D01*
X15630952Y-46740857D02*
X15735714Y-46683714D01*
X15735714Y-46683714D02*
X15788095Y-46626571D01*
X15788095Y-46626571D02*
X15840476Y-46512285D01*
X15840476Y-46512285D02*
X15840476Y-45540857D01*
X16311904Y-46683714D02*
X16416666Y-46740857D01*
X16416666Y-46740857D02*
X16626190Y-46740857D01*
X16626190Y-46740857D02*
X16730952Y-46683714D01*
X16730952Y-46683714D02*
X16783333Y-46569428D01*
X16783333Y-46569428D02*
X16783333Y-46512285D01*
X16783333Y-46512285D02*
X16730952Y-46398000D01*
X16730952Y-46398000D02*
X16626190Y-46340857D01*
X16626190Y-46340857D02*
X16469047Y-46340857D01*
X16469047Y-46340857D02*
X16364285Y-46283714D01*
X16364285Y-46283714D02*
X16311904Y-46169428D01*
X16311904Y-46169428D02*
X16311904Y-46112285D01*
X16311904Y-46112285D02*
X16364285Y-45998000D01*
X16364285Y-45998000D02*
X16469047Y-45940857D01*
X16469047Y-45940857D02*
X16626190Y-45940857D01*
X16626190Y-45940857D02*
X16730952Y-45998000D01*
X17673809Y-46683714D02*
X17569047Y-46740857D01*
X17569047Y-46740857D02*
X17359523Y-46740857D01*
X17359523Y-46740857D02*
X17254761Y-46683714D01*
X17254761Y-46683714D02*
X17202380Y-46569428D01*
X17202380Y-46569428D02*
X17202380Y-46112285D01*
X17202380Y-46112285D02*
X17254761Y-45998000D01*
X17254761Y-45998000D02*
X17359523Y-45940857D01*
X17359523Y-45940857D02*
X17569047Y-45940857D01*
X17569047Y-45940857D02*
X17673809Y-45998000D01*
X17673809Y-45998000D02*
X17726190Y-46112285D01*
X17726190Y-46112285D02*
X17726190Y-46226571D01*
X17726190Y-46226571D02*
X17202380Y-46340857D01*
X18197618Y-46740857D02*
X18197618Y-45940857D01*
X18197618Y-46169428D02*
X18249999Y-46055142D01*
X18249999Y-46055142D02*
X18302380Y-45998000D01*
X18302380Y-45998000D02*
X18407142Y-45940857D01*
X18407142Y-45940857D02*
X18511904Y-45940857D01*
X-8840476Y-46398000D02*
X-8316666Y-46398000D01*
X-8945238Y-46740857D02*
X-8578571Y-45540857D01*
X-8578571Y-45540857D02*
X-8211904Y-46740857D01*
X-7373809Y-46683714D02*
X-7478571Y-46740857D01*
X-7478571Y-46740857D02*
X-7688095Y-46740857D01*
X-7688095Y-46740857D02*
X-7792857Y-46683714D01*
X-7792857Y-46683714D02*
X-7845238Y-46626571D01*
X-7845238Y-46626571D02*
X-7897619Y-46512285D01*
X-7897619Y-46512285D02*
X-7897619Y-46169428D01*
X-7897619Y-46169428D02*
X-7845238Y-46055142D01*
X-7845238Y-46055142D02*
X-7792857Y-45998000D01*
X-7792857Y-45998000D02*
X-7688095Y-45940857D01*
X-7688095Y-45940857D02*
X-7478571Y-45940857D01*
X-7478571Y-45940857D02*
X-7373809Y-45998000D01*
X-7059524Y-45940857D02*
X-6640476Y-45940857D01*
X-6902381Y-45540857D02*
X-6902381Y-46569428D01*
X-6902381Y-46569428D02*
X-6850000Y-46683714D01*
X-6850000Y-46683714D02*
X-6745238Y-46740857D01*
X-6745238Y-46740857D02*
X-6640476Y-46740857D01*
X-6273810Y-46740857D02*
X-6273810Y-45940857D01*
X-6273810Y-45540857D02*
X-6326191Y-45598000D01*
X-6326191Y-45598000D02*
X-6273810Y-45655142D01*
X-6273810Y-45655142D02*
X-6221429Y-45598000D01*
X-6221429Y-45598000D02*
X-6273810Y-45540857D01*
X-6273810Y-45540857D02*
X-6273810Y-45655142D01*
X-5854762Y-45940857D02*
X-5592857Y-46740857D01*
X-5592857Y-46740857D02*
X-5330952Y-45940857D01*
X-4911905Y-46740857D02*
X-4911905Y-45940857D01*
X-4911905Y-45540857D02*
X-4964286Y-45598000D01*
X-4964286Y-45598000D02*
X-4911905Y-45655142D01*
X-4911905Y-45655142D02*
X-4859524Y-45598000D01*
X-4859524Y-45598000D02*
X-4911905Y-45540857D01*
X-4911905Y-45540857D02*
X-4911905Y-45655142D01*
X-4545238Y-45940857D02*
X-4126190Y-45940857D01*
X-4388095Y-45540857D02*
X-4388095Y-46569428D01*
X-4388095Y-46569428D02*
X-4335714Y-46683714D01*
X-4335714Y-46683714D02*
X-4230952Y-46740857D01*
X-4230952Y-46740857D02*
X-4126190Y-46740857D01*
X-3864286Y-45940857D02*
X-3602381Y-46740857D01*
X-3340476Y-45940857D02*
X-3602381Y-46740857D01*
X-3602381Y-46740857D02*
X-3707143Y-47026571D01*
X-3707143Y-47026571D02*
X-3759524Y-47083714D01*
X-3759524Y-47083714D02*
X-3864286Y-47140857D01*
D11*
X7888095Y-36093904D02*
X7259523Y-36093904D01*
X7573809Y-36093904D02*
X7573809Y-35293904D01*
X7573809Y-35293904D02*
X7469047Y-35408190D01*
X7469047Y-35408190D02*
X7364285Y-35484380D01*
X7364285Y-35484380D02*
X7259523Y-35522476D01*
D12*
X3054761Y-45540857D02*
X3683333Y-45540857D01*
X3369047Y-46740857D02*
X3369047Y-45540857D01*
X4049999Y-46740857D02*
X4049999Y-45940857D01*
X4049999Y-46169428D02*
X4102380Y-46055142D01*
X4102380Y-46055142D02*
X4154761Y-45998000D01*
X4154761Y-45998000D02*
X4259523Y-45940857D01*
X4259523Y-45940857D02*
X4364285Y-45940857D01*
X5202380Y-46740857D02*
X5202380Y-46112285D01*
X5202380Y-46112285D02*
X5149999Y-45998000D01*
X5149999Y-45998000D02*
X5045237Y-45940857D01*
X5045237Y-45940857D02*
X4835713Y-45940857D01*
X4835713Y-45940857D02*
X4730951Y-45998000D01*
X5202380Y-46683714D02*
X5097618Y-46740857D01*
X5097618Y-46740857D02*
X4835713Y-46740857D01*
X4835713Y-46740857D02*
X4730951Y-46683714D01*
X4730951Y-46683714D02*
X4678570Y-46569428D01*
X4678570Y-46569428D02*
X4678570Y-46455142D01*
X4678570Y-46455142D02*
X4730951Y-46340857D01*
X4730951Y-46340857D02*
X4835713Y-46283714D01*
X4835713Y-46283714D02*
X5097618Y-46283714D01*
X5097618Y-46283714D02*
X5202380Y-46226571D01*
X5726189Y-45940857D02*
X5726189Y-46740857D01*
X5726189Y-46055142D02*
X5778570Y-45998000D01*
X5778570Y-45998000D02*
X5883332Y-45940857D01*
X5883332Y-45940857D02*
X6040475Y-45940857D01*
X6040475Y-45940857D02*
X6145237Y-45998000D01*
X6145237Y-45998000D02*
X6197618Y-46112285D01*
X6197618Y-46112285D02*
X6197618Y-46740857D01*
X6669046Y-46683714D02*
X6773808Y-46740857D01*
X6773808Y-46740857D02*
X6983332Y-46740857D01*
X6983332Y-46740857D02*
X7088094Y-46683714D01*
X7088094Y-46683714D02*
X7140475Y-46569428D01*
X7140475Y-46569428D02*
X7140475Y-46512285D01*
X7140475Y-46512285D02*
X7088094Y-46398000D01*
X7088094Y-46398000D02*
X6983332Y-46340857D01*
X6983332Y-46340857D02*
X6826189Y-46340857D01*
X6826189Y-46340857D02*
X6721427Y-46283714D01*
X6721427Y-46283714D02*
X6669046Y-46169428D01*
X6669046Y-46169428D02*
X6669046Y-46112285D01*
X6669046Y-46112285D02*
X6721427Y-45998000D01*
X6721427Y-45998000D02*
X6826189Y-45940857D01*
X6826189Y-45940857D02*
X6983332Y-45940857D01*
X6983332Y-45940857D02*
X7088094Y-45998000D01*
X7611903Y-46740857D02*
X7611903Y-45940857D01*
X7611903Y-46055142D02*
X7664284Y-45998000D01*
X7664284Y-45998000D02*
X7769046Y-45940857D01*
X7769046Y-45940857D02*
X7926189Y-45940857D01*
X7926189Y-45940857D02*
X8030951Y-45998000D01*
X8030951Y-45998000D02*
X8083332Y-46112285D01*
X8083332Y-46112285D02*
X8083332Y-46740857D01*
X8083332Y-46112285D02*
X8135713Y-45998000D01*
X8135713Y-45998000D02*
X8240475Y-45940857D01*
X8240475Y-45940857D02*
X8397618Y-45940857D01*
X8397618Y-45940857D02*
X8502379Y-45998000D01*
X8502379Y-45998000D02*
X8554760Y-46112285D01*
X8554760Y-46112285D02*
X8554760Y-46740857D01*
X9078570Y-46740857D02*
X9078570Y-45940857D01*
X9078570Y-45540857D02*
X9026189Y-45598000D01*
X9026189Y-45598000D02*
X9078570Y-45655142D01*
X9078570Y-45655142D02*
X9130951Y-45598000D01*
X9130951Y-45598000D02*
X9078570Y-45540857D01*
X9078570Y-45540857D02*
X9078570Y-45655142D01*
X9445237Y-45940857D02*
X9864285Y-45940857D01*
X9602380Y-45540857D02*
X9602380Y-46569428D01*
X9602380Y-46569428D02*
X9654761Y-46683714D01*
X9654761Y-46683714D02*
X9759523Y-46740857D01*
X9759523Y-46740857D02*
X9864285Y-46740857D01*
D11*
X27525904Y45040476D02*
X26725904Y45040476D01*
X26725904Y45040476D02*
X26725904Y45230952D01*
X26725904Y45230952D02*
X26764000Y45345238D01*
X26764000Y45345238D02*
X26840190Y45421428D01*
X26840190Y45421428D02*
X26916380Y45459523D01*
X26916380Y45459523D02*
X27068761Y45497619D01*
X27068761Y45497619D02*
X27183047Y45497619D01*
X27183047Y45497619D02*
X27335428Y45459523D01*
X27335428Y45459523D02*
X27411619Y45421428D01*
X27411619Y45421428D02*
X27487809Y45345238D01*
X27487809Y45345238D02*
X27525904Y45230952D01*
X27525904Y45230952D02*
X27525904Y45040476D01*
X27525904Y45840476D02*
X26992571Y45840476D01*
X26725904Y45840476D02*
X26764000Y45802380D01*
X26764000Y45802380D02*
X26802095Y45840476D01*
X26802095Y45840476D02*
X26764000Y45878571D01*
X26764000Y45878571D02*
X26725904Y45840476D01*
X26725904Y45840476D02*
X26802095Y45840476D01*
X26992571Y46145237D02*
X27525904Y46335713D01*
X27525904Y46335713D02*
X26992571Y46526190D01*
D12*
X-20788095Y-46740857D02*
X-20788095Y-45540857D01*
X-20788095Y-45540857D02*
X-20369047Y-45540857D01*
X-20369047Y-45540857D02*
X-20264285Y-45598000D01*
X-20264285Y-45598000D02*
X-20211904Y-45655142D01*
X-20211904Y-45655142D02*
X-20159523Y-45769428D01*
X-20159523Y-45769428D02*
X-20159523Y-45940857D01*
X-20159523Y-45940857D02*
X-20211904Y-46055142D01*
X-20211904Y-46055142D02*
X-20264285Y-46112285D01*
X-20264285Y-46112285D02*
X-20369047Y-46169428D01*
X-20369047Y-46169428D02*
X-20788095Y-46169428D01*
X-19530952Y-46740857D02*
X-19635714Y-46683714D01*
X-19635714Y-46683714D02*
X-19688095Y-46626571D01*
X-19688095Y-46626571D02*
X-19740476Y-46512285D01*
X-19740476Y-46512285D02*
X-19740476Y-46169428D01*
X-19740476Y-46169428D02*
X-19688095Y-46055142D01*
X-19688095Y-46055142D02*
X-19635714Y-45998000D01*
X-19635714Y-45998000D02*
X-19530952Y-45940857D01*
X-19530952Y-45940857D02*
X-19373809Y-45940857D01*
X-19373809Y-45940857D02*
X-19269047Y-45998000D01*
X-19269047Y-45998000D02*
X-19216666Y-46055142D01*
X-19216666Y-46055142D02*
X-19164285Y-46169428D01*
X-19164285Y-46169428D02*
X-19164285Y-46512285D01*
X-19164285Y-46512285D02*
X-19216666Y-46626571D01*
X-19216666Y-46626571D02*
X-19269047Y-46683714D01*
X-19269047Y-46683714D02*
X-19373809Y-46740857D01*
X-19373809Y-46740857D02*
X-19530952Y-46740857D01*
X-18797619Y-45940857D02*
X-18588095Y-46740857D01*
X-18588095Y-46740857D02*
X-18378571Y-46169428D01*
X-18378571Y-46169428D02*
X-18169047Y-46740857D01*
X-18169047Y-46740857D02*
X-17959523Y-45940857D01*
X-17121428Y-46683714D02*
X-17226190Y-46740857D01*
X-17226190Y-46740857D02*
X-17435714Y-46740857D01*
X-17435714Y-46740857D02*
X-17540476Y-46683714D01*
X-17540476Y-46683714D02*
X-17592857Y-46569428D01*
X-17592857Y-46569428D02*
X-17592857Y-46112285D01*
X-17592857Y-46112285D02*
X-17540476Y-45998000D01*
X-17540476Y-45998000D02*
X-17435714Y-45940857D01*
X-17435714Y-45940857D02*
X-17226190Y-45940857D01*
X-17226190Y-45940857D02*
X-17121428Y-45998000D01*
X-17121428Y-45998000D02*
X-17069047Y-46112285D01*
X-17069047Y-46112285D02*
X-17069047Y-46226571D01*
X-17069047Y-46226571D02*
X-17592857Y-46340857D01*
X-16597619Y-46740857D02*
X-16597619Y-45940857D01*
X-16597619Y-46169428D02*
X-16545238Y-46055142D01*
X-16545238Y-46055142D02*
X-16492857Y-45998000D01*
X-16492857Y-45998000D02*
X-16388095Y-45940857D01*
X-16388095Y-45940857D02*
X-16283333Y-45940857D01*
D11*
X-15159523Y54874095D02*
X-15159523Y55674095D01*
X-15159523Y55674095D02*
X-14892857Y55102666D01*
X-14892857Y55102666D02*
X-14626190Y55674095D01*
X-14626190Y55674095D02*
X-14626190Y54874095D01*
X-13902380Y54874095D02*
X-13902380Y55293142D01*
X-13902380Y55293142D02*
X-13940475Y55369333D01*
X-13940475Y55369333D02*
X-14016666Y55407428D01*
X-14016666Y55407428D02*
X-14169047Y55407428D01*
X-14169047Y55407428D02*
X-14245237Y55369333D01*
X-13902380Y54912190D02*
X-13978571Y54874095D01*
X-13978571Y54874095D02*
X-14169047Y54874095D01*
X-14169047Y54874095D02*
X-14245237Y54912190D01*
X-14245237Y54912190D02*
X-14283333Y54988380D01*
X-14283333Y54988380D02*
X-14283333Y55064571D01*
X-14283333Y55064571D02*
X-14245237Y55140761D01*
X-14245237Y55140761D02*
X-14169047Y55178857D01*
X-14169047Y55178857D02*
X-13978571Y55178857D01*
X-13978571Y55178857D02*
X-13902380Y55216952D01*
X-13521427Y54874095D02*
X-13521427Y55407428D01*
X-13521427Y55674095D02*
X-13559523Y55636000D01*
X-13559523Y55636000D02*
X-13521427Y55597904D01*
X-13521427Y55597904D02*
X-13483332Y55636000D01*
X-13483332Y55636000D02*
X-13521427Y55674095D01*
X-13521427Y55674095D02*
X-13521427Y55597904D01*
X-13140475Y55407428D02*
X-13140475Y54874095D01*
X-13140475Y55331238D02*
X-13102380Y55369333D01*
X-13102380Y55369333D02*
X-13026190Y55407428D01*
X-13026190Y55407428D02*
X-12911904Y55407428D01*
X-12911904Y55407428D02*
X-12835713Y55369333D01*
X-12835713Y55369333D02*
X-12797618Y55293142D01*
X-12797618Y55293142D02*
X-12797618Y54874095D01*
X23257142Y36943142D02*
X23371428Y36905047D01*
X23371428Y36905047D02*
X23409523Y36866952D01*
X23409523Y36866952D02*
X23447619Y36790761D01*
X23447619Y36790761D02*
X23447619Y36676476D01*
X23447619Y36676476D02*
X23409523Y36600285D01*
X23409523Y36600285D02*
X23371428Y36562190D01*
X23371428Y36562190D02*
X23295238Y36524095D01*
X23295238Y36524095D02*
X22990476Y36524095D01*
X22990476Y36524095D02*
X22990476Y37324095D01*
X22990476Y37324095D02*
X23257142Y37324095D01*
X23257142Y37324095D02*
X23333333Y37286000D01*
X23333333Y37286000D02*
X23371428Y37247904D01*
X23371428Y37247904D02*
X23409523Y37171714D01*
X23409523Y37171714D02*
X23409523Y37095523D01*
X23409523Y37095523D02*
X23371428Y37019333D01*
X23371428Y37019333D02*
X23333333Y36981238D01*
X23333333Y36981238D02*
X23257142Y36943142D01*
X23257142Y36943142D02*
X22990476Y36943142D01*
X23904761Y36524095D02*
X23828571Y36562190D01*
X23828571Y36562190D02*
X23790476Y36600285D01*
X23790476Y36600285D02*
X23752380Y36676476D01*
X23752380Y36676476D02*
X23752380Y36905047D01*
X23752380Y36905047D02*
X23790476Y36981238D01*
X23790476Y36981238D02*
X23828571Y37019333D01*
X23828571Y37019333D02*
X23904761Y37057428D01*
X23904761Y37057428D02*
X24019047Y37057428D01*
X24019047Y37057428D02*
X24095238Y37019333D01*
X24095238Y37019333D02*
X24133333Y36981238D01*
X24133333Y36981238D02*
X24171428Y36905047D01*
X24171428Y36905047D02*
X24171428Y36676476D01*
X24171428Y36676476D02*
X24133333Y36600285D01*
X24133333Y36600285D02*
X24095238Y36562190D01*
X24095238Y36562190D02*
X24019047Y36524095D01*
X24019047Y36524095D02*
X23904761Y36524095D01*
X24628571Y36524095D02*
X24552381Y36562190D01*
X24552381Y36562190D02*
X24514286Y36600285D01*
X24514286Y36600285D02*
X24476190Y36676476D01*
X24476190Y36676476D02*
X24476190Y36905047D01*
X24476190Y36905047D02*
X24514286Y36981238D01*
X24514286Y36981238D02*
X24552381Y37019333D01*
X24552381Y37019333D02*
X24628571Y37057428D01*
X24628571Y37057428D02*
X24742857Y37057428D01*
X24742857Y37057428D02*
X24819048Y37019333D01*
X24819048Y37019333D02*
X24857143Y36981238D01*
X24857143Y36981238D02*
X24895238Y36905047D01*
X24895238Y36905047D02*
X24895238Y36676476D01*
X24895238Y36676476D02*
X24857143Y36600285D01*
X24857143Y36600285D02*
X24819048Y36562190D01*
X24819048Y36562190D02*
X24742857Y36524095D01*
X24742857Y36524095D02*
X24628571Y36524095D01*
X25123810Y37057428D02*
X25428572Y37057428D01*
X25238096Y37324095D02*
X25238096Y36638380D01*
X25238096Y36638380D02*
X25276191Y36562190D01*
X25276191Y36562190D02*
X25352381Y36524095D01*
X25352381Y36524095D02*
X25428572Y36524095D01*
X25809524Y36524095D02*
X25733334Y36562190D01*
X25733334Y36562190D02*
X25695239Y36638380D01*
X25695239Y36638380D02*
X25695239Y37324095D01*
X26228572Y36524095D02*
X26152382Y36562190D01*
X26152382Y36562190D02*
X26114287Y36600285D01*
X26114287Y36600285D02*
X26076191Y36676476D01*
X26076191Y36676476D02*
X26076191Y36905047D01*
X26076191Y36905047D02*
X26114287Y36981238D01*
X26114287Y36981238D02*
X26152382Y37019333D01*
X26152382Y37019333D02*
X26228572Y37057428D01*
X26228572Y37057428D02*
X26342858Y37057428D01*
X26342858Y37057428D02*
X26419049Y37019333D01*
X26419049Y37019333D02*
X26457144Y36981238D01*
X26457144Y36981238D02*
X26495239Y36905047D01*
X26495239Y36905047D02*
X26495239Y36676476D01*
X26495239Y36676476D02*
X26457144Y36600285D01*
X26457144Y36600285D02*
X26419049Y36562190D01*
X26419049Y36562190D02*
X26342858Y36524095D01*
X26342858Y36524095D02*
X26228572Y36524095D01*
X27180954Y36524095D02*
X27180954Y36943142D01*
X27180954Y36943142D02*
X27142859Y37019333D01*
X27142859Y37019333D02*
X27066668Y37057428D01*
X27066668Y37057428D02*
X26914287Y37057428D01*
X26914287Y37057428D02*
X26838097Y37019333D01*
X27180954Y36562190D02*
X27104763Y36524095D01*
X27104763Y36524095D02*
X26914287Y36524095D01*
X26914287Y36524095D02*
X26838097Y36562190D01*
X26838097Y36562190D02*
X26800001Y36638380D01*
X26800001Y36638380D02*
X26800001Y36714571D01*
X26800001Y36714571D02*
X26838097Y36790761D01*
X26838097Y36790761D02*
X26914287Y36828857D01*
X26914287Y36828857D02*
X27104763Y36828857D01*
X27104763Y36828857D02*
X27180954Y36866952D01*
X27904764Y36524095D02*
X27904764Y37324095D01*
X27904764Y36562190D02*
X27828573Y36524095D01*
X27828573Y36524095D02*
X27676192Y36524095D01*
X27676192Y36524095D02*
X27600002Y36562190D01*
X27600002Y36562190D02*
X27561907Y36600285D01*
X27561907Y36600285D02*
X27523811Y36676476D01*
X27523811Y36676476D02*
X27523811Y36905047D01*
X27523811Y36905047D02*
X27561907Y36981238D01*
X27561907Y36981238D02*
X27600002Y37019333D01*
X27600002Y37019333D02*
X27676192Y37057428D01*
X27676192Y37057428D02*
X27828573Y37057428D01*
X27828573Y37057428D02*
X27904764Y37019333D01*
X-9917619Y48161904D02*
X-9917619Y47590476D01*
X-9917619Y47876190D02*
X-10917619Y47876190D01*
X-10917619Y47876190D02*
X-10774761Y47780952D01*
X-10774761Y47780952D02*
X-10679523Y47685714D01*
X-10679523Y47685714D02*
X-10631904Y47590476D01*
%TO.C,Module1*%
X4292857Y-27117380D02*
X4292857Y-26117380D01*
X4292857Y-26117380D02*
X4626190Y-26831666D01*
X4626190Y-26831666D02*
X4959523Y-26117380D01*
X4959523Y-26117380D02*
X4959523Y-27117380D01*
X5578571Y-27117380D02*
X5483333Y-27069761D01*
X5483333Y-27069761D02*
X5435714Y-27022142D01*
X5435714Y-27022142D02*
X5388095Y-26926904D01*
X5388095Y-26926904D02*
X5388095Y-26641190D01*
X5388095Y-26641190D02*
X5435714Y-26545952D01*
X5435714Y-26545952D02*
X5483333Y-26498333D01*
X5483333Y-26498333D02*
X5578571Y-26450714D01*
X5578571Y-26450714D02*
X5721428Y-26450714D01*
X5721428Y-26450714D02*
X5816666Y-26498333D01*
X5816666Y-26498333D02*
X5864285Y-26545952D01*
X5864285Y-26545952D02*
X5911904Y-26641190D01*
X5911904Y-26641190D02*
X5911904Y-26926904D01*
X5911904Y-26926904D02*
X5864285Y-27022142D01*
X5864285Y-27022142D02*
X5816666Y-27069761D01*
X5816666Y-27069761D02*
X5721428Y-27117380D01*
X5721428Y-27117380D02*
X5578571Y-27117380D01*
X6769047Y-27117380D02*
X6769047Y-26117380D01*
X6769047Y-27069761D02*
X6673809Y-27117380D01*
X6673809Y-27117380D02*
X6483333Y-27117380D01*
X6483333Y-27117380D02*
X6388095Y-27069761D01*
X6388095Y-27069761D02*
X6340476Y-27022142D01*
X6340476Y-27022142D02*
X6292857Y-26926904D01*
X6292857Y-26926904D02*
X6292857Y-26641190D01*
X6292857Y-26641190D02*
X6340476Y-26545952D01*
X6340476Y-26545952D02*
X6388095Y-26498333D01*
X6388095Y-26498333D02*
X6483333Y-26450714D01*
X6483333Y-26450714D02*
X6673809Y-26450714D01*
X6673809Y-26450714D02*
X6769047Y-26498333D01*
X7673809Y-26450714D02*
X7673809Y-27117380D01*
X7245238Y-26450714D02*
X7245238Y-26974523D01*
X7245238Y-26974523D02*
X7292857Y-27069761D01*
X7292857Y-27069761D02*
X7388095Y-27117380D01*
X7388095Y-27117380D02*
X7530952Y-27117380D01*
X7530952Y-27117380D02*
X7626190Y-27069761D01*
X7626190Y-27069761D02*
X7673809Y-27022142D01*
X8292857Y-27117380D02*
X8197619Y-27069761D01*
X8197619Y-27069761D02*
X8150000Y-26974523D01*
X8150000Y-26974523D02*
X8150000Y-26117380D01*
X9054762Y-27069761D02*
X8959524Y-27117380D01*
X8959524Y-27117380D02*
X8769048Y-27117380D01*
X8769048Y-27117380D02*
X8673810Y-27069761D01*
X8673810Y-27069761D02*
X8626191Y-26974523D01*
X8626191Y-26974523D02*
X8626191Y-26593571D01*
X8626191Y-26593571D02*
X8673810Y-26498333D01*
X8673810Y-26498333D02*
X8769048Y-26450714D01*
X8769048Y-26450714D02*
X8959524Y-26450714D01*
X8959524Y-26450714D02*
X9054762Y-26498333D01*
X9054762Y-26498333D02*
X9102381Y-26593571D01*
X9102381Y-26593571D02*
X9102381Y-26688809D01*
X9102381Y-26688809D02*
X8626191Y-26784047D01*
X10054762Y-27117380D02*
X9483334Y-27117380D01*
X9769048Y-27117380D02*
X9769048Y-26117380D01*
X9769048Y-26117380D02*
X9673810Y-26260238D01*
X9673810Y-26260238D02*
X9578572Y-26355476D01*
X9578572Y-26355476D02*
X9483334Y-26403095D01*
D13*
%TO.C,C28*%
X-13407836Y-24640000D02*
X-13192164Y-24640000D01*
X-13407836Y-25360000D02*
X-13192164Y-25360000D01*
%TO.C,C26*%
X-13407836Y-22490000D02*
X-13192164Y-22490000D01*
X-13407836Y-23210000D02*
X-13192164Y-23210000D01*
%TO.C,J13*%
X-21125000Y-17374000D02*
X-14925000Y-17374000D01*
X-14925000Y-17374000D02*
X-14925000Y-19152000D01*
X-29210500Y-17380000D02*
X-29210500Y-28994500D01*
X-14478500Y-26200500D02*
X-14478500Y-28994500D01*
X-28702500Y-28994500D02*
X-29210500Y-28994500D01*
X-23368500Y-28994500D02*
X-25464000Y-28994500D01*
X-18479000Y-28994500D02*
X-21125000Y-28994500D01*
X-14478500Y-28994500D02*
X-15748500Y-28994500D01*
X-14478500Y-26200500D02*
X-14923000Y-26200500D01*
X-14925000Y-25248000D02*
X-14925000Y-26200500D01*
X-14923000Y-20803000D02*
X-14925000Y-23597000D01*
X-25464000Y-17374000D02*
X-23368500Y-17374000D01*
X-29210500Y-17380000D02*
X-28702500Y-17380000D01*
%TO.C,U29*%
X23490000Y-15950000D02*
X23490000Y-16750000D01*
X23490000Y-15950000D02*
X23490000Y-15150000D01*
X26610000Y-15950000D02*
X26610000Y-16750000D01*
X26610000Y-15950000D02*
X26610000Y-14150000D01*
%TO.C,J15*%
X23010000Y30440000D02*
X22560000Y30440000D01*
X22560000Y30890000D02*
X22560000Y30440000D01*
X23240000Y28440000D02*
X23240000Y28860000D01*
X25220000Y28440000D02*
X23240000Y28440000D01*
X27590000Y28440000D02*
X27190000Y28440000D01*
X27190000Y35960000D02*
X27590000Y35960000D01*
X23240000Y35960000D02*
X23240000Y35540000D01*
X25220000Y35960000D02*
X23240000Y35960000D01*
%TO.C,D1*%
X-11407500Y-45140000D02*
X-13050000Y-45140000D01*
X-13050000Y-47060000D02*
X-11407500Y-47060000D01*
X-13050000Y-45140000D02*
X-13050000Y-47060000D01*
%TO.C,Q11*%
X3120000Y20300000D02*
X3120000Y20960000D01*
X3120000Y18640000D02*
X3120000Y19300000D01*
X3120000Y18640000D02*
X5150000Y18640000D01*
X4530000Y20960000D02*
X3120000Y20960000D01*
%TO.C,R44*%
X1270000Y22796359D02*
X1270000Y23103641D01*
X2030000Y22796359D02*
X2030000Y23103641D01*
%TO.C,J10*%
X-13610000Y-32410000D02*
X-13610000Y-35060000D01*
X-13610000Y-35060000D02*
X-11260000Y-35060000D01*
X-13500000Y-27990000D02*
X6500000Y-27990000D01*
X-11260000Y-35060000D02*
X-11260000Y-36450000D01*
X6610000Y-32410000D02*
X6610000Y-35060000D01*
X6610000Y-35060000D02*
X4260000Y-35060000D01*
%TO.C,C36*%
X-14710000Y11009420D02*
X-14710000Y11290580D01*
X-13690000Y11009420D02*
X-13690000Y11290580D01*
%TO.C,C23*%
X-7965000Y37361252D02*
X-7965000Y36838748D01*
X-9435000Y37361252D02*
X-9435000Y36838748D01*
%TO.C,Q9*%
X3120000Y23100000D02*
X3120000Y23760000D01*
X3120000Y21440000D02*
X3120000Y22100000D01*
X3120000Y21440000D02*
X5150000Y21440000D01*
X4530000Y23760000D02*
X3120000Y23760000D01*
%TO.C,R43*%
X5670000Y22796359D02*
X5670000Y23103641D01*
X6430000Y22796359D02*
X6430000Y23103641D01*
%TO.C,U13*%
X-12590000Y16600000D02*
X-12590000Y18550000D01*
X-12590000Y16600000D02*
X-12590000Y14650000D01*
X-17710000Y16600000D02*
X-17710000Y18550000D01*
X-17710000Y16600000D02*
X-17710000Y13150000D01*
%TO.C,FB3*%
X28010000Y-15237221D02*
X28010000Y-15562779D01*
X26990000Y-15237221D02*
X26990000Y-15562779D01*
%TO.C,R45*%
X17903641Y45420000D02*
X17596359Y45420000D01*
X17903641Y46180000D02*
X17596359Y46180000D01*
%TO.C,Q4*%
X20350000Y27820000D02*
X19690000Y27820000D01*
X22010000Y27820000D02*
X21350000Y27820000D01*
X22010000Y27820000D02*
X22010000Y29850000D01*
X19690000Y29230000D02*
X19690000Y27820000D01*
%TO.C,U8*%
X-13454000Y-18107200D02*
X-12454000Y-18107200D01*
X-13454000Y-20907200D02*
X-12154000Y-20907200D01*
%TO.C,R20*%
X-820000Y55013641D02*
X-820000Y54706359D01*
X-1580000Y55013641D02*
X-1580000Y54706359D01*
%TO.C,R40*%
X5103641Y24320000D02*
X4796359Y24320000D01*
X5103641Y25080000D02*
X4796359Y25080000D01*
%TO.C,J12*%
X-15355000Y56600000D02*
X-15355000Y59300000D01*
X-12635000Y57190000D02*
X-12005000Y57190000D01*
X-12635000Y59350000D02*
X-12635000Y58710000D01*
X-12635000Y56550000D02*
X-12635000Y57190000D01*
%TO.C,C97*%
X27137836Y-13610000D02*
X26922164Y-13610000D01*
X27137836Y-12890000D02*
X26922164Y-12890000D01*
%TO.C,R38*%
X2030000Y14803641D02*
X2030000Y14496359D01*
X1270000Y14803641D02*
X1270000Y14496359D01*
%TO.C,R22*%
X-9537258Y-15527500D02*
X-9062742Y-15527500D01*
X-9537258Y-16572500D02*
X-9062742Y-16572500D01*
%TO.C,R41*%
X21653641Y45420000D02*
X21346359Y45420000D01*
X21653641Y46180000D02*
X21346359Y46180000D01*
%TO.C,R23*%
X-9112742Y-19822500D02*
X-9587258Y-19822500D01*
X-9112742Y-18777500D02*
X-9587258Y-18777500D01*
%TO.C,D3*%
X592500Y-45140000D02*
X-1050000Y-45140000D01*
X-1050000Y-47060000D02*
X592500Y-47060000D01*
X-1050000Y-45140000D02*
X-1050000Y-47060000D01*
D14*
%TO.C,U7*%
X-7500000Y30800000D02*
X15500000Y30800000D01*
X15500000Y30800000D02*
X15500000Y52800000D01*
X-7500000Y52800000D02*
X-7500000Y30800000D01*
X15500000Y52800000D02*
X-7500000Y52800000D01*
D15*
X-3926000Y33520000D02*
G75*
G03*
X-3926000Y33520000I-254000J0D01*
G01*
D11*
%TO.C,U15*%
X15975000Y29625000D02*
X16200000Y29625000D01*
X15975000Y32975000D02*
X16275000Y32975000D01*
X19325000Y32975000D02*
X19025000Y32975000D01*
X19325000Y29625000D02*
X19025000Y29625000D01*
X15975000Y29625000D02*
X15975000Y32975000D01*
X19325000Y29625000D02*
X19325000Y32975000D01*
X16200000Y29625000D02*
X16200000Y28400000D01*
D13*
%TO.C,D23*%
X4650000Y-41450000D02*
X4650000Y-39450000D01*
X4650000Y-39450000D02*
X800000Y-39450000D01*
X4650000Y-41450000D02*
X800000Y-41450000D01*
%TO.C,D22*%
X-4150000Y-39450000D02*
X-4150000Y-41450000D01*
X-4150000Y-41450000D02*
X-300000Y-41450000D01*
X-4150000Y-39450000D02*
X-300000Y-39450000D01*
%TO.C,R33*%
X2030000Y17353641D02*
X2030000Y17046359D01*
X1270000Y17353641D02*
X1270000Y17046359D01*
%TO.C,D24*%
X4650000Y-39150000D02*
X4650000Y-37150000D01*
X4650000Y-37150000D02*
X800000Y-37150000D01*
X4650000Y-39150000D02*
X800000Y-39150000D01*
%TO.C,R37*%
X2030000Y12153641D02*
X2030000Y11846359D01*
X1270000Y12153641D02*
X1270000Y11846359D01*
%TO.C,C20*%
X-807836Y53820000D02*
X-592164Y53820000D01*
X-807836Y53100000D02*
X-592164Y53100000D01*
%TO.C,R2*%
X-18646359Y14720000D02*
X-18953641Y14720000D01*
X-18646359Y15480000D02*
X-18953641Y15480000D01*
%TO.C,R5*%
X-16527500Y-39012742D02*
X-16527500Y-39487258D01*
X-17572500Y-39012742D02*
X-17572500Y-39487258D01*
%TO.C,D21*%
X-4150000Y-37150000D02*
X-4150000Y-39150000D01*
X-4150000Y-39150000D02*
X-300000Y-39150000D01*
X-4150000Y-37150000D02*
X-300000Y-37150000D01*
%TO.C,Module1*%
X22070000Y8900000D02*
X25850000Y8900000D01*
X-11850000Y-13900000D02*
X-11850000Y-12900000D01*
X25850000Y-13900000D02*
X25850000Y-12900000D01*
X-9500000Y-27500000D02*
X23500000Y-27500000D01*
X-8070000Y-13900000D02*
X-8070000Y-12900000D01*
X22070000Y-13900000D02*
X22070000Y-12900000D01*
X25850000Y8900000D02*
X25850000Y7900000D01*
X22070000Y8900000D02*
X22070000Y7900000D01*
X-11850000Y8900000D02*
X-8070000Y8900000D01*
X27000000Y-24000000D02*
X27000000Y24000000D01*
X23500000Y27500000D02*
X-9500000Y27500000D01*
X-13000000Y24000000D02*
X-13000000Y-24000000D01*
X22070000Y-13900000D02*
X25850000Y-13900000D01*
X-11850000Y-13900000D02*
X-8070000Y-13900000D01*
X27000000Y24000000D02*
G75*
G03*
X23500000Y27500000I-3500000J0D01*
G01*
X-13000000Y-24000000D02*
G75*
G03*
X-9500000Y-27500000I3500000J0D01*
G01*
X23500000Y-27500000D02*
G75*
G03*
X27000000Y-24000000I0J3500000D01*
G01*
X-9500000Y27500000D02*
G75*
G03*
X-13000000Y24000000I0J-3500000D01*
G01*
%TO.C,R4*%
X-16287258Y-31277500D02*
X-15812742Y-31277500D01*
X-16287258Y-32322500D02*
X-15812742Y-32322500D01*
%TO.C,R21*%
X-9537258Y-17027500D02*
X-9062742Y-17027500D01*
X-9537258Y-18072500D02*
X-9062742Y-18072500D01*
%TO.C,R3*%
X-8403641Y9780000D02*
X-8096359Y9780000D01*
X-8403641Y9020000D02*
X-8096359Y9020000D01*
%TO.C,C30*%
X-24609420Y-2510000D02*
X-24890580Y-2510000D01*
X-24609420Y-1490000D02*
X-24890580Y-1490000D01*
%TO.C,C21*%
X-9360000Y40159420D02*
X-9360000Y40440580D01*
X-8340000Y40159420D02*
X-8340000Y40440580D01*
%TO.C,Q8*%
X-3730000Y26650000D02*
X-3730000Y27310000D01*
X-3730000Y24990000D02*
X-3730000Y25650000D01*
X-3730000Y24990000D02*
X-1700000Y24990000D01*
X-2320000Y27310000D02*
X-3730000Y27310000D01*
%TO.C,C100*%
X22960000Y-17692164D02*
X22960000Y-17907836D01*
X22240000Y-17692164D02*
X22240000Y-17907836D01*
%TO.C,U14*%
X-16760000Y8750000D02*
X-16760000Y6850000D01*
X-14440000Y7350000D02*
X-14440000Y8750000D01*
%TO.C,C35*%
X-19210000Y12509420D02*
X-19210000Y12790580D01*
X-18190000Y12509420D02*
X-18190000Y12790580D01*
%TO.C,U30*%
X18590000Y-15950000D02*
X18590000Y-16750000D01*
X18590000Y-15950000D02*
X18590000Y-15150000D01*
X21710000Y-15950000D02*
X21710000Y-16750000D01*
X21710000Y-15950000D02*
X21710000Y-14150000D01*
%TO.C,R34*%
X-8220000Y-41796359D02*
X-8220000Y-42103641D01*
X-8980000Y-41796359D02*
X-8980000Y-42103641D01*
%TO.C,C19*%
X-592164Y55900000D02*
X-807836Y55900000D01*
X-592164Y56620000D02*
X-807836Y56620000D01*
%TO.C,C99*%
X21257836Y-13760000D02*
X21042164Y-13760000D01*
X21257836Y-13040000D02*
X21042164Y-13040000D01*
D16*
%TO.C,D6*%
X-14340000Y-21550000D02*
G75*
G03*
X-14340000Y-21550000I-50000J0D01*
G01*
%TO.C,D20*%
X-12860000Y21050000D02*
G75*
G03*
X-12860000Y21050000I-50000J0D01*
G01*
D13*
%TO.C,D7*%
X12592500Y-45140000D02*
X10950000Y-45140000D01*
X10950000Y-47060000D02*
X12592500Y-47060000D01*
X10950000Y-45140000D02*
X10950000Y-47060000D01*
%TO.C,C22*%
X-9435000Y43238748D02*
X-9435000Y43761252D01*
X-7965000Y43238748D02*
X-7965000Y43761252D01*
%TO.C,R39*%
X2896359Y25030000D02*
X3203641Y25030000D01*
X2896359Y24270000D02*
X3203641Y24270000D01*
D16*
%TO.C,D25*%
X20150000Y44235000D02*
G75*
G03*
X20150000Y44235000I-50000J0D01*
G01*
D13*
%TO.C,J16*%
X-11400000Y46660000D02*
X-11400000Y48150000D01*
X-11400000Y48150000D02*
X-12740000Y48150000D01*
X-11400000Y36340000D02*
X-11400000Y34850000D01*
X-11400000Y34850000D02*
X-12740000Y34850000D01*
X-15460000Y48150000D02*
X-17200000Y48150000D01*
X-17200000Y48150000D02*
X-17200000Y34850000D01*
X-17200000Y34850000D02*
X-15460000Y34850000D01*
X-11400000Y46660000D02*
X-10200000Y46660000D01*
%TO.C,R24*%
X-16596359Y-2780000D02*
X-16903641Y-2780000D01*
X-16596359Y-2020000D02*
X-16903641Y-2020000D01*
%TO.C,R42*%
X5670000Y20046359D02*
X5670000Y20353641D01*
X6430000Y20046359D02*
X6430000Y20353641D01*
%TO.C,R31*%
X19862742Y26572500D02*
X20337258Y26572500D01*
X19862742Y25527500D02*
X20337258Y25527500D01*
%TO.C,C98*%
X27860000Y-17692164D02*
X27860000Y-17907836D01*
X27140000Y-17692164D02*
X27140000Y-17907836D01*
%TO.C,R19*%
X-1853641Y58540000D02*
X-1546359Y58540000D01*
X-1853641Y57780000D02*
X-1546359Y57780000D01*
%TO.C,R46*%
X1270000Y19996359D02*
X1270000Y20303641D01*
X2030000Y19996359D02*
X2030000Y20303641D01*
%TO.C,C29*%
X-21811252Y-1165000D02*
X-21288748Y-1165000D01*
X-21811252Y-2635000D02*
X-21288748Y-2635000D01*
%TO.C,U2*%
X-5400000Y-38335000D02*
X-5400000Y-39335000D01*
X-8200000Y-38335000D02*
X-8200000Y-39635000D01*
%TO.C,FB4*%
X23110000Y-15237221D02*
X23110000Y-15562779D01*
X22090000Y-15237221D02*
X22090000Y-15562779D01*
%TO.C,C51*%
X18790000Y45217164D02*
X18790000Y45432836D01*
X19510000Y45217164D02*
X19510000Y45432836D01*
%TO.C,R30*%
X-16687258Y10922500D02*
X-16212742Y10922500D01*
X-16687258Y9877500D02*
X-16212742Y9877500D01*
%TO.C,R29*%
X-16687258Y12422500D02*
X-16212742Y12422500D01*
X-16687258Y11377500D02*
X-16212742Y11377500D01*
%TO.C,Q7*%
X4580000Y14100000D02*
X4580000Y13440000D01*
X4580000Y15760000D02*
X4580000Y15100000D01*
X4580000Y15760000D02*
X2550000Y15760000D01*
X3170000Y13440000D02*
X4580000Y13440000D01*
D16*
%TO.C,D9*%
X440000Y57200000D02*
G75*
G03*
X440000Y57200000I-50000J0D01*
G01*
D13*
%TO.C,R1*%
X-18646359Y15670000D02*
X-18953641Y15670000D01*
X-18646359Y16430000D02*
X-18953641Y16430000D01*
%TO.C,R32*%
X19862742Y25072500D02*
X20337258Y25072500D01*
X19862742Y24027500D02*
X20337258Y24027500D01*
%TO.C,Q6*%
X4580000Y11500000D02*
X4580000Y10840000D01*
X4580000Y13160000D02*
X4580000Y12500000D01*
X4580000Y13160000D02*
X2550000Y13160000D01*
X3170000Y10840000D02*
X4580000Y10840000D01*
%TO.C,D2*%
X-23407500Y-45140000D02*
X-25050000Y-45140000D01*
X-25050000Y-47060000D02*
X-23407500Y-47060000D01*
X-25050000Y-45140000D02*
X-25050000Y-47060000D01*
%TO.C,C34*%
X-18590000Y18540580D02*
X-18590000Y18259420D01*
X-19610000Y18540580D02*
X-19610000Y18259420D01*
%TO.C,Q5*%
X4580000Y16700000D02*
X4580000Y16040000D01*
X4580000Y18360000D02*
X4580000Y17700000D01*
X4580000Y18360000D02*
X2550000Y18360000D01*
X3170000Y16040000D02*
X4580000Y16040000D01*
%TO.C,J17*%
X26310000Y47125000D02*
X26310000Y44425000D01*
X23590000Y46535000D02*
X22960000Y46535000D01*
X23590000Y44375000D02*
X23590000Y45015000D01*
X23590000Y47175000D02*
X23590000Y46535000D01*
%TO.C,C61*%
X16710000Y45457836D02*
X16710000Y45242164D01*
X15990000Y45457836D02*
X15990000Y45242164D01*
%TO.C,U1*%
X-14840000Y-35700000D02*
X-14840000Y-33800000D01*
X-17160000Y-34300000D02*
X-17160000Y-35700000D01*
%TO.C,C37*%
X15110000Y29240580D02*
X15110000Y28959420D01*
X14090000Y29240580D02*
X14090000Y28959420D01*
%TO.C,C24*%
X-12811252Y-25865000D02*
X-12288748Y-25865000D01*
X-12811252Y-27335000D02*
X-12288748Y-27335000D01*
%TO.C,U16*%
X20600000Y33250000D02*
X21600000Y33250000D01*
X20600000Y30450000D02*
X21900000Y30450000D01*
%TD*%
M02*
