%TF.GenerationSoftware,KiCad,Pcbnew,6.99.0-1.20221101gitf80c150.fc36*%
%TF.CreationDate,2022-11-16T22:40:22+00:00*%
%TF.ProjectId,bugg-main-r4,62756767-2d6d-4616-996e-2d72342e6b69,rev?*%
%TF.SameCoordinates,Original*%
%TF.FileFunction,Legend,Bot*%
%TF.FilePolarity,Positive*%
%FSLAX46Y46*%
G04 Gerber Fmt 4.6, Leading zero omitted, Abs format (unit mm)*
G04 Created by KiCad (PCBNEW 6.99.0-1.20221101gitf80c150.fc36) date 2022-11-16 22:40:22*
%MOMM*%
%LPD*%
G01*
G04 APERTURE LIST*
%ADD10C,0.200000*%
%ADD11C,0.150000*%
%ADD12C,0.120000*%
G04 APERTURE END LIST*
D10*
X59932800Y14164344D02*
G75*
G03*
X59932800Y14164344I-100000J0D01*
G01*
D11*
X2150000Y6400000D02*
X2150000Y3200000D01*
X3150000Y5500000D02*
X2700000Y5050000D01*
X3650000Y6000000D02*
X3650000Y6300000D01*
X11150000Y-4500000D02*
X8950000Y-4500000D01*
X2550000Y300000D02*
X3050000Y800000D01*
X1650000Y300000D02*
X2550000Y300000D01*
X2150000Y3200000D02*
X3350000Y2000000D01*
X2700000Y4250000D02*
X3100000Y3850000D01*
X3150000Y5500000D02*
X3650000Y6000000D01*
X2700000Y5050000D02*
X2700000Y4250000D01*
D10*
X68282800Y14164344D02*
G75*
G03*
X68282800Y14164344I-100000J0D01*
G01*
D11*
%TO.C,T41*%
X19040476Y-44043904D02*
X18583333Y-44043904D01*
X18811905Y-44843904D02*
X18811905Y-44043904D01*
X17973809Y-44310571D02*
X17973809Y-44843904D01*
X18164285Y-44005809D02*
X18354762Y-44577238D01*
X18354762Y-44577238D02*
X17859523Y-44577238D01*
X17135714Y-44843904D02*
X17592857Y-44843904D01*
X17364285Y-44843904D02*
X17364285Y-44043904D01*
X17364285Y-44043904D02*
X17440476Y-44158190D01*
X17440476Y-44158190D02*
X17516666Y-44234380D01*
X17516666Y-44234380D02*
X17592857Y-44272476D01*
%TO.C,T10*%
X15140476Y38406095D02*
X14683333Y38406095D01*
X14911905Y37606095D02*
X14911905Y38406095D01*
X13997619Y37606095D02*
X14454762Y37606095D01*
X14226190Y37606095D02*
X14226190Y38406095D01*
X14226190Y38406095D02*
X14302381Y38291809D01*
X14302381Y38291809D02*
X14378571Y38215619D01*
X14378571Y38215619D02*
X14454762Y38177523D01*
X13502380Y38406095D02*
X13426190Y38406095D01*
X13426190Y38406095D02*
X13349999Y38368000D01*
X13349999Y38368000D02*
X13311904Y38329904D01*
X13311904Y38329904D02*
X13273809Y38253714D01*
X13273809Y38253714D02*
X13235714Y38101333D01*
X13235714Y38101333D02*
X13235714Y37910857D01*
X13235714Y37910857D02*
X13273809Y37758476D01*
X13273809Y37758476D02*
X13311904Y37682285D01*
X13311904Y37682285D02*
X13349999Y37644190D01*
X13349999Y37644190D02*
X13426190Y37606095D01*
X13426190Y37606095D02*
X13502380Y37606095D01*
X13502380Y37606095D02*
X13578571Y37644190D01*
X13578571Y37644190D02*
X13616666Y37682285D01*
X13616666Y37682285D02*
X13654761Y37758476D01*
X13654761Y37758476D02*
X13692857Y37910857D01*
X13692857Y37910857D02*
X13692857Y38101333D01*
X13692857Y38101333D02*
X13654761Y38253714D01*
X13654761Y38253714D02*
X13616666Y38329904D01*
X13616666Y38329904D02*
X13578571Y38368000D01*
X13578571Y38368000D02*
X13502380Y38406095D01*
%TO.C,T29*%
X-10209523Y15956095D02*
X-10666666Y15956095D01*
X-10438094Y15156095D02*
X-10438094Y15956095D01*
X-10895237Y15879904D02*
X-10933333Y15918000D01*
X-10933333Y15918000D02*
X-11009523Y15956095D01*
X-11009523Y15956095D02*
X-11199999Y15956095D01*
X-11199999Y15956095D02*
X-11276190Y15918000D01*
X-11276190Y15918000D02*
X-11314285Y15879904D01*
X-11314285Y15879904D02*
X-11352380Y15803714D01*
X-11352380Y15803714D02*
X-11352380Y15727523D01*
X-11352380Y15727523D02*
X-11314285Y15613238D01*
X-11314285Y15613238D02*
X-10857142Y15156095D01*
X-10857142Y15156095D02*
X-11352380Y15156095D01*
X-11733333Y15156095D02*
X-11885714Y15156095D01*
X-11885714Y15156095D02*
X-11961904Y15194190D01*
X-11961904Y15194190D02*
X-12000000Y15232285D01*
X-12000000Y15232285D02*
X-12076190Y15346571D01*
X-12076190Y15346571D02*
X-12114285Y15498952D01*
X-12114285Y15498952D02*
X-12114285Y15803714D01*
X-12114285Y15803714D02*
X-12076190Y15879904D01*
X-12076190Y15879904D02*
X-12038095Y15918000D01*
X-12038095Y15918000D02*
X-11961904Y15956095D01*
X-11961904Y15956095D02*
X-11809523Y15956095D01*
X-11809523Y15956095D02*
X-11733333Y15918000D01*
X-11733333Y15918000D02*
X-11695238Y15879904D01*
X-11695238Y15879904D02*
X-11657142Y15803714D01*
X-11657142Y15803714D02*
X-11657142Y15613238D01*
X-11657142Y15613238D02*
X-11695238Y15537047D01*
X-11695238Y15537047D02*
X-11733333Y15498952D01*
X-11733333Y15498952D02*
X-11809523Y15460857D01*
X-11809523Y15460857D02*
X-11961904Y15460857D01*
X-11961904Y15460857D02*
X-12038095Y15498952D01*
X-12038095Y15498952D02*
X-12076190Y15537047D01*
X-12076190Y15537047D02*
X-12114285Y15613238D01*
%TO.C,T15*%
X-22959523Y12856095D02*
X-23416666Y12856095D01*
X-23188094Y12056095D02*
X-23188094Y12856095D01*
X-24102380Y12056095D02*
X-23645237Y12056095D01*
X-23873809Y12056095D02*
X-23873809Y12856095D01*
X-23873809Y12856095D02*
X-23797618Y12741809D01*
X-23797618Y12741809D02*
X-23721428Y12665619D01*
X-23721428Y12665619D02*
X-23645237Y12627523D01*
X-24826190Y12856095D02*
X-24445238Y12856095D01*
X-24445238Y12856095D02*
X-24407142Y12475142D01*
X-24407142Y12475142D02*
X-24445238Y12513238D01*
X-24445238Y12513238D02*
X-24521428Y12551333D01*
X-24521428Y12551333D02*
X-24711904Y12551333D01*
X-24711904Y12551333D02*
X-24788095Y12513238D01*
X-24788095Y12513238D02*
X-24826190Y12475142D01*
X-24826190Y12475142D02*
X-24864285Y12398952D01*
X-24864285Y12398952D02*
X-24864285Y12208476D01*
X-24864285Y12208476D02*
X-24826190Y12132285D01*
X-24826190Y12132285D02*
X-24788095Y12094190D01*
X-24788095Y12094190D02*
X-24711904Y12056095D01*
X-24711904Y12056095D02*
X-24521428Y12056095D01*
X-24521428Y12056095D02*
X-24445238Y12094190D01*
X-24445238Y12094190D02*
X-24407142Y12132285D01*
%TO.C,T19*%
X-8756095Y2990476D02*
X-8756095Y2533333D01*
X-7956095Y2761905D02*
X-8756095Y2761905D01*
X-7956095Y1847619D02*
X-7956095Y2304762D01*
X-7956095Y2076190D02*
X-8756095Y2076190D01*
X-8756095Y2076190D02*
X-8641809Y2152381D01*
X-8641809Y2152381D02*
X-8565619Y2228571D01*
X-8565619Y2228571D02*
X-8527523Y2304762D01*
X-7956095Y1466666D02*
X-7956095Y1314285D01*
X-7956095Y1314285D02*
X-7994190Y1238095D01*
X-7994190Y1238095D02*
X-8032285Y1199999D01*
X-8032285Y1199999D02*
X-8146571Y1123809D01*
X-8146571Y1123809D02*
X-8298952Y1085714D01*
X-8298952Y1085714D02*
X-8603714Y1085714D01*
X-8603714Y1085714D02*
X-8679904Y1123809D01*
X-8679904Y1123809D02*
X-8718000Y1161904D01*
X-8718000Y1161904D02*
X-8756095Y1238095D01*
X-8756095Y1238095D02*
X-8756095Y1390476D01*
X-8756095Y1390476D02*
X-8718000Y1466666D01*
X-8718000Y1466666D02*
X-8679904Y1504761D01*
X-8679904Y1504761D02*
X-8603714Y1542857D01*
X-8603714Y1542857D02*
X-8413238Y1542857D01*
X-8413238Y1542857D02*
X-8337047Y1504761D01*
X-8337047Y1504761D02*
X-8298952Y1466666D01*
X-8298952Y1466666D02*
X-8260857Y1390476D01*
X-8260857Y1390476D02*
X-8260857Y1238095D01*
X-8260857Y1238095D02*
X-8298952Y1161904D01*
X-8298952Y1161904D02*
X-8337047Y1123809D01*
X-8337047Y1123809D02*
X-8413238Y1085714D01*
%TO.C,T51*%
X5390476Y-11843904D02*
X4933333Y-11843904D01*
X5161905Y-12643904D02*
X5161905Y-11843904D01*
X4285714Y-11843904D02*
X4666666Y-11843904D01*
X4666666Y-11843904D02*
X4704762Y-12224857D01*
X4704762Y-12224857D02*
X4666666Y-12186761D01*
X4666666Y-12186761D02*
X4590476Y-12148666D01*
X4590476Y-12148666D02*
X4400000Y-12148666D01*
X4400000Y-12148666D02*
X4323809Y-12186761D01*
X4323809Y-12186761D02*
X4285714Y-12224857D01*
X4285714Y-12224857D02*
X4247619Y-12301047D01*
X4247619Y-12301047D02*
X4247619Y-12491523D01*
X4247619Y-12491523D02*
X4285714Y-12567714D01*
X4285714Y-12567714D02*
X4323809Y-12605809D01*
X4323809Y-12605809D02*
X4400000Y-12643904D01*
X4400000Y-12643904D02*
X4590476Y-12643904D01*
X4590476Y-12643904D02*
X4666666Y-12605809D01*
X4666666Y-12605809D02*
X4704762Y-12567714D01*
X3485714Y-12643904D02*
X3942857Y-12643904D01*
X3714285Y-12643904D02*
X3714285Y-11843904D01*
X3714285Y-11843904D02*
X3790476Y-11958190D01*
X3790476Y-11958190D02*
X3866666Y-12034380D01*
X3866666Y-12034380D02*
X3942857Y-12072476D01*
%TO.C,T5*%
X3393904Y7809523D02*
X3393904Y7352380D01*
X4193904Y7580952D02*
X3393904Y7580952D01*
X3393904Y6704761D02*
X3393904Y7085713D01*
X3393904Y7085713D02*
X3774857Y7123809D01*
X3774857Y7123809D02*
X3736761Y7085713D01*
X3736761Y7085713D02*
X3698666Y7009523D01*
X3698666Y7009523D02*
X3698666Y6819047D01*
X3698666Y6819047D02*
X3736761Y6742856D01*
X3736761Y6742856D02*
X3774857Y6704761D01*
X3774857Y6704761D02*
X3851047Y6666666D01*
X3851047Y6666666D02*
X4041523Y6666666D01*
X4041523Y6666666D02*
X4117714Y6704761D01*
X4117714Y6704761D02*
X4155809Y6742856D01*
X4155809Y6742856D02*
X4193904Y6819047D01*
X4193904Y6819047D02*
X4193904Y7009523D01*
X4193904Y7009523D02*
X4155809Y7085713D01*
X4155809Y7085713D02*
X4117714Y7123809D01*
%TO.C,T38*%
X-1956095Y26140476D02*
X-1956095Y25683333D01*
X-1156095Y25911905D02*
X-1956095Y25911905D01*
X-1956095Y25492857D02*
X-1956095Y24997619D01*
X-1956095Y24997619D02*
X-1651333Y25264285D01*
X-1651333Y25264285D02*
X-1651333Y25150000D01*
X-1651333Y25150000D02*
X-1613238Y25073809D01*
X-1613238Y25073809D02*
X-1575142Y25035714D01*
X-1575142Y25035714D02*
X-1498952Y24997619D01*
X-1498952Y24997619D02*
X-1308476Y24997619D01*
X-1308476Y24997619D02*
X-1232285Y25035714D01*
X-1232285Y25035714D02*
X-1194190Y25073809D01*
X-1194190Y25073809D02*
X-1156095Y25150000D01*
X-1156095Y25150000D02*
X-1156095Y25378571D01*
X-1156095Y25378571D02*
X-1194190Y25454762D01*
X-1194190Y25454762D02*
X-1232285Y25492857D01*
X-1613238Y24540476D02*
X-1651333Y24616666D01*
X-1651333Y24616666D02*
X-1689428Y24654761D01*
X-1689428Y24654761D02*
X-1765619Y24692857D01*
X-1765619Y24692857D02*
X-1803714Y24692857D01*
X-1803714Y24692857D02*
X-1879904Y24654761D01*
X-1879904Y24654761D02*
X-1918000Y24616666D01*
X-1918000Y24616666D02*
X-1956095Y24540476D01*
X-1956095Y24540476D02*
X-1956095Y24388095D01*
X-1956095Y24388095D02*
X-1918000Y24311904D01*
X-1918000Y24311904D02*
X-1879904Y24273809D01*
X-1879904Y24273809D02*
X-1803714Y24235714D01*
X-1803714Y24235714D02*
X-1765619Y24235714D01*
X-1765619Y24235714D02*
X-1689428Y24273809D01*
X-1689428Y24273809D02*
X-1651333Y24311904D01*
X-1651333Y24311904D02*
X-1613238Y24388095D01*
X-1613238Y24388095D02*
X-1613238Y24540476D01*
X-1613238Y24540476D02*
X-1575142Y24616666D01*
X-1575142Y24616666D02*
X-1537047Y24654761D01*
X-1537047Y24654761D02*
X-1460857Y24692857D01*
X-1460857Y24692857D02*
X-1308476Y24692857D01*
X-1308476Y24692857D02*
X-1232285Y24654761D01*
X-1232285Y24654761D02*
X-1194190Y24616666D01*
X-1194190Y24616666D02*
X-1156095Y24540476D01*
X-1156095Y24540476D02*
X-1156095Y24388095D01*
X-1156095Y24388095D02*
X-1194190Y24311904D01*
X-1194190Y24311904D02*
X-1232285Y24273809D01*
X-1232285Y24273809D02*
X-1308476Y24235714D01*
X-1308476Y24235714D02*
X-1460857Y24235714D01*
X-1460857Y24235714D02*
X-1537047Y24273809D01*
X-1537047Y24273809D02*
X-1575142Y24311904D01*
X-1575142Y24311904D02*
X-1613238Y24388095D01*
%TO.C,T18*%
X-5159523Y5906095D02*
X-5616666Y5906095D01*
X-5388094Y5106095D02*
X-5388094Y5906095D01*
X-6302380Y5106095D02*
X-5845237Y5106095D01*
X-6073809Y5106095D02*
X-6073809Y5906095D01*
X-6073809Y5906095D02*
X-5997618Y5791809D01*
X-5997618Y5791809D02*
X-5921428Y5715619D01*
X-5921428Y5715619D02*
X-5845237Y5677523D01*
X-6759523Y5563238D02*
X-6683333Y5601333D01*
X-6683333Y5601333D02*
X-6645238Y5639428D01*
X-6645238Y5639428D02*
X-6607142Y5715619D01*
X-6607142Y5715619D02*
X-6607142Y5753714D01*
X-6607142Y5753714D02*
X-6645238Y5829904D01*
X-6645238Y5829904D02*
X-6683333Y5868000D01*
X-6683333Y5868000D02*
X-6759523Y5906095D01*
X-6759523Y5906095D02*
X-6911904Y5906095D01*
X-6911904Y5906095D02*
X-6988095Y5868000D01*
X-6988095Y5868000D02*
X-7026190Y5829904D01*
X-7026190Y5829904D02*
X-7064285Y5753714D01*
X-7064285Y5753714D02*
X-7064285Y5715619D01*
X-7064285Y5715619D02*
X-7026190Y5639428D01*
X-7026190Y5639428D02*
X-6988095Y5601333D01*
X-6988095Y5601333D02*
X-6911904Y5563238D01*
X-6911904Y5563238D02*
X-6759523Y5563238D01*
X-6759523Y5563238D02*
X-6683333Y5525142D01*
X-6683333Y5525142D02*
X-6645238Y5487047D01*
X-6645238Y5487047D02*
X-6607142Y5410857D01*
X-6607142Y5410857D02*
X-6607142Y5258476D01*
X-6607142Y5258476D02*
X-6645238Y5182285D01*
X-6645238Y5182285D02*
X-6683333Y5144190D01*
X-6683333Y5144190D02*
X-6759523Y5106095D01*
X-6759523Y5106095D02*
X-6911904Y5106095D01*
X-6911904Y5106095D02*
X-6988095Y5144190D01*
X-6988095Y5144190D02*
X-7026190Y5182285D01*
X-7026190Y5182285D02*
X-7064285Y5258476D01*
X-7064285Y5258476D02*
X-7064285Y5410857D01*
X-7064285Y5410857D02*
X-7026190Y5487047D01*
X-7026190Y5487047D02*
X-6988095Y5525142D01*
X-6988095Y5525142D02*
X-6911904Y5563238D01*
%TO.C,T48*%
X3793904Y26140476D02*
X3793904Y25683333D01*
X4593904Y25911905D02*
X3793904Y25911905D01*
X4060571Y25073809D02*
X4593904Y25073809D01*
X3755809Y25264285D02*
X4327238Y25454762D01*
X4327238Y25454762D02*
X4327238Y24959523D01*
X4136761Y24540476D02*
X4098666Y24616666D01*
X4098666Y24616666D02*
X4060571Y24654761D01*
X4060571Y24654761D02*
X3984380Y24692857D01*
X3984380Y24692857D02*
X3946285Y24692857D01*
X3946285Y24692857D02*
X3870095Y24654761D01*
X3870095Y24654761D02*
X3832000Y24616666D01*
X3832000Y24616666D02*
X3793904Y24540476D01*
X3793904Y24540476D02*
X3793904Y24388095D01*
X3793904Y24388095D02*
X3832000Y24311904D01*
X3832000Y24311904D02*
X3870095Y24273809D01*
X3870095Y24273809D02*
X3946285Y24235714D01*
X3946285Y24235714D02*
X3984380Y24235714D01*
X3984380Y24235714D02*
X4060571Y24273809D01*
X4060571Y24273809D02*
X4098666Y24311904D01*
X4098666Y24311904D02*
X4136761Y24388095D01*
X4136761Y24388095D02*
X4136761Y24540476D01*
X4136761Y24540476D02*
X4174857Y24616666D01*
X4174857Y24616666D02*
X4212952Y24654761D01*
X4212952Y24654761D02*
X4289142Y24692857D01*
X4289142Y24692857D02*
X4441523Y24692857D01*
X4441523Y24692857D02*
X4517714Y24654761D01*
X4517714Y24654761D02*
X4555809Y24616666D01*
X4555809Y24616666D02*
X4593904Y24540476D01*
X4593904Y24540476D02*
X4593904Y24388095D01*
X4593904Y24388095D02*
X4555809Y24311904D01*
X4555809Y24311904D02*
X4517714Y24273809D01*
X4517714Y24273809D02*
X4441523Y24235714D01*
X4441523Y24235714D02*
X4289142Y24235714D01*
X4289142Y24235714D02*
X4212952Y24273809D01*
X4212952Y24273809D02*
X4174857Y24311904D01*
X4174857Y24311904D02*
X4136761Y24388095D01*
%TO.C,T34*%
X12043904Y26140476D02*
X12043904Y25683333D01*
X12843904Y25911905D02*
X12043904Y25911905D01*
X12043904Y25492857D02*
X12043904Y24997619D01*
X12043904Y24997619D02*
X12348666Y25264285D01*
X12348666Y25264285D02*
X12348666Y25150000D01*
X12348666Y25150000D02*
X12386761Y25073809D01*
X12386761Y25073809D02*
X12424857Y25035714D01*
X12424857Y25035714D02*
X12501047Y24997619D01*
X12501047Y24997619D02*
X12691523Y24997619D01*
X12691523Y24997619D02*
X12767714Y25035714D01*
X12767714Y25035714D02*
X12805809Y25073809D01*
X12805809Y25073809D02*
X12843904Y25150000D01*
X12843904Y25150000D02*
X12843904Y25378571D01*
X12843904Y25378571D02*
X12805809Y25454762D01*
X12805809Y25454762D02*
X12767714Y25492857D01*
X12310571Y24311904D02*
X12843904Y24311904D01*
X12005809Y24502380D02*
X12577238Y24692857D01*
X12577238Y24692857D02*
X12577238Y24197618D01*
%TO.C,T35*%
X-3959523Y20106095D02*
X-4416666Y20106095D01*
X-4188094Y19306095D02*
X-4188094Y20106095D01*
X-4607142Y20106095D02*
X-5102380Y20106095D01*
X-5102380Y20106095D02*
X-4835714Y19801333D01*
X-4835714Y19801333D02*
X-4949999Y19801333D01*
X-4949999Y19801333D02*
X-5026190Y19763238D01*
X-5026190Y19763238D02*
X-5064285Y19725142D01*
X-5064285Y19725142D02*
X-5102380Y19648952D01*
X-5102380Y19648952D02*
X-5102380Y19458476D01*
X-5102380Y19458476D02*
X-5064285Y19382285D01*
X-5064285Y19382285D02*
X-5026190Y19344190D01*
X-5026190Y19344190D02*
X-4949999Y19306095D01*
X-4949999Y19306095D02*
X-4721428Y19306095D01*
X-4721428Y19306095D02*
X-4645237Y19344190D01*
X-4645237Y19344190D02*
X-4607142Y19382285D01*
X-5826190Y20106095D02*
X-5445238Y20106095D01*
X-5445238Y20106095D02*
X-5407142Y19725142D01*
X-5407142Y19725142D02*
X-5445238Y19763238D01*
X-5445238Y19763238D02*
X-5521428Y19801333D01*
X-5521428Y19801333D02*
X-5711904Y19801333D01*
X-5711904Y19801333D02*
X-5788095Y19763238D01*
X-5788095Y19763238D02*
X-5826190Y19725142D01*
X-5826190Y19725142D02*
X-5864285Y19648952D01*
X-5864285Y19648952D02*
X-5864285Y19458476D01*
X-5864285Y19458476D02*
X-5826190Y19382285D01*
X-5826190Y19382285D02*
X-5788095Y19344190D01*
X-5788095Y19344190D02*
X-5711904Y19306095D01*
X-5711904Y19306095D02*
X-5521428Y19306095D01*
X-5521428Y19306095D02*
X-5445238Y19344190D01*
X-5445238Y19344190D02*
X-5407142Y19382285D01*
%TO.C,T37*%
X93904Y26140476D02*
X93904Y25683333D01*
X893904Y25911905D02*
X93904Y25911905D01*
X93904Y25492857D02*
X93904Y24997619D01*
X93904Y24997619D02*
X398666Y25264285D01*
X398666Y25264285D02*
X398666Y25150000D01*
X398666Y25150000D02*
X436761Y25073809D01*
X436761Y25073809D02*
X474857Y25035714D01*
X474857Y25035714D02*
X551047Y24997619D01*
X551047Y24997619D02*
X741523Y24997619D01*
X741523Y24997619D02*
X817714Y25035714D01*
X817714Y25035714D02*
X855809Y25073809D01*
X855809Y25073809D02*
X893904Y25150000D01*
X893904Y25150000D02*
X893904Y25378571D01*
X893904Y25378571D02*
X855809Y25454762D01*
X855809Y25454762D02*
X817714Y25492857D01*
X93904Y24730952D02*
X93904Y24197618D01*
X93904Y24197618D02*
X893904Y24540476D01*
%TO.C,T25*%
X1540476Y-21643904D02*
X1083333Y-21643904D01*
X1311905Y-22443904D02*
X1311905Y-21643904D01*
X854762Y-21720095D02*
X816666Y-21682000D01*
X816666Y-21682000D02*
X740476Y-21643904D01*
X740476Y-21643904D02*
X550000Y-21643904D01*
X550000Y-21643904D02*
X473809Y-21682000D01*
X473809Y-21682000D02*
X435714Y-21720095D01*
X435714Y-21720095D02*
X397619Y-21796285D01*
X397619Y-21796285D02*
X397619Y-21872476D01*
X397619Y-21872476D02*
X435714Y-21986761D01*
X435714Y-21986761D02*
X892857Y-22443904D01*
X892857Y-22443904D02*
X397619Y-22443904D01*
X-326190Y-21643904D02*
X54761Y-21643904D01*
X54761Y-21643904D02*
X92857Y-22024857D01*
X92857Y-22024857D02*
X54761Y-21986761D01*
X54761Y-21986761D02*
X-21428Y-21948666D01*
X-21428Y-21948666D02*
X-211904Y-21948666D01*
X-211904Y-21948666D02*
X-288095Y-21986761D01*
X-288095Y-21986761D02*
X-326190Y-22024857D01*
X-326190Y-22024857D02*
X-364285Y-22101047D01*
X-364285Y-22101047D02*
X-364285Y-22291523D01*
X-364285Y-22291523D02*
X-326190Y-22367714D01*
X-326190Y-22367714D02*
X-288095Y-22405809D01*
X-288095Y-22405809D02*
X-211904Y-22443904D01*
X-211904Y-22443904D02*
X-21428Y-22443904D01*
X-21428Y-22443904D02*
X54761Y-22405809D01*
X54761Y-22405809D02*
X92857Y-22367714D01*
%TO.C,T46*%
X26290476Y-41893904D02*
X25833333Y-41893904D01*
X26061905Y-42693904D02*
X26061905Y-41893904D01*
X25223809Y-42160571D02*
X25223809Y-42693904D01*
X25414285Y-41855809D02*
X25604762Y-42427238D01*
X25604762Y-42427238D02*
X25109523Y-42427238D01*
X24461904Y-41893904D02*
X24614285Y-41893904D01*
X24614285Y-41893904D02*
X24690476Y-41932000D01*
X24690476Y-41932000D02*
X24728571Y-41970095D01*
X24728571Y-41970095D02*
X24804761Y-42084380D01*
X24804761Y-42084380D02*
X24842857Y-42236761D01*
X24842857Y-42236761D02*
X24842857Y-42541523D01*
X24842857Y-42541523D02*
X24804761Y-42617714D01*
X24804761Y-42617714D02*
X24766666Y-42655809D01*
X24766666Y-42655809D02*
X24690476Y-42693904D01*
X24690476Y-42693904D02*
X24538095Y-42693904D01*
X24538095Y-42693904D02*
X24461904Y-42655809D01*
X24461904Y-42655809D02*
X24423809Y-42617714D01*
X24423809Y-42617714D02*
X24385714Y-42541523D01*
X24385714Y-42541523D02*
X24385714Y-42351047D01*
X24385714Y-42351047D02*
X24423809Y-42274857D01*
X24423809Y-42274857D02*
X24461904Y-42236761D01*
X24461904Y-42236761D02*
X24538095Y-42198666D01*
X24538095Y-42198666D02*
X24690476Y-42198666D01*
X24690476Y-42198666D02*
X24766666Y-42236761D01*
X24766666Y-42236761D02*
X24804761Y-42274857D01*
X24804761Y-42274857D02*
X24842857Y-42351047D01*
%TO.C,T7*%
X27959523Y-4493904D02*
X27502380Y-4493904D01*
X27730952Y-5293904D02*
X27730952Y-4493904D01*
X27311904Y-4493904D02*
X26778570Y-4493904D01*
X26778570Y-4493904D02*
X27121428Y-5293904D01*
%TO.C,T6*%
X13995904Y5209523D02*
X13995904Y4752380D01*
X14795904Y4980952D02*
X13995904Y4980952D01*
X13995904Y4142856D02*
X13995904Y4295237D01*
X13995904Y4295237D02*
X14034000Y4371428D01*
X14034000Y4371428D02*
X14072095Y4409523D01*
X14072095Y4409523D02*
X14186380Y4485713D01*
X14186380Y4485713D02*
X14338761Y4523809D01*
X14338761Y4523809D02*
X14643523Y4523809D01*
X14643523Y4523809D02*
X14719714Y4485713D01*
X14719714Y4485713D02*
X14757809Y4447618D01*
X14757809Y4447618D02*
X14795904Y4371428D01*
X14795904Y4371428D02*
X14795904Y4219047D01*
X14795904Y4219047D02*
X14757809Y4142856D01*
X14757809Y4142856D02*
X14719714Y4104761D01*
X14719714Y4104761D02*
X14643523Y4066666D01*
X14643523Y4066666D02*
X14453047Y4066666D01*
X14453047Y4066666D02*
X14376857Y4104761D01*
X14376857Y4104761D02*
X14338761Y4142856D01*
X14338761Y4142856D02*
X14300666Y4219047D01*
X14300666Y4219047D02*
X14300666Y4371428D01*
X14300666Y4371428D02*
X14338761Y4447618D01*
X14338761Y4447618D02*
X14376857Y4485713D01*
X14376857Y4485713D02*
X14453047Y4523809D01*
%TO.C,T47*%
X9993904Y26140476D02*
X9993904Y25683333D01*
X10793904Y25911905D02*
X9993904Y25911905D01*
X10260571Y25073809D02*
X10793904Y25073809D01*
X9955809Y25264285D02*
X10527238Y25454762D01*
X10527238Y25454762D02*
X10527238Y24959523D01*
X9993904Y24730952D02*
X9993904Y24197618D01*
X9993904Y24197618D02*
X10793904Y24540476D01*
%TO.C,T28*%
X-10209523Y13906095D02*
X-10666666Y13906095D01*
X-10438094Y13106095D02*
X-10438094Y13906095D01*
X-10895237Y13829904D02*
X-10933333Y13868000D01*
X-10933333Y13868000D02*
X-11009523Y13906095D01*
X-11009523Y13906095D02*
X-11199999Y13906095D01*
X-11199999Y13906095D02*
X-11276190Y13868000D01*
X-11276190Y13868000D02*
X-11314285Y13829904D01*
X-11314285Y13829904D02*
X-11352380Y13753714D01*
X-11352380Y13753714D02*
X-11352380Y13677523D01*
X-11352380Y13677523D02*
X-11314285Y13563238D01*
X-11314285Y13563238D02*
X-10857142Y13106095D01*
X-10857142Y13106095D02*
X-11352380Y13106095D01*
X-11809523Y13563238D02*
X-11733333Y13601333D01*
X-11733333Y13601333D02*
X-11695238Y13639428D01*
X-11695238Y13639428D02*
X-11657142Y13715619D01*
X-11657142Y13715619D02*
X-11657142Y13753714D01*
X-11657142Y13753714D02*
X-11695238Y13829904D01*
X-11695238Y13829904D02*
X-11733333Y13868000D01*
X-11733333Y13868000D02*
X-11809523Y13906095D01*
X-11809523Y13906095D02*
X-11961904Y13906095D01*
X-11961904Y13906095D02*
X-12038095Y13868000D01*
X-12038095Y13868000D02*
X-12076190Y13829904D01*
X-12076190Y13829904D02*
X-12114285Y13753714D01*
X-12114285Y13753714D02*
X-12114285Y13715619D01*
X-12114285Y13715619D02*
X-12076190Y13639428D01*
X-12076190Y13639428D02*
X-12038095Y13601333D01*
X-12038095Y13601333D02*
X-11961904Y13563238D01*
X-11961904Y13563238D02*
X-11809523Y13563238D01*
X-11809523Y13563238D02*
X-11733333Y13525142D01*
X-11733333Y13525142D02*
X-11695238Y13487047D01*
X-11695238Y13487047D02*
X-11657142Y13410857D01*
X-11657142Y13410857D02*
X-11657142Y13258476D01*
X-11657142Y13258476D02*
X-11695238Y13182285D01*
X-11695238Y13182285D02*
X-11733333Y13144190D01*
X-11733333Y13144190D02*
X-11809523Y13106095D01*
X-11809523Y13106095D02*
X-11961904Y13106095D01*
X-11961904Y13106095D02*
X-12038095Y13144190D01*
X-12038095Y13144190D02*
X-12076190Y13182285D01*
X-12076190Y13182285D02*
X-12114285Y13258476D01*
X-12114285Y13258476D02*
X-12114285Y13410857D01*
X-12114285Y13410857D02*
X-12076190Y13487047D01*
X-12076190Y13487047D02*
X-12038095Y13525142D01*
X-12038095Y13525142D02*
X-11961904Y13563238D01*
%TO.C,T26*%
X-959523Y-21643904D02*
X-1416666Y-21643904D01*
X-1188094Y-22443904D02*
X-1188094Y-21643904D01*
X-1645237Y-21720095D02*
X-1683333Y-21682000D01*
X-1683333Y-21682000D02*
X-1759523Y-21643904D01*
X-1759523Y-21643904D02*
X-1949999Y-21643904D01*
X-1949999Y-21643904D02*
X-2026190Y-21682000D01*
X-2026190Y-21682000D02*
X-2064285Y-21720095D01*
X-2064285Y-21720095D02*
X-2102380Y-21796285D01*
X-2102380Y-21796285D02*
X-2102380Y-21872476D01*
X-2102380Y-21872476D02*
X-2064285Y-21986761D01*
X-2064285Y-21986761D02*
X-1607142Y-22443904D01*
X-1607142Y-22443904D02*
X-2102380Y-22443904D01*
X-2788095Y-21643904D02*
X-2635714Y-21643904D01*
X-2635714Y-21643904D02*
X-2559523Y-21682000D01*
X-2559523Y-21682000D02*
X-2521428Y-21720095D01*
X-2521428Y-21720095D02*
X-2445238Y-21834380D01*
X-2445238Y-21834380D02*
X-2407142Y-21986761D01*
X-2407142Y-21986761D02*
X-2407142Y-22291523D01*
X-2407142Y-22291523D02*
X-2445238Y-22367714D01*
X-2445238Y-22367714D02*
X-2483333Y-22405809D01*
X-2483333Y-22405809D02*
X-2559523Y-22443904D01*
X-2559523Y-22443904D02*
X-2711904Y-22443904D01*
X-2711904Y-22443904D02*
X-2788095Y-22405809D01*
X-2788095Y-22405809D02*
X-2826190Y-22367714D01*
X-2826190Y-22367714D02*
X-2864285Y-22291523D01*
X-2864285Y-22291523D02*
X-2864285Y-22101047D01*
X-2864285Y-22101047D02*
X-2826190Y-22024857D01*
X-2826190Y-22024857D02*
X-2788095Y-21986761D01*
X-2788095Y-21986761D02*
X-2711904Y-21948666D01*
X-2711904Y-21948666D02*
X-2559523Y-21948666D01*
X-2559523Y-21948666D02*
X-2483333Y-21986761D01*
X-2483333Y-21986761D02*
X-2445238Y-22024857D01*
X-2445238Y-22024857D02*
X-2407142Y-22101047D01*
%TO.C,T39*%
X-4309523Y8806095D02*
X-4766666Y8806095D01*
X-4538094Y8006095D02*
X-4538094Y8806095D01*
X-4957142Y8806095D02*
X-5452380Y8806095D01*
X-5452380Y8806095D02*
X-5185714Y8501333D01*
X-5185714Y8501333D02*
X-5299999Y8501333D01*
X-5299999Y8501333D02*
X-5376190Y8463238D01*
X-5376190Y8463238D02*
X-5414285Y8425142D01*
X-5414285Y8425142D02*
X-5452380Y8348952D01*
X-5452380Y8348952D02*
X-5452380Y8158476D01*
X-5452380Y8158476D02*
X-5414285Y8082285D01*
X-5414285Y8082285D02*
X-5376190Y8044190D01*
X-5376190Y8044190D02*
X-5299999Y8006095D01*
X-5299999Y8006095D02*
X-5071428Y8006095D01*
X-5071428Y8006095D02*
X-4995237Y8044190D01*
X-4995237Y8044190D02*
X-4957142Y8082285D01*
X-5833333Y8006095D02*
X-5985714Y8006095D01*
X-5985714Y8006095D02*
X-6061904Y8044190D01*
X-6061904Y8044190D02*
X-6100000Y8082285D01*
X-6100000Y8082285D02*
X-6176190Y8196571D01*
X-6176190Y8196571D02*
X-6214285Y8348952D01*
X-6214285Y8348952D02*
X-6214285Y8653714D01*
X-6214285Y8653714D02*
X-6176190Y8729904D01*
X-6176190Y8729904D02*
X-6138095Y8768000D01*
X-6138095Y8768000D02*
X-6061904Y8806095D01*
X-6061904Y8806095D02*
X-5909523Y8806095D01*
X-5909523Y8806095D02*
X-5833333Y8768000D01*
X-5833333Y8768000D02*
X-5795238Y8729904D01*
X-5795238Y8729904D02*
X-5757142Y8653714D01*
X-5757142Y8653714D02*
X-5757142Y8463238D01*
X-5757142Y8463238D02*
X-5795238Y8387047D01*
X-5795238Y8387047D02*
X-5833333Y8348952D01*
X-5833333Y8348952D02*
X-5909523Y8310857D01*
X-5909523Y8310857D02*
X-6061904Y8310857D01*
X-6061904Y8310857D02*
X-6138095Y8348952D01*
X-6138095Y8348952D02*
X-6176190Y8387047D01*
X-6176190Y8387047D02*
X-6214285Y8463238D01*
%TO.C,T20*%
X-10856095Y2990476D02*
X-10856095Y2533333D01*
X-10056095Y2761905D02*
X-10856095Y2761905D01*
X-10779904Y2304762D02*
X-10818000Y2266666D01*
X-10818000Y2266666D02*
X-10856095Y2190476D01*
X-10856095Y2190476D02*
X-10856095Y2000000D01*
X-10856095Y2000000D02*
X-10818000Y1923809D01*
X-10818000Y1923809D02*
X-10779904Y1885714D01*
X-10779904Y1885714D02*
X-10703714Y1847619D01*
X-10703714Y1847619D02*
X-10627523Y1847619D01*
X-10627523Y1847619D02*
X-10513238Y1885714D01*
X-10513238Y1885714D02*
X-10056095Y2342857D01*
X-10056095Y2342857D02*
X-10056095Y1847619D01*
X-10856095Y1352380D02*
X-10856095Y1276190D01*
X-10856095Y1276190D02*
X-10818000Y1199999D01*
X-10818000Y1199999D02*
X-10779904Y1161904D01*
X-10779904Y1161904D02*
X-10703714Y1123809D01*
X-10703714Y1123809D02*
X-10551333Y1085714D01*
X-10551333Y1085714D02*
X-10360857Y1085714D01*
X-10360857Y1085714D02*
X-10208476Y1123809D01*
X-10208476Y1123809D02*
X-10132285Y1161904D01*
X-10132285Y1161904D02*
X-10094190Y1199999D01*
X-10094190Y1199999D02*
X-10056095Y1276190D01*
X-10056095Y1276190D02*
X-10056095Y1352380D01*
X-10056095Y1352380D02*
X-10094190Y1428571D01*
X-10094190Y1428571D02*
X-10132285Y1466666D01*
X-10132285Y1466666D02*
X-10208476Y1504761D01*
X-10208476Y1504761D02*
X-10360857Y1542857D01*
X-10360857Y1542857D02*
X-10551333Y1542857D01*
X-10551333Y1542857D02*
X-10703714Y1504761D01*
X-10703714Y1504761D02*
X-10779904Y1466666D01*
X-10779904Y1466666D02*
X-10818000Y1428571D01*
X-10818000Y1428571D02*
X-10856095Y1352380D01*
%TO.C,T13*%
X-13509523Y53956095D02*
X-13966666Y53956095D01*
X-13738094Y53156095D02*
X-13738094Y53956095D01*
X-14652380Y53156095D02*
X-14195237Y53156095D01*
X-14423809Y53156095D02*
X-14423809Y53956095D01*
X-14423809Y53956095D02*
X-14347618Y53841809D01*
X-14347618Y53841809D02*
X-14271428Y53765619D01*
X-14271428Y53765619D02*
X-14195237Y53727523D01*
X-14919047Y53956095D02*
X-15414285Y53956095D01*
X-15414285Y53956095D02*
X-15147619Y53651333D01*
X-15147619Y53651333D02*
X-15261904Y53651333D01*
X-15261904Y53651333D02*
X-15338095Y53613238D01*
X-15338095Y53613238D02*
X-15376190Y53575142D01*
X-15376190Y53575142D02*
X-15414285Y53498952D01*
X-15414285Y53498952D02*
X-15414285Y53308476D01*
X-15414285Y53308476D02*
X-15376190Y53232285D01*
X-15376190Y53232285D02*
X-15338095Y53194190D01*
X-15338095Y53194190D02*
X-15261904Y53156095D01*
X-15261904Y53156095D02*
X-15033333Y53156095D01*
X-15033333Y53156095D02*
X-14957142Y53194190D01*
X-14957142Y53194190D02*
X-14919047Y53232285D01*
%TO.C,T52*%
X2343904Y8590476D02*
X2343904Y8133333D01*
X3143904Y8361905D02*
X2343904Y8361905D01*
X2343904Y7485714D02*
X2343904Y7866666D01*
X2343904Y7866666D02*
X2724857Y7904762D01*
X2724857Y7904762D02*
X2686761Y7866666D01*
X2686761Y7866666D02*
X2648666Y7790476D01*
X2648666Y7790476D02*
X2648666Y7600000D01*
X2648666Y7600000D02*
X2686761Y7523809D01*
X2686761Y7523809D02*
X2724857Y7485714D01*
X2724857Y7485714D02*
X2801047Y7447619D01*
X2801047Y7447619D02*
X2991523Y7447619D01*
X2991523Y7447619D02*
X3067714Y7485714D01*
X3067714Y7485714D02*
X3105809Y7523809D01*
X3105809Y7523809D02*
X3143904Y7600000D01*
X3143904Y7600000D02*
X3143904Y7790476D01*
X3143904Y7790476D02*
X3105809Y7866666D01*
X3105809Y7866666D02*
X3067714Y7904762D01*
X2420095Y7142857D02*
X2382000Y7104761D01*
X2382000Y7104761D02*
X2343904Y7028571D01*
X2343904Y7028571D02*
X2343904Y6838095D01*
X2343904Y6838095D02*
X2382000Y6761904D01*
X2382000Y6761904D02*
X2420095Y6723809D01*
X2420095Y6723809D02*
X2496285Y6685714D01*
X2496285Y6685714D02*
X2572476Y6685714D01*
X2572476Y6685714D02*
X2686761Y6723809D01*
X2686761Y6723809D02*
X3143904Y7180952D01*
X3143904Y7180952D02*
X3143904Y6685714D01*
%TO.C,T12*%
X-7859523Y39606095D02*
X-8316666Y39606095D01*
X-8088094Y38806095D02*
X-8088094Y39606095D01*
X-9002380Y38806095D02*
X-8545237Y38806095D01*
X-8773809Y38806095D02*
X-8773809Y39606095D01*
X-8773809Y39606095D02*
X-8697618Y39491809D01*
X-8697618Y39491809D02*
X-8621428Y39415619D01*
X-8621428Y39415619D02*
X-8545237Y39377523D01*
X-9307142Y39529904D02*
X-9345238Y39568000D01*
X-9345238Y39568000D02*
X-9421428Y39606095D01*
X-9421428Y39606095D02*
X-9611904Y39606095D01*
X-9611904Y39606095D02*
X-9688095Y39568000D01*
X-9688095Y39568000D02*
X-9726190Y39529904D01*
X-9726190Y39529904D02*
X-9764285Y39453714D01*
X-9764285Y39453714D02*
X-9764285Y39377523D01*
X-9764285Y39377523D02*
X-9726190Y39263238D01*
X-9726190Y39263238D02*
X-9269047Y38806095D01*
X-9269047Y38806095D02*
X-9764285Y38806095D01*
%TO.C,T49*%
X22240476Y18456095D02*
X21783333Y18456095D01*
X22011905Y17656095D02*
X22011905Y18456095D01*
X21173809Y18189428D02*
X21173809Y17656095D01*
X21364285Y18494190D02*
X21554762Y17922761D01*
X21554762Y17922761D02*
X21059523Y17922761D01*
X20716666Y17656095D02*
X20564285Y17656095D01*
X20564285Y17656095D02*
X20488095Y17694190D01*
X20488095Y17694190D02*
X20449999Y17732285D01*
X20449999Y17732285D02*
X20373809Y17846571D01*
X20373809Y17846571D02*
X20335714Y17998952D01*
X20335714Y17998952D02*
X20335714Y18303714D01*
X20335714Y18303714D02*
X20373809Y18379904D01*
X20373809Y18379904D02*
X20411904Y18418000D01*
X20411904Y18418000D02*
X20488095Y18456095D01*
X20488095Y18456095D02*
X20640476Y18456095D01*
X20640476Y18456095D02*
X20716666Y18418000D01*
X20716666Y18418000D02*
X20754761Y18379904D01*
X20754761Y18379904D02*
X20792857Y18303714D01*
X20792857Y18303714D02*
X20792857Y18113238D01*
X20792857Y18113238D02*
X20754761Y18037047D01*
X20754761Y18037047D02*
X20716666Y17998952D01*
X20716666Y17998952D02*
X20640476Y17960857D01*
X20640476Y17960857D02*
X20488095Y17960857D01*
X20488095Y17960857D02*
X20411904Y17998952D01*
X20411904Y17998952D02*
X20373809Y18037047D01*
X20373809Y18037047D02*
X20335714Y18113238D01*
%TO.C,T43*%
X22190476Y16406095D02*
X21733333Y16406095D01*
X21961905Y15606095D02*
X21961905Y16406095D01*
X21123809Y16139428D02*
X21123809Y15606095D01*
X21314285Y16444190D02*
X21504762Y15872761D01*
X21504762Y15872761D02*
X21009523Y15872761D01*
X20780952Y16406095D02*
X20285714Y16406095D01*
X20285714Y16406095D02*
X20552380Y16101333D01*
X20552380Y16101333D02*
X20438095Y16101333D01*
X20438095Y16101333D02*
X20361904Y16063238D01*
X20361904Y16063238D02*
X20323809Y16025142D01*
X20323809Y16025142D02*
X20285714Y15948952D01*
X20285714Y15948952D02*
X20285714Y15758476D01*
X20285714Y15758476D02*
X20323809Y15682285D01*
X20323809Y15682285D02*
X20361904Y15644190D01*
X20361904Y15644190D02*
X20438095Y15606095D01*
X20438095Y15606095D02*
X20666666Y15606095D01*
X20666666Y15606095D02*
X20742857Y15644190D01*
X20742857Y15644190D02*
X20780952Y15682285D01*
%TO.C,T30*%
X-10209523Y17956095D02*
X-10666666Y17956095D01*
X-10438094Y17156095D02*
X-10438094Y17956095D01*
X-10857142Y17956095D02*
X-11352380Y17956095D01*
X-11352380Y17956095D02*
X-11085714Y17651333D01*
X-11085714Y17651333D02*
X-11199999Y17651333D01*
X-11199999Y17651333D02*
X-11276190Y17613238D01*
X-11276190Y17613238D02*
X-11314285Y17575142D01*
X-11314285Y17575142D02*
X-11352380Y17498952D01*
X-11352380Y17498952D02*
X-11352380Y17308476D01*
X-11352380Y17308476D02*
X-11314285Y17232285D01*
X-11314285Y17232285D02*
X-11276190Y17194190D01*
X-11276190Y17194190D02*
X-11199999Y17156095D01*
X-11199999Y17156095D02*
X-10971428Y17156095D01*
X-10971428Y17156095D02*
X-10895237Y17194190D01*
X-10895237Y17194190D02*
X-10857142Y17232285D01*
X-11847619Y17956095D02*
X-11923809Y17956095D01*
X-11923809Y17956095D02*
X-12000000Y17918000D01*
X-12000000Y17918000D02*
X-12038095Y17879904D01*
X-12038095Y17879904D02*
X-12076190Y17803714D01*
X-12076190Y17803714D02*
X-12114285Y17651333D01*
X-12114285Y17651333D02*
X-12114285Y17460857D01*
X-12114285Y17460857D02*
X-12076190Y17308476D01*
X-12076190Y17308476D02*
X-12038095Y17232285D01*
X-12038095Y17232285D02*
X-12000000Y17194190D01*
X-12000000Y17194190D02*
X-11923809Y17156095D01*
X-11923809Y17156095D02*
X-11847619Y17156095D01*
X-11847619Y17156095D02*
X-11771428Y17194190D01*
X-11771428Y17194190D02*
X-11733333Y17232285D01*
X-11733333Y17232285D02*
X-11695238Y17308476D01*
X-11695238Y17308476D02*
X-11657142Y17460857D01*
X-11657142Y17460857D02*
X-11657142Y17651333D01*
X-11657142Y17651333D02*
X-11695238Y17803714D01*
X-11695238Y17803714D02*
X-11733333Y17879904D01*
X-11733333Y17879904D02*
X-11771428Y17918000D01*
X-11771428Y17918000D02*
X-11847619Y17956095D01*
%TO.C,T16*%
X-20409523Y15906095D02*
X-20866666Y15906095D01*
X-20638094Y15106095D02*
X-20638094Y15906095D01*
X-21552380Y15106095D02*
X-21095237Y15106095D01*
X-21323809Y15106095D02*
X-21323809Y15906095D01*
X-21323809Y15906095D02*
X-21247618Y15791809D01*
X-21247618Y15791809D02*
X-21171428Y15715619D01*
X-21171428Y15715619D02*
X-21095237Y15677523D01*
X-22238095Y15906095D02*
X-22085714Y15906095D01*
X-22085714Y15906095D02*
X-22009523Y15868000D01*
X-22009523Y15868000D02*
X-21971428Y15829904D01*
X-21971428Y15829904D02*
X-21895238Y15715619D01*
X-21895238Y15715619D02*
X-21857142Y15563238D01*
X-21857142Y15563238D02*
X-21857142Y15258476D01*
X-21857142Y15258476D02*
X-21895238Y15182285D01*
X-21895238Y15182285D02*
X-21933333Y15144190D01*
X-21933333Y15144190D02*
X-22009523Y15106095D01*
X-22009523Y15106095D02*
X-22161904Y15106095D01*
X-22161904Y15106095D02*
X-22238095Y15144190D01*
X-22238095Y15144190D02*
X-22276190Y15182285D01*
X-22276190Y15182285D02*
X-22314285Y15258476D01*
X-22314285Y15258476D02*
X-22314285Y15448952D01*
X-22314285Y15448952D02*
X-22276190Y15525142D01*
X-22276190Y15525142D02*
X-22238095Y15563238D01*
X-22238095Y15563238D02*
X-22161904Y15601333D01*
X-22161904Y15601333D02*
X-22009523Y15601333D01*
X-22009523Y15601333D02*
X-21933333Y15563238D01*
X-21933333Y15563238D02*
X-21895238Y15525142D01*
X-21895238Y15525142D02*
X-21857142Y15448952D01*
%TO.C,J1*%
X-4933333Y30656095D02*
X-4933333Y30084666D01*
X-4933333Y30084666D02*
X-4895238Y29970380D01*
X-4895238Y29970380D02*
X-4819047Y29894190D01*
X-4819047Y29894190D02*
X-4704762Y29856095D01*
X-4704762Y29856095D02*
X-4628571Y29856095D01*
X-5733333Y29856095D02*
X-5276190Y29856095D01*
X-5504762Y29856095D02*
X-5504762Y30656095D01*
X-5504762Y30656095D02*
X-5428571Y30541809D01*
X-5428571Y30541809D02*
X-5352381Y30465619D01*
X-5352381Y30465619D02*
X-5276190Y30427523D01*
%TO.C,T23*%
X8193904Y-28709523D02*
X8193904Y-29166666D01*
X8993904Y-28938094D02*
X8193904Y-28938094D01*
X8270095Y-29395237D02*
X8232000Y-29433333D01*
X8232000Y-29433333D02*
X8193904Y-29509523D01*
X8193904Y-29509523D02*
X8193904Y-29699999D01*
X8193904Y-29699999D02*
X8232000Y-29776190D01*
X8232000Y-29776190D02*
X8270095Y-29814285D01*
X8270095Y-29814285D02*
X8346285Y-29852380D01*
X8346285Y-29852380D02*
X8422476Y-29852380D01*
X8422476Y-29852380D02*
X8536761Y-29814285D01*
X8536761Y-29814285D02*
X8993904Y-29357142D01*
X8993904Y-29357142D02*
X8993904Y-29852380D01*
X8193904Y-30119047D02*
X8193904Y-30614285D01*
X8193904Y-30614285D02*
X8498666Y-30347619D01*
X8498666Y-30347619D02*
X8498666Y-30461904D01*
X8498666Y-30461904D02*
X8536761Y-30538095D01*
X8536761Y-30538095D02*
X8574857Y-30576190D01*
X8574857Y-30576190D02*
X8651047Y-30614285D01*
X8651047Y-30614285D02*
X8841523Y-30614285D01*
X8841523Y-30614285D02*
X8917714Y-30576190D01*
X8917714Y-30576190D02*
X8955809Y-30538095D01*
X8955809Y-30538095D02*
X8993904Y-30461904D01*
X8993904Y-30461904D02*
X8993904Y-30233333D01*
X8993904Y-30233333D02*
X8955809Y-30157142D01*
X8955809Y-30157142D02*
X8917714Y-30119047D01*
%TO.C,J9*%
X7866666Y30654095D02*
X7866666Y30082666D01*
X7866666Y30082666D02*
X7904761Y29968380D01*
X7904761Y29968380D02*
X7980952Y29892190D01*
X7980952Y29892190D02*
X8095237Y29854095D01*
X8095237Y29854095D02*
X8171428Y29854095D01*
X7447618Y29854095D02*
X7295237Y29854095D01*
X7295237Y29854095D02*
X7219047Y29892190D01*
X7219047Y29892190D02*
X7180951Y29930285D01*
X7180951Y29930285D02*
X7104761Y30044571D01*
X7104761Y30044571D02*
X7066666Y30196952D01*
X7066666Y30196952D02*
X7066666Y30501714D01*
X7066666Y30501714D02*
X7104761Y30577904D01*
X7104761Y30577904D02*
X7142856Y30616000D01*
X7142856Y30616000D02*
X7219047Y30654095D01*
X7219047Y30654095D02*
X7371428Y30654095D01*
X7371428Y30654095D02*
X7447618Y30616000D01*
X7447618Y30616000D02*
X7485713Y30577904D01*
X7485713Y30577904D02*
X7523809Y30501714D01*
X7523809Y30501714D02*
X7523809Y30311238D01*
X7523809Y30311238D02*
X7485713Y30235047D01*
X7485713Y30235047D02*
X7447618Y30196952D01*
X7447618Y30196952D02*
X7371428Y30158857D01*
X7371428Y30158857D02*
X7219047Y30158857D01*
X7219047Y30158857D02*
X7142856Y30196952D01*
X7142856Y30196952D02*
X7104761Y30235047D01*
X7104761Y30235047D02*
X7066666Y30311238D01*
%TO.C,T8*%
X-7874076Y31620895D02*
X-8331219Y31620895D01*
X-8102647Y30820895D02*
X-8102647Y31620895D01*
X-8712171Y31278038D02*
X-8635981Y31316133D01*
X-8635981Y31316133D02*
X-8597886Y31354228D01*
X-8597886Y31354228D02*
X-8559790Y31430419D01*
X-8559790Y31430419D02*
X-8559790Y31468514D01*
X-8559790Y31468514D02*
X-8597886Y31544704D01*
X-8597886Y31544704D02*
X-8635981Y31582800D01*
X-8635981Y31582800D02*
X-8712171Y31620895D01*
X-8712171Y31620895D02*
X-8864552Y31620895D01*
X-8864552Y31620895D02*
X-8940743Y31582800D01*
X-8940743Y31582800D02*
X-8978838Y31544704D01*
X-8978838Y31544704D02*
X-9016933Y31468514D01*
X-9016933Y31468514D02*
X-9016933Y31430419D01*
X-9016933Y31430419D02*
X-8978838Y31354228D01*
X-8978838Y31354228D02*
X-8940743Y31316133D01*
X-8940743Y31316133D02*
X-8864552Y31278038D01*
X-8864552Y31278038D02*
X-8712171Y31278038D01*
X-8712171Y31278038D02*
X-8635981Y31239942D01*
X-8635981Y31239942D02*
X-8597886Y31201847D01*
X-8597886Y31201847D02*
X-8559790Y31125657D01*
X-8559790Y31125657D02*
X-8559790Y30973276D01*
X-8559790Y30973276D02*
X-8597886Y30897085D01*
X-8597886Y30897085D02*
X-8635981Y30858990D01*
X-8635981Y30858990D02*
X-8712171Y30820895D01*
X-8712171Y30820895D02*
X-8864552Y30820895D01*
X-8864552Y30820895D02*
X-8940743Y30858990D01*
X-8940743Y30858990D02*
X-8978838Y30897085D01*
X-8978838Y30897085D02*
X-9016933Y30973276D01*
X-9016933Y30973276D02*
X-9016933Y31125657D01*
X-9016933Y31125657D02*
X-8978838Y31201847D01*
X-8978838Y31201847D02*
X-8940743Y31239942D01*
X-8940743Y31239942D02*
X-8864552Y31278038D01*
%TO.C,T9*%
X-7874076Y28572895D02*
X-8331219Y28572895D01*
X-8102647Y27772895D02*
X-8102647Y28572895D01*
X-8635981Y27772895D02*
X-8788362Y27772895D01*
X-8788362Y27772895D02*
X-8864552Y27810990D01*
X-8864552Y27810990D02*
X-8902648Y27849085D01*
X-8902648Y27849085D02*
X-8978838Y27963371D01*
X-8978838Y27963371D02*
X-9016933Y28115752D01*
X-9016933Y28115752D02*
X-9016933Y28420514D01*
X-9016933Y28420514D02*
X-8978838Y28496704D01*
X-8978838Y28496704D02*
X-8940743Y28534800D01*
X-8940743Y28534800D02*
X-8864552Y28572895D01*
X-8864552Y28572895D02*
X-8712171Y28572895D01*
X-8712171Y28572895D02*
X-8635981Y28534800D01*
X-8635981Y28534800D02*
X-8597886Y28496704D01*
X-8597886Y28496704D02*
X-8559790Y28420514D01*
X-8559790Y28420514D02*
X-8559790Y28230038D01*
X-8559790Y28230038D02*
X-8597886Y28153847D01*
X-8597886Y28153847D02*
X-8635981Y28115752D01*
X-8635981Y28115752D02*
X-8712171Y28077657D01*
X-8712171Y28077657D02*
X-8864552Y28077657D01*
X-8864552Y28077657D02*
X-8940743Y28115752D01*
X-8940743Y28115752D02*
X-8978838Y28153847D01*
X-8978838Y28153847D02*
X-9016933Y28230038D01*
%TO.C,T44*%
X26340476Y-37693904D02*
X25883333Y-37693904D01*
X26111905Y-38493904D02*
X26111905Y-37693904D01*
X25273809Y-37960571D02*
X25273809Y-38493904D01*
X25464285Y-37655809D02*
X25654762Y-38227238D01*
X25654762Y-38227238D02*
X25159523Y-38227238D01*
X24511904Y-37960571D02*
X24511904Y-38493904D01*
X24702380Y-37655809D02*
X24892857Y-38227238D01*
X24892857Y-38227238D02*
X24397618Y-38227238D01*
%TO.C,T3*%
X-12340476Y-16243904D02*
X-12797619Y-16243904D01*
X-12569047Y-17043904D02*
X-12569047Y-16243904D01*
X-12988095Y-16243904D02*
X-13483333Y-16243904D01*
X-13483333Y-16243904D02*
X-13216667Y-16548666D01*
X-13216667Y-16548666D02*
X-13330952Y-16548666D01*
X-13330952Y-16548666D02*
X-13407143Y-16586761D01*
X-13407143Y-16586761D02*
X-13445238Y-16624857D01*
X-13445238Y-16624857D02*
X-13483333Y-16701047D01*
X-13483333Y-16701047D02*
X-13483333Y-16891523D01*
X-13483333Y-16891523D02*
X-13445238Y-16967714D01*
X-13445238Y-16967714D02*
X-13407143Y-17005809D01*
X-13407143Y-17005809D02*
X-13330952Y-17043904D01*
X-13330952Y-17043904D02*
X-13102381Y-17043904D01*
X-13102381Y-17043904D02*
X-13026190Y-17005809D01*
X-13026190Y-17005809D02*
X-12988095Y-16967714D01*
%TO.C,T21*%
X13240476Y-4443904D02*
X12783333Y-4443904D01*
X13011905Y-5243904D02*
X13011905Y-4443904D01*
X12554762Y-4520095D02*
X12516666Y-4482000D01*
X12516666Y-4482000D02*
X12440476Y-4443904D01*
X12440476Y-4443904D02*
X12250000Y-4443904D01*
X12250000Y-4443904D02*
X12173809Y-4482000D01*
X12173809Y-4482000D02*
X12135714Y-4520095D01*
X12135714Y-4520095D02*
X12097619Y-4596285D01*
X12097619Y-4596285D02*
X12097619Y-4672476D01*
X12097619Y-4672476D02*
X12135714Y-4786761D01*
X12135714Y-4786761D02*
X12592857Y-5243904D01*
X12592857Y-5243904D02*
X12097619Y-5243904D01*
X11335714Y-5243904D02*
X11792857Y-5243904D01*
X11564285Y-5243904D02*
X11564285Y-4443904D01*
X11564285Y-4443904D02*
X11640476Y-4558190D01*
X11640476Y-4558190D02*
X11716666Y-4634380D01*
X11716666Y-4634380D02*
X11792857Y-4672476D01*
%TO.C,T24*%
X-2459523Y-30943904D02*
X-2916666Y-30943904D01*
X-2688094Y-31743904D02*
X-2688094Y-30943904D01*
X-3145237Y-31020095D02*
X-3183333Y-30982000D01*
X-3183333Y-30982000D02*
X-3259523Y-30943904D01*
X-3259523Y-30943904D02*
X-3449999Y-30943904D01*
X-3449999Y-30943904D02*
X-3526190Y-30982000D01*
X-3526190Y-30982000D02*
X-3564285Y-31020095D01*
X-3564285Y-31020095D02*
X-3602380Y-31096285D01*
X-3602380Y-31096285D02*
X-3602380Y-31172476D01*
X-3602380Y-31172476D02*
X-3564285Y-31286761D01*
X-3564285Y-31286761D02*
X-3107142Y-31743904D01*
X-3107142Y-31743904D02*
X-3602380Y-31743904D01*
X-4288095Y-31210571D02*
X-4288095Y-31743904D01*
X-4097619Y-30905809D02*
X-3907142Y-31477238D01*
X-3907142Y-31477238D02*
X-4402381Y-31477238D01*
%TO.C,T31*%
X-10209523Y20006095D02*
X-10666666Y20006095D01*
X-10438094Y19206095D02*
X-10438094Y20006095D01*
X-10857142Y20006095D02*
X-11352380Y20006095D01*
X-11352380Y20006095D02*
X-11085714Y19701333D01*
X-11085714Y19701333D02*
X-11199999Y19701333D01*
X-11199999Y19701333D02*
X-11276190Y19663238D01*
X-11276190Y19663238D02*
X-11314285Y19625142D01*
X-11314285Y19625142D02*
X-11352380Y19548952D01*
X-11352380Y19548952D02*
X-11352380Y19358476D01*
X-11352380Y19358476D02*
X-11314285Y19282285D01*
X-11314285Y19282285D02*
X-11276190Y19244190D01*
X-11276190Y19244190D02*
X-11199999Y19206095D01*
X-11199999Y19206095D02*
X-10971428Y19206095D01*
X-10971428Y19206095D02*
X-10895237Y19244190D01*
X-10895237Y19244190D02*
X-10857142Y19282285D01*
X-12114285Y19206095D02*
X-11657142Y19206095D01*
X-11885714Y19206095D02*
X-11885714Y20006095D01*
X-11885714Y20006095D02*
X-11809523Y19891809D01*
X-11809523Y19891809D02*
X-11733333Y19815619D01*
X-11733333Y19815619D02*
X-11657142Y19777523D01*
%TO.C,T50*%
X5843904Y26140476D02*
X5843904Y25683333D01*
X6643904Y25911905D02*
X5843904Y25911905D01*
X5843904Y25035714D02*
X5843904Y25416666D01*
X5843904Y25416666D02*
X6224857Y25454762D01*
X6224857Y25454762D02*
X6186761Y25416666D01*
X6186761Y25416666D02*
X6148666Y25340476D01*
X6148666Y25340476D02*
X6148666Y25150000D01*
X6148666Y25150000D02*
X6186761Y25073809D01*
X6186761Y25073809D02*
X6224857Y25035714D01*
X6224857Y25035714D02*
X6301047Y24997619D01*
X6301047Y24997619D02*
X6491523Y24997619D01*
X6491523Y24997619D02*
X6567714Y25035714D01*
X6567714Y25035714D02*
X6605809Y25073809D01*
X6605809Y25073809D02*
X6643904Y25150000D01*
X6643904Y25150000D02*
X6643904Y25340476D01*
X6643904Y25340476D02*
X6605809Y25416666D01*
X6605809Y25416666D02*
X6567714Y25454762D01*
X5843904Y24502380D02*
X5843904Y24426190D01*
X5843904Y24426190D02*
X5882000Y24349999D01*
X5882000Y24349999D02*
X5920095Y24311904D01*
X5920095Y24311904D02*
X5996285Y24273809D01*
X5996285Y24273809D02*
X6148666Y24235714D01*
X6148666Y24235714D02*
X6339142Y24235714D01*
X6339142Y24235714D02*
X6491523Y24273809D01*
X6491523Y24273809D02*
X6567714Y24311904D01*
X6567714Y24311904D02*
X6605809Y24349999D01*
X6605809Y24349999D02*
X6643904Y24426190D01*
X6643904Y24426190D02*
X6643904Y24502380D01*
X6643904Y24502380D02*
X6605809Y24578571D01*
X6605809Y24578571D02*
X6567714Y24616666D01*
X6567714Y24616666D02*
X6491523Y24654761D01*
X6491523Y24654761D02*
X6339142Y24692857D01*
X6339142Y24692857D02*
X6148666Y24692857D01*
X6148666Y24692857D02*
X5996285Y24654761D01*
X5996285Y24654761D02*
X5920095Y24616666D01*
X5920095Y24616666D02*
X5882000Y24578571D01*
X5882000Y24578571D02*
X5843904Y24502380D01*
%TO.C,T14*%
X-22909523Y15906095D02*
X-23366666Y15906095D01*
X-23138094Y15106095D02*
X-23138094Y15906095D01*
X-24052380Y15106095D02*
X-23595237Y15106095D01*
X-23823809Y15106095D02*
X-23823809Y15906095D01*
X-23823809Y15906095D02*
X-23747618Y15791809D01*
X-23747618Y15791809D02*
X-23671428Y15715619D01*
X-23671428Y15715619D02*
X-23595237Y15677523D01*
X-24738095Y15639428D02*
X-24738095Y15106095D01*
X-24547619Y15944190D02*
X-24357142Y15372761D01*
X-24357142Y15372761D02*
X-24852381Y15372761D01*
%TO.C,T27*%
X-10159523Y11856095D02*
X-10616666Y11856095D01*
X-10388094Y11056095D02*
X-10388094Y11856095D01*
X-10845237Y11779904D02*
X-10883333Y11818000D01*
X-10883333Y11818000D02*
X-10959523Y11856095D01*
X-10959523Y11856095D02*
X-11149999Y11856095D01*
X-11149999Y11856095D02*
X-11226190Y11818000D01*
X-11226190Y11818000D02*
X-11264285Y11779904D01*
X-11264285Y11779904D02*
X-11302380Y11703714D01*
X-11302380Y11703714D02*
X-11302380Y11627523D01*
X-11302380Y11627523D02*
X-11264285Y11513238D01*
X-11264285Y11513238D02*
X-10807142Y11056095D01*
X-10807142Y11056095D02*
X-11302380Y11056095D01*
X-11569047Y11856095D02*
X-12102381Y11856095D01*
X-12102381Y11856095D02*
X-11759523Y11056095D01*
%TO.C,T45*%
X26290476Y-39793904D02*
X25833333Y-39793904D01*
X26061905Y-40593904D02*
X26061905Y-39793904D01*
X25223809Y-40060571D02*
X25223809Y-40593904D01*
X25414285Y-39755809D02*
X25604762Y-40327238D01*
X25604762Y-40327238D02*
X25109523Y-40327238D01*
X24423809Y-39793904D02*
X24804761Y-39793904D01*
X24804761Y-39793904D02*
X24842857Y-40174857D01*
X24842857Y-40174857D02*
X24804761Y-40136761D01*
X24804761Y-40136761D02*
X24728571Y-40098666D01*
X24728571Y-40098666D02*
X24538095Y-40098666D01*
X24538095Y-40098666D02*
X24461904Y-40136761D01*
X24461904Y-40136761D02*
X24423809Y-40174857D01*
X24423809Y-40174857D02*
X24385714Y-40251047D01*
X24385714Y-40251047D02*
X24385714Y-40441523D01*
X24385714Y-40441523D02*
X24423809Y-40517714D01*
X24423809Y-40517714D02*
X24461904Y-40555809D01*
X24461904Y-40555809D02*
X24538095Y-40593904D01*
X24538095Y-40593904D02*
X24728571Y-40593904D01*
X24728571Y-40593904D02*
X24804761Y-40555809D01*
X24804761Y-40555809D02*
X24842857Y-40517714D01*
%TO.C,T40*%
X-12059523Y9606095D02*
X-12516666Y9606095D01*
X-12288094Y8806095D02*
X-12288094Y9606095D01*
X-13126190Y9339428D02*
X-13126190Y8806095D01*
X-12935714Y9644190D02*
X-12745237Y9072761D01*
X-12745237Y9072761D02*
X-13240476Y9072761D01*
X-13697619Y9606095D02*
X-13773809Y9606095D01*
X-13773809Y9606095D02*
X-13850000Y9568000D01*
X-13850000Y9568000D02*
X-13888095Y9529904D01*
X-13888095Y9529904D02*
X-13926190Y9453714D01*
X-13926190Y9453714D02*
X-13964285Y9301333D01*
X-13964285Y9301333D02*
X-13964285Y9110857D01*
X-13964285Y9110857D02*
X-13926190Y8958476D01*
X-13926190Y8958476D02*
X-13888095Y8882285D01*
X-13888095Y8882285D02*
X-13850000Y8844190D01*
X-13850000Y8844190D02*
X-13773809Y8806095D01*
X-13773809Y8806095D02*
X-13697619Y8806095D01*
X-13697619Y8806095D02*
X-13621428Y8844190D01*
X-13621428Y8844190D02*
X-13583333Y8882285D01*
X-13583333Y8882285D02*
X-13545238Y8958476D01*
X-13545238Y8958476D02*
X-13507142Y9110857D01*
X-13507142Y9110857D02*
X-13507142Y9301333D01*
X-13507142Y9301333D02*
X-13545238Y9453714D01*
X-13545238Y9453714D02*
X-13583333Y9529904D01*
X-13583333Y9529904D02*
X-13621428Y9568000D01*
X-13621428Y9568000D02*
X-13697619Y9606095D01*
%TO.C,T32*%
X-5356095Y2490476D02*
X-5356095Y2033333D01*
X-4556095Y2261905D02*
X-5356095Y2261905D01*
X-5356095Y1842857D02*
X-5356095Y1347619D01*
X-5356095Y1347619D02*
X-5051333Y1614285D01*
X-5051333Y1614285D02*
X-5051333Y1500000D01*
X-5051333Y1500000D02*
X-5013238Y1423809D01*
X-5013238Y1423809D02*
X-4975142Y1385714D01*
X-4975142Y1385714D02*
X-4898952Y1347619D01*
X-4898952Y1347619D02*
X-4708476Y1347619D01*
X-4708476Y1347619D02*
X-4632285Y1385714D01*
X-4632285Y1385714D02*
X-4594190Y1423809D01*
X-4594190Y1423809D02*
X-4556095Y1500000D01*
X-4556095Y1500000D02*
X-4556095Y1728571D01*
X-4556095Y1728571D02*
X-4594190Y1804762D01*
X-4594190Y1804762D02*
X-4632285Y1842857D01*
X-5279904Y1042857D02*
X-5318000Y1004761D01*
X-5318000Y1004761D02*
X-5356095Y928571D01*
X-5356095Y928571D02*
X-5356095Y738095D01*
X-5356095Y738095D02*
X-5318000Y661904D01*
X-5318000Y661904D02*
X-5279904Y623809D01*
X-5279904Y623809D02*
X-5203714Y585714D01*
X-5203714Y585714D02*
X-5127523Y585714D01*
X-5127523Y585714D02*
X-5013238Y623809D01*
X-5013238Y623809D02*
X-4556095Y1080952D01*
X-4556095Y1080952D02*
X-4556095Y585714D01*
%TO.C,T33*%
X-5356095Y4640476D02*
X-5356095Y4183333D01*
X-4556095Y4411905D02*
X-5356095Y4411905D01*
X-5356095Y3992857D02*
X-5356095Y3497619D01*
X-5356095Y3497619D02*
X-5051333Y3764285D01*
X-5051333Y3764285D02*
X-5051333Y3650000D01*
X-5051333Y3650000D02*
X-5013238Y3573809D01*
X-5013238Y3573809D02*
X-4975142Y3535714D01*
X-4975142Y3535714D02*
X-4898952Y3497619D01*
X-4898952Y3497619D02*
X-4708476Y3497619D01*
X-4708476Y3497619D02*
X-4632285Y3535714D01*
X-4632285Y3535714D02*
X-4594190Y3573809D01*
X-4594190Y3573809D02*
X-4556095Y3650000D01*
X-4556095Y3650000D02*
X-4556095Y3878571D01*
X-4556095Y3878571D02*
X-4594190Y3954762D01*
X-4594190Y3954762D02*
X-4632285Y3992857D01*
X-5356095Y3230952D02*
X-5356095Y2735714D01*
X-5356095Y2735714D02*
X-5051333Y3002380D01*
X-5051333Y3002380D02*
X-5051333Y2888095D01*
X-5051333Y2888095D02*
X-5013238Y2811904D01*
X-5013238Y2811904D02*
X-4975142Y2773809D01*
X-4975142Y2773809D02*
X-4898952Y2735714D01*
X-4898952Y2735714D02*
X-4708476Y2735714D01*
X-4708476Y2735714D02*
X-4632285Y2773809D01*
X-4632285Y2773809D02*
X-4594190Y2811904D01*
X-4594190Y2811904D02*
X-4556095Y2888095D01*
X-4556095Y2888095D02*
X-4556095Y3116666D01*
X-4556095Y3116666D02*
X-4594190Y3192857D01*
X-4594190Y3192857D02*
X-4632285Y3230952D01*
%TO.C,T22*%
X25940476Y-26193904D02*
X25483333Y-26193904D01*
X25711905Y-26993904D02*
X25711905Y-26193904D01*
X25254762Y-26270095D02*
X25216666Y-26232000D01*
X25216666Y-26232000D02*
X25140476Y-26193904D01*
X25140476Y-26193904D02*
X24950000Y-26193904D01*
X24950000Y-26193904D02*
X24873809Y-26232000D01*
X24873809Y-26232000D02*
X24835714Y-26270095D01*
X24835714Y-26270095D02*
X24797619Y-26346285D01*
X24797619Y-26346285D02*
X24797619Y-26422476D01*
X24797619Y-26422476D02*
X24835714Y-26536761D01*
X24835714Y-26536761D02*
X25292857Y-26993904D01*
X25292857Y-26993904D02*
X24797619Y-26993904D01*
X24492857Y-26270095D02*
X24454761Y-26232000D01*
X24454761Y-26232000D02*
X24378571Y-26193904D01*
X24378571Y-26193904D02*
X24188095Y-26193904D01*
X24188095Y-26193904D02*
X24111904Y-26232000D01*
X24111904Y-26232000D02*
X24073809Y-26270095D01*
X24073809Y-26270095D02*
X24035714Y-26346285D01*
X24035714Y-26346285D02*
X24035714Y-26422476D01*
X24035714Y-26422476D02*
X24073809Y-26536761D01*
X24073809Y-26536761D02*
X24530952Y-26993904D01*
X24530952Y-26993904D02*
X24035714Y-26993904D01*
%TO.C,T11*%
X15140476Y40456095D02*
X14683333Y40456095D01*
X14911905Y39656095D02*
X14911905Y40456095D01*
X13997619Y39656095D02*
X14454762Y39656095D01*
X14226190Y39656095D02*
X14226190Y40456095D01*
X14226190Y40456095D02*
X14302381Y40341809D01*
X14302381Y40341809D02*
X14378571Y40265619D01*
X14378571Y40265619D02*
X14454762Y40227523D01*
X13235714Y39656095D02*
X13692857Y39656095D01*
X13464285Y39656095D02*
X13464285Y40456095D01*
X13464285Y40456095D02*
X13540476Y40341809D01*
X13540476Y40341809D02*
X13616666Y40265619D01*
X13616666Y40265619D02*
X13692857Y40227523D01*
D12*
%TO.C,U18*%
X7927462Y-19235000D02*
X8527462Y-19235000D01*
X8527462Y-19235000D02*
X8527462Y-18635000D01*
X3907462Y-14015000D02*
X3307462Y-14015000D01*
X3307462Y-14015000D02*
X3307462Y-14615000D01*
X7927462Y-14015000D02*
X8527462Y-14015000D01*
X8527462Y-14015000D02*
X8527462Y-14615000D01*
X3907462Y-19235000D02*
X3307462Y-19235000D01*
%TO.C,Q18*%
X16520000Y-26700000D02*
X16520000Y-27360000D01*
X16520000Y-25040000D02*
X16520000Y-25700000D01*
X16520000Y-25040000D02*
X18550000Y-25040000D01*
X17930000Y-27360000D02*
X16520000Y-27360000D01*
%TO.C,T42*%
X24200000Y-5400000D02*
G75*
G03*
X24200000Y-5400000I-700000J0D01*
G01*
%TO.C,T41*%
X18850000Y-43050000D02*
G75*
G03*
X18850000Y-43050000I-700000J0D01*
G01*
%TO.C,C115*%
X3807836Y5210000D02*
X3592164Y5210000D01*
X3807836Y4490000D02*
X3592164Y4490000D01*
%TO.C,Q3*%
X14780000Y47765000D02*
X18285000Y47765000D01*
X15015000Y51035000D02*
X18285000Y51035000D01*
X15015000Y50700000D02*
X15015000Y51035000D01*
X18285000Y50700000D02*
X18285000Y51035000D01*
X18285000Y47765000D02*
X18285000Y48100000D01*
%TO.C,C101*%
X6442164Y-9860000D02*
X6657836Y-9860000D01*
X6442164Y-9140000D02*
X6657836Y-9140000D01*
%TO.C,C46*%
X3342164Y-46760000D02*
X3557836Y-46760000D01*
X3342164Y-46040000D02*
X3557836Y-46040000D01*
%TO.C,C91*%
X20361252Y-20865000D02*
X19838748Y-20865000D01*
X20361252Y-22335000D02*
X19838748Y-22335000D01*
%TO.C,U31*%
X3700000Y-8240000D02*
X4350000Y-8240000D01*
X3700000Y-8240000D02*
X3050000Y-8240000D01*
X3700000Y-11360000D02*
X4350000Y-11360000D01*
X3700000Y-11360000D02*
X2025000Y-11360000D01*
%TO.C,T10*%
X16800000Y37900000D02*
G75*
G03*
X16800000Y37900000I-700000J0D01*
G01*
%TO.C,Q1*%
X-16565000Y49555000D02*
X-20070000Y49555000D01*
X-16800000Y46285000D02*
X-20070000Y46285000D01*
X-16800000Y46620000D02*
X-16800000Y46285000D01*
X-20070000Y46620000D02*
X-20070000Y46285000D01*
X-20070000Y49555000D02*
X-20070000Y49220000D01*
%TO.C,L4*%
X17900000Y-19900000D02*
X17900000Y-17150000D01*
X17900000Y-17150000D02*
X10300000Y-17150000D01*
X10300000Y-19900000D02*
X10300000Y-17150000D01*
X17900000Y-24750000D02*
X10300000Y-24750000D01*
X10300000Y-24750000D02*
X10300000Y-22000000D01*
X17900000Y-24750000D02*
X17900000Y-22000000D01*
%TO.C,C120*%
X-10140000Y6842164D02*
X-10140000Y7057836D01*
X-10860000Y6842164D02*
X-10860000Y7057836D01*
D11*
%TO.C,U5*%
X-6900000Y54650000D02*
X-6900000Y54400000D01*
X-6900000Y54400000D02*
X-7150000Y54400000D01*
X-9100000Y57350000D02*
X-9100000Y57600000D01*
X-7150000Y57600000D02*
X-6900000Y57600000D01*
X-6900000Y57600000D02*
X-6900000Y57350000D01*
X-9100000Y57600000D02*
X-8850000Y57600000D01*
X-9100000Y54400000D02*
X-8900000Y54200000D01*
X-9100000Y54400000D02*
X-9300000Y54600000D01*
X-8850000Y54400000D02*
X-9100000Y54400000D01*
X-9100000Y54400000D02*
X-9100000Y54650000D01*
D12*
%TO.C,D10*%
X9500000Y-30690000D02*
X9500000Y-34350000D01*
X11400000Y-30690000D02*
X11400000Y-34350000D01*
X9500000Y-30690000D02*
X11400000Y-30690000D01*
%TO.C,R7*%
X-13287258Y44827500D02*
X-12812742Y44827500D01*
X-13287258Y45872500D02*
X-12812742Y45872500D01*
%TO.C,D4*%
X21100000Y43900000D02*
X19100000Y43900000D01*
X19100000Y43900000D02*
X19100000Y47800000D01*
X21100000Y43900000D02*
X21100000Y47800000D01*
%TO.C,R8*%
X16574758Y43725000D02*
X16100242Y43725000D01*
X16574758Y42680000D02*
X16100242Y42680000D01*
%TO.C,T29*%
X-8500000Y15550000D02*
G75*
G03*
X-8500000Y15550000I-700000J0D01*
G01*
%TO.C,Q25*%
X16500000Y-46530000D02*
X17160000Y-46530000D01*
X14840000Y-46530000D02*
X15500000Y-46530000D01*
X14840000Y-46530000D02*
X14840000Y-44500000D01*
X17160000Y-45120000D02*
X17160000Y-46530000D01*
%TO.C,T15*%
X-23300000Y11000000D02*
G75*
G03*
X-23300000Y11000000I-700000J0D01*
G01*
%TO.C,C126*%
X24710000Y5642164D02*
X24710000Y5857836D01*
X23990000Y5642164D02*
X23990000Y5857836D01*
%TO.C,T19*%
X-7600000Y4050000D02*
G75*
G03*
X-7600000Y4050000I-700000J0D01*
G01*
%TO.C,C64*%
X-3392164Y-15640000D02*
X-3607836Y-15640000D01*
X-3392164Y-16360000D02*
X-3607836Y-16360000D01*
%TO.C,C43*%
X12288748Y58876400D02*
X13711252Y58876400D01*
X12288748Y60696400D02*
X13711252Y60696400D01*
%TO.C,T51*%
X3450000Y-12500000D02*
G75*
G03*
X3450000Y-12500000I-700000J0D01*
G01*
%TO.C,R57*%
X-1840000Y-3103641D02*
X-1840000Y-2796359D01*
X-2600000Y-3103641D02*
X-2600000Y-2796359D01*
%TO.C,R59*%
X-2880000Y-12146359D02*
X-2880000Y-12453641D01*
X-2120000Y-12146359D02*
X-2120000Y-12453641D01*
%TO.C,C87*%
X18892164Y-15110000D02*
X19107836Y-15110000D01*
X18892164Y-14390000D02*
X19107836Y-14390000D01*
%TO.C,C42*%
X-10710000Y54540580D02*
X-10710000Y54259420D01*
X-9690000Y54540580D02*
X-9690000Y54259420D01*
%TO.C,C54*%
X9210000Y-34407836D02*
X9210000Y-34192164D01*
X8490000Y-34407836D02*
X8490000Y-34192164D01*
%TO.C,T5*%
X4350000Y3350000D02*
G75*
G03*
X4350000Y3350000I-700000J0D01*
G01*
%TO.C,D13*%
X1000000Y-27060000D02*
X1000000Y-23400000D01*
X-900000Y-27060000D02*
X-900000Y-23400000D01*
X1000000Y-27060000D02*
X-900000Y-27060000D01*
%TO.C,R94*%
X11196359Y-16580000D02*
X11503641Y-16580000D01*
X11196359Y-15820000D02*
X11503641Y-15820000D01*
%TO.C,C13*%
X-3090000Y48638748D02*
X-3090000Y50061252D01*
X-4910000Y48638748D02*
X-4910000Y50061252D01*
%TO.C,T38*%
X-800000Y23000000D02*
G75*
G03*
X-800000Y23000000I-700000J0D01*
G01*
%TO.C,U19*%
X13150000Y21860000D02*
X15350000Y21860000D01*
X13150000Y21860000D02*
X10950000Y21860000D01*
X13150000Y16640000D02*
X15350000Y16640000D01*
X13150000Y16640000D02*
X9550000Y16640000D01*
%TO.C,C69*%
X240000Y-2867164D02*
X240000Y-3082836D01*
X960000Y-2867164D02*
X960000Y-3082836D01*
%TO.C,T18*%
X-5550000Y4050000D02*
G75*
G03*
X-5550000Y4050000I-700000J0D01*
G01*
%TO.C,C72*%
X-1207836Y-12160000D02*
X-992164Y-12160000D01*
X-1207836Y-11440000D02*
X-992164Y-11440000D01*
%TO.C,C127*%
X-5088748Y-42990000D02*
X-6511252Y-42990000D01*
X-5088748Y-44810000D02*
X-6511252Y-44810000D01*
%TO.C,C94*%
X9590000Y-15992164D02*
X9590000Y-16207836D01*
X10310000Y-15992164D02*
X10310000Y-16207836D01*
%TO.C,U11*%
X-18100000Y-3400000D02*
X-19100000Y-3400000D01*
X-18100000Y-6200000D02*
X-19400000Y-6200000D01*
%TO.C,R65*%
X17296359Y-32230000D02*
X17603641Y-32230000D01*
X17296359Y-31470000D02*
X17603641Y-31470000D01*
%TO.C,FB7*%
X7362779Y-12090000D02*
X7037221Y-12090000D01*
X7362779Y-13110000D02*
X7037221Y-13110000D01*
%TO.C,R26*%
X-14153641Y-33580000D02*
X-13846359Y-33580000D01*
X-14153641Y-32820000D02*
X-13846359Y-32820000D01*
%TO.C,Q21*%
X15520000Y-29550000D02*
X15520000Y-30210000D01*
X15520000Y-27890000D02*
X15520000Y-28550000D01*
X15520000Y-27890000D02*
X17550000Y-27890000D01*
X16930000Y-30210000D02*
X15520000Y-30210000D01*
%TO.C,R91*%
X16253641Y-10920000D02*
X15946359Y-10920000D01*
X16253641Y-11680000D02*
X15946359Y-11680000D01*
%TO.C,R52*%
X1820000Y-32296359D02*
X1820000Y-32603641D01*
X2580000Y-32296359D02*
X2580000Y-32603641D01*
%TO.C,U20*%
X5450000Y16640000D02*
X3250000Y16640000D01*
X5450000Y16640000D02*
X7650000Y16640000D01*
X5450000Y21860000D02*
X3250000Y21860000D01*
X5450000Y21860000D02*
X9050000Y21860000D01*
%TO.C,R81*%
X27730000Y-45203641D02*
X27730000Y-44896359D01*
X26970000Y-45203641D02*
X26970000Y-44896359D01*
%TO.C,C76*%
X240000Y-942164D02*
X240000Y-1157836D01*
X960000Y-942164D02*
X960000Y-1157836D01*
%TO.C,C83*%
X13240580Y-30940000D02*
X12959420Y-30940000D01*
X13240580Y-31960000D02*
X12959420Y-31960000D01*
%TO.C,C90*%
X20361252Y-18865000D02*
X19838748Y-18865000D01*
X20361252Y-20335000D02*
X19838748Y-20335000D01*
%TO.C,D17*%
X21000000Y-27110000D02*
X21000000Y-23450000D01*
X19100000Y-27110000D02*
X19100000Y-23450000D01*
X21000000Y-27110000D02*
X19100000Y-27110000D01*
%TO.C,C59*%
X2440000Y-31260000D02*
X2440000Y-29560000D01*
X2440000Y-25740000D02*
X2440000Y-27440000D01*
X6895563Y-25740000D02*
X2440000Y-25740000D01*
X6895563Y-31260000D02*
X2440000Y-31260000D01*
X7960000Y-30195563D02*
X7960000Y-29560000D01*
X7960000Y-26804437D02*
X7960000Y-27440000D01*
X7960000Y-26804437D02*
X6895563Y-25740000D01*
X7960000Y-30195563D02*
X6895563Y-31260000D01*
X8825000Y-26815000D02*
X8200000Y-26815000D01*
X8512500Y-26502500D02*
X8512500Y-27127500D01*
%TO.C,R48*%
X4710000Y-35352064D02*
X4710000Y-33897936D01*
X2890000Y-35352064D02*
X2890000Y-33897936D01*
%TO.C,T48*%
X4950000Y23000000D02*
G75*
G03*
X4950000Y23000000I-700000J0D01*
G01*
%TO.C,R35*%
X-72500Y53237258D02*
X-72500Y52762742D01*
X972500Y53237258D02*
X972500Y52762742D01*
%TO.C,C60*%
X1410000Y9842164D02*
X1410000Y10057836D01*
X690000Y9842164D02*
X690000Y10057836D01*
%TO.C,C49*%
X5740000Y-37065000D02*
X8590000Y-37065000D01*
X14460000Y-37065000D02*
X11610000Y-37065000D01*
X14460000Y-44720563D02*
X14460000Y-37065000D01*
X5740000Y-44720563D02*
X5740000Y-37065000D01*
X6804437Y-45785000D02*
X8590000Y-45785000D01*
X13395563Y-45785000D02*
X11610000Y-45785000D01*
X13395563Y-45785000D02*
X14460000Y-44720563D01*
X6804437Y-45785000D02*
X5740000Y-44720563D01*
X12610000Y-47025000D02*
X12610000Y-46025000D01*
X13110000Y-46525000D02*
X12110000Y-46525000D01*
%TO.C,R85*%
X16380000Y-31503641D02*
X16380000Y-31196359D01*
X15620000Y-31503641D02*
X15620000Y-31196359D01*
%TO.C,C56*%
X5392164Y-32235000D02*
X5607836Y-32235000D01*
X5392164Y-31515000D02*
X5607836Y-31515000D01*
%TO.C,T34*%
X13200000Y23000000D02*
G75*
G03*
X13200000Y23000000I-700000J0D01*
G01*
%TO.C,U22*%
X-2300000Y16640000D02*
X-4500000Y16640000D01*
X-2300000Y16640000D02*
X-100000Y16640000D01*
X-2300000Y21860000D02*
X-4500000Y21860000D01*
X-2300000Y21860000D02*
X1300000Y21860000D01*
%TO.C,D8*%
X13650000Y-36860000D02*
X13650000Y-33200000D01*
X11750000Y-36860000D02*
X11750000Y-33200000D01*
X13650000Y-36860000D02*
X11750000Y-36860000D01*
%TO.C,C80*%
X6710000Y2988748D02*
X6710000Y4411252D01*
X4890000Y2988748D02*
X4890000Y4411252D01*
%TO.C,T35*%
X-6450000Y19600000D02*
G75*
G03*
X-6450000Y19600000I-700000J0D01*
G01*
%TO.C,R15*%
X-6062742Y59222500D02*
X-6537258Y59222500D01*
X-6062742Y58177500D02*
X-6537258Y58177500D01*
%TO.C,T37*%
X1250000Y23000000D02*
G75*
G03*
X1250000Y23000000I-700000J0D01*
G01*
%TO.C,J5*%
X1900000Y28700000D02*
G75*
G03*
X1900000Y28700000I-700000J0D01*
G01*
%TO.C,T25*%
X1750000Y-20600000D02*
G75*
G03*
X1750000Y-20600000I-700000J0D01*
G01*
%TO.C,C48*%
X17860000Y16412164D02*
X17860000Y16627836D01*
X17140000Y16412164D02*
X17140000Y16627836D01*
%TO.C,C25*%
X24840000Y10957836D02*
X24840000Y10742164D01*
X25560000Y10957836D02*
X25560000Y10742164D01*
%TO.C,C117*%
X5592164Y565000D02*
X5807836Y565000D01*
X5592164Y1285000D02*
X5807836Y1285000D01*
%TO.C,C103*%
X25110000Y-911252D02*
X25110000Y511252D01*
X23290000Y-911252D02*
X23290000Y511252D01*
%TO.C,T46*%
X27950000Y-42250000D02*
G75*
G03*
X27950000Y-42250000I-700000J0D01*
G01*
%TO.C,U33*%
X1890000Y-3400000D02*
X1890000Y-1450000D01*
X1890000Y-3400000D02*
X1890000Y-5350000D01*
X7010000Y-3400000D02*
X7010000Y-1450000D01*
X7010000Y-3400000D02*
X7010000Y-6850000D01*
%TO.C,R93*%
X11196359Y-15580000D02*
X11503641Y-15580000D01*
X11196359Y-14820000D02*
X11503641Y-14820000D01*
%TO.C,R16*%
X9337258Y59228900D02*
X8862742Y59228900D01*
X9337258Y58183900D02*
X8862742Y58183900D01*
%TO.C,C47*%
X5342164Y-46760000D02*
X5557836Y-46760000D01*
X5342164Y-46040000D02*
X5557836Y-46040000D01*
%TO.C,T7*%
X28050000Y-3550000D02*
G75*
G03*
X28050000Y-3550000I-700000J0D01*
G01*
%TO.C,J8*%
X6700000Y29850000D02*
G75*
G03*
X6700000Y29850000I-700000J0D01*
G01*
%TO.C,C45*%
X9740000Y53061252D02*
X9740000Y51638748D01*
X11560000Y53061252D02*
X11560000Y51638748D01*
%TO.C,R61*%
X-1820000Y-1203641D02*
X-1820000Y-896359D01*
X-2580000Y-1203641D02*
X-2580000Y-896359D01*
%TO.C,Q19*%
X9720000Y-26650000D02*
X9720000Y-27310000D01*
X9720000Y-24990000D02*
X9720000Y-25650000D01*
X9720000Y-24990000D02*
X11750000Y-24990000D01*
X11130000Y-27310000D02*
X9720000Y-27310000D01*
%TO.C,C53*%
X2090000Y23057836D02*
X2090000Y22842164D01*
X2810000Y23057836D02*
X2810000Y22842164D01*
%TO.C,C129*%
X-4288748Y60000D02*
X-5711252Y60000D01*
X-4288748Y-1760000D02*
X-5711252Y-1760000D01*
%TO.C,U10*%
X-18000000Y-8150000D02*
X-19000000Y-8150000D01*
X-18000000Y-10950000D02*
X-19300000Y-10950000D01*
%TO.C,Q22*%
X23400000Y-46530000D02*
X24060000Y-46530000D01*
X21740000Y-46530000D02*
X22400000Y-46530000D01*
X21740000Y-46530000D02*
X21740000Y-44500000D01*
X24060000Y-45120000D02*
X24060000Y-46530000D01*
%TO.C,D14*%
X-1300000Y-27060000D02*
X-1300000Y-23400000D01*
X-3200000Y-27060000D02*
X-3200000Y-23400000D01*
X-1300000Y-27060000D02*
X-3200000Y-27060000D01*
%TO.C,T6*%
X16650000Y4600000D02*
G75*
G03*
X16650000Y4600000I-700000J0D01*
G01*
%TO.C,C107*%
X18538748Y2540000D02*
X19961252Y2540000D01*
X18538748Y5260000D02*
X19961252Y5260000D01*
%TO.C,C16*%
X3300000Y48488748D02*
X3300000Y49911252D01*
X1480000Y48488748D02*
X1480000Y49911252D01*
%TO.C,C121*%
X2592164Y-7960000D02*
X2807836Y-7960000D01*
X2592164Y-7240000D02*
X2807836Y-7240000D01*
%TO.C,C18*%
X9940000Y48340580D02*
X9940000Y48059420D01*
X10960000Y48340580D02*
X10960000Y48059420D01*
%TO.C,T47*%
X11150000Y23000000D02*
G75*
G03*
X11150000Y23000000I-700000J0D01*
G01*
%TO.C,R71*%
X-1020000Y9746359D02*
X-1020000Y10053641D01*
X-1780000Y9746359D02*
X-1780000Y10053641D01*
%TO.C,T28*%
X-8500000Y13500000D02*
G75*
G03*
X-8500000Y13500000I-700000J0D01*
G01*
%TO.C,R54*%
X-3070000Y-12453641D02*
X-3070000Y-12146359D01*
X-3830000Y-12453641D02*
X-3830000Y-12146359D01*
%TO.C,R90*%
X15046359Y-3680000D02*
X15353641Y-3680000D01*
X15046359Y-2920000D02*
X15353641Y-2920000D01*
%TO.C,C119*%
X28190000Y-20910000D02*
X26490000Y-20910000D01*
X22670000Y-20910000D02*
X24370000Y-20910000D01*
X22670000Y-16454437D02*
X22670000Y-20910000D01*
X28190000Y-16454437D02*
X28190000Y-20910000D01*
X27125563Y-15390000D02*
X26490000Y-15390000D01*
X23734437Y-15390000D02*
X24370000Y-15390000D01*
X23734437Y-15390000D02*
X22670000Y-16454437D01*
X27125563Y-15390000D02*
X28190000Y-16454437D01*
X23745000Y-14525000D02*
X23745000Y-15150000D01*
X23432500Y-14837500D02*
X24057500Y-14837500D01*
%TO.C,C74*%
X15942164Y8640000D02*
X16157836Y8640000D01*
X15942164Y9360000D02*
X16157836Y9360000D01*
%TO.C,C17*%
X-1590000Y48409420D02*
X-1590000Y48690580D01*
X-2610000Y48409420D02*
X-2610000Y48690580D01*
D11*
%TO.C,U6*%
X7700000Y54650000D02*
X7700000Y54400000D01*
X7700000Y54400000D02*
X7450000Y54400000D01*
X5500000Y57350000D02*
X5500000Y57600000D01*
X7450000Y57600000D02*
X7700000Y57600000D01*
X7700000Y57600000D02*
X7700000Y57350000D01*
X5500000Y57600000D02*
X5750000Y57600000D01*
X5500000Y54400000D02*
X5700000Y54200000D01*
X5500000Y54400000D02*
X5300000Y54600000D01*
X5750000Y54400000D02*
X5500000Y54400000D01*
X5500000Y54400000D02*
X5500000Y54650000D01*
D12*
%TO.C,R98*%
X6396359Y-7980000D02*
X6703641Y-7980000D01*
X6396359Y-7220000D02*
X6703641Y-7220000D01*
%TO.C,T26*%
X-300000Y-20600000D02*
G75*
G03*
X-300000Y-20600000I-700000J0D01*
G01*
%TO.C,C38*%
X-16340580Y28640000D02*
X-16059420Y28640000D01*
X-16340580Y29660000D02*
X-16059420Y29660000D01*
%TO.C,R69*%
X14603641Y22880000D02*
X14296359Y22880000D01*
X14603641Y22120000D02*
X14296359Y22120000D01*
%TO.C,C6*%
X-13110000Y54661252D02*
X-13110000Y53238748D01*
X-11290000Y54661252D02*
X-11290000Y53238748D01*
%TO.C,C102*%
X26060000Y3759420D02*
X26060000Y4040580D01*
X25040000Y3759420D02*
X25040000Y4040580D01*
%TO.C,R13*%
X9817258Y57398900D02*
X9342742Y57398900D01*
X9817258Y56353900D02*
X9342742Y56353900D01*
%TO.C,U28*%
X13515000Y-12290000D02*
X13040000Y-12290000D01*
X13040000Y-12290000D02*
X13040000Y-12765000D01*
X16785000Y-16510000D02*
X17260000Y-16510000D01*
X17260000Y-16510000D02*
X17260000Y-16035000D01*
X13515000Y-16510000D02*
X13040000Y-16510000D01*
X13040000Y-16510000D02*
X13040000Y-16035000D01*
X16785000Y-12290000D02*
X17260000Y-12290000D01*
%TO.C,C55*%
X1840000Y-34192164D02*
X1840000Y-34407836D01*
X2560000Y-34192164D02*
X2560000Y-34407836D01*
%TO.C,U12*%
X-7390000Y-27465000D02*
X-7390000Y-26990000D01*
X-7390000Y-26990000D02*
X-7865000Y-26990000D01*
X-11610000Y-30735000D02*
X-11610000Y-31210000D01*
X-11610000Y-31210000D02*
X-11135000Y-31210000D01*
X-11610000Y-27465000D02*
X-11610000Y-26990000D01*
X-11610000Y-26990000D02*
X-11135000Y-26990000D01*
X-7390000Y-30735000D02*
X-7390000Y-31210000D01*
%TO.C,C104*%
X21790000Y-659420D02*
X21790000Y-940580D01*
X22810000Y-659420D02*
X22810000Y-940580D01*
%TO.C,Q17*%
X13120000Y-26700000D02*
X13120000Y-27360000D01*
X13120000Y-25040000D02*
X13120000Y-25700000D01*
X13120000Y-25040000D02*
X15150000Y-25040000D01*
X14530000Y-27360000D02*
X13120000Y-27360000D01*
%TO.C,L5*%
X12255000Y-750000D02*
X13245000Y-750000D01*
X12255000Y3450000D02*
X13245000Y3450000D01*
%TO.C,C12*%
X9240580Y60726400D02*
X8959420Y60726400D01*
X9240580Y59706400D02*
X8959420Y59706400D01*
%TO.C,R97*%
X15353641Y-1970000D02*
X15046359Y-1970000D01*
X15353641Y-2730000D02*
X15046359Y-2730000D01*
%TO.C,R88*%
X26230000Y-3603641D02*
X26230000Y-3296359D01*
X25470000Y-3603641D02*
X25470000Y-3296359D01*
%TO.C,R50*%
X7296359Y-32255000D02*
X7603641Y-32255000D01*
X7296359Y-31495000D02*
X7603641Y-31495000D01*
%TO.C,T39*%
X-4900000Y9900000D02*
G75*
G03*
X-4900000Y9900000I-700000J0D01*
G01*
%TO.C,T20*%
X-9600000Y4000000D02*
G75*
G03*
X-9600000Y4000000I-700000J0D01*
G01*
%TO.C,T13*%
X-13800000Y52250000D02*
G75*
G03*
X-13800000Y52250000I-700000J0D01*
G01*
%TO.C,R6*%
X-12646359Y580000D02*
X-12953641Y580000D01*
X-12646359Y-180000D02*
X-12953641Y-180000D01*
%TO.C,C15*%
X-11290000Y48613748D02*
X-11290000Y50036252D01*
X-13110000Y48613748D02*
X-13110000Y50036252D01*
%TO.C,Q24*%
X19800000Y-45070000D02*
X19140000Y-45070000D01*
X21460000Y-45070000D02*
X20800000Y-45070000D01*
X21460000Y-45070000D02*
X21460000Y-47100000D01*
X19140000Y-46480000D02*
X19140000Y-45070000D01*
%TO.C,C5*%
X1490000Y54561252D02*
X1490000Y53138748D01*
X3310000Y54561252D02*
X3310000Y53138748D01*
%TO.C,R75*%
X-5620000Y1946359D02*
X-5620000Y2253641D01*
X-6380000Y1946359D02*
X-6380000Y2253641D01*
%TO.C,R68*%
X17603641Y-30520000D02*
X17296359Y-30520000D01*
X17603641Y-31280000D02*
X17296359Y-31280000D01*
%TO.C,T52*%
X4350000Y1300000D02*
G75*
G03*
X4350000Y1300000I-700000J0D01*
G01*
%TO.C,C124*%
X-2690000Y5642164D02*
X-2690000Y5857836D01*
X-3410000Y5642164D02*
X-3410000Y5857836D01*
%TO.C,C41*%
X8240000Y54540580D02*
X8240000Y54259420D01*
X9260000Y54540580D02*
X9260000Y54259420D01*
%TO.C,C131*%
X23610000Y5038748D02*
X23610000Y6461252D01*
X21790000Y5038748D02*
X21790000Y6461252D01*
%TO.C,C58*%
X2440000Y-25410000D02*
X2440000Y-23710000D01*
X2440000Y-19890000D02*
X2440000Y-21590000D01*
X6895563Y-19890000D02*
X2440000Y-19890000D01*
X6895563Y-25410000D02*
X2440000Y-25410000D01*
X7960000Y-24345563D02*
X7960000Y-23710000D01*
X7960000Y-20954437D02*
X7960000Y-21590000D01*
X7960000Y-20954437D02*
X6895563Y-19890000D01*
X7960000Y-24345563D02*
X6895563Y-25410000D01*
X8825000Y-20965000D02*
X8200000Y-20965000D01*
X8512500Y-20652500D02*
X8512500Y-21277500D01*
%TO.C,R72*%
X24653641Y-34170000D02*
X24346359Y-34170000D01*
X24653641Y-34930000D02*
X24346359Y-34930000D01*
%TO.C,R63*%
X-280000Y10103641D02*
X-280000Y9796359D01*
X480000Y10103641D02*
X480000Y9796359D01*
%TO.C,J4*%
X300000Y29850000D02*
G75*
G03*
X300000Y29850000I-700000J0D01*
G01*
%TO.C,C114*%
X23360000Y-3557836D02*
X23360000Y-3342164D01*
X22640000Y-3557836D02*
X22640000Y-3342164D01*
%TO.C,C130*%
X9060000Y5988748D02*
X9060000Y7411252D01*
X7240000Y5988748D02*
X7240000Y7411252D01*
%TO.C,C4*%
X-6360000Y54540580D02*
X-6360000Y54259420D01*
X-5340000Y54540580D02*
X-5340000Y54259420D01*
%TO.C,R27*%
X-13153641Y-34530000D02*
X-12846359Y-34530000D01*
X-13153641Y-33770000D02*
X-12846359Y-33770000D01*
%TO.C,C10*%
X3781600Y57519980D02*
X3781600Y57238820D01*
X4801600Y57519980D02*
X4801600Y57238820D01*
%TO.C,D16*%
X17450000Y-7240000D02*
X17450000Y-10900000D01*
X19350000Y-7240000D02*
X19350000Y-10900000D01*
X17450000Y-7240000D02*
X19350000Y-7240000D01*
%TO.C,C32*%
X-12042164Y-31890000D02*
X-12257836Y-31890000D01*
X-12042164Y-32610000D02*
X-12257836Y-32610000D01*
%TO.C,C109*%
X10988748Y-3860000D02*
X12411252Y-3860000D01*
X10988748Y-1140000D02*
X12411252Y-1140000D01*
%TO.C,T12*%
X-6300000Y39100000D02*
G75*
G03*
X-6300000Y39100000I-700000J0D01*
G01*
%TO.C,L8*%
X11440000Y56947652D02*
X11440000Y56425148D01*
X13660000Y56947652D02*
X13660000Y56425148D01*
%TO.C,C84*%
X13009420Y-47310000D02*
X13290580Y-47310000D01*
X13009420Y-46290000D02*
X13290580Y-46290000D01*
%TO.C,C123*%
X-5042164Y-19090000D02*
X-5257836Y-19090000D01*
X-5042164Y-19810000D02*
X-5257836Y-19810000D01*
%TO.C,C70*%
X-3790000Y-9557836D02*
X-3790000Y-9342164D01*
X-4510000Y-9557836D02*
X-4510000Y-9342164D01*
%TO.C,R74*%
X6396359Y-11780000D02*
X6703641Y-11780000D01*
X6396359Y-11020000D02*
X6703641Y-11020000D01*
%TO.C,C96*%
X14357836Y-10940000D02*
X14142164Y-10940000D01*
X14357836Y-11660000D02*
X14142164Y-11660000D01*
%TO.C,T49*%
X19700000Y18100000D02*
G75*
G03*
X19700000Y18100000I-700000J0D01*
G01*
%TO.C,Q2*%
X15710000Y47385000D02*
X12205000Y47385000D01*
X15475000Y44115000D02*
X12205000Y44115000D01*
X15475000Y44450000D02*
X15475000Y44115000D01*
X12205000Y44450000D02*
X12205000Y44115000D01*
X12205000Y47385000D02*
X12205000Y47050000D01*
%TO.C,R100*%
X-3346359Y10630000D02*
X-3653641Y10630000D01*
X-3346359Y9870000D02*
X-3653641Y9870000D01*
%TO.C,T43*%
X19700000Y16050000D02*
G75*
G03*
X19700000Y16050000I-700000J0D01*
G01*
%TO.C,C128*%
X-4668748Y-20190000D02*
X-6091252Y-20190000D01*
X-4668748Y-22010000D02*
X-6091252Y-22010000D01*
%TO.C,R60*%
X-973641Y-2830000D02*
X-666359Y-2830000D01*
X-973641Y-2070000D02*
X-666359Y-2070000D01*
%TO.C,R87*%
X18930000Y-16303641D02*
X18930000Y-15996359D01*
X18170000Y-16303641D02*
X18170000Y-15996359D01*
%TO.C,C27*%
X7522164Y-46760000D02*
X7737836Y-46760000D01*
X7522164Y-46040000D02*
X7737836Y-46040000D01*
%TO.C,R77*%
X-11270000Y1596359D02*
X-11270000Y1903641D01*
X-12030000Y1596359D02*
X-12030000Y1903641D01*
%TO.C,C50*%
X-3360000Y-37065000D02*
X-510000Y-37065000D01*
X5360000Y-37065000D02*
X2510000Y-37065000D01*
X5360000Y-44720563D02*
X5360000Y-37065000D01*
X-3360000Y-44720563D02*
X-3360000Y-37065000D01*
X-2295563Y-45785000D02*
X-510000Y-45785000D01*
X4295563Y-45785000D02*
X2510000Y-45785000D01*
X4295563Y-45785000D02*
X5360000Y-44720563D01*
X-2295563Y-45785000D02*
X-3360000Y-44720563D01*
X3510000Y-47025000D02*
X3510000Y-46025000D01*
X4010000Y-46525000D02*
X3010000Y-46525000D01*
%TO.C,C88*%
X15565000Y-7888748D02*
X15565000Y-8411252D01*
X17035000Y-7888748D02*
X17035000Y-8411252D01*
%TO.C,R36*%
X12027500Y53423658D02*
X12027500Y52949142D01*
X13072500Y53423658D02*
X13072500Y52949142D01*
%TO.C,R55*%
X-3550000Y-2796359D02*
X-3550000Y-3103641D01*
X-2790000Y-2796359D02*
X-2790000Y-3103641D01*
%TO.C,T30*%
X-8500000Y17600000D02*
G75*
G03*
X-8500000Y17600000I-700000J0D01*
G01*
%TO.C,R84*%
X15430000Y-31503641D02*
X15430000Y-31196359D01*
X14670000Y-31503641D02*
X14670000Y-31196359D01*
%TO.C,R95*%
X16220000Y-3606359D02*
X16220000Y-3913641D01*
X16980000Y-3606359D02*
X16980000Y-3913641D01*
%TO.C,R92*%
X14403641Y-9970000D02*
X14096359Y-9970000D01*
X14403641Y-10730000D02*
X14096359Y-10730000D01*
%TO.C,C105*%
X13060000Y4592164D02*
X13060000Y4807836D01*
X12340000Y4592164D02*
X12340000Y4807836D01*
%TO.C,R14*%
X-3527500Y59232742D02*
X-3527500Y59707258D01*
X-4572500Y59232742D02*
X-4572500Y59707258D01*
%TO.C,R47*%
X8160000Y-35352064D02*
X8160000Y-33897936D01*
X6340000Y-35352064D02*
X6340000Y-33897936D01*
%TO.C,C9*%
X-9790000Y57259420D02*
X-9790000Y57540580D01*
X-10810000Y57259420D02*
X-10810000Y57540580D01*
%TO.C,C11*%
X-2040000Y59329420D02*
X-2040000Y59610580D01*
X-3060000Y59329420D02*
X-3060000Y59610580D01*
%TO.C,R51*%
X9230000Y-32603641D02*
X9230000Y-32296359D01*
X8470000Y-32603641D02*
X8470000Y-32296359D01*
%TO.C,C82*%
X6657836Y-10090000D02*
X6442164Y-10090000D01*
X6657836Y-10810000D02*
X6442164Y-10810000D01*
%TO.C,C113*%
X15307836Y-1040000D02*
X15092164Y-1040000D01*
X15307836Y-1760000D02*
X15092164Y-1760000D01*
%TO.C,C33*%
X-11110000Y-33492164D02*
X-11110000Y-33707836D01*
X-10390000Y-33492164D02*
X-10390000Y-33707836D01*
%TO.C,C73*%
X-927836Y-3760000D02*
X-712164Y-3760000D01*
X-927836Y-3040000D02*
X-712164Y-3040000D01*
%TO.C,Q16*%
X22800000Y-30480000D02*
X23460000Y-30480000D01*
X21140000Y-30480000D02*
X21800000Y-30480000D01*
X21140000Y-30480000D02*
X21140000Y-28450000D01*
X23460000Y-29070000D02*
X23460000Y-30480000D01*
%TO.C,R96*%
X24330000Y-3603641D02*
X24330000Y-3296359D01*
X23570000Y-3603641D02*
X23570000Y-3296359D01*
%TO.C,U23*%
X-1260000Y-14515000D02*
X-1985000Y-14515000D01*
X-1985000Y-14515000D02*
X-1985000Y-15240000D01*
X1510000Y-18735000D02*
X2235000Y-18735000D01*
X2235000Y-18735000D02*
X2235000Y-18010000D01*
X-1260000Y-18735000D02*
X-1985000Y-18735000D01*
X-1985000Y-18735000D02*
X-1985000Y-18010000D01*
X1510000Y-14515000D02*
X2235000Y-14515000D01*
%TO.C,C118*%
X13160000Y-11410000D02*
X11460000Y-11410000D01*
X7640000Y-11410000D02*
X9340000Y-11410000D01*
X7640000Y-6954437D02*
X7640000Y-11410000D01*
X13160000Y-6954437D02*
X13160000Y-11410000D01*
X12095563Y-5890000D02*
X11460000Y-5890000D01*
X8704437Y-5890000D02*
X9340000Y-5890000D01*
X8704437Y-5890000D02*
X7640000Y-6954437D01*
X12095563Y-5890000D02*
X13160000Y-6954437D01*
X8715000Y-5025000D02*
X8715000Y-5650000D01*
X8402500Y-5337500D02*
X9027500Y-5337500D01*
%TO.C,R89*%
X10403641Y5230000D02*
X10096359Y5230000D01*
X10403641Y4470000D02*
X10096359Y4470000D01*
%TO.C,C67*%
X6860000Y8442164D02*
X6860000Y8657836D01*
X6140000Y8442164D02*
X6140000Y8657836D01*
%TO.C,T16*%
X-20800000Y14000000D02*
G75*
G03*
X-20800000Y14000000I-700000J0D01*
G01*
%TO.C,R12*%
X-4862742Y57172500D02*
X-5337258Y57172500D01*
X-4862742Y56127500D02*
X-5337258Y56127500D01*
%TO.C,R28*%
X-13203641Y-29380000D02*
X-12896359Y-29380000D01*
X-13203641Y-28620000D02*
X-12896359Y-28620000D01*
%TO.C,C122*%
X-4942164Y-41840000D02*
X-5157836Y-41840000D01*
X-4942164Y-42560000D02*
X-5157836Y-42560000D01*
%TO.C,Q14*%
X19200000Y-29020000D02*
X18540000Y-29020000D01*
X20860000Y-29020000D02*
X20200000Y-29020000D01*
X20860000Y-29020000D02*
X20860000Y-31050000D01*
X18540000Y-30430000D02*
X18540000Y-29020000D01*
%TO.C,C93*%
X11457836Y-13690000D02*
X11242164Y-13690000D01*
X11457836Y-14410000D02*
X11242164Y-14410000D01*
%TO.C,D15*%
X22700000Y-34350000D02*
X22700000Y-36050000D01*
X22700000Y-36050000D02*
X20150000Y-36050000D01*
X22700000Y-34350000D02*
X20150000Y-34350000D01*
%TO.C,C78*%
X410000Y1542164D02*
X410000Y1757836D01*
X-310000Y1542164D02*
X-310000Y1757836D01*
%TO.C,U17*%
X20850000Y14860000D02*
X23050000Y14860000D01*
X20850000Y14860000D02*
X18650000Y14860000D01*
X20850000Y9640000D02*
X23050000Y9640000D01*
X20850000Y9640000D02*
X17250000Y9640000D01*
%TO.C,J1*%
X-4500000Y28700000D02*
G75*
G03*
X-4500000Y28700000I-700000J0D01*
G01*
%TO.C,D5*%
X14200000Y56550000D02*
X15900000Y56550000D01*
X15900000Y56550000D02*
X15900000Y54000000D01*
X14200000Y56550000D02*
X14200000Y54000000D01*
%TO.C,C40*%
X-12942164Y-29940000D02*
X-13157836Y-29940000D01*
X-12942164Y-30660000D02*
X-13157836Y-30660000D01*
%TO.C,R73*%
X9130000Y22846359D02*
X9130000Y23153641D01*
X8370000Y22846359D02*
X8370000Y23153641D01*
%TO.C,C63*%
X-3607836Y-14460000D02*
X-3392164Y-14460000D01*
X-3607836Y-13740000D02*
X-3392164Y-13740000D01*
%TO.C,R70*%
X-7030000Y17403641D02*
X-7030000Y17096359D01*
X-6270000Y17403641D02*
X-6270000Y17096359D01*
%TO.C,C68*%
X-4510000Y-5792164D02*
X-4510000Y-6007836D01*
X-3790000Y-5792164D02*
X-3790000Y-6007836D01*
%TO.C,T23*%
X10850000Y-29700000D02*
G75*
G03*
X10850000Y-29700000I-700000J0D01*
G01*
%TO.C,R67*%
X15410436Y-34360000D02*
X16864564Y-34360000D01*
X15410436Y-32540000D02*
X16864564Y-32540000D01*
%TO.C,J9*%
X8300000Y28700000D02*
G75*
G03*
X8300000Y28700000I-700000J0D01*
G01*
%TO.C,U25*%
X-3510000Y-7600000D02*
X-3510000Y-5650000D01*
X-3510000Y-7600000D02*
X-3510000Y-9550000D01*
X1610000Y-7600000D02*
X1610000Y-5650000D01*
X1610000Y-7600000D02*
X1610000Y-11050000D01*
%TO.C,T8*%
X-7783600Y32562800D02*
G75*
G03*
X-7783600Y32562800I-700000J0D01*
G01*
%TO.C,Q12*%
X19820000Y-33250000D02*
X19820000Y-33910000D01*
X19820000Y-31590000D02*
X19820000Y-32250000D01*
X19820000Y-31590000D02*
X21850000Y-31590000D01*
X21230000Y-33910000D02*
X19820000Y-33910000D01*
%TO.C,U34*%
X-6740000Y8100000D02*
X-6740000Y7350000D01*
X-6740000Y8100000D02*
X-6740000Y8850000D01*
X-9860000Y8100000D02*
X-9860000Y7350000D01*
X-9860000Y8100000D02*
X-9860000Y9950000D01*
%TO.C,Q20*%
X12120000Y-29550000D02*
X12120000Y-30210000D01*
X12120000Y-27890000D02*
X12120000Y-28550000D01*
X12120000Y-27890000D02*
X14150000Y-27890000D01*
X13530000Y-30210000D02*
X12120000Y-30210000D01*
D11*
%TO.C,U9*%
X-12350000Y35875000D02*
X-12450000Y35875000D01*
X-19175000Y35875000D02*
X-19150000Y35875000D01*
X-19175000Y31225000D02*
X-19150000Y31225000D01*
X-12350000Y30150000D02*
X-12350000Y35875000D01*
X-19175000Y31225000D02*
X-19175000Y35875000D01*
D12*
%TO.C,C108*%
X18538748Y-660000D02*
X19961252Y-660000D01*
X18538748Y2060000D02*
X19961252Y2060000D01*
%TO.C,C106*%
X12060000Y4592164D02*
X12060000Y4807836D01*
X11340000Y4592164D02*
X11340000Y4807836D01*
%TO.C,R86*%
X15496359Y-43980000D02*
X15803641Y-43980000D01*
X15496359Y-43220000D02*
X15803641Y-43220000D01*
%TO.C,C39*%
X-12942164Y-30890000D02*
X-13157836Y-30890000D01*
X-12942164Y-31610000D02*
X-13157836Y-31610000D01*
%TO.C,C85*%
X20589420Y-16710000D02*
X20870580Y-16710000D01*
X20589420Y-15690000D02*
X20870580Y-15690000D01*
%TO.C,C2*%
X63748Y58690000D02*
X1486252Y58690000D01*
X63748Y60510000D02*
X1486252Y60510000D01*
%TO.C,R66*%
X15372936Y-36660000D02*
X16827064Y-36660000D01*
X15372936Y-34840000D02*
X16827064Y-34840000D01*
%TO.C,R17*%
X6277500Y59637258D02*
X6277500Y59162742D01*
X7322500Y59637258D02*
X7322500Y59162742D01*
%TO.C,R62*%
X30000Y-1203641D02*
X30000Y-896359D01*
X-730000Y-1203641D02*
X-730000Y-896359D01*
%TO.C,L1*%
X-5306000Y47206000D02*
X-5306000Y52794000D01*
X-10894000Y52794000D02*
X-10894000Y47206000D01*
%TO.C,C92*%
X16207836Y-9990000D02*
X15992164Y-9990000D01*
X16207836Y-10710000D02*
X15992164Y-10710000D01*
%TO.C,R64*%
X24346359Y-35880000D02*
X24653641Y-35880000D01*
X24346359Y-35120000D02*
X24653641Y-35120000D01*
%TO.C,C7*%
X-9192164Y60010000D02*
X-9407836Y60010000D01*
X-9192164Y59290000D02*
X-9407836Y59290000D01*
%TO.C,L6*%
X25590000Y-288748D02*
X25590000Y-811252D01*
X27810000Y-288748D02*
X27810000Y-811252D01*
%TO.C,L3*%
X27550000Y-9250000D02*
X27550000Y-6500000D01*
X27550000Y-6500000D02*
X19950000Y-6500000D01*
X19950000Y-9250000D02*
X19950000Y-6500000D01*
X27550000Y-14100000D02*
X19950000Y-14100000D01*
X19950000Y-14100000D02*
X19950000Y-11350000D01*
X27550000Y-14100000D02*
X27550000Y-11350000D01*
%TO.C,U24*%
X5400000Y16385000D02*
X7600000Y16385000D01*
X5400000Y16385000D02*
X3200000Y16385000D01*
X5400000Y9615000D02*
X7600000Y9615000D01*
X5400000Y9615000D02*
X1800000Y9615000D01*
D11*
%TO.C,U27*%
X975000Y4075000D02*
X750000Y4075000D01*
X975000Y7425000D02*
X675000Y7425000D01*
X-2375000Y7425000D02*
X-2075000Y7425000D01*
X-2375000Y4075000D02*
X-2075000Y4075000D01*
X975000Y4075000D02*
X975000Y7425000D01*
X-2375000Y4075000D02*
X-2375000Y7425000D01*
X750000Y4075000D02*
X750000Y2850000D01*
D12*
%TO.C,T9*%
X-7783600Y29514800D02*
G75*
G03*
X-7783600Y29514800I-700000J0D01*
G01*
%TO.C,J2*%
X-2900000Y29850000D02*
G75*
G03*
X-2900000Y29850000I-700000J0D01*
G01*
%TO.C,T44*%
X27950000Y-38150000D02*
G75*
G03*
X27950000Y-38150000I-700000J0D01*
G01*
%TO.C,Q26*%
X7400000Y900000D02*
X9800000Y900000D01*
X9800000Y900000D02*
X9800000Y1950000D01*
X8000000Y4200000D02*
X9800000Y4200000D01*
X9800000Y4200000D02*
X9800000Y3150000D01*
%TO.C,C52*%
X9860000Y-13857836D02*
X9860000Y-13642164D01*
X9140000Y-13857836D02*
X9140000Y-13642164D01*
%TO.C,C95*%
X11457836Y-12740000D02*
X11242164Y-12740000D01*
X11457836Y-13460000D02*
X11242164Y-13460000D01*
%TO.C,R11*%
X15462742Y51427500D02*
X15937258Y51427500D01*
X15462742Y52472500D02*
X15937258Y52472500D01*
%TO.C,T3*%
X-12250000Y-15150000D02*
G75*
G03*
X-12250000Y-15150000I-700000J0D01*
G01*
%TO.C,Q15*%
X25400000Y-30480000D02*
X26060000Y-30480000D01*
X23740000Y-30480000D02*
X24400000Y-30480000D01*
X23740000Y-30480000D02*
X23740000Y-28450000D01*
X26060000Y-29070000D02*
X26060000Y-30480000D01*
%TO.C,C111*%
X21690000Y-3092164D02*
X21690000Y-3307836D01*
X22410000Y-3092164D02*
X22410000Y-3307836D01*
%TO.C,C31*%
X-12042164Y-32840000D02*
X-12257836Y-32840000D01*
X-12042164Y-33560000D02*
X-12257836Y-33560000D01*
%TO.C,T21*%
X9000000Y-4800000D02*
G75*
G03*
X9000000Y-4800000I-700000J0D01*
G01*
%TO.C,C79*%
X1340000Y8107836D02*
X1340000Y7892164D01*
X2060000Y8107836D02*
X2060000Y7892164D01*
%TO.C,T24*%
X-800000Y-31350000D02*
G75*
G03*
X-800000Y-31350000I-700000J0D01*
G01*
%TO.C,U3*%
X-13675000Y48620000D02*
X-13675000Y46720000D01*
X-15995000Y47220000D02*
X-15995000Y48620000D01*
%TO.C,C3*%
X3790000Y54540580D02*
X3790000Y54259420D01*
X4810000Y54540580D02*
X4810000Y54259420D01*
%TO.C,C65*%
X9735000Y-20782836D02*
X9735000Y-20567164D01*
X9015000Y-20782836D02*
X9015000Y-20567164D01*
%TO.C,Q13*%
X23220000Y-33250000D02*
X23220000Y-33910000D01*
X23220000Y-31590000D02*
X23220000Y-32250000D01*
X23220000Y-31590000D02*
X25250000Y-31590000D01*
X24630000Y-33910000D02*
X23220000Y-33910000D01*
%TO.C,U32*%
X19450000Y-1040000D02*
X17950000Y-1040000D01*
X20950000Y-4260000D02*
X17950000Y-4260000D01*
%TO.C,C8*%
X4452164Y59270000D02*
X4667836Y59270000D01*
X4452164Y59990000D02*
X4667836Y59990000D01*
%TO.C,T31*%
X-8500000Y19650000D02*
G75*
G03*
X-8500000Y19650000I-700000J0D01*
G01*
%TO.C,R10*%
X13437258Y43722500D02*
X12962742Y43722500D01*
X13437258Y42677500D02*
X12962742Y42677500D01*
%TO.C,C62*%
X-3392164Y-14690000D02*
X-3607836Y-14690000D01*
X-3392164Y-15410000D02*
X-3607836Y-15410000D01*
%TO.C,C89*%
X13565000Y-7888748D02*
X13565000Y-8411252D01*
X15035000Y-7888748D02*
X15035000Y-8411252D01*
%TO.C,T50*%
X7000000Y23000000D02*
G75*
G03*
X7000000Y23000000I-700000J0D01*
G01*
%TO.C,J6*%
X3500000Y29850000D02*
G75*
G03*
X3500000Y29850000I-700000J0D01*
G01*
%TO.C,T14*%
X-23300000Y14000000D02*
G75*
G03*
X-23300000Y14000000I-700000J0D01*
G01*
%TO.C,C71*%
X692164Y-12160000D02*
X907836Y-12160000D01*
X692164Y-11440000D02*
X907836Y-11440000D01*
%TO.C,D12*%
X-350000Y-30690000D02*
X-350000Y-34350000D01*
X1550000Y-30690000D02*
X1550000Y-34350000D01*
X-350000Y-30690000D02*
X1550000Y-30690000D01*
%TO.C,U35*%
X-4400000Y26960000D02*
X-3600000Y26960000D01*
X-4400000Y26960000D02*
X-5200000Y26960000D01*
X-4400000Y23840000D02*
X-3600000Y23840000D01*
X-4400000Y23840000D02*
X-6200000Y23840000D01*
%TO.C,T27*%
X-8500000Y11450000D02*
G75*
G03*
X-8500000Y11450000I-700000J0D01*
G01*
%TO.C,U26*%
X13150000Y16385000D02*
X15350000Y16385000D01*
X13150000Y16385000D02*
X10950000Y16385000D01*
X13150000Y9615000D02*
X15350000Y9615000D01*
X13150000Y9615000D02*
X9550000Y9615000D01*
%TO.C,C125*%
X2010000Y5642164D02*
X2010000Y5857836D01*
X1290000Y5642164D02*
X1290000Y5857836D01*
%TO.C,C75*%
X-1840000Y692164D02*
X-1840000Y907836D01*
X-2560000Y692164D02*
X-2560000Y907836D01*
%TO.C,R99*%
X17770000Y-46346359D02*
X17770000Y-46653641D01*
X18530000Y-46346359D02*
X18530000Y-46653641D01*
%TO.C,C14*%
X960000Y48488748D02*
X960000Y49911252D01*
X-860000Y48488748D02*
X-860000Y49911252D01*
%TO.C,D19*%
X9250000Y-3760000D02*
X9250000Y-100000D01*
X7350000Y-3760000D02*
X7350000Y-100000D01*
X9250000Y-3760000D02*
X7350000Y-3760000D01*
%TO.C,R25*%
X-13846359Y-31870000D02*
X-14153641Y-31870000D01*
X-13846359Y-32630000D02*
X-14153641Y-32630000D01*
%TO.C,U21*%
X-2300000Y16385000D02*
X-100000Y16385000D01*
X-2300000Y16385000D02*
X-4500000Y16385000D01*
X-2300000Y10915000D02*
X-100000Y10915000D01*
X-2300000Y10915000D02*
X-5900000Y10915000D01*
%TO.C,D18*%
X14900000Y3610000D02*
X14900000Y-50000D01*
X16800000Y3610000D02*
X16800000Y-50000D01*
X14900000Y3610000D02*
X16800000Y3610000D01*
%TO.C,T45*%
X27950000Y-40200000D02*
G75*
G03*
X27950000Y-40200000I-700000J0D01*
G01*
%TO.C,FB5*%
X14187221Y-6210000D02*
X14512779Y-6210000D01*
X14187221Y-5190000D02*
X14512779Y-5190000D01*
%TO.C,T40*%
X-10300000Y9150000D02*
G75*
G03*
X-10300000Y9150000I-700000J0D01*
G01*
%TO.C,C81*%
X7440000Y23107836D02*
X7440000Y22892164D01*
X8160000Y23107836D02*
X8160000Y22892164D01*
%TO.C,C116*%
X6657836Y-8190000D02*
X6442164Y-8190000D01*
X6657836Y-8910000D02*
X6442164Y-8910000D01*
%TO.C,R82*%
X9996359Y-28305000D02*
X10303641Y-28305000D01*
X9996359Y-27545000D02*
X10303641Y-27545000D01*
%TO.C,Q23*%
X26000000Y-46530000D02*
X26660000Y-46530000D01*
X24340000Y-46530000D02*
X25000000Y-46530000D01*
X24340000Y-46530000D02*
X24340000Y-44500000D01*
X26660000Y-45120000D02*
X26660000Y-46530000D01*
%TO.C,C110*%
X15032164Y-4610000D02*
X15247836Y-4610000D01*
X15032164Y-3890000D02*
X15247836Y-3890000D01*
%TO.C,T32*%
X-3000000Y1300000D02*
G75*
G03*
X-3000000Y1300000I-700000J0D01*
G01*
%TO.C,FB6*%
X21390000Y-24087221D02*
X21390000Y-24412779D01*
X22410000Y-24087221D02*
X22410000Y-24412779D01*
%TO.C,R53*%
X-1253641Y-13380000D02*
X-946359Y-13380000D01*
X-1253641Y-12620000D02*
X-946359Y-12620000D01*
%TO.C,R58*%
X646359Y-13180000D02*
X953641Y-13180000D01*
X646359Y-12420000D02*
X953641Y-12420000D01*
%TO.C,J7*%
X5100000Y28700000D02*
G75*
G03*
X5100000Y28700000I-700000J0D01*
G01*
%TO.C,R79*%
X10105000Y-24053641D02*
X10105000Y-23746359D01*
X9345000Y-24053641D02*
X9345000Y-23746359D01*
%TO.C,T33*%
X-3000000Y3350000D02*
G75*
G03*
X-3000000Y3350000I-700000J0D01*
G01*
%TO.C,R9*%
X-16637258Y44827500D02*
X-16162742Y44827500D01*
X-16637258Y45872500D02*
X-16162742Y45872500D01*
%TO.C,C66*%
X9140000Y-18592164D02*
X9140000Y-18807836D01*
X9860000Y-18592164D02*
X9860000Y-18807836D01*
%TO.C,R76*%
X-6570000Y1946359D02*
X-6570000Y2253641D01*
X-7330000Y1946359D02*
X-7330000Y2253641D01*
%TO.C,J3*%
X-1300000Y28700000D02*
G75*
G03*
X-1300000Y28700000I-700000J0D01*
G01*
%TO.C,C44*%
X-2038748Y54210000D02*
X-3461252Y54210000D01*
X-2038748Y52390000D02*
X-3461252Y52390000D01*
%TO.C,C86*%
X20589420Y-18210000D02*
X20870580Y-18210000D01*
X20589420Y-17190000D02*
X20870580Y-17190000D01*
%TO.C,T22*%
X27800000Y-26600000D02*
G75*
G03*
X27800000Y-26600000I-700000J0D01*
G01*
%TO.C,L2*%
X9294000Y47206000D02*
X9294000Y52794000D01*
X3706000Y52794000D02*
X3706000Y47206000D01*
%TO.C,C112*%
X24540000Y-3342164D02*
X24540000Y-3557836D01*
X25260000Y-3342164D02*
X25260000Y-3557836D01*
%TO.C,R56*%
X-4500000Y-3896359D02*
X-4500000Y-4203641D01*
X-3740000Y-3896359D02*
X-3740000Y-4203641D01*
%TO.C,C77*%
X2410000Y1684420D02*
X2410000Y1965580D01*
X1390000Y1684420D02*
X1390000Y1965580D01*
%TO.C,U4*%
X18625000Y46402500D02*
X18625000Y44502500D01*
X16305000Y45002500D02*
X16305000Y46402500D01*
%TO.C,D11*%
X-650000Y-36860000D02*
X-650000Y-33200000D01*
X-2550000Y-36860000D02*
X-2550000Y-33200000D01*
X-650000Y-36860000D02*
X-2550000Y-36860000D01*
%TO.C,L7*%
X-1260000Y56711252D02*
X-1260000Y56188748D01*
X960000Y56711252D02*
X960000Y56188748D01*
%TO.C,C57*%
X-5857836Y22140000D02*
X-5642164Y22140000D01*
X-5857836Y22860000D02*
X-5642164Y22860000D01*
%TO.C,T11*%
X16800000Y39950000D02*
G75*
G03*
X16800000Y39950000I-700000J0D01*
G01*
%TO.C,C1*%
X13090580Y48810000D02*
X12809420Y48810000D01*
X13090580Y47790000D02*
X12809420Y47790000D01*
%TO.C,R49*%
X3753641Y-31495000D02*
X3446359Y-31495000D01*
X3753641Y-32255000D02*
X3446359Y-32255000D01*
%TD*%
M02*
