M48
; DRILL file {KiCad 6.99.0-1.20221101gitf80c150.fc36} date Fri 25 Nov 2022 18:11:44 GMT
; FORMAT={-:-/ absolute / metric / decimal}
; #@! TF.CreationDate,2022-11-25T18:11:44+00:00
; #@! TF.GenerationSoftware,Kicad,Pcbnew,6.99.0-1.20221101gitf80c150.fc36
; #@! TF.FileFunction,Plated,1,6,PTH
FMAT,2
METRIC
; #@! TA.AperFunction,Plated,PTH,ViaDrill
T1C0.200
; #@! TA.AperFunction,Plated,PTH,ComponentDrill
T2C0.200
; #@! TA.AperFunction,Plated,PTH,ViaDrill
T3C0.300
; #@! TA.AperFunction,Plated,PTH,ComponentDrill
T4C0.300
; #@! TA.AperFunction,Plated,PTH,ComponentDrill
T5C0.500
; #@! TA.AperFunction,Plated,PTH,ComponentDrill
T6C0.550
%
G90
G05
T1
X-25.9Y-18.6
X-20.9Y-10.75
X-20.85Y-11.55
X-20.83Y-12.37
X-20.8Y-8.0
X-20.7Y-4.67
X-20.7Y-5.75
X-19.95Y-3.95
X-18.8Y14.4
X-17.4Y3.2
X-17.0Y-0.4
X-16.7Y-32.95
X-16.1Y42.3
X-16.0Y-9.55
X-15.8Y-33.05
X-15.5Y-4.9
X-15.4Y2.55
X-15.35Y16.85
X-15.2Y20.4
X-14.9Y16.35
X-14.85Y-25.8
X-14.8Y-28.5
X-14.6Y32.65
X-14.55Y33.4
X-14.3Y-10.85
X-13.85Y-0.1
X-13.85Y-2.65
X-13.6Y39.2
X-13.3Y42.85
X-13.3Y-1.55
X-12.9Y-2.6
X-12.75Y3.95
X-12.75Y3.3
X-12.75Y2.5
X-12.75Y-1.05
X-12.7Y43.25
X-12.55Y20.25
X-12.45Y38.75
X-12.3Y-11.6
X-12.1Y17.5
X-11.9Y43.25
X-11.9Y42.25
X-10.9Y36.0
X-10.8Y2.4
X-10.8Y0.1
X-10.75Y-0.6
X-10.7Y-5.65
X-10.65Y1.7
X-10.25Y35.35
X-10.25Y1.1
X-10.2Y10.35
X-10.2Y-6.3
X-9.6Y18.55
X-9.45Y-5.75
X-9.4Y3.35
X-9.3Y2.6
X-9.25Y1.25
X-9.25Y0.5
X-9.25Y-0.3
X-9.25Y-2.0
X-9.15Y10.4
X-9.15Y-3.9
X-8.75Y-39.65
X-8.45Y18.2
X-8.0Y56.5
X-8.0Y56.0
X-8.0Y55.5
X-8.0Y10.95
X-7.9Y20.4
X-7.8Y0.1
X-7.75Y16.25
X-7.7Y0.9
X-7.7Y-2.3
X-7.7Y-3.6
X-7.65Y-1.55
X-7.65Y-4.3
X-6.6Y-27.9
X-6.6Y-28.85
X-6.35Y58.9
X-5.4Y36.75
X-5.15Y57.4
X-4.7Y59.45
X-4.6Y33.0
X-3.975Y27.075
X-3.9Y11.55
X-3.5Y59.45
X-3.17Y32.95
X-3.0Y16.6
X-2.7Y53.35
X-2.3Y54.1
X-2.15Y11.05
X-2.0Y22.0
X-1.95Y57.3
X-1.7Y32.8
X-1.3Y47.0
X-1.05Y12.1
X-0.65Y19.9
X-0.6Y34.05
X-0.51Y32.81
X-0.5Y20.55
X-0.5Y15.25
X0.65Y34.05
X0.65Y32.82
X1.0Y56.4
X1.25Y46.75
X1.35Y57.25
X1.81Y32.8
X1.95Y24.6
X3.1Y32.83
X3.75Y16.25
X3.85Y18.05
X4.35Y19.8
X4.4Y34.1
X5.25Y34.05
X5.38Y32.8
X6.05Y34.2
X6.55Y32.8
X6.6Y56.5
X6.6Y56.0
X6.6Y55.5
X6.85Y34.2
X6.85Y20.05
X7.2Y21.7
X7.7Y32.8
X9.6Y56.3
X11.85Y18.6
X13.2Y44.2
X13.2Y43.412
X13.2Y42.6
X13.207Y41.793
X14.75Y-17.15
X15.95Y44.1
X16.05Y-17.15
X17.05Y47.45
X18.1Y41.6
X18.7Y43.3
X19.15Y46.5
X19.25Y44.05
X20.05Y46.55
X20.05Y31.85
X20.1Y43.85
X21.0Y46.55
X21.0Y45.05
X21.5Y-0.95
X21.9Y48.05
X22.0Y46.55
X22.05Y45.05
X22.1Y31.85
X23.45Y47.25
X23.45Y44.3
X24.1Y43.3
X24.1Y-15.8
X24.15Y48.25
X24.65Y43.3
X24.7Y48.25
X25.2Y43.3
X25.25Y48.25
X25.75Y43.3
X25.8Y48.25
X26.6Y-2.95
T2
X4.467Y-15.175
X4.467Y-16.625
X4.467Y-18.075
X5.917Y-15.175
X5.917Y-16.625
X5.917Y-18.075
X7.367Y-15.175
X7.367Y-16.625
X7.367Y-18.075
X14.175Y-13.425
X14.175Y-14.4
X14.175Y-15.375
X15.15Y-13.425
X15.15Y-14.4
X15.15Y-15.375
X16.125Y-13.425
X16.125Y-14.4
X16.125Y-15.375
T3
X-25.7Y-45.65
X-25.55Y-3.35
X-25.451Y-19.66
X-25.451Y-22.2
X-25.451Y-24.74
X-24.05Y-0.6
X-22.65Y-9.1
X-22.25Y-19.66
X-22.05Y-9.1
X-22.05Y-13.75
X-21.45Y-1.2
X-20.9Y-9.9
X-20.85Y-6.85
X-20.8Y16.625
X-20.1Y17.1
X-19.4Y49.6
X-19.275Y-1.575
X-19.2Y-7.4
X-19.2Y-42.0
X-18.4Y-32.4
X-18.0Y-3.15
X-17.85Y-37.2
X-17.325Y-35.525
X-17.17Y-21.641
X-17.0Y34.2
X-16.4Y-18.2
X-16.4Y-19.1
X-16.15Y46.05
X-16.0Y20.95
X-15.95Y-31.25
X-15.55Y43.9
X-15.25Y44.4
X-15.0Y8.1
X-14.95Y43.9
X-14.85Y55.4
X-14.75Y60.3
X-14.65Y44.4
X-14.6Y-22.0
X-14.6Y-22.8
X-14.6Y-45.15
X-14.45Y6.05
X-14.35Y-19.8
X-14.3Y-31.25
X-14.3Y-36.1
X-14.25Y-29.0
X-14.25Y-37.65
X-14.2Y55.404
X-14.1Y60.3
X-13.85Y41.1
X-13.65Y55.4
X-13.6Y53.2
X-13.55Y46.35
X-13.45Y60.3
X-13.4Y39.95
X-13.15Y-23.85
X-12.95Y-13.75
X-12.8Y-12.35
X-12.7Y41.7
X-12.7Y40.35
X-12.6Y-25.75
X-12.55Y11.8
X-12.5Y54.45
X-12.5Y53.85
X-12.45Y59.381
X-12.45Y56.5
X-12.0Y40.7
X-12.0Y-14.55
X-11.95Y-21.55
X-11.9Y54.45
X-11.9Y53.85
X-11.9Y36.6
X-11.4Y-31.25
X-11.2Y60.4
X-11.15Y-19.4
X-11.1Y58.95
X-11.1Y57.35
X-11.05Y8.1
X-10.95Y47.35
X-10.75Y52.8
X-10.75Y50.05
X-10.6Y-42.25
X-10.45Y-1.3
X-10.4Y47.35
X-10.4Y-32.3
X-10.109Y32.715
X-10.109Y31.902
X-10.05Y33.95
X-9.85Y47.35
X-9.85Y-7.9
X-9.85Y-8.5
X-9.85Y-9.1
X-9.85Y-9.7
X-9.85Y-17.8
X-9.8Y50.086
X-9.75Y43.2
X-9.7Y41.7
X-9.7Y41.0
X-9.7Y40.3
X-9.5Y46.25
X-9.5Y-44.35
X-9.45Y52.85
X-9.3Y47.35
X-9.25Y-1.25
X-9.25Y-7.9
X-9.25Y-8.5
X-9.25Y-9.1
X-9.25Y-9.7
X-9.1Y14.5
X-9.0Y-17.8
X-8.85Y50.086
X-8.75Y47.35
X-8.75Y-31.9
X-8.55Y45.95
X-8.55Y45.4
X-8.3Y16.85
X-8.25Y60.3
X-8.25Y59.7
X-8.2Y47.35
X-8.2Y-33.05
X-8.15Y-40.7
X-7.9Y58.95
X-7.8Y-41.45
X-7.75Y-9.3
X-7.7Y50.1
X-7.65Y60.3
X-7.65Y59.7
X-7.65Y47.35
X-7.5Y32.05
X-7.3Y-33.85
X-7.3Y-34.45
X-7.3Y-35.05
X-7.3Y-35.65
X-7.3Y-36.25
X-7.05Y30.85
X-7.05Y-41.45
X-6.9Y-40.7
X-6.85Y52.775
X-6.8Y53.65
X-6.6Y-19.7
X-6.35Y30.85
X-6.2Y-42.2
X-6.2Y-43.55
X-6.2Y-44.2
X-6.175Y52.775
X-6.15Y-17.1
X-6.15Y-18.0
X-5.55Y-20.3
X-5.55Y-21.1
X-5.5Y-34.4
X-5.5Y-35.0
X-5.5Y-35.6
X-5.5Y-36.2
X-5.45Y40.2
X-5.45Y39.65
X-5.45Y39.1
X-5.45Y38.55
X-5.45Y30.75
X-5.4Y47.35
X-5.4Y41.7
X-5.4Y35.7
X-5.35Y-32.2
X-5.283Y34.646
X-5.283Y33.579
X-5.25Y42.7
X-5.2Y48.8
X-5.2Y-37.75
X-5.2Y-38.35
X-4.956Y49.9
X-4.95Y6.95
X-4.8Y27.1
X-4.75Y-22.65
X-4.65Y55.6
X-4.65Y55.0
X-4.65Y-18.55
X-4.6Y-37.75
X-4.6Y-38.35
X-4.55Y9.3
X-4.55Y-1.6
X-4.4Y0.35
X-4.35Y6.1
X-4.15Y-2.45
X-4.15Y-8.2
X-4.15Y-10.85
X-4.05Y55.6
X-4.05Y55.0
X-4.0Y54.05
X-4.0Y53.1
X-4.0Y15.9
X-3.975Y13.325
X-3.95Y14.6
X-3.95Y-32.1
X-3.9Y17.1
X-3.85Y8.6
X-3.85Y7.8
X-3.85Y-42.25
X-3.75Y-19.3
X-3.7Y2.5
X-3.65Y5.25
X-3.5Y56.3
X-3.45Y-33.75
X-3.45Y-34.35
X-3.45Y-34.95
X-3.45Y-35.55
X-3.45Y-36.15
X-3.35Y12.65
X-3.3Y14.0
X-3.3Y-16.85
X-3.15Y49.6
X-3.05Y15.85
X-3.05Y8.65
X-3.05Y7.8
X-2.95Y56.3
X-2.95Y-43.45
X-2.95Y-44.35
X-2.85Y27.15
X-2.8Y22.2
X-2.4Y50.9
X-2.4Y9.3
X-2.35Y52.7
X-2.2Y2.15
X-2.0Y50.1
X-1.95Y-14.25
X-1.85Y15.55
X-1.55Y-37.65
X-1.5Y11.45
X-1.45Y43.25
X-1.45Y41.8
X-1.45Y40.3
X-1.45Y38.85
X-1.4Y19.8
X-1.35Y-0.55
X-1.3Y0.4
X-1.3Y-1.55
X-1.3Y-7.45
X-1.275Y-13.775
X-1.2Y14.85
X-1.1Y16.0
X-0.6Y24.35
X-0.6Y-21.6
X-0.55Y17.15
X-0.55Y-41.3
X-0.475Y11.375
X-0.4Y49.8
X-0.4Y0.4
X-0.15Y-8.55
X-0.1Y-13.75
X0.154Y25.396
X0.35Y44.75
X0.35Y40.3
X0.4Y41.8
X0.4Y-28.3
X0.55Y-6.5
X0.85Y8.5
X0.9Y1.15
X1.0Y-13.65
X1.05Y-41.3
X1.1Y60.25
X1.1Y59.7
X1.1Y59.15
X1.15Y49.75
X1.35Y53.35
X1.4Y54.0
X1.45Y-7.45
X1.5Y58.25
X1.55Y-1.35
X1.65Y21.85
X1.8Y56.25
X1.8Y-5.45
X1.9Y9.35
X1.9Y-3.35
X1.95Y-14.95
X2.05Y58.25
X2.062Y-18.587
X2.175Y42.15
X2.2Y44.75
X2.2Y43.25
X2.2Y36.05
X2.25Y6.25
X2.4Y5.25
X2.45Y56.25
X2.45Y-9.8
X2.45Y-20.6
X2.55Y7.65
X2.6Y58.25
X3.0Y-26.5
X3.1Y56.25
X3.45Y25.55
X3.45Y-4.0
X3.467Y-14.283
X3.625Y-45.8
X3.65Y21.2
X3.75Y52.8
X3.75Y49.9
X3.75Y14.6
X3.75Y12.0
X3.85Y-12.95
X3.9Y19.2
X3.9Y-10.35
X4.0Y44.75
X4.0Y36.0
X4.0Y-43.25
X4.05Y38.9
X4.05Y37.4
X4.05Y17.3
X4.05Y10.75
X4.15Y13.35
X4.15Y-31.15
X4.25Y15.2
X4.35Y-34.2
X4.35Y-34.75
X4.45Y-12.4
X4.7Y-11.6
X4.85Y21.2
X4.85Y17.85
X4.85Y11.3
X4.9Y-34.2
X4.9Y-34.75
X4.9Y-40.3
X5.05Y16.25
X5.05Y12.75
X5.1Y-2.4
X5.2Y-28.0
X5.25Y13.95
X5.376Y50.086
X5.5Y-20.2
X5.6Y-21.45
X5.8Y46.95
X5.8Y37.4
X5.8Y15.0
X5.85Y43.3
X5.85Y40.3
X5.85Y38.85
X5.85Y36.0
X5.9Y19.1
X6.05Y-24.15
X6.25Y-19.9
X6.35Y50.55
X6.675Y18.475
X6.75Y17.65
X6.9Y20.95
X6.9Y19.3
X6.95Y12.75
X6.95Y10.05
X6.95Y0.55
X7.0Y5.35
X7.05Y15.95
X7.1Y-21.15
X7.5Y-45.7
X7.55Y-20.25
X7.647Y46.95
X7.65Y44.75
X7.65Y43.3
X7.65Y40.35
X7.65Y38.85
X7.65Y37.4
X7.7Y-42.8
X7.8Y24.3
X7.9Y7.15
X7.9Y-11.6
X7.95Y50.55
X8.0Y0.85
X8.1Y-7.95
X8.4Y-13.8
X8.5Y7.15
X8.5Y-19.25
X8.55Y-21.15
X8.6Y0.85
X8.75Y52.8
X8.75Y50.2
X8.75Y49.6
X8.95Y16.6
X9.1Y-10.3
X9.1Y-12.3
X9.1Y-30.65
X9.2Y33.2
X9.3Y-15.05
X9.35Y50.2
X9.35Y49.6
X9.45Y47.0
X9.45Y44.75
X9.45Y43.3
X9.5Y40.35
X9.5Y38.9
X9.5Y37.4
X9.6Y-22.4
X9.95Y21.7
X10.0Y4.0
X10.4Y57.75
X10.4Y-18.1
X10.4Y-23.95
X10.579Y-8.87
X10.6Y55.7
X10.6Y55.1
X10.85Y33.8
X11.15Y55.7
X11.15Y55.1
X11.15Y43.25
X11.15Y40.4
X11.15Y38.9
X11.15Y-17.5
X11.25Y46.85
X11.25Y44.75
X11.3Y-18.7
X11.4Y15.9
X11.4Y12.7
X11.45Y19.25
X11.45Y17.95
X11.55Y10.7
X11.55Y-30.7
X11.6Y-24.25
X11.75Y-16.9
X11.85Y20.4
X11.85Y12.0
X11.85Y-37.0
X11.9Y14.15
X11.9Y13.35
X11.9Y-7.05
X11.9Y-7.65
X12.05Y-34.6
X12.1Y50.7
X12.1Y50.05
X12.15Y15.95
X12.2Y-1.6
X12.2Y-2.2
X12.2Y-2.8
X12.2Y-3.4
X12.3Y17.85
X12.35Y1.05
X12.35Y0.45
X12.35Y-0.15
X12.5Y-7.05
X12.5Y-7.65
X12.55Y60.35
X12.55Y59.8
X12.55Y59.25
X12.65Y-27.05
X12.9Y-39.4
X12.95Y1.05
X12.95Y0.45
X12.95Y-0.15
X12.95Y-29.55
X13.2Y38.6
X13.2Y16.95
X13.289Y-8.388
X13.3Y47.35
X13.3Y35.35
X13.3Y34.75
X13.3Y5.3
X13.35Y50.15
X13.35Y49.15
X13.35Y37.15
X13.4Y33.9
X13.4Y33.25
X13.6Y-25.55
X13.65Y39.4
X13.7Y50.65
X13.7Y49.65
X13.95Y10.3
X13.95Y-4.4
X14.0Y52.75
X14.3Y30.9
X14.3Y21.55
X14.3Y-30.5
X14.4Y17.95
X14.45Y-42.15
X14.8Y19.4
X14.8Y10.85
X14.8Y10.05
X14.9Y30.9
X14.9Y18.6
X14.9Y17.3
X14.9Y15.9
X15.4Y60.2
X15.4Y59.6
X15.4Y59.0
X15.4Y58.4
X15.4Y-17.55
X15.45Y-21.0
X15.6Y32.35
X15.6Y31.6
X15.7Y42.05
X15.8Y52.3
X15.8Y51.7
X15.85Y35.5
X15.9Y34.0
X15.9Y33.3
X16.0Y1.6
X16.05Y-29.0
X16.3Y-22.1
X16.3Y-30.3
X16.337Y42.563
X16.4Y-25.45
X16.5Y41.0
X16.6Y-32.5
X16.65Y-5.2
X16.85Y-22.1
X16.9Y-17.9
X17.0Y-43.65
X17.1Y38.9
X17.1Y23.45
X17.1Y19.9
X17.35Y-25.55
X17.35Y-26.4
X17.4Y-22.1
X17.65Y15.0
X17.7Y-16.1
X17.7Y-16.7
X17.7Y-17.3
X17.7Y-17.9
X17.75Y-29.2
X17.95Y-22.1
X18.0Y35.05
X18.0Y-19.6
X18.0Y-27.8
X18.25Y-13.3
X18.25Y-13.9
X18.3Y-17.3
X18.3Y-17.9
X18.35Y-30.1
X18.65Y-32.75
X18.8Y35.05
X18.8Y-28.35
X18.8Y-45.4
X18.85Y4.55
X18.85Y-13.3
X19.1Y49.35
X19.1Y48.75
X19.1Y13.55
X19.116Y10.316
X19.15Y12.25
X19.25Y5.25
X19.3Y-27.75
X19.4Y28.7
X19.4Y7.75
X19.45Y-1.75
X19.45Y-2.35
X19.45Y-2.95
X19.45Y-3.55
X19.45Y-13.3
X19.6Y24.25
X19.6Y-30.75
X19.6Y-44.0
X19.65Y12.9
X19.65Y10.95
X19.7Y49.35
X19.7Y48.75
X19.7Y9.75
X20.05Y-13.3
X20.3Y49.35
X20.3Y48.75
X20.65Y6.1
X20.681Y22.932
X22.1Y-19.3
X22.1Y-19.9
X22.15Y-32.55
X22.55Y8.3
X22.6Y-13.85
X22.95Y-29.4
X23.15Y-33.75
X23.2Y-17.3
X23.3Y6.15
X23.35Y8.3
X23.4Y-18.4
X23.433Y-43.845
X23.5Y-0.2
X23.5Y-0.8
X24.0Y-36.55
X24.1Y-0.2
X24.1Y-0.8
X24.6Y-36.55
X24.65Y-4.65
X24.65Y-5.25
X24.65Y-6.05
X24.7Y-0.2
X24.7Y-0.8
X25.05Y-17.85
X25.5Y-13.3
X25.6Y-43.8
X26.25Y-28.75
X26.45Y2.3
X26.45Y1.7
X26.75Y-5.2
X26.75Y-5.8
X26.75Y-6.4
X26.8Y-19.35
X26.8Y-19.95
X26.9Y-18.2
X27.05Y2.3
X27.05Y1.7
X27.1Y5.0
X27.35Y-5.2
X27.35Y-5.8
X27.35Y-6.4
X27.4Y-19.35
X27.4Y-19.95
X27.5Y-13.85
X27.6Y20.8
X27.6Y16.0
X27.6Y11.0
X27.65Y2.3
X27.65Y1.7
T4
X-0.625Y-15.875
X-0.625Y-16.625
X-0.625Y-17.375
X0.125Y-15.875
X0.125Y-16.625
X0.125Y-17.375
X0.875Y-15.875
X0.875Y-16.625
X0.875Y-17.375
T5
G00X25.875Y35.7
M15
G01X26.525Y35.7
M16
G05
G00X25.875Y28.7
M15
G01X26.525Y28.7
M16
G05
T6
G00X23.5Y34.55
M15
G01X23.5Y34.85
M16
G05
G00X23.5Y29.55
M15
G01X23.5Y29.85
M16
G05
T0
M30
