%TF.GenerationSoftware,KiCad,Pcbnew,6.99.0-1.20221101gitf80c150.fc36*%
%TF.CreationDate,2022-11-27T18:51:58+00:00*%
%TF.ProjectId,bugg-main-r4,62756767-2d6d-4616-996e-2d72342e6b69,rev?*%
%TF.SameCoordinates,Original*%
%TF.FileFunction,Soldermask,Bot*%
%TF.FilePolarity,Negative*%
%FSLAX46Y46*%
G04 Gerber Fmt 4.6, Leading zero omitted, Abs format (unit mm)*
G04 Created by KiCad (PCBNEW 6.99.0-1.20221101gitf80c150.fc36) date 2022-11-27 18:51:58*
%MOMM*%
%LPD*%
G01*
G04 APERTURE LIST*
G04 Aperture macros list*
%AMRoundRect*
0 Rectangle with rounded corners*
0 $1 Rounding radius*
0 $2 $3 $4 $5 $6 $7 $8 $9 X,Y pos of 4 corners*
0 Add a 4 corners polygon primitive as box body*
4,1,4,$2,$3,$4,$5,$6,$7,$8,$9,$2,$3,0*
0 Add four circle primitives for the rounded corners*
1,1,$1+$1,$2,$3*
1,1,$1+$1,$4,$5*
1,1,$1+$1,$6,$7*
1,1,$1+$1,$8,$9*
0 Add four rect primitives between the rounded corners*
20,1,$1+$1,$2,$3,$4,$5,0*
20,1,$1+$1,$4,$5,$6,$7,0*
20,1,$1+$1,$6,$7,$8,$9,0*
20,1,$1+$1,$8,$9,$2,$3,0*%
%AMFreePoly0*
4,1,21,1.372500,0.787500,0.862500,0.787500,0.862500,0.532500,1.372500,0.532500,1.372500,0.127500,0.862500,0.127500,0.862500,-0.127500,1.372500,-0.127500,1.372500,-0.532500,0.862500,-0.532500,0.862500,-0.787500,1.372500,-0.787500,1.372500,-1.195000,0.612500,-1.195000,0.612500,-1.117500,-0.862500,-1.117500,-0.862500,1.117500,0.612500,1.117500,0.612500,1.195000,1.372500,1.195000,
1.372500,0.787500,1.372500,0.787500,$1*%
G04 Aperture macros list end*
%ADD10O,1.550000X0.890000*%
%ADD11O,0.950000X1.250000*%
%ADD12C,3.700000*%
%ADD13C,3.200000*%
%ADD14RoundRect,0.140000X0.140000X0.170000X-0.140000X0.170000X-0.140000X-0.170000X0.140000X-0.170000X0*%
%ADD15R,0.990000X0.405000*%
%ADD16FreePoly0,0.000000*%
%ADD17RoundRect,0.140000X-0.140000X-0.170000X0.140000X-0.170000X0.140000X0.170000X-0.140000X0.170000X0*%
%ADD18RoundRect,0.250000X0.250000X0.475000X-0.250000X0.475000X-0.250000X-0.475000X0.250000X-0.475000X0*%
%ADD19RoundRect,0.150000X-0.587500X-0.150000X0.587500X-0.150000X0.587500X0.150000X-0.587500X0.150000X0*%
%ADD20C,1.000000*%
%ADD21FreePoly0,180.000000*%
%ADD22R,2.000000X1.700000*%
%ADD23RoundRect,0.140000X0.170000X-0.140000X0.170000X0.140000X-0.170000X0.140000X-0.170000X-0.140000X0*%
%ADD24RoundRect,0.050000X-0.287500X-0.075000X0.287500X-0.075000X0.287500X0.075000X-0.287500X0.075000X0*%
%ADD25RoundRect,0.050000X-0.075000X0.287500X-0.075000X-0.287500X0.075000X-0.287500X0.075000X0.287500X0*%
%ADD26RoundRect,0.050000X-0.275000X-0.075000X0.275000X-0.075000X0.275000X0.075000X-0.275000X0.075000X0*%
%ADD27RoundRect,0.050050X0.124950X0.274950X-0.124950X0.274950X-0.124950X-0.274950X0.124950X-0.274950X0*%
%ADD28RoundRect,0.049950X-0.175050X-0.675050X0.175050X-0.675050X0.175050X0.675050X-0.175050X0.675050X0*%
%ADD29R,1.200000X1.200000*%
%ADD30R,3.800000X2.000000*%
%ADD31RoundRect,0.200000X-0.200000X-0.275000X0.200000X-0.275000X0.200000X0.275000X-0.200000X0.275000X0*%
%ADD32R,1.200000X0.900000*%
%ADD33RoundRect,0.200000X0.200000X0.275000X-0.200000X0.275000X-0.200000X-0.275000X0.200000X-0.275000X0*%
%ADD34R,0.450000X0.700000*%
%ADD35RoundRect,0.250000X-0.325000X-0.650000X0.325000X-0.650000X0.325000X0.650000X-0.325000X0.650000X0*%
%ADD36RoundRect,0.135000X0.185000X-0.135000X0.185000X0.135000X-0.185000X0.135000X-0.185000X-0.135000X0*%
%ADD37RoundRect,0.135000X-0.185000X0.135000X-0.185000X-0.135000X0.185000X-0.135000X0.185000X0.135000X0*%
%ADD38RoundRect,0.140000X-0.170000X0.140000X-0.170000X-0.140000X0.170000X-0.140000X0.170000X0.140000X0*%
%ADD39RoundRect,0.135000X-0.135000X-0.185000X0.135000X-0.185000X0.135000X0.185000X-0.135000X0.185000X0*%
%ADD40RoundRect,0.250000X0.650000X-0.325000X0.650000X0.325000X-0.650000X0.325000X-0.650000X-0.325000X0*%
%ADD41RoundRect,0.100000X-0.637500X-0.100000X0.637500X-0.100000X0.637500X0.100000X-0.637500X0.100000X0*%
%ADD42RoundRect,0.250000X0.325000X0.650000X-0.325000X0.650000X-0.325000X-0.650000X0.325000X-0.650000X0*%
%ADD43R,0.550000X0.300000*%
%ADD44R,0.550000X0.400000*%
%ADD45C,2.000000*%
%ADD46RoundRect,0.218750X0.218750X0.256250X-0.218750X0.256250X-0.218750X-0.256250X0.218750X-0.256250X0*%
%ADD47R,0.700000X0.450000*%
%ADD48RoundRect,0.135000X0.135000X0.185000X-0.135000X0.185000X-0.135000X-0.185000X0.135000X-0.185000X0*%
%ADD49RoundRect,0.100000X0.637500X0.100000X-0.637500X0.100000X-0.637500X-0.100000X0.637500X-0.100000X0*%
%ADD50RoundRect,0.225000X0.225000X0.250000X-0.225000X0.250000X-0.225000X-0.250000X0.225000X-0.250000X0*%
%ADD51RoundRect,0.250000X1.250000X0.550000X-1.250000X0.550000X-1.250000X-0.550000X1.250000X-0.550000X0*%
%ADD52RoundRect,0.250000X0.625000X-0.312500X0.625000X0.312500X-0.625000X0.312500X-0.625000X-0.312500X0*%
%ADD53RoundRect,0.200000X-0.275000X0.200000X-0.275000X-0.200000X0.275000X-0.200000X0.275000X0.200000X0*%
%ADD54RoundRect,0.250000X1.000000X-1.950000X1.000000X1.950000X-1.000000X1.950000X-1.000000X-1.950000X0*%
%ADD55RoundRect,0.150000X0.150000X-0.825000X0.150000X0.825000X-0.150000X0.825000X-0.150000X-0.825000X0*%
%ADD56RoundRect,0.250000X-0.650000X0.325000X-0.650000X-0.325000X0.650000X-0.325000X0.650000X0.325000X0*%
%ADD57RoundRect,0.250000X-0.325000X-1.100000X0.325000X-1.100000X0.325000X1.100000X-0.325000X1.100000X0*%
%ADD58RoundRect,0.225000X-0.250000X0.225000X-0.250000X-0.225000X0.250000X-0.225000X0.250000X0.225000X0*%
%ADD59RoundRect,0.250000X-0.550000X1.250000X-0.550000X-1.250000X0.550000X-1.250000X0.550000X1.250000X0*%
%ADD60RoundRect,0.062500X-0.362500X-0.062500X0.362500X-0.062500X0.362500X0.062500X-0.362500X0.062500X0*%
%ADD61RoundRect,0.062500X-0.062500X-0.362500X0.062500X-0.362500X0.062500X0.362500X-0.062500X0.362500X0*%
%ADD62R,3.400000X3.400000*%
%ADD63RoundRect,0.225000X0.250000X-0.225000X0.250000X0.225000X-0.250000X0.225000X-0.250000X-0.225000X0*%
%ADD64RoundRect,0.062500X0.325000X0.062500X-0.325000X0.062500X-0.325000X-0.062500X0.325000X-0.062500X0*%
%ADD65RoundRect,0.062500X0.062500X0.325000X-0.062500X0.325000X-0.062500X-0.325000X0.062500X-0.325000X0*%
%ADD66R,2.450000X2.450000*%
%ADD67RoundRect,0.062500X0.062500X-0.350000X0.062500X0.350000X-0.062500X0.350000X-0.062500X-0.350000X0*%
%ADD68RoundRect,0.062500X0.350000X-0.062500X0.350000X0.062500X-0.350000X0.062500X-0.350000X-0.062500X0*%
%ADD69R,2.600000X2.600000*%
%ADD70R,0.980000X3.700000*%
%ADD71RoundRect,0.250000X-0.850000X0.375000X-0.850000X-0.375000X0.850000X-0.375000X0.850000X0.375000X0*%
%ADD72RoundRect,0.225000X-0.225000X-0.250000X0.225000X-0.250000X0.225000X0.250000X-0.225000X0.250000X0*%
%ADD73RoundRect,0.250000X-0.475000X0.250000X-0.475000X-0.250000X0.475000X-0.250000X0.475000X0.250000X0*%
%ADD74RoundRect,0.200000X0.275000X-0.200000X0.275000X0.200000X-0.275000X0.200000X-0.275000X-0.200000X0*%
%ADD75RoundRect,0.075000X0.350000X0.075000X-0.350000X0.075000X-0.350000X-0.075000X0.350000X-0.075000X0*%
%ADD76RoundRect,0.075000X0.075000X0.350000X-0.075000X0.350000X-0.075000X-0.350000X0.075000X-0.350000X0*%
%ADD77R,2.100000X2.100000*%
%ADD78R,0.900000X1.200000*%
%ADD79RoundRect,0.250000X-0.312500X-0.625000X0.312500X-0.625000X0.312500X0.625000X-0.312500X0.625000X0*%
%ADD80RoundRect,0.125000X-0.125000X0.587500X-0.125000X-0.587500X0.125000X-0.587500X0.125000X0.587500X0*%
%ADD81R,0.400000X1.000000*%
%ADD82R,4.700000X1.200000*%
%ADD83R,0.300000X1.400000*%
%ADD84R,0.900000X0.800000*%
%ADD85R,0.400000X0.650000*%
%ADD86RoundRect,0.062500X0.362500X0.062500X-0.362500X0.062500X-0.362500X-0.062500X0.362500X-0.062500X0*%
%ADD87R,1.650000X2.380000*%
%ADD88RoundRect,0.150000X-0.512500X-0.150000X0.512500X-0.150000X0.512500X0.150000X-0.512500X0.150000X0*%
%ADD89RoundRect,0.218750X-0.218750X-0.256250X0.218750X-0.256250X0.218750X0.256250X-0.218750X0.256250X0*%
%ADD90RoundRect,0.218750X-0.256250X0.218750X-0.256250X-0.218750X0.256250X-0.218750X0.256250X0.218750X0*%
G04 APERTURE END LIST*
D10*
%TO.C,J15*%
X26199999Y28699999D03*
D11*
X23499999Y29699999D03*
X23499999Y34699999D03*
D10*
X26199999Y35699999D03*
%TD*%
D12*
%TO.C,SP3*%
X24500000Y-24000000D03*
%TD*%
D13*
%TO.C,H4*%
X-13000000Y-40000000D03*
%TD*%
D12*
%TO.C,SP1*%
X-8500000Y24000000D03*
%TD*%
D13*
%TO.C,H1*%
X-21000000Y40000000D03*
%TD*%
D12*
%TO.C,SP2*%
X24500000Y24000000D03*
%TD*%
D13*
%TO.C,H2*%
X21000000Y40000000D03*
%TD*%
D12*
%TO.C,SP4*%
X-8500000Y-24000000D03*
%TD*%
D13*
%TO.C,H3*%
X21000000Y-40000000D03*
%TD*%
D14*
%TO.C,C115*%
X4180000Y4850000D03*
X3220000Y4850000D03*
%TD*%
D15*
%TO.C,Q3*%
X15214999Y48409999D03*
X15214999Y49069999D03*
X15214999Y49729999D03*
X15214999Y50389999D03*
D16*
X17207500Y49400000D03*
%TD*%
D17*
%TO.C,C101*%
X6070000Y-9500000D03*
X7030000Y-9500000D03*
%TD*%
%TO.C,C46*%
X2970000Y-46400000D03*
X3930000Y-46400000D03*
%TD*%
D18*
%TO.C,C91*%
X21050000Y-21600000D03*
X19150000Y-21600000D03*
%TD*%
D19*
%TO.C,U31*%
X2762500Y-10750000D03*
X2762500Y-8850000D03*
X4637500Y-9800000D03*
%TD*%
D20*
%TO.C,T10*%
X16100000Y37900000D03*
%TD*%
D15*
%TO.C,Q1*%
X-16999999Y48909999D03*
X-16999999Y48249999D03*
X-16999999Y47589999D03*
X-16999999Y46929999D03*
D21*
X-18992500Y47920000D03*
%TD*%
D22*
%TO.C,L4*%
X17099999Y-20949999D03*
X11099999Y-20949999D03*
%TD*%
D23*
%TO.C,C120*%
X-10500000Y6470000D03*
X-10500000Y7430000D03*
%TD*%
D24*
%TO.C,U5*%
X-8862500Y54850000D03*
D25*
X-8650000Y54637500D03*
D26*
X-8875000Y55500000D03*
X-8875000Y56000000D03*
X-8875000Y56500000D03*
D24*
X-8862500Y57150000D03*
D25*
X-8650000Y57362500D03*
D27*
X-8000000Y57375000D03*
D25*
X-7350000Y57362500D03*
D24*
X-7137500Y57150000D03*
D26*
X-7125000Y56500000D03*
X-7125000Y56000000D03*
X-7125000Y55500000D03*
D25*
X-7350000Y54637500D03*
D24*
X-7137500Y54850000D03*
D27*
X-8000000Y54625000D03*
D28*
X-8000000Y56000000D03*
%TD*%
D29*
%TO.C,D10*%
X10449999Y-31549999D03*
X10449999Y-34349999D03*
%TD*%
D30*
%TO.C,GC1*%
X-24749999Y17899999D03*
%TD*%
D31*
%TO.C,R7*%
X-13875000Y45350000D03*
X-12225000Y45350000D03*
%TD*%
D32*
%TO.C,D4*%
X20099999Y44499999D03*
X20099999Y47799999D03*
%TD*%
D33*
%TO.C,R8*%
X17162500Y43202500D03*
X15512500Y43202500D03*
%TD*%
D20*
%TO.C,T29*%
X-9200000Y15550000D03*
%TD*%
%TO.C,T17*%
X-16550000Y52250000D03*
%TD*%
D34*
%TO.C,Q25*%
X15349999Y-44799999D03*
X16649999Y-44799999D03*
X15999999Y-46799999D03*
%TD*%
D20*
%TO.C,T15*%
X-24000000Y11000000D03*
%TD*%
D23*
%TO.C,C126*%
X24350000Y5270000D03*
X24350000Y6230000D03*
%TD*%
D20*
%TO.C,T19*%
X-8300000Y4050000D03*
%TD*%
D14*
%TO.C,C64*%
X-3020000Y-16000000D03*
X-3980000Y-16000000D03*
%TD*%
D35*
%TO.C,C43*%
X11525000Y59786400D03*
X14475000Y59786400D03*
%TD*%
D20*
%TO.C,T51*%
X2750000Y-12500000D03*
%TD*%
D36*
%TO.C,R57*%
X-2220000Y-3460000D03*
X-2220000Y-2440000D03*
%TD*%
D37*
%TO.C,R59*%
X-2500000Y-11790000D03*
X-2500000Y-12810000D03*
%TD*%
D17*
%TO.C,C87*%
X18520000Y-14750000D03*
X19480000Y-14750000D03*
%TD*%
D38*
%TO.C,C42*%
X-10200000Y54880000D03*
X-10200000Y53920000D03*
%TD*%
D23*
%TO.C,C54*%
X8850000Y-34780000D03*
X8850000Y-33820000D03*
%TD*%
D20*
%TO.C,T5*%
X3650000Y3350000D03*
%TD*%
D29*
%TO.C,D13*%
X49999Y-26199999D03*
X49999Y-23399999D03*
%TD*%
D39*
%TO.C,R94*%
X10840000Y-16200000D03*
X11860000Y-16200000D03*
%TD*%
D40*
%TO.C,C13*%
X-4000000Y47875000D03*
X-4000000Y50825000D03*
%TD*%
D20*
%TO.C,T38*%
X-1500000Y23000000D03*
%TD*%
D41*
%TO.C,U19*%
X10287500Y17300000D03*
X10287500Y17950000D03*
X10287500Y18600000D03*
X10287500Y19250000D03*
X10287500Y19900000D03*
X10287500Y20550000D03*
X10287500Y21200000D03*
X16012500Y21200000D03*
X16012500Y20550000D03*
X16012500Y19900000D03*
X16012500Y19250000D03*
X16012500Y18600000D03*
X16012500Y17950000D03*
X16012500Y17300000D03*
%TD*%
D38*
%TO.C,C69*%
X600000Y-2495000D03*
X600000Y-3455000D03*
%TD*%
D20*
%TO.C,T18*%
X-6250000Y4050000D03*
%TD*%
D17*
%TO.C,C72*%
X-1580000Y-11800000D03*
X-620000Y-11800000D03*
%TD*%
D42*
%TO.C,C127*%
X-4325000Y-43900000D03*
X-7275000Y-43900000D03*
%TD*%
D38*
%TO.C,C94*%
X9950000Y-15620000D03*
X9950000Y-16580000D03*
%TD*%
D43*
%TO.C,U11*%
X-18984999Y-5799999D03*
X-18984999Y-5299999D03*
D44*
X-18984999Y-4799999D03*
D43*
X-18984999Y-4299999D03*
X-18984999Y-3799999D03*
X-18214999Y-3799999D03*
X-18214999Y-4299999D03*
D44*
X-18214999Y-4799999D03*
D43*
X-18214999Y-5299999D03*
X-18214999Y-5799999D03*
%TD*%
D39*
%TO.C,R65*%
X16940000Y-31850000D03*
X17960000Y-31850000D03*
%TD*%
D45*
%TO.C,FID6*%
X-25000000Y47000000D03*
%TD*%
D46*
%TO.C,FB7*%
X7987500Y-12600000D03*
X6412500Y-12600000D03*
%TD*%
D39*
%TO.C,R26*%
X-14510000Y-33200000D03*
X-13490000Y-33200000D03*
%TD*%
D47*
%TO.C,Q21*%
X17249999Y-28399999D03*
X17249999Y-29699999D03*
X15249999Y-29049999D03*
%TD*%
D48*
%TO.C,R91*%
X16610000Y-11300000D03*
X15590000Y-11300000D03*
%TD*%
D37*
%TO.C,R52*%
X2200000Y-31940000D03*
X2200000Y-32960000D03*
%TD*%
D49*
%TO.C,U20*%
X8312500Y21200000D03*
X8312500Y20550000D03*
X8312500Y19900000D03*
X8312500Y19250000D03*
X8312500Y18600000D03*
X8312500Y17950000D03*
X8312500Y17300000D03*
X2587500Y17300000D03*
X2587500Y17950000D03*
X2587500Y18600000D03*
X2587500Y19250000D03*
X2587500Y19900000D03*
X2587500Y20550000D03*
X2587500Y21200000D03*
%TD*%
D36*
%TO.C,R81*%
X27350000Y-45560000D03*
X27350000Y-44540000D03*
%TD*%
D38*
%TO.C,C76*%
X600000Y-570000D03*
X600000Y-1530000D03*
%TD*%
D50*
%TO.C,C83*%
X13875000Y-31450000D03*
X12325000Y-31450000D03*
%TD*%
D18*
%TO.C,C90*%
X21050000Y-19600000D03*
X19150000Y-19600000D03*
%TD*%
D30*
%TO.C,GC2*%
X-24699999Y23399999D03*
%TD*%
D29*
%TO.C,D17*%
X20049999Y-26249999D03*
X20049999Y-23449999D03*
%TD*%
D51*
%TO.C,C59*%
X7400000Y-28500000D03*
X3000000Y-28500000D03*
%TD*%
D52*
%TO.C,R48*%
X3800000Y-36087500D03*
X3800000Y-33162500D03*
%TD*%
D20*
%TO.C,T48*%
X4250000Y23000000D03*
%TD*%
D53*
%TO.C,R35*%
X450000Y53825000D03*
X450000Y52175000D03*
%TD*%
D23*
%TO.C,C60*%
X1050000Y9470000D03*
X1050000Y10430000D03*
%TD*%
D54*
%TO.C,C49*%
X10100000Y-45125000D03*
X10100000Y-37725000D03*
%TD*%
D36*
%TO.C,R85*%
X16000000Y-31860000D03*
X16000000Y-30840000D03*
%TD*%
D45*
%TO.C,FID5*%
X25000000Y19000000D03*
%TD*%
D17*
%TO.C,C56*%
X5020000Y-31875000D03*
X5980000Y-31875000D03*
%TD*%
D20*
%TO.C,T34*%
X12500000Y23000000D03*
%TD*%
D49*
%TO.C,U22*%
X562500Y21200000D03*
X562500Y20550000D03*
X562500Y19900000D03*
X562500Y19250000D03*
X562500Y18600000D03*
X562500Y17950000D03*
X562500Y17300000D03*
X-5162500Y17300000D03*
X-5162500Y17950000D03*
X-5162500Y18600000D03*
X-5162500Y19250000D03*
X-5162500Y19900000D03*
X-5162500Y20550000D03*
X-5162500Y21200000D03*
%TD*%
D29*
%TO.C,D8*%
X12699999Y-35999999D03*
X12699999Y-33199999D03*
%TD*%
D40*
%TO.C,C80*%
X5800000Y2225000D03*
X5800000Y5175000D03*
%TD*%
D20*
%TO.C,T35*%
X-7150000Y19600000D03*
%TD*%
D33*
%TO.C,R15*%
X-5475000Y58700000D03*
X-7125000Y58700000D03*
%TD*%
D20*
%TO.C,T37*%
X550000Y23000000D03*
%TD*%
%TO.C,J5*%
X1200000Y28700000D03*
%TD*%
%TO.C,T25*%
X1050000Y-20600000D03*
%TD*%
D23*
%TO.C,C48*%
X17500000Y16040000D03*
X17500000Y17000000D03*
%TD*%
D38*
%TO.C,C25*%
X25200000Y11330000D03*
X25200000Y10370000D03*
%TD*%
D17*
%TO.C,C117*%
X5220000Y925000D03*
X6180000Y925000D03*
%TD*%
D40*
%TO.C,C103*%
X24200000Y-1675000D03*
X24200000Y1275000D03*
%TD*%
D20*
%TO.C,T46*%
X27250000Y-42250000D03*
%TD*%
D55*
%TO.C,U33*%
X6355000Y-5875000D03*
X5085000Y-5875000D03*
X3815000Y-5875000D03*
X2545000Y-5875000D03*
X2545000Y-925000D03*
X3815000Y-925000D03*
X5085000Y-925000D03*
X6355000Y-925000D03*
%TD*%
D39*
%TO.C,R93*%
X10840000Y-15200000D03*
X11860000Y-15200000D03*
%TD*%
D33*
%TO.C,R16*%
X9925000Y58706400D03*
X8275000Y58706400D03*
%TD*%
D17*
%TO.C,C47*%
X4970000Y-46400000D03*
X5930000Y-46400000D03*
%TD*%
D20*
%TO.C,T7*%
X27350000Y-3550000D03*
%TD*%
%TO.C,J8*%
X6000000Y29850000D03*
%TD*%
D56*
%TO.C,C45*%
X10650000Y53825000D03*
X10650000Y50875000D03*
%TD*%
D36*
%TO.C,R61*%
X-2200000Y-1560000D03*
X-2200000Y-540000D03*
%TD*%
D47*
%TO.C,Q19*%
X11449999Y-25499999D03*
X11449999Y-26799999D03*
X9449999Y-26149999D03*
%TD*%
D38*
%TO.C,C53*%
X2450000Y23430000D03*
X2450000Y22470000D03*
%TD*%
D42*
%TO.C,C129*%
X-3525000Y-850000D03*
X-6475000Y-850000D03*
%TD*%
D43*
%TO.C,U10*%
X-18884999Y-10549999D03*
X-18884999Y-10049999D03*
D44*
X-18884999Y-9549999D03*
D43*
X-18884999Y-9049999D03*
X-18884999Y-8549999D03*
X-18114999Y-8549999D03*
X-18114999Y-9049999D03*
D44*
X-18114999Y-9549999D03*
D43*
X-18114999Y-10049999D03*
X-18114999Y-10549999D03*
%TD*%
D34*
%TO.C,Q22*%
X22249999Y-44799999D03*
X23549999Y-44799999D03*
X22899999Y-46799999D03*
%TD*%
D29*
%TO.C,D14*%
X-2249999Y-26199999D03*
X-2249999Y-23399999D03*
%TD*%
D20*
%TO.C,T6*%
X15950000Y4600000D03*
%TD*%
D57*
%TO.C,C107*%
X17775000Y3900000D03*
X20725000Y3900000D03*
%TD*%
D40*
%TO.C,C16*%
X2390000Y47725000D03*
X2390000Y50675000D03*
%TD*%
D17*
%TO.C,C121*%
X2220000Y-7600000D03*
X3180000Y-7600000D03*
%TD*%
D58*
%TO.C,C18*%
X10450000Y48975000D03*
X10450000Y47425000D03*
%TD*%
D20*
%TO.C,T47*%
X10450000Y23000000D03*
%TD*%
D36*
%TO.C,R71*%
X-1400000Y9390000D03*
X-1400000Y10410000D03*
%TD*%
D20*
%TO.C,T28*%
X-9200000Y13500000D03*
%TD*%
D36*
%TO.C,R54*%
X-3450000Y-12810000D03*
X-3450000Y-11790000D03*
%TD*%
D39*
%TO.C,R90*%
X14690000Y-3300000D03*
X15710000Y-3300000D03*
%TD*%
D59*
%TO.C,C119*%
X25430000Y-15950000D03*
X25430000Y-20350000D03*
%TD*%
D17*
%TO.C,C74*%
X15570000Y9000000D03*
X16530000Y9000000D03*
%TD*%
D60*
%TO.C,U18*%
X3467462Y-18250000D03*
X3467462Y-17600000D03*
X3467462Y-16950000D03*
X3467462Y-16300000D03*
X3467462Y-15650000D03*
X3467462Y-15000000D03*
D61*
X4292462Y-14175000D03*
X4942462Y-14175000D03*
X5592462Y-14175000D03*
X6242462Y-14175000D03*
X6892462Y-14175000D03*
X7542462Y-14175000D03*
D60*
X8367462Y-15000000D03*
X8367462Y-15650000D03*
X8367462Y-16300000D03*
X8367462Y-16950000D03*
X8367462Y-17600000D03*
X8367462Y-18250000D03*
D61*
X7542462Y-19075000D03*
X6892462Y-19075000D03*
X6242462Y-19075000D03*
X5592462Y-19075000D03*
X4942462Y-19075000D03*
X4292462Y-19075000D03*
D62*
X5917461Y-16624999D03*
%TD*%
D63*
%TO.C,C17*%
X-2100000Y47775000D03*
X-2100000Y49325000D03*
%TD*%
D24*
%TO.C,U6*%
X5737500Y54850000D03*
D25*
X5950000Y54637500D03*
D26*
X5725000Y55500000D03*
X5725000Y56000000D03*
X5725000Y56500000D03*
D24*
X5737500Y57150000D03*
D25*
X5950000Y57362500D03*
D27*
X6600000Y57375000D03*
D25*
X7250000Y57362500D03*
D24*
X7462500Y57150000D03*
D26*
X7475000Y56500000D03*
X7475000Y56000000D03*
X7475000Y55500000D03*
D25*
X7250000Y54637500D03*
D24*
X7462500Y54850000D03*
D27*
X6600000Y54625000D03*
D28*
X6600000Y56000000D03*
%TD*%
D39*
%TO.C,R98*%
X6040000Y-7600000D03*
X7060000Y-7600000D03*
%TD*%
D20*
%TO.C,T26*%
X-1000000Y-20600000D03*
%TD*%
D50*
%TO.C,C38*%
X-13875000Y29100000D03*
X-15425000Y29100000D03*
%TD*%
D48*
%TO.C,R69*%
X14960000Y22500000D03*
X13940000Y22500000D03*
%TD*%
D56*
%TO.C,C6*%
X-12200000Y55425000D03*
X-12200000Y52475000D03*
%TD*%
D63*
%TO.C,C102*%
X25550000Y3125000D03*
X25550000Y4675000D03*
%TD*%
D33*
%TO.C,R13*%
X10405000Y56876400D03*
X8755000Y56876400D03*
%TD*%
D64*
%TO.C,U28*%
X17137500Y-13150000D03*
X17137500Y-13650000D03*
X17137500Y-14150000D03*
X17137500Y-14650000D03*
X17137500Y-15150000D03*
X17137500Y-15650000D03*
D65*
X16400000Y-16387500D03*
X15900000Y-16387500D03*
X15400000Y-16387500D03*
X14900000Y-16387500D03*
X14400000Y-16387500D03*
X13900000Y-16387500D03*
D64*
X13162500Y-15650000D03*
X13162500Y-15150000D03*
X13162500Y-14650000D03*
X13162500Y-14150000D03*
X13162500Y-13650000D03*
X13162500Y-13150000D03*
D65*
X13900000Y-12412500D03*
X14400000Y-12412500D03*
X14900000Y-12412500D03*
X15400000Y-12412500D03*
X15900000Y-12412500D03*
X16400000Y-12412500D03*
D66*
X15149999Y-14399999D03*
%TD*%
D38*
%TO.C,C55*%
X2200000Y-33820000D03*
X2200000Y-34780000D03*
%TD*%
D67*
%TO.C,U12*%
X-8250000Y-31037500D03*
X-8750000Y-31037500D03*
X-9250000Y-31037500D03*
X-9750000Y-31037500D03*
X-10250000Y-31037500D03*
X-10750000Y-31037500D03*
D68*
X-11437500Y-30350000D03*
X-11437500Y-29850000D03*
X-11437500Y-29350000D03*
X-11437500Y-28850000D03*
X-11437500Y-28350000D03*
X-11437500Y-27850000D03*
D67*
X-10750000Y-27162500D03*
X-10250000Y-27162500D03*
X-9750000Y-27162500D03*
X-9250000Y-27162500D03*
X-8750000Y-27162500D03*
X-8250000Y-27162500D03*
D68*
X-7562500Y-27850000D03*
X-7562500Y-28350000D03*
X-7562500Y-28850000D03*
X-7562500Y-29350000D03*
X-7562500Y-29850000D03*
X-7562500Y-30350000D03*
D69*
X-9499999Y-29099999D03*
%TD*%
D58*
%TO.C,C104*%
X22300000Y-25000D03*
X22300000Y-1575000D03*
%TD*%
D47*
%TO.C,Q17*%
X14849999Y-25549999D03*
X14849999Y-26849999D03*
X12849999Y-26199999D03*
%TD*%
D70*
%TO.C,L5*%
X11564999Y1349999D03*
X13934999Y1349999D03*
%TD*%
D50*
%TO.C,C12*%
X9875000Y60216400D03*
X8325000Y60216400D03*
%TD*%
D48*
%TO.C,R97*%
X15710000Y-2350000D03*
X14690000Y-2350000D03*
%TD*%
D36*
%TO.C,R88*%
X25850000Y-3960000D03*
X25850000Y-2940000D03*
%TD*%
D39*
%TO.C,R50*%
X6940000Y-31875000D03*
X7960000Y-31875000D03*
%TD*%
D20*
%TO.C,T39*%
X-5600000Y9900000D03*
%TD*%
%TO.C,T20*%
X-10300000Y4000000D03*
%TD*%
D30*
%TO.C,GC3*%
X-24699999Y28899999D03*
%TD*%
D20*
%TO.C,T36*%
X-7000000Y37050000D03*
%TD*%
%TO.C,T13*%
X-14500000Y52250000D03*
%TD*%
D48*
%TO.C,R6*%
X-12290000Y200000D03*
X-13310000Y200000D03*
%TD*%
D40*
%TO.C,C15*%
X-12200000Y47850000D03*
X-12200000Y50800000D03*
%TD*%
D34*
%TO.C,Q24*%
X20949999Y-46799999D03*
X19649999Y-46799999D03*
X20299999Y-44799999D03*
%TD*%
D56*
%TO.C,C5*%
X2400000Y55325000D03*
X2400000Y52375000D03*
%TD*%
D36*
%TO.C,R75*%
X-6000000Y1590000D03*
X-6000000Y2610000D03*
%TD*%
D48*
%TO.C,R68*%
X17960000Y-30900000D03*
X16940000Y-30900000D03*
%TD*%
D20*
%TO.C,T52*%
X3650000Y1300000D03*
%TD*%
D23*
%TO.C,C124*%
X-3050000Y5270000D03*
X-3050000Y6230000D03*
%TD*%
D38*
%TO.C,C41*%
X8750000Y54980000D03*
X8750000Y54020000D03*
%TD*%
D40*
%TO.C,C131*%
X22700000Y4275000D03*
X22700000Y7225000D03*
%TD*%
D20*
%TO.C,T53*%
X-15400000Y-29050000D03*
%TD*%
D51*
%TO.C,C58*%
X7400000Y-22650000D03*
X3000000Y-22650000D03*
%TD*%
D48*
%TO.C,R72*%
X25010000Y-34550000D03*
X23990000Y-34550000D03*
%TD*%
D37*
%TO.C,R63*%
X100000Y10460000D03*
X100000Y9440000D03*
%TD*%
D20*
%TO.C,J4*%
X-400000Y29850000D03*
%TD*%
D23*
%TO.C,C114*%
X23000000Y-3930000D03*
X23000000Y-2970000D03*
%TD*%
D40*
%TO.C,C130*%
X8150000Y5225000D03*
X8150000Y8175000D03*
%TD*%
D38*
%TO.C,C4*%
X-5850000Y55030000D03*
X-5850000Y54070000D03*
%TD*%
D39*
%TO.C,R27*%
X-13510000Y-34150000D03*
X-12490000Y-34150000D03*
%TD*%
D58*
%TO.C,C10*%
X4291600Y58154400D03*
X4291600Y56604400D03*
%TD*%
D29*
%TO.C,D16*%
X18399999Y-8099999D03*
X18399999Y-10899999D03*
%TD*%
D14*
%TO.C,C32*%
X-11670000Y-32250000D03*
X-12630000Y-32250000D03*
%TD*%
D57*
%TO.C,C109*%
X10225000Y-2500000D03*
X13175000Y-2500000D03*
%TD*%
D20*
%TO.C,T12*%
X-7000000Y39100000D03*
%TD*%
D71*
%TO.C,L8*%
X12550000Y57761400D03*
X12550000Y55611400D03*
%TD*%
D72*
%TO.C,C84*%
X12375000Y-46800000D03*
X13925000Y-46800000D03*
%TD*%
D30*
%TO.C,GC4*%
X-24649999Y34399999D03*
%TD*%
D14*
%TO.C,C123*%
X-4670000Y-19450000D03*
X-5630000Y-19450000D03*
%TD*%
D23*
%TO.C,C70*%
X-4150000Y-9930000D03*
X-4150000Y-8970000D03*
%TD*%
D39*
%TO.C,R74*%
X6040000Y-11400000D03*
X7060000Y-11400000D03*
%TD*%
D14*
%TO.C,C96*%
X14730000Y-11300000D03*
X13770000Y-11300000D03*
%TD*%
D20*
%TO.C,T49*%
X19000000Y18100000D03*
%TD*%
D15*
%TO.C,Q2*%
X15274999Y46739999D03*
X15274999Y46079999D03*
X15274999Y45419999D03*
X15274999Y44759999D03*
D21*
X13282500Y45750000D03*
%TD*%
D48*
%TO.C,R100*%
X-2990000Y10250000D03*
X-4010000Y10250000D03*
%TD*%
D20*
%TO.C,T43*%
X19000000Y16050000D03*
%TD*%
D42*
%TO.C,C128*%
X-3905000Y-21100000D03*
X-6855000Y-21100000D03*
%TD*%
D39*
%TO.C,R60*%
X-1330000Y-2450000D03*
X-310000Y-2450000D03*
%TD*%
D36*
%TO.C,R87*%
X18550000Y-16660000D03*
X18550000Y-15640000D03*
%TD*%
D17*
%TO.C,C27*%
X7150000Y-46400000D03*
X8110000Y-46400000D03*
%TD*%
D36*
%TO.C,R77*%
X-11650000Y1240000D03*
X-11650000Y2260000D03*
%TD*%
D54*
%TO.C,C50*%
X1000000Y-45125000D03*
X1000000Y-37725000D03*
%TD*%
D73*
%TO.C,C88*%
X16300000Y-7200000D03*
X16300000Y-9100000D03*
%TD*%
D53*
%TO.C,R36*%
X12550000Y54011400D03*
X12550000Y52361400D03*
%TD*%
D47*
%TO.C,Q18*%
X18249999Y-25549999D03*
X18249999Y-26849999D03*
X16249999Y-26199999D03*
%TD*%
D37*
%TO.C,R55*%
X-3170000Y-2440000D03*
X-3170000Y-3460000D03*
%TD*%
D20*
%TO.C,T30*%
X-9200000Y17600000D03*
%TD*%
D36*
%TO.C,R84*%
X15050000Y-31860000D03*
X15050000Y-30840000D03*
%TD*%
D37*
%TO.C,R95*%
X16600000Y-3250000D03*
X16600000Y-4270000D03*
%TD*%
D48*
%TO.C,R92*%
X14760000Y-10350000D03*
X13740000Y-10350000D03*
%TD*%
D23*
%TO.C,C105*%
X12700000Y4220000D03*
X12700000Y5180000D03*
%TD*%
D74*
%TO.C,R14*%
X-4050000Y58645000D03*
X-4050000Y60295000D03*
%TD*%
D52*
%TO.C,R47*%
X7250000Y-36087500D03*
X7250000Y-33162500D03*
%TD*%
D17*
%TO.C,C132*%
X-7880000Y-42200000D03*
X-6920000Y-42200000D03*
%TD*%
D63*
%TO.C,C9*%
X-10300000Y56625000D03*
X-10300000Y58175000D03*
%TD*%
%TO.C,C11*%
X-2550000Y58695000D03*
X-2550000Y60245000D03*
%TD*%
D36*
%TO.C,R51*%
X8850000Y-32960000D03*
X8850000Y-31940000D03*
%TD*%
D14*
%TO.C,C82*%
X7030000Y-10450000D03*
X6070000Y-10450000D03*
%TD*%
%TO.C,C113*%
X15680000Y-1400000D03*
X14720000Y-1400000D03*
%TD*%
D38*
%TO.C,C33*%
X-10750000Y-33120000D03*
X-10750000Y-34080000D03*
%TD*%
D17*
%TO.C,C73*%
X-1300000Y-3400000D03*
X-340000Y-3400000D03*
%TD*%
D34*
%TO.C,Q16*%
X21649999Y-28549999D03*
X22949999Y-28549999D03*
X22299999Y-30549999D03*
%TD*%
D36*
%TO.C,R96*%
X23950000Y-3960000D03*
X23950000Y-2940000D03*
%TD*%
D75*
%TO.C,U23*%
X2075000Y-15650000D03*
X2075000Y-16300000D03*
X2075000Y-16950000D03*
X2075000Y-17600000D03*
D76*
X1100000Y-18575000D03*
X450000Y-18575000D03*
X-200000Y-18575000D03*
X-850000Y-18575000D03*
D75*
X-1825000Y-17600000D03*
X-1825000Y-16950000D03*
X-1825000Y-16300000D03*
X-1825000Y-15650000D03*
D76*
X-850000Y-14675000D03*
X-200000Y-14675000D03*
X450000Y-14675000D03*
X1100000Y-14675000D03*
D77*
X124999Y-16624999D03*
%TD*%
D59*
%TO.C,C118*%
X10400000Y-6450000D03*
X10400000Y-10850000D03*
%TD*%
D48*
%TO.C,R89*%
X10760000Y4850000D03*
X9740000Y4850000D03*
%TD*%
D23*
%TO.C,C67*%
X6500000Y8070000D03*
X6500000Y9030000D03*
%TD*%
D20*
%TO.C,T16*%
X-21500000Y14000000D03*
%TD*%
D33*
%TO.C,R12*%
X-4275000Y56650000D03*
X-5925000Y56650000D03*
%TD*%
D39*
%TO.C,R28*%
X-13560000Y-29000000D03*
X-12540000Y-29000000D03*
%TD*%
D14*
%TO.C,C122*%
X-4570000Y-42200000D03*
X-5530000Y-42200000D03*
%TD*%
D34*
%TO.C,Q14*%
X20349999Y-30549999D03*
X19049999Y-30549999D03*
X19699999Y-28549999D03*
%TD*%
D20*
%TO.C,T42*%
X23500000Y-5400000D03*
%TD*%
D14*
%TO.C,C93*%
X11830000Y-14050000D03*
X10870000Y-14050000D03*
%TD*%
D78*
%TO.C,D15*%
X22849999Y-34999999D03*
X19549999Y-34999999D03*
%TD*%
D23*
%TO.C,C78*%
X50000Y1170000D03*
X50000Y2130000D03*
%TD*%
D41*
%TO.C,U17*%
X17987500Y10300000D03*
X17987500Y10950000D03*
X17987500Y11600000D03*
X17987500Y12250000D03*
X17987500Y12900000D03*
X17987500Y13550000D03*
X17987500Y14200000D03*
X23712500Y14200000D03*
X23712500Y13550000D03*
X23712500Y12900000D03*
X23712500Y12250000D03*
X23712500Y11600000D03*
X23712500Y10950000D03*
X23712500Y10300000D03*
%TD*%
D45*
%TO.C,FID4*%
X-23000000Y-46000000D03*
%TD*%
D20*
%TO.C,J1*%
X-5200000Y28700000D03*
%TD*%
D32*
%TO.C,D5*%
X15049999Y56699999D03*
X15049999Y53399999D03*
%TD*%
D14*
%TO.C,C40*%
X-12570000Y-30300000D03*
X-13530000Y-30300000D03*
%TD*%
D20*
%TO.C,T54*%
X-15400000Y-26400000D03*
%TD*%
D36*
%TO.C,R73*%
X8750000Y22490000D03*
X8750000Y23510000D03*
%TD*%
D17*
%TO.C,C63*%
X-3980000Y-14100000D03*
X-3020000Y-14100000D03*
%TD*%
D37*
%TO.C,R70*%
X-6650000Y17760000D03*
X-6650000Y16740000D03*
%TD*%
D38*
%TO.C,C68*%
X-4150000Y-5420000D03*
X-4150000Y-6380000D03*
%TD*%
D20*
%TO.C,T23*%
X10150000Y-29700000D03*
%TD*%
D79*
%TO.C,R67*%
X14675000Y-33450000D03*
X17600000Y-33450000D03*
%TD*%
D20*
%TO.C,J9*%
X7600000Y28700000D03*
%TD*%
D55*
%TO.C,U25*%
X955000Y-10075000D03*
X-315000Y-10075000D03*
X-1585000Y-10075000D03*
X-2855000Y-10075000D03*
X-2855000Y-5125000D03*
X-1585000Y-5125000D03*
X-315000Y-5125000D03*
X955000Y-5125000D03*
%TD*%
D20*
%TO.C,T41*%
X18150000Y-43050000D03*
%TD*%
%TO.C,T8*%
X-8483600Y32562800D03*
%TD*%
D47*
%TO.C,Q12*%
X21549999Y-31899999D03*
X21549999Y-33199999D03*
X19549999Y-32549999D03*
%TD*%
D80*
%TO.C,U34*%
X-9250000Y9237500D03*
X-8300000Y9237500D03*
X-7350000Y9237500D03*
X-7350000Y6962500D03*
X-8300000Y6962500D03*
X-9250000Y6962500D03*
%TD*%
D47*
%TO.C,Q20*%
X13849999Y-28399999D03*
X13849999Y-29699999D03*
X11849999Y-29049999D03*
%TD*%
D81*
%TO.C,U9*%
X-12874999Y30649999D03*
X-13524999Y30649999D03*
X-14174999Y30649999D03*
X-14824999Y30649999D03*
X-15474999Y30649999D03*
X-16124999Y30649999D03*
X-16774999Y30649999D03*
X-17424999Y30649999D03*
X-18074999Y30649999D03*
X-18724999Y30649999D03*
X-18724999Y36449999D03*
X-18074999Y36449999D03*
X-17424999Y36449999D03*
X-16774999Y36449999D03*
X-16124999Y36449999D03*
X-15474999Y36449999D03*
X-14824999Y36449999D03*
X-14174999Y36449999D03*
X-13524999Y36449999D03*
X-12874999Y36449999D03*
%TD*%
D57*
%TO.C,C108*%
X17775000Y700000D03*
X20725000Y700000D03*
%TD*%
D23*
%TO.C,C106*%
X11700000Y4220000D03*
X11700000Y5180000D03*
%TD*%
D39*
%TO.C,R86*%
X15140000Y-43600000D03*
X16160000Y-43600000D03*
%TD*%
D14*
%TO.C,C39*%
X-12570000Y-31250000D03*
X-13530000Y-31250000D03*
%TD*%
D72*
%TO.C,C85*%
X19955000Y-16200000D03*
X21505000Y-16200000D03*
%TD*%
D35*
%TO.C,C2*%
X-700000Y59600000D03*
X2250000Y59600000D03*
%TD*%
D79*
%TO.C,R66*%
X14637500Y-35750000D03*
X17562500Y-35750000D03*
%TD*%
D53*
%TO.C,R17*%
X6800000Y60225000D03*
X6800000Y58575000D03*
%TD*%
D36*
%TO.C,R62*%
X-350000Y-1560000D03*
X-350000Y-540000D03*
%TD*%
D82*
%TO.C,L1*%
X-8099999Y51654999D03*
X-8099999Y48344999D03*
%TD*%
D14*
%TO.C,C92*%
X16580000Y-10350000D03*
X15620000Y-10350000D03*
%TD*%
D39*
%TO.C,R64*%
X23990000Y-35500000D03*
X25010000Y-35500000D03*
%TD*%
D14*
%TO.C,C7*%
X-8820000Y59650000D03*
X-9780000Y59650000D03*
%TD*%
D71*
%TO.C,L6*%
X26700000Y525000D03*
X26700000Y-1625000D03*
%TD*%
D22*
%TO.C,L3*%
X26749999Y-10299999D03*
X20749999Y-10299999D03*
%TD*%
D41*
%TO.C,U24*%
X2537500Y10075000D03*
X2537500Y10725000D03*
X2537500Y11375000D03*
X2537500Y12025000D03*
X2537500Y12675000D03*
X2537500Y13325000D03*
X2537500Y13975000D03*
X2537500Y14625000D03*
X2537500Y15275000D03*
X2537500Y15925000D03*
X8262500Y15925000D03*
X8262500Y15275000D03*
X8262500Y14625000D03*
X8262500Y13975000D03*
X8262500Y13325000D03*
X8262500Y12675000D03*
X8262500Y12025000D03*
X8262500Y11375000D03*
X8262500Y10725000D03*
X8262500Y10075000D03*
%TD*%
D83*
%TO.C,U27*%
X299999Y3549999D03*
X-199999Y3549999D03*
X-699999Y3549999D03*
X-1199999Y3549999D03*
X-1699999Y3549999D03*
X-1699999Y7949999D03*
X-1199999Y7949999D03*
X-699999Y7949999D03*
X-199999Y7949999D03*
X299999Y7949999D03*
%TD*%
D20*
%TO.C,T9*%
X-8483600Y29514800D03*
%TD*%
%TO.C,J2*%
X-3600000Y29850000D03*
%TD*%
%TO.C,T44*%
X27250000Y-38150000D03*
%TD*%
D84*
%TO.C,Q26*%
X7649999Y1599999D03*
X7649999Y3499999D03*
X10049999Y2549999D03*
%TD*%
D23*
%TO.C,C52*%
X9500000Y-14230000D03*
X9500000Y-13270000D03*
%TD*%
D14*
%TO.C,C95*%
X11830000Y-13100000D03*
X10870000Y-13100000D03*
%TD*%
D31*
%TO.C,R11*%
X14875000Y51950000D03*
X16525000Y51950000D03*
%TD*%
D20*
%TO.C,T3*%
X-12950000Y-15150000D03*
%TD*%
D34*
%TO.C,Q15*%
X24249999Y-28549999D03*
X25549999Y-28549999D03*
X24899999Y-30549999D03*
%TD*%
D38*
%TO.C,C111*%
X22050000Y-2720000D03*
X22050000Y-3680000D03*
%TD*%
D14*
%TO.C,C31*%
X-11670000Y-33200000D03*
X-12630000Y-33200000D03*
%TD*%
D20*
%TO.C,T21*%
X8300000Y-4800000D03*
%TD*%
D38*
%TO.C,C79*%
X1700000Y8480000D03*
X1700000Y7520000D03*
%TD*%
D20*
%TO.C,T24*%
X-1500000Y-31350000D03*
%TD*%
D85*
%TO.C,U3*%
X-14184999Y46969999D03*
X-14834999Y46969999D03*
X-15484999Y46969999D03*
X-15484999Y48869999D03*
X-14834999Y48869999D03*
X-14184999Y48869999D03*
%TD*%
D38*
%TO.C,C3*%
X4300000Y54980000D03*
X4300000Y54020000D03*
%TD*%
D23*
%TO.C,C65*%
X9375000Y-21155000D03*
X9375000Y-20195000D03*
%TD*%
D47*
%TO.C,Q13*%
X24949999Y-31899999D03*
X24949999Y-33199999D03*
X22949999Y-32549999D03*
%TD*%
D86*
%TO.C,U32*%
X20900000Y-1650000D03*
X20900000Y-2150000D03*
X20900000Y-2650000D03*
X20900000Y-3150000D03*
X20900000Y-3650000D03*
X18000000Y-3650000D03*
X18000000Y-3150000D03*
X18000000Y-2650000D03*
X18000000Y-2150000D03*
X18000000Y-1650000D03*
D87*
X19449999Y-2649999D03*
%TD*%
D17*
%TO.C,C8*%
X4080000Y59630000D03*
X5040000Y59630000D03*
%TD*%
D20*
%TO.C,T31*%
X-9200000Y19650000D03*
%TD*%
D37*
%TO.C,R10*%
X14350000Y43520000D03*
X14350000Y42500000D03*
%TD*%
D14*
%TO.C,C62*%
X-3020000Y-15050000D03*
X-3980000Y-15050000D03*
%TD*%
D73*
%TO.C,C89*%
X14300000Y-7200000D03*
X14300000Y-9100000D03*
%TD*%
D20*
%TO.C,T50*%
X6300000Y23000000D03*
%TD*%
%TO.C,J6*%
X2800000Y29850000D03*
%TD*%
%TO.C,T14*%
X-24000000Y14000000D03*
%TD*%
D17*
%TO.C,C71*%
X320000Y-11800000D03*
X1280000Y-11800000D03*
%TD*%
D29*
%TO.C,D12*%
X599999Y-31549999D03*
X599999Y-34349999D03*
%TD*%
D88*
%TO.C,U35*%
X-5537500Y24450000D03*
X-5537500Y25400000D03*
X-5537500Y26350000D03*
X-3262500Y26350000D03*
X-3262500Y25400000D03*
X-3262500Y24450000D03*
%TD*%
D20*
%TO.C,T27*%
X-9200000Y11450000D03*
%TD*%
D41*
%TO.C,U26*%
X10287500Y10075000D03*
X10287500Y10725000D03*
X10287500Y11375000D03*
X10287500Y12025000D03*
X10287500Y12675000D03*
X10287500Y13325000D03*
X10287500Y13975000D03*
X10287500Y14625000D03*
X10287500Y15275000D03*
X10287500Y15925000D03*
X16012500Y15925000D03*
X16012500Y15275000D03*
X16012500Y14625000D03*
X16012500Y13975000D03*
X16012500Y13325000D03*
X16012500Y12675000D03*
X16012500Y12025000D03*
X16012500Y11375000D03*
X16012500Y10725000D03*
X16012500Y10075000D03*
%TD*%
D23*
%TO.C,C125*%
X1650000Y5270000D03*
X1650000Y6230000D03*
%TD*%
%TO.C,C75*%
X-2200000Y320000D03*
X-2200000Y1280000D03*
%TD*%
D37*
%TO.C,R99*%
X18150000Y-45990000D03*
X18150000Y-47010000D03*
%TD*%
D40*
%TO.C,C14*%
X50000Y47725000D03*
X50000Y50675000D03*
%TD*%
D29*
%TO.C,D19*%
X8299999Y-2899999D03*
X8299999Y-99999D03*
%TD*%
D48*
%TO.C,R25*%
X-13490000Y-32250000D03*
X-14510000Y-32250000D03*
%TD*%
D41*
%TO.C,U21*%
X-5162500Y11375000D03*
X-5162500Y12025000D03*
X-5162500Y12675000D03*
X-5162500Y13325000D03*
X-5162500Y13975000D03*
X-5162500Y14625000D03*
X-5162500Y15275000D03*
X-5162500Y15925000D03*
X562500Y15925000D03*
X562500Y15275000D03*
X562500Y14625000D03*
X562500Y13975000D03*
X562500Y13325000D03*
X562500Y12675000D03*
X562500Y12025000D03*
X562500Y11375000D03*
%TD*%
D29*
%TO.C,D18*%
X15849999Y2749999D03*
X15849999Y-49999D03*
%TD*%
D20*
%TO.C,T45*%
X27250000Y-40200000D03*
%TD*%
D89*
%TO.C,FB5*%
X13562500Y-5700000D03*
X15137500Y-5700000D03*
%TD*%
D20*
%TO.C,T40*%
X-11000000Y9150000D03*
%TD*%
D38*
%TO.C,C81*%
X7800000Y23480000D03*
X7800000Y22520000D03*
%TD*%
D14*
%TO.C,C116*%
X7030000Y-8550000D03*
X6070000Y-8550000D03*
%TD*%
D39*
%TO.C,R82*%
X9640000Y-27925000D03*
X10660000Y-27925000D03*
%TD*%
D34*
%TO.C,Q23*%
X24849999Y-44799999D03*
X26149999Y-44799999D03*
X25499999Y-46799999D03*
%TD*%
D17*
%TO.C,C110*%
X14660000Y-4250000D03*
X15620000Y-4250000D03*
%TD*%
D20*
%TO.C,T32*%
X-3700000Y1300000D03*
%TD*%
D90*
%TO.C,FB6*%
X21900000Y-23462500D03*
X21900000Y-25037500D03*
%TD*%
D39*
%TO.C,R53*%
X-1610000Y-13000000D03*
X-590000Y-13000000D03*
%TD*%
%TO.C,R58*%
X290000Y-12800000D03*
X1310000Y-12800000D03*
%TD*%
D20*
%TO.C,J7*%
X4400000Y28700000D03*
%TD*%
D36*
%TO.C,R79*%
X9725000Y-24410000D03*
X9725000Y-23390000D03*
%TD*%
D20*
%TO.C,T33*%
X-3700000Y3350000D03*
%TD*%
D39*
%TO.C,R9*%
X-17110000Y45350000D03*
X-16090000Y45350000D03*
%TD*%
D38*
%TO.C,C66*%
X9500000Y-18220000D03*
X9500000Y-19180000D03*
%TD*%
D36*
%TO.C,R76*%
X-6950000Y1590000D03*
X-6950000Y2610000D03*
%TD*%
D20*
%TO.C,J3*%
X-2000000Y28700000D03*
%TD*%
D42*
%TO.C,C44*%
X-1275000Y53300000D03*
X-4225000Y53300000D03*
%TD*%
D72*
%TO.C,C86*%
X19955000Y-17700000D03*
X21505000Y-17700000D03*
%TD*%
D20*
%TO.C,T22*%
X27100000Y-26600000D03*
%TD*%
D82*
%TO.C,L2*%
X6499999Y51654999D03*
X6499999Y48344999D03*
%TD*%
D38*
%TO.C,C112*%
X24900000Y-2970000D03*
X24900000Y-3930000D03*
%TD*%
D37*
%TO.C,R56*%
X-4120000Y-3540000D03*
X-4120000Y-4560000D03*
%TD*%
D63*
%TO.C,C77*%
X1900000Y1050000D03*
X1900000Y2600000D03*
%TD*%
D85*
%TO.C,U4*%
X18114999Y44752499D03*
X17464999Y44752499D03*
X16814999Y44752499D03*
X16814999Y46652499D03*
X17464999Y46652499D03*
X18114999Y46652499D03*
%TD*%
D29*
%TO.C,D11*%
X-1599999Y-35999999D03*
X-1599999Y-33199999D03*
%TD*%
D71*
%TO.C,L7*%
X-150000Y57525000D03*
X-150000Y55375000D03*
%TD*%
D17*
%TO.C,C57*%
X-6230000Y22500000D03*
X-5270000Y22500000D03*
%TD*%
D20*
%TO.C,T11*%
X16100000Y39950000D03*
%TD*%
D14*
%TO.C,C1*%
X13380000Y48300000D03*
X12420000Y48300000D03*
%TD*%
D48*
%TO.C,R49*%
X4110000Y-31875000D03*
X3090000Y-31875000D03*
%TD*%
M02*
