%TF.GenerationSoftware,KiCad,Pcbnew,6.99.0-1.20221101gitf80c150.fc36*%
%TF.CreationDate,2022-11-27T20:20:13+00:00*%
%TF.ProjectId,bugg-main-r4,62756767-2d6d-4616-996e-2d72342e6b69,rev?*%
%TF.SameCoordinates,Original*%
%TF.FileFunction,Copper,L3,Inr*%
%TF.FilePolarity,Positive*%
%FSLAX46Y46*%
G04 Gerber Fmt 4.6, Leading zero omitted, Abs format (unit mm)*
G04 Created by KiCad (PCBNEW 6.99.0-1.20221101gitf80c150.fc36) date 2022-11-27 20:20:13*
%MOMM*%
%LPD*%
G01*
G04 APERTURE LIST*
%TA.AperFunction,ComponentPad*%
%ADD10O,1.550000X0.890000*%
%TD*%
%TA.AperFunction,ComponentPad*%
%ADD11O,0.950000X1.250000*%
%TD*%
%TA.AperFunction,ComponentPad*%
%ADD12C,0.500000*%
%TD*%
%TA.AperFunction,ComponentPad*%
%ADD13C,0.600000*%
%TD*%
%TA.AperFunction,ViaPad*%
%ADD14C,0.600000*%
%TD*%
%TA.AperFunction,ViaPad*%
%ADD15C,0.500000*%
%TD*%
%TA.AperFunction,Conductor*%
%ADD16C,0.300000*%
%TD*%
%TA.AperFunction,Conductor*%
%ADD17C,0.150000*%
%TD*%
%TA.AperFunction,Conductor*%
%ADD18C,0.200000*%
%TD*%
%TA.AperFunction,Conductor*%
%ADD19C,0.600000*%
%TD*%
G04 APERTURE END LIST*
D10*
%TO.N,GND*%
%TO.C,J15*%
X26199999Y28699999D03*
D11*
X23499999Y29699999D03*
X23499999Y34699999D03*
D10*
X26199999Y35699999D03*
%TD*%
D12*
%TO.N,-15V*%
%TO.C,U18*%
X4467462Y-15175000D03*
X4467462Y-16625000D03*
X4467462Y-18075000D03*
X5917462Y-15175000D03*
X5917462Y-16625000D03*
X5917462Y-18075000D03*
X7367462Y-15175000D03*
X7367462Y-16625000D03*
X7367462Y-18075000D03*
%TD*%
%TO.N,GNDA*%
%TO.C,U28*%
X16125000Y-15375000D03*
X16125000Y-14400000D03*
X16125000Y-13425000D03*
X15150000Y-15375000D03*
X15150000Y-14400000D03*
X15150000Y-13425000D03*
X14175000Y-15375000D03*
X14175000Y-14400000D03*
X14175000Y-13425000D03*
%TD*%
D13*
%TO.N,-15V*%
%TO.C,U23*%
X875000Y-17375000D03*
X875000Y-16625000D03*
X875000Y-15875000D03*
X125000Y-17375000D03*
X125000Y-16625000D03*
X125000Y-15875000D03*
X-625000Y-17375000D03*
X-625000Y-16625000D03*
X-625000Y-15875000D03*
%TD*%
D14*
%TO.N,+3.3VADC*%
X-1400000Y19800000D03*
X19700000Y9750000D03*
X3650000Y21200000D03*
X14800000Y10050000D03*
X17100000Y19900000D03*
X7800000Y24300000D03*
X12150000Y15950000D03*
X14900000Y17300000D03*
X6950000Y10050000D03*
X11450000Y19250000D03*
X11450000Y17950000D03*
X11400000Y12700000D03*
X-475000Y11375000D03*
X14900000Y18600000D03*
X5050000Y12750000D03*
X153631Y25396369D03*
X7900000Y-11600000D03*
X850000Y8500000D03*
D15*
%TO.N,/SCL*%
X-7700000Y-3600000D03*
X-14550000Y33400000D03*
X-10900000Y36000000D03*
X-14900000Y16350000D03*
%TO.N,/SDA*%
X-15350000Y16850000D03*
X-14600000Y32650000D03*
X-15500000Y-4900000D03*
X-9150000Y-3900000D03*
X-18800000Y14400000D03*
X-10250000Y35350000D03*
%TO.N,/FSYNC*%
X-12750000Y3950000D03*
X11850000Y18600000D03*
X6850000Y20050000D03*
X-650000Y19900000D03*
X-9300000Y2600000D03*
X-12450000Y38750000D03*
X-12100000Y17500000D03*
%TO.N,/BCLK*%
X-13600000Y39200000D03*
X-12550000Y20250000D03*
X-1050000Y12100000D03*
X-500000Y20550000D03*
X-12900000Y-2600000D03*
X7200000Y21700000D03*
X-500000Y15250000D03*
%TO.N,/SDOUT*%
X-12750000Y2500000D03*
D14*
%TO.N,GND*%
X17650000Y15000000D03*
X15400000Y58400000D03*
X350000Y40300000D03*
X7647207Y46950000D03*
X9500000Y38900000D03*
D15*
X22100000Y31850000D03*
D14*
X-12450000Y59381420D03*
X-6850000Y52775000D03*
X6950000Y12750000D03*
X-13450000Y60300000D03*
X9500000Y40350000D03*
D15*
X19250000Y44050000D03*
X-1300000Y47000000D03*
D14*
X-14200000Y55403621D03*
D15*
X24700000Y48250000D03*
D14*
X-5500000Y-35600000D03*
X4050000Y38900000D03*
X-6350000Y30850000D03*
X-11100000Y58950000D03*
X-10600000Y-42250000D03*
X-10450000Y-1300000D03*
X3750000Y49900000D03*
X19400000Y28700000D03*
X1900000Y9350000D03*
D15*
X19150000Y46500000D03*
D14*
X-9700000Y41700000D03*
D15*
X6600000Y56000000D03*
D14*
X-3150000Y49600000D03*
X9950000Y21700000D03*
X-17850000Y-37200000D03*
X8750000Y52800000D03*
X5800000Y46950000D03*
X2175000Y42150000D03*
X15800000Y52300000D03*
X-7050000Y30850000D03*
X-13650000Y55400000D03*
X15850000Y35500000D03*
D15*
X-5150000Y57400000D03*
D14*
X7950000Y50550000D03*
X14300000Y30900000D03*
X1400000Y54000000D03*
X-8250000Y60300000D03*
D15*
X22050000Y45050000D03*
X24150000Y48250000D03*
X-8000000Y55500000D03*
X-4700000Y59450000D03*
D14*
X-12600000Y-25750000D03*
X-3450000Y-34350000D03*
X3750000Y52800000D03*
X14000000Y52750000D03*
X15800000Y51700000D03*
D15*
X-3500000Y59450000D03*
D14*
X7650000Y40350000D03*
D15*
X18100000Y41600000D03*
D14*
X-9700000Y40300000D03*
X-3450000Y-36150000D03*
X-4000000Y54050000D03*
X-21450000Y-1200000D03*
X-6200000Y-43550000D03*
D15*
X21000000Y45050000D03*
D14*
X8400000Y-13800000D03*
X-14300000Y-31250000D03*
D15*
X-7650000Y-4300000D03*
D14*
X-3450000Y-35550000D03*
D15*
X20100000Y43850000D03*
D14*
X5850000Y36000000D03*
D15*
X-13850000Y-100000D03*
X21000000Y46550000D03*
D14*
X-10050000Y33950000D03*
X15700000Y42050000D03*
X12100000Y50050000D03*
X23300000Y6150000D03*
D15*
X-1950000Y57300000D03*
D14*
X-5500000Y-34400000D03*
X15600000Y31600000D03*
X-13150000Y-23850000D03*
D15*
X25800000Y48250000D03*
D14*
X-1450000Y43250000D03*
X15900000Y34000000D03*
X-5400000Y47350000D03*
X11150000Y38900000D03*
X27600000Y20800000D03*
X-6200000Y-42200000D03*
X-14100000Y60300000D03*
D15*
X-17000000Y-400000D03*
X-8000000Y56500000D03*
D14*
X8950000Y16600000D03*
X-400000Y49800000D03*
D15*
X15950000Y44100000D03*
D14*
X-19200000Y-42000000D03*
D15*
X20050000Y46550000D03*
D14*
X5376400Y50086400D03*
X19400000Y7750000D03*
X-11100000Y57350000D03*
X15400000Y59600000D03*
X-11200000Y60400000D03*
X-6175000Y52775000D03*
X-8200000Y-33050000D03*
X7650000Y44750000D03*
X15900000Y33300000D03*
X5850000Y38850000D03*
X13300000Y47350000D03*
X5800000Y37400000D03*
D15*
X20050000Y31850000D03*
X17050000Y47450000D03*
D14*
X6350000Y50550000D03*
D15*
X-6350000Y58900000D03*
D14*
X-6200000Y-44200000D03*
D15*
X23450000Y47250000D03*
D14*
X-13550000Y46350000D03*
X9500000Y37400000D03*
D15*
X-2300000Y54100000D03*
D14*
X-7700000Y50100000D03*
X27600000Y16000000D03*
X5800000Y15000000D03*
X-14600000Y-45150000D03*
X11250000Y46850000D03*
X15600000Y32350000D03*
X9450000Y43300000D03*
D15*
X3750000Y16250000D03*
D14*
X-1450000Y38850000D03*
X-1450000Y41800000D03*
X-5450000Y30750000D03*
X-8250000Y59700000D03*
D15*
X-8000000Y56000000D03*
D14*
X-10750000Y52800000D03*
X-18400000Y-32400000D03*
X13400000Y33900000D03*
X-20100000Y17100000D03*
X-11150000Y-19400000D03*
X-9700000Y41000000D03*
X7650000Y37400000D03*
D15*
X22000000Y46550000D03*
D14*
X2200000Y43250000D03*
X-5500000Y-35000000D03*
D15*
X-2700000Y53350000D03*
D14*
X-9450000Y52850000D03*
D15*
X25200000Y43300000D03*
D14*
X11150000Y43250000D03*
D15*
X21900000Y48050000D03*
D14*
X4000000Y44750000D03*
X11250000Y44750000D03*
X11150000Y40400000D03*
X13350000Y37150000D03*
X1500000Y58250000D03*
D15*
X-15400000Y2550000D03*
D14*
X2050000Y58250000D03*
X11400000Y15900000D03*
X-4550000Y9300000D03*
X-7050000Y-41450000D03*
D15*
X6600000Y56500000D03*
D14*
X2200000Y36050000D03*
D15*
X-4600000Y33000000D03*
D14*
X-9800000Y50086400D03*
X-14250000Y-37650000D03*
X-18000000Y-3150000D03*
X-8850000Y50086400D03*
X-20850000Y-6850000D03*
X7650000Y38850000D03*
X-8550000Y45950000D03*
X350000Y44750000D03*
X-16150000Y46050000D03*
X9450000Y47000000D03*
X400000Y41800000D03*
D15*
X25250000Y48250000D03*
X18700000Y43300000D03*
D14*
X-3450000Y-34950000D03*
X-12450000Y56500000D03*
X-14600000Y-22000000D03*
X9450000Y44750000D03*
X13400000Y33250000D03*
X-7650000Y60300000D03*
X-7900000Y58950000D03*
D15*
X23450000Y44300000D03*
D14*
X15400000Y60200000D03*
X-4000000Y53100000D03*
X-550000Y17150000D03*
X13300000Y34750000D03*
X-19400000Y49600000D03*
X-7650000Y59700000D03*
X-5400000Y35700000D03*
D15*
X6600000Y55500000D03*
D14*
X9100000Y-12300000D03*
X12100000Y50700000D03*
X-4956400Y49900000D03*
X2600000Y58250000D03*
X-25700000Y-45650000D03*
X-25550000Y-3350000D03*
X-3450000Y-33750000D03*
X-4350000Y6100000D03*
X27600000Y11000000D03*
X20650000Y6100000D03*
X-5500000Y-36200000D03*
X-10750000Y50050000D03*
X-4000000Y15900000D03*
X15400000Y59000000D03*
X2250000Y6250000D03*
D15*
X24100000Y43300000D03*
X1250000Y46750000D03*
D14*
X-6800000Y53650000D03*
X5850000Y43300000D03*
X7900000Y7150000D03*
X1350000Y53350000D03*
X-8750000Y-31900000D03*
X-2400000Y50900000D03*
X-8550000Y45400000D03*
X7650000Y43300000D03*
D15*
X1000000Y56400000D03*
D14*
X-14750000Y60300000D03*
X2200000Y44750000D03*
X23350000Y8300000D03*
X13300000Y35350000D03*
X-13600000Y53200000D03*
X8500000Y7150000D03*
X-2000000Y50100000D03*
X-2350000Y52700000D03*
X-19200000Y-7400000D03*
X-1450000Y40300000D03*
D15*
X1350000Y57250000D03*
X-16000000Y-9550000D03*
D14*
X10850000Y33800000D03*
X14900000Y30900000D03*
X5850000Y40300000D03*
D15*
X-20900000Y-10750000D03*
X25750000Y43300000D03*
D14*
X-7500000Y32050000D03*
D15*
X24650000Y43300000D03*
D14*
X-14850000Y55400000D03*
X4050000Y37400000D03*
X4000000Y36000000D03*
X-24050000Y-600000D03*
%TO.N,+3V3*%
X-22050000Y-13750000D03*
X-7750000Y-9300000D03*
X-22050000Y-9100000D03*
X-10400000Y-32300000D03*
X-9500000Y46250000D03*
X-14250000Y-29000000D03*
X-20800000Y16625000D03*
X-17000000Y34200000D03*
X-14450000Y6050000D03*
X-22650000Y-9100000D03*
X-2800000Y22200000D03*
X-19275000Y-1575000D03*
X-12000000Y-14550000D03*
%TO.N,/Power and input connector/Vin*%
X13700000Y50650000D03*
X1100000Y59150000D03*
X13350000Y50150000D03*
X1100000Y60250000D03*
X12550000Y60350000D03*
X1100000Y59700000D03*
X13350000Y49150000D03*
X13700000Y49650000D03*
X12550000Y59250000D03*
X12550000Y59800000D03*
D15*
%TO.N,/Modem/UIM_SIM_DET*%
X-5400000Y36750000D03*
X-3975000Y27075000D03*
D14*
%TO.N,/Modem/UIM_VCC*%
X-25450800Y-24739600D03*
X-5550000Y-20300000D03*
D15*
X13206594Y41793406D03*
D14*
X-9000000Y-17800000D03*
X-14600000Y-22800000D03*
%TO.N,/Modem/UIM_RESET_N*%
X-6600000Y-19700000D03*
X-25450800Y-22199600D03*
X-14350000Y-19800000D03*
D15*
X13200000Y44200000D03*
D14*
%TO.N,/Modem/UIM_CLK_R*%
X-16400000Y-19100000D03*
X-25450800Y-19659600D03*
%TO.N,/Power and input connector/VIN_DCDC_3V7*%
X10600000Y55100000D03*
X2450000Y56250000D03*
X1800000Y56250000D03*
X11150000Y55100000D03*
X10600000Y55700000D03*
X3100000Y56250000D03*
X11150000Y55700000D03*
D15*
%TO.N,/SD_DAT2*%
X-9400000Y3350000D03*
X-20830000Y-12370000D03*
%TO.N,/SD_DAT3*%
X-9250000Y-2000000D03*
X-20850000Y-11550000D03*
D14*
%TO.N,/SD_CMD*%
X-20900000Y-9900000D03*
D15*
X-13850000Y-2650000D03*
%TO.N,/SD_CLK*%
X-20800000Y-8000000D03*
D14*
X-9250000Y-1250000D03*
D15*
%TO.N,/SD_DAT0*%
X-13300000Y-1550000D03*
X-20700000Y-5750000D03*
%TO.N,/SD_DAT1*%
X-12750000Y-1050000D03*
X-20700000Y-4670000D03*
%TO.N,/SD_nDET*%
X-19950000Y-3950000D03*
X-7700000Y-2300000D03*
D14*
%TO.N,/LED driver\u002C LED board connections/LED3_B*%
X-12700000Y40350000D03*
%TO.N,VBUS*%
X-14950000Y43900000D03*
X18800000Y-45400000D03*
X-4600000Y-37750000D03*
X-5200000Y-38350000D03*
X-4600000Y-38350000D03*
X-15250000Y44400000D03*
X-11050000Y8100000D03*
X-5350000Y-32200000D03*
X-11400000Y-31250000D03*
X-15550000Y43900000D03*
X-14650000Y44400000D03*
X18850000Y4550000D03*
X-5200000Y-37750000D03*
X2550000Y7650000D03*
%TO.N,/USB_OTG_ID*%
X22550000Y8300000D03*
X19600000Y24250000D03*
X17100000Y23450000D03*
%TO.N,/Power and input connector/VIN_DCDC_5*%
X-4050000Y55600000D03*
X-4050000Y55000000D03*
X-11900000Y53850000D03*
X-12500000Y53850000D03*
X-4650000Y55600000D03*
X-4650000Y55000000D03*
X-12500000Y54450000D03*
X-11900000Y54450000D03*
D15*
%TO.N,/RXD*%
X-10200000Y-6300000D03*
X-14800000Y-28500000D03*
X-6600000Y-28850000D03*
%TO.N,/TXD*%
X-14850000Y-25800000D03*
X-10700000Y-5650000D03*
X-6600000Y-27900000D03*
D14*
%TO.N,/LED driver\u002C LED board connections/LED3_G*%
X-12000000Y40700000D03*
%TO.N,/nPWR_LED*%
X-13850000Y41100000D03*
X-17325000Y-35525000D03*
%TO.N,/LED driver\u002C LED board connections/LED2_B*%
X-12700000Y41700000D03*
D15*
%TO.N,/LED driver\u002C LED board connections/LED2_G*%
X-11900000Y42250000D03*
%TO.N,/LED driver\u002C LED board connections/LED2_R*%
X-13300000Y42850000D03*
%TO.N,/LED driver\u002C LED board connections/LED1_B*%
X-16100000Y42300000D03*
X-11900000Y43250000D03*
%TO.N,/LED driver\u002C LED board connections/LED1_G*%
X-12700000Y43250000D03*
D14*
%TO.N,/LED driver\u002C LED board connections/LED1_R*%
X-9750000Y43200000D03*
%TO.N,+5V*%
X17700000Y-16100000D03*
X27350000Y-5800000D03*
X26750000Y-6400000D03*
X2450000Y-9800000D03*
X17700000Y-17300000D03*
X-9100000Y14500000D03*
X10000000Y4000000D03*
X-8750000Y47350000D03*
X-3500000Y56300000D03*
X-9850000Y-8500000D03*
X-2950000Y56300000D03*
X-5200000Y48800000D03*
X26750000Y-5200000D03*
X27050000Y2300000D03*
X-9850000Y-9100000D03*
X-7650000Y47350000D03*
X27500000Y-13850000D03*
X-9250000Y-7900000D03*
X-9850000Y47350000D03*
X-11900000Y36600000D03*
X27650000Y2300000D03*
X-9850000Y-7900000D03*
X-10950000Y47350000D03*
X26750000Y-5800000D03*
X17700000Y-17900000D03*
X26450000Y2300000D03*
X18300000Y-17900000D03*
X27350000Y-6400000D03*
X17700000Y-16700000D03*
X-9850000Y-9700000D03*
X27350000Y-5200000D03*
X27050000Y1700000D03*
X-9250000Y-9100000D03*
X27650000Y1700000D03*
X-9300000Y47350000D03*
X18300000Y-17300000D03*
X26450000Y1700000D03*
X-9250000Y-8500000D03*
X22600000Y-13850000D03*
X-8200000Y47350000D03*
X-9250000Y-9700000D03*
X-10400000Y47350000D03*
%TO.N,/USB_UART_DN*%
X-8150000Y-40700000D03*
%TO.N,/USB_UART_DP*%
X-6900000Y-40700000D03*
D15*
%TO.N,/POWER_ON_N*%
X-7700000Y900000D03*
X-3000000Y16600000D03*
X-7750000Y16250000D03*
%TO.N,/RESET_IN_N*%
X-2150000Y11050000D03*
X-9150000Y10400000D03*
X-9250000Y1250000D03*
%TO.N,/BOOT_MODE*%
X-8000000Y10950000D03*
X-3900000Y11550000D03*
X-9250000Y-300000D03*
%TO.N,/WAKE*%
X-2000000Y22000000D03*
X1950000Y24600000D03*
D14*
%TO.N,GNDA*%
X16300000Y-22100000D03*
X-2950000Y-44350000D03*
X20050000Y-13300000D03*
X11300000Y-18700000D03*
X23432951Y-43845022D03*
X11600000Y-24250000D03*
X-3650000Y5250000D03*
X7500000Y-45700000D03*
X-2950000Y-43450000D03*
X19600000Y-30750000D03*
X26250000Y-28750000D03*
X19450000Y-1750000D03*
X23400000Y-18400000D03*
X4900000Y-34750000D03*
X9100000Y-10300000D03*
X1450000Y-7450000D03*
X-4550000Y-1600000D03*
X26900000Y-18200000D03*
X27100000Y5000000D03*
X22950000Y-29400000D03*
X9100000Y-30650000D03*
X16850000Y-22100000D03*
X8550000Y-21150000D03*
X3625000Y-45800000D03*
X25600000Y-43800000D03*
X10578849Y-8870138D03*
X1900000Y-3350000D03*
X9600000Y-22400000D03*
X12200000Y-1600000D03*
X2400000Y5250000D03*
X22100000Y-19300000D03*
X3900000Y-10350000D03*
X11550000Y-30700000D03*
X18250000Y-13300000D03*
X25500000Y-13300000D03*
X4900000Y-34200000D03*
X23150000Y-33750000D03*
X17950000Y-22100000D03*
X19450000Y-3550000D03*
X19450000Y-13300000D03*
X4350000Y-34750000D03*
X24650000Y-5250000D03*
X12900000Y-39400000D03*
X19450000Y-2950000D03*
X19250000Y5250000D03*
X24650000Y-4650000D03*
X6250000Y-19900000D03*
X7100000Y-21150000D03*
X3000000Y-26500000D03*
X18250000Y-13900000D03*
X17400000Y-22100000D03*
X-2200000Y2150000D03*
X1550000Y-1350000D03*
X4000000Y-43250000D03*
X19450000Y-2350000D03*
X-4650000Y-18550000D03*
X15400000Y-17550000D03*
X4350000Y-34200000D03*
X12650000Y-27050000D03*
X13300000Y5300000D03*
X-3850000Y-42250000D03*
X8100000Y-7950000D03*
X12200000Y-2800000D03*
X22100000Y-19900000D03*
X25050000Y-17850000D03*
X17350000Y-26400000D03*
X400000Y-28300000D03*
X7000000Y5350000D03*
X-4150000Y-8200000D03*
X-4750000Y-22650000D03*
X18850000Y-13300000D03*
X14450000Y-42150000D03*
X12200000Y-2200000D03*
X7700000Y-42800000D03*
X5200000Y-28000000D03*
X6950000Y550000D03*
X16650000Y-5200000D03*
X12200000Y-3400000D03*
X-4400000Y350000D03*
%TO.N,/MIC_IN_P*%
X-550000Y-41300000D03*
D15*
%TO.N,/WAKE_ON_WWAN*%
X3850000Y18050000D03*
X-10650000Y1700000D03*
X-8450000Y18200000D03*
%TO.N,/TX_ON*%
X4350000Y19800000D03*
X-10800000Y2400000D03*
X-9600000Y18550000D03*
D14*
%TO.N,/Modem/1V8_TX_ON*%
X-5400000Y41700000D03*
X4850000Y21200000D03*
%TO.N,/Modem/1V8_WAKE_ON_WWAN*%
X5900000Y19100000D03*
X16336715Y42563286D03*
%TO.N,/Modem/1V8_WAKE*%
X3450000Y25550000D03*
D15*
X4400000Y34100000D03*
D14*
%TO.N,/Modem/1V8_BOOT_MODE*%
X5250000Y13950000D03*
X1150000Y49750000D03*
D15*
%TO.N,/Modem/1V8_RESET_IN_N*%
X5250000Y34050000D03*
D14*
X4850000Y11300000D03*
%TO.N,/Modem/1V8_POWER_ON_N*%
X4850000Y17850000D03*
X-5250000Y42700000D03*
%TO.N,Net-(D1-K)*%
X-14300000Y-36100000D03*
X-15950000Y-31250000D03*
D15*
%TO.N,/MODEM_USB_DN*%
X6050000Y34200000D03*
D14*
X18800000Y35050000D03*
D15*
%TO.N,/MODEM_USB_DP*%
X6850000Y34200000D03*
D14*
X18000000Y35050000D03*
%TO.N,Net-(D3-K)*%
X-9500000Y-44350000D03*
X1650000Y21850000D03*
X-16000000Y20950000D03*
%TO.N,+3V7*%
X9200000Y33200000D03*
X9350000Y49600000D03*
X10400000Y57750000D03*
X8750000Y49600000D03*
X8750000Y50200000D03*
X-5450000Y39100000D03*
X9350000Y50200000D03*
X-5450000Y40200000D03*
X-5450000Y38550000D03*
X-5450000Y39650000D03*
D15*
%TO.N,/Modem/UIM_CLK*%
X13200000Y42600000D03*
D14*
X-6150000Y-17100000D03*
%TO.N,/GLOBAL_EN_o*%
X-12800000Y-12350000D03*
X-15000000Y8100000D03*
D15*
%TO.N,/nRPIBOOT*%
X-14300000Y-10850000D03*
X-15200000Y20400000D03*
D14*
X20681118Y22932069D03*
D15*
%TO.N,/3V7_EN*%
X-10800000Y100000D03*
X9600000Y56300000D03*
%TO.N,/nPWR_LED_BUF*%
X-25900000Y-18600000D03*
X-15800000Y-33050000D03*
X-12300000Y-11600000D03*
D14*
%TO.N,/MIC_IN_N*%
X4900000Y-40300000D03*
X1050000Y-41300000D03*
%TO.N,Net-(Module1A-RUN_PG)*%
X-12950000Y-13750000D03*
D15*
%TO.N,Net-(U7-UART1_TX)*%
X-600000Y34050000D03*
D14*
X-10109200Y32715200D03*
X-5283200Y34645600D03*
%TO.N,Net-(U7-UART1_RX)*%
X-10109200Y31902400D03*
D15*
X650000Y34050000D03*
D14*
X-5283200Y33578800D03*
%TO.N,Net-(U7-SYS_CLK)*%
X13200000Y38600000D03*
X17100000Y38900000D03*
%TO.N,Net-(U7-SLEEP_CLK)*%
X16500000Y41000000D03*
X13650000Y39400000D03*
%TO.N,/Modem/UIM_DATA*%
X-22250400Y-19659600D03*
D15*
X13200000Y43412246D03*
D14*
X-16400000Y-18200000D03*
X-6150000Y-18000000D03*
%TO.N,Net-(U18A-SOUT2)*%
X4150000Y-31150000D03*
X6050000Y-24150000D03*
%TO.N,Net-(U18A-SOUT1)*%
X5500000Y-20200000D03*
X5600000Y-21450000D03*
%TO.N,+15V*%
X7550000Y-20250000D03*
X-1550000Y-37650000D03*
X550000Y-6500000D03*
X12500000Y-7050000D03*
X5100000Y-2400000D03*
X11900000Y-7050000D03*
X-100000Y-13750000D03*
X11900000Y-7650000D03*
X11850000Y-37000000D03*
X12500000Y-7650000D03*
%TO.N,-15V*%
X-3950000Y-32100000D03*
X8500000Y-19250000D03*
X27400000Y-19350000D03*
X1800000Y-5450000D03*
X12050000Y-34600000D03*
X26800000Y-19950000D03*
X-3300000Y-16850000D03*
X-4150000Y-10850000D03*
X26800000Y-19350000D03*
X27400000Y-19950000D03*
%TO.N,Net-(U27-IN+)*%
X-400000Y400000D03*
X-1350000Y-550000D03*
%TO.N,Net-(U27-IN-)*%
X-3700000Y2500000D03*
X-1300000Y400000D03*
%TO.N,+1V8*%
X900000Y1150000D03*
X23200000Y-17300000D03*
X24650000Y-6050000D03*
X13289077Y-8387876D03*
%TO.N,+48V*%
X24600000Y-36550000D03*
X8000000Y850000D03*
X16900000Y-17900000D03*
X8600000Y850000D03*
X24000000Y-36550000D03*
X15450000Y-21000000D03*
%TO.N,+3.3VA*%
X17750000Y-29200000D03*
X17000000Y-43650000D03*
%TO.N,/Power and input connector/-15_O*%
X18000000Y-19600000D03*
X11750000Y-16900000D03*
%TO.N,Net-(C71-Pad2)*%
X-150000Y-8550000D03*
X-1300000Y-7450000D03*
X-1300000Y-1550000D03*
%TO.N,Net-(D14-A)*%
X-3750000Y-19300000D03*
X1000000Y-13650000D03*
%TO.N,/SDOUT_INT_MIC*%
X-12550000Y11800000D03*
X-13400000Y39950000D03*
%TO.N,+5VA*%
X3450000Y-4000000D03*
X-4150000Y-2450000D03*
%TO.N,/EXT_MIC_EN*%
X-600000Y24350000D03*
D15*
X-10250000Y1100000D03*
D14*
X-4800000Y27100000D03*
D15*
X26600000Y-2950000D03*
D14*
X-3050000Y8650000D03*
D15*
X14750000Y-17150000D03*
X16050000Y-17150000D03*
X-10200000Y10350000D03*
X21500000Y-950000D03*
X24100000Y-15800000D03*
%TO.N,/SPI_SCLK*%
X-7800000Y100000D03*
%TO.N,/SPI_nCS*%
X-10750000Y-600000D03*
%TO.N,/SPI_MOSI*%
X-7650000Y-1550000D03*
D14*
%TO.N,Net-(Q13-D)*%
X22150000Y-32550000D03*
X18650000Y-32750000D03*
%TO.N,Net-(Q14-D)*%
X16600000Y-32500000D03*
X18800000Y-28350000D03*
%TO.N,/External Microphone Interface/PIP_EN*%
X19300000Y-27750000D03*
X16400000Y-25450000D03*
X9300000Y-15050000D03*
X10400000Y-23950000D03*
%TO.N,/External Microphone Interface/P3V3_EN*%
X17350000Y-25550000D03*
X11150000Y-17500000D03*
%TO.N,/External Microphone Interface/P48_EN*%
X18000000Y-27800000D03*
X10400000Y-18100000D03*
X13600000Y-25550000D03*
X19600000Y-44000000D03*
X18350000Y-30100000D03*
%TO.N,Net-(Q20-D)*%
X14300000Y-30500000D03*
X12950000Y-29550000D03*
%TO.N,Net-(Q21-D)*%
X16050000Y-29000000D03*
X16300000Y-30300000D03*
%TO.N,Net-(U18A-IN1)*%
X2450000Y-20600000D03*
X2062500Y-18587500D03*
X-1275000Y-13775000D03*
%TO.N,Net-(U18A-IN2)*%
X1950000Y-14950000D03*
X-600000Y-21600000D03*
X-1950000Y-14250000D03*
%TO.N,/External Microphone Interface/CNV*%
X14300000Y21550000D03*
X13950000Y10300000D03*
X-2400000Y9300000D03*
%TO.N,/External Microphone Interface/SCK*%
X-1500000Y11450000D03*
X-3900000Y17100000D03*
%TO.N,/External Microphone Interface/AMP_MOSI*%
X-3050000Y7800000D03*
X4700000Y-11600000D03*
%TO.N,/External Microphone Interface/AMP_SCLK*%
X4450000Y-12400000D03*
X-3850000Y7800000D03*
%TO.N,/External Microphone Interface/AMP_nCS*%
X-3850000Y8600000D03*
X3850000Y-12950000D03*
%TO.N,/External Microphone Interface/Q0*%
X19116421Y10316421D03*
X-3350000Y12650000D03*
X11550000Y10700000D03*
X4050000Y10750000D03*
%TO.N,/External Microphone Interface/Q1*%
X-3975000Y13325000D03*
X11850000Y12000000D03*
X19650000Y10950000D03*
X3750000Y12000000D03*
%TO.N,/External Microphone Interface/Q2*%
X-3300000Y14000000D03*
X19150000Y12250000D03*
X11900000Y13350000D03*
X4150000Y13350000D03*
%TO.N,/External Microphone Interface/Q3*%
X3750000Y14600000D03*
X19650000Y12900000D03*
X-3950000Y14600000D03*
X11900000Y14150000D03*
%TO.N,/External Microphone Interface/Q4*%
X14900000Y15900000D03*
X7050000Y15950000D03*
X-1200000Y14850000D03*
X4250000Y15200000D03*
X-8300000Y16850000D03*
X5050000Y16250000D03*
%TO.N,/External Microphone Interface/CLK_H*%
X-1100000Y16000000D03*
X19100000Y13550000D03*
%TO.N,/External Microphone Interface/RST*%
X11850000Y20400000D03*
X13200000Y16950000D03*
X-1850000Y15550000D03*
%TO.N,/External Microphone Interface/!Qeq2*%
X6675000Y18475000D03*
X3900000Y19200000D03*
%TO.N,/External Microphone Interface/!Qeq10*%
X14400000Y17950000D03*
X14800000Y10850000D03*
%TO.N,/External Microphone Interface/Qeq2*%
X6900000Y20950000D03*
X6750000Y17650000D03*
X14800000Y19400000D03*
%TO.N,/External Microphone Interface/AMP_RST*%
X-3050000Y15850000D03*
X3467462Y-14282538D03*
X-4950000Y6950000D03*
X4050000Y17300000D03*
%TO.N,Net-(U19A-~{R})*%
X12300000Y17850000D03*
X6900000Y19300000D03*
D15*
%TO.N,/SHDNZ*%
X-9250000Y500000D03*
X-7900000Y20400000D03*
%TO.N,/LED_ACT*%
X-16700000Y-32950000D03*
X-17400000Y3200000D03*
X-12750000Y3300000D03*
%TO.N,/LED_USER*%
X-9450000Y-5750000D03*
X-8750000Y-39650000D03*
D14*
%TO.N,/Power and input connector/LT_VIN*%
X24700000Y-800000D03*
X12350000Y450000D03*
X24100000Y-200000D03*
X12350000Y1050000D03*
X12350000Y-150000D03*
X24700000Y-200000D03*
X12950000Y1050000D03*
X23500000Y-800000D03*
X23500000Y-200000D03*
X12950000Y-150000D03*
X12950000Y450000D03*
X24100000Y-800000D03*
%TO.N,/Power and input connector/LT_VOUT*%
X13950000Y-4400000D03*
X16000000Y1600000D03*
%TO.N,/Modem/UIM_DSW*%
X-5550000Y-21100000D03*
X-17170400Y-21640800D03*
X-11950000Y-21550000D03*
X-9850000Y-17800000D03*
X-2850000Y27150000D03*
D15*
%TO.N,/Modem/J1*%
X-3170000Y32950000D03*
%TO.N,/Modem/J2*%
X-1700000Y32800000D03*
%TO.N,/Modem/J3*%
X-510000Y32810000D03*
%TO.N,/Modem/J4*%
X650000Y32820000D03*
%TO.N,/Modem/J5*%
X1810000Y32800000D03*
%TO.N,/Modem/J6*%
X3100000Y32830000D03*
%TO.N,/Modem/J7*%
X5380000Y32800000D03*
%TO.N,/Modem/J8*%
X6550000Y32800000D03*
%TO.N,/Modem/J9*%
X7700000Y32800000D03*
D14*
%TO.N,IN_VIN*%
X-7300000Y-36250000D03*
X-7300000Y-33850000D03*
X-7300000Y-35050000D03*
X19700000Y48750000D03*
X-7300000Y-34450000D03*
X20300000Y49350000D03*
X20300000Y48750000D03*
X19700000Y49350000D03*
X-7800000Y-41450000D03*
X-7300000Y-35650000D03*
X19100000Y49350000D03*
X19100000Y48750000D03*
%TD*%
D16*
%TO.N,+3.3VADC*%
X850000Y8500000D02*
X100000Y7750000D01*
X11250000Y-10150000D02*
X9800000Y-11600000D01*
X100000Y4550000D02*
X700000Y3950000D01*
X9800000Y-11600000D02*
X7900000Y-11600000D01*
X11250000Y1750000D02*
X11250000Y-10150000D01*
X9050000Y3950000D02*
X11250000Y1750000D01*
X700000Y3950000D02*
X9050000Y3950000D01*
X100000Y7750000D02*
X100000Y4550000D01*
D17*
%TO.N,/SCL*%
X-8500000Y-4400000D02*
X-7700000Y-3600000D01*
X-14550000Y-4200000D02*
X-10050000Y-4200000D01*
X-15450000Y-3300000D02*
X-14550000Y-4200000D01*
X-14900000Y16350000D02*
X-13550000Y15000000D01*
X-14100000Y17150000D02*
X-14900000Y16350000D01*
X-14100000Y32950000D02*
X-14100000Y17150000D01*
X-15450000Y400000D02*
X-15450000Y-3300000D01*
X-14550000Y33400000D02*
X-14100000Y32950000D01*
X-13550000Y15000000D02*
X-13550000Y2300000D01*
X-13550000Y2300000D02*
X-15450000Y400000D01*
X-9850000Y-4400000D02*
X-8500000Y-4400000D01*
X-10050000Y-4200000D02*
X-9850000Y-4400000D01*
%TO.N,/SDA*%
X-13850000Y2424264D02*
X-13850000Y13850000D01*
X-15350000Y18000000D02*
X-15350000Y16850000D01*
X-13850000Y13850000D02*
X-15450000Y15450000D01*
X-14400000Y32450000D02*
X-14400000Y18950000D01*
X-15500000Y-4900000D02*
X-15750000Y-4650000D01*
X-14600000Y32650000D02*
X-14400000Y32450000D01*
X-15750000Y524264D02*
X-13850000Y2424264D01*
X-15750000Y-4650000D02*
X-15750000Y524264D01*
X-15450000Y15450000D02*
X-15450000Y16750000D01*
X-15450000Y16750000D02*
X-15350000Y16850000D01*
X-14400000Y18950000D02*
X-15350000Y18000000D01*
%TO.N,/FSYNC*%
X-11300000Y11500000D02*
X-12700000Y10100000D01*
X-12700000Y4000000D02*
X-12750000Y3950000D01*
X-12700000Y10100000D02*
X-12700000Y4000000D01*
X-11600000Y21400000D02*
X-11600000Y18000000D01*
X-12100000Y17500000D02*
X-11300000Y16700000D01*
X-12450000Y38750000D02*
X-12650000Y38550000D01*
X-11600000Y18000000D02*
X-12100000Y17500000D01*
X-12650000Y38550000D02*
X-12650000Y22450000D01*
X-11300000Y16700000D02*
X-11300000Y11500000D01*
X-12650000Y22450000D02*
X-11600000Y21400000D01*
%TO.N,/BCLK*%
X-500000Y15250000D02*
X-500000Y16200000D01*
X-12550000Y20950000D02*
X-12550000Y20250000D01*
X0Y20050000D02*
X-500000Y20550000D01*
X0Y16700000D02*
X0Y20050000D01*
X-11950000Y0D02*
X-13250000Y1300000D01*
X-13250000Y19550000D02*
X-12550000Y20250000D01*
X-13250000Y1300000D02*
X-13250000Y19550000D01*
X-11950000Y-2100000D02*
X-11950000Y0D01*
X-13600000Y39200000D02*
X-13600000Y22000000D01*
X-1050000Y12100000D02*
X-500000Y12650000D01*
X-12900000Y-2600000D02*
X-12450000Y-2600000D01*
X-500000Y16200000D02*
X0Y16700000D01*
X-13600000Y22000000D02*
X-12550000Y20950000D01*
X-500000Y12650000D02*
X-500000Y15250000D01*
X-12450000Y-2600000D02*
X-11950000Y-2100000D01*
D16*
%TO.N,+3V3*%
X-13300000Y-22850000D02*
X-13300000Y-16450000D01*
X-14250000Y-23800000D02*
X-13300000Y-22850000D01*
X-13300000Y-16450000D02*
X-12000000Y-15150000D01*
X-12000000Y-15150000D02*
X-12000000Y-14550000D01*
X-14250000Y-29000000D02*
X-14250000Y-23800000D01*
D17*
%TO.N,/Modem/UIM_SIM_DET*%
X-4050000Y35400000D02*
X-5400000Y36750000D01*
X-4050000Y27150000D02*
X-4050000Y35400000D01*
X-3975000Y27075000D02*
X-4050000Y27150000D01*
D18*
%TO.N,/Modem/UIM_VCC*%
X-5550000Y20550000D02*
X1200000Y27300000D01*
X3900000Y41050000D02*
X12463188Y41050000D01*
X-5550000Y-20300000D02*
X-5550000Y20550000D01*
X1200000Y27300000D02*
X1200000Y38350000D01*
X12463188Y41050000D02*
X13206594Y41793406D01*
X1200000Y38350000D02*
X3900000Y41050000D01*
%TO.N,/Modem/UIM_RESET_N*%
X-6750000Y-15350000D02*
X-6750000Y21150000D01*
X-7150000Y-15750000D02*
X-6750000Y-15350000D01*
X-7150000Y-17850000D02*
X-7150000Y-15750000D01*
X-6600000Y-18400000D02*
X-7150000Y-17850000D01*
X3600000Y42600000D02*
X11600000Y42600000D01*
X-2250000Y36750000D02*
X3600000Y42600000D01*
X-6750000Y21150000D02*
X-2250000Y25650000D01*
X-2250000Y25650000D02*
X-2250000Y36750000D01*
X-6600000Y-19700000D02*
X-6600000Y-18400000D01*
X11600000Y42600000D02*
X13200000Y44200000D01*
%TO.N,VBUS*%
X18850000Y4550000D02*
X18850000Y3700000D01*
X18050000Y-7100000D02*
X18050000Y2900000D01*
X18800000Y-34150000D02*
X20700000Y-32250000D01*
X18850000Y3700000D02*
X18050000Y2900000D01*
X20700000Y-32250000D02*
X20700000Y-9750000D01*
X20700000Y-9750000D02*
X18050000Y-7100000D01*
X18800000Y-45400000D02*
X18800000Y-34150000D01*
%TO.N,/USB_OTG_ID*%
X19600000Y22900000D02*
X22750000Y19750000D01*
X22750000Y19750000D02*
X22750000Y8150000D01*
X19600000Y24250000D02*
X18800000Y23450000D01*
X18800000Y23450000D02*
X17100000Y23450000D01*
X19600000Y24250000D02*
X19600000Y22900000D01*
D17*
%TO.N,/RXD*%
X-6000000Y-22825736D02*
X-6000000Y-28250000D01*
X-10400000Y-6500000D02*
X-10400000Y-18425736D01*
X-10200000Y-6300000D02*
X-10400000Y-6500000D01*
X-10400000Y-18425736D02*
X-6000000Y-22825736D01*
X-6000000Y-28250000D02*
X-6600000Y-28850000D01*
%TO.N,/TXD*%
X-6300000Y-27600000D02*
X-6600000Y-27900000D01*
X-6300000Y-22950000D02*
X-6300000Y-27600000D01*
X-10700000Y-18550000D02*
X-6300000Y-22950000D01*
X-10700000Y-5650000D02*
X-10700000Y-18550000D01*
D18*
%TO.N,/nPWR_LED*%
X-14850000Y40100000D02*
X-15900000Y40100000D01*
X-13850000Y41100000D02*
X-14850000Y40100000D01*
X-18050000Y9500000D02*
X-18050000Y1100000D01*
X-18750000Y-31025000D02*
X-17325000Y-32450000D01*
X-15900000Y40100000D02*
X-21850000Y34150000D01*
X-21850000Y13300000D02*
X-18050000Y9500000D01*
X-18050000Y1100000D02*
X-26900000Y-7750000D01*
X-21125000Y-31025000D02*
X-18750000Y-31025000D01*
X-17325000Y-32450000D02*
X-17325000Y-35525000D01*
X-26900000Y-25250000D02*
X-21125000Y-31025000D01*
X-21850000Y34150000D02*
X-21850000Y13300000D01*
X-26900000Y-7750000D02*
X-26900000Y-25250000D01*
%TO.N,/LED driver\u002C LED board connections/LED1_B*%
X-16100000Y42300000D02*
X-16000000Y42200000D01*
X-12950000Y42200000D02*
X-11900000Y43250000D01*
X-16000000Y42200000D02*
X-12950000Y42200000D01*
D19*
%TO.N,+5V*%
X-3500000Y56300000D02*
X-2950000Y56300000D01*
D16*
X-3300000Y56100000D02*
X-3300000Y52050000D01*
X-3800000Y49600000D02*
X-4600000Y48800000D01*
X-3500000Y56300000D02*
X-3300000Y56100000D01*
X-3800000Y51550000D02*
X-3800000Y49600000D01*
X-4600000Y48800000D02*
X-5200000Y48800000D01*
X-3300000Y52050000D02*
X-3800000Y51550000D01*
D17*
%TO.N,/POWER_ON_N*%
X-7700000Y900000D02*
X-7525000Y1075000D01*
X-7525000Y1075000D02*
X-7525000Y16025000D01*
X-7525000Y16025000D02*
X-7750000Y16250000D01*
%TO.N,/RESET_IN_N*%
X-8800000Y1700000D02*
X-9250000Y1250000D01*
X-8800000Y9550000D02*
X-8800000Y1700000D01*
X-9150000Y10400000D02*
X-9150000Y9900000D01*
X-9150000Y9900000D02*
X-8800000Y9550000D01*
%TO.N,/BOOT_MODE*%
X-8300000Y100000D02*
X-8700000Y-300000D01*
X-8000000Y10950000D02*
X-7862132Y10812132D01*
X-8700000Y-300000D02*
X-9250000Y-300000D01*
X-8300000Y1000000D02*
X-8300000Y100000D01*
X-7862132Y1437868D02*
X-8300000Y1000000D01*
X-7862132Y10812132D02*
X-7862132Y1437868D01*
%TO.N,/WAKE_ON_WWAN*%
X-10300000Y2050000D02*
X-10650000Y1700000D01*
X-10000000Y17000000D02*
X-10000000Y11350000D01*
X-11800000Y5475000D02*
X-10300000Y3975000D01*
X-10000000Y11350000D02*
X-11800000Y9550000D01*
X-8450000Y18200000D02*
X-8800000Y18200000D01*
X-8800000Y18200000D02*
X-10000000Y17000000D01*
X-10300000Y3975000D02*
X-10300000Y2050000D01*
X-11800000Y9550000D02*
X-11800000Y5475000D01*
%TO.N,/TX_ON*%
X-11500000Y3100000D02*
X-10800000Y2400000D01*
X-9600000Y18550000D02*
X-10300000Y17850000D01*
X-10300000Y17850000D02*
X-10300000Y11550000D01*
X-12100000Y5300000D02*
X-11500000Y4700000D01*
X-11500000Y4700000D02*
X-11500000Y3100000D01*
X-10300000Y11550000D02*
X-12100000Y9750000D01*
X-12100000Y9750000D02*
X-12100000Y5300000D01*
D18*
%TO.N,/Modem/1V8_TX_ON*%
X11700000Y39400000D02*
X11950499Y39650499D01*
X4550000Y21500000D02*
X4550000Y30600000D01*
X13200000Y45350000D02*
X-1050000Y45350000D01*
X-4700000Y41700000D02*
X-5400000Y41700000D01*
X4850000Y21200000D02*
X4550000Y21500000D01*
X5650000Y31700000D02*
X10085020Y31700000D01*
X4550000Y30600000D02*
X5650000Y31700000D01*
X11950499Y39650499D02*
X11950499Y39665479D01*
X11950499Y39665479D02*
X13900000Y41614980D01*
X13900000Y41614980D02*
X13900000Y44650000D01*
X10085020Y31700000D02*
X11700000Y33314980D01*
X13900000Y44650000D02*
X13200000Y45350000D01*
X11700000Y33314980D02*
X11700000Y39400000D01*
X-1050000Y45350000D02*
X-4700000Y41700000D01*
%TO.N,/Modem/1V8_WAKE_ON_WWAN*%
X15850000Y41300000D02*
X16350000Y41800000D01*
X16350000Y42550001D02*
X16336715Y42563286D01*
X12400000Y32850000D02*
X10450000Y30900000D01*
X14660661Y41300000D02*
X15500000Y41300000D01*
X12400000Y38300000D02*
X12400000Y39039339D01*
X15500000Y41300000D02*
X15850000Y41300000D01*
X6000000Y30900000D02*
X5400000Y30300000D01*
X12400000Y39039339D02*
X13055330Y39694669D01*
X5400000Y30300000D02*
X5400000Y24100000D01*
X5400000Y24100000D02*
X5900000Y23600000D01*
X16350000Y41800000D02*
X16350000Y42550001D01*
X12400000Y38300000D02*
X12400000Y32850000D01*
X13055330Y39694669D02*
X14660661Y41300000D01*
X10450000Y30900000D02*
X6000000Y30900000D01*
X5900000Y23600000D02*
X5900000Y19100000D01*
%TO.N,/Modem/1V8_WAKE*%
X3800000Y33500000D02*
X3800000Y25900000D01*
X3800000Y25900000D02*
X3450000Y25550000D01*
X4400000Y34100000D02*
X3800000Y33500000D01*
%TO.N,/Modem/1V8_BOOT_MODE*%
X16450000Y46250000D02*
X4750000Y46250000D01*
X14000000Y36000000D02*
X14600000Y36600000D01*
X14600000Y36600000D02*
X16100000Y36600000D01*
X6500000Y13950000D02*
X7900000Y15350000D01*
X5250000Y13950000D02*
X6500000Y13950000D01*
X8500000Y30400000D02*
X11750000Y30400000D01*
X17550000Y40700000D02*
X17550000Y45150000D01*
X16250000Y39400000D02*
X17550000Y40700000D01*
X4750000Y46250000D02*
X1250000Y49750000D01*
X6850000Y23500000D02*
X6850000Y28750000D01*
X16250000Y36750000D02*
X16250000Y39400000D01*
X7900000Y22450000D02*
X6850000Y23500000D01*
X1250000Y49750000D02*
X1150000Y49750000D01*
X17550000Y45150000D02*
X16450000Y46250000D01*
X7900000Y15350000D02*
X7900000Y22450000D01*
X16100000Y36600000D02*
X16250000Y36750000D01*
X6850000Y28750000D02*
X8500000Y30400000D01*
X11750000Y30400000D02*
X14000000Y32650000D01*
X14000000Y32650000D02*
X14000000Y36000000D01*
D17*
%TO.N,/Modem/1V8_RESET_IN_N*%
X4850000Y11750000D02*
X4850000Y11300000D01*
X3050000Y21700000D02*
X3050000Y13550000D01*
X4800000Y31400000D02*
X4175000Y30775000D01*
X4175000Y30775000D02*
X4175000Y22825000D01*
X5250000Y34050000D02*
X4800000Y33600000D01*
X4175000Y22825000D02*
X3050000Y21700000D01*
X4800000Y33600000D02*
X4800000Y31400000D01*
X3050000Y13550000D02*
X4850000Y11750000D01*
D18*
%TO.N,/Modem/1V8_POWER_ON_N*%
X12782843Y39917157D02*
X12767157Y39917157D01*
X14800000Y41934314D02*
X12782843Y39917157D01*
X5000000Y30484314D02*
X5000000Y23934314D01*
X12050000Y39200000D02*
X12050000Y33100000D01*
X5467157Y19767157D02*
X4850000Y19150000D01*
X5467157Y23467157D02*
X5467157Y19767157D01*
X12050000Y33100000D02*
X10250000Y31300000D01*
X12767157Y39917157D02*
X12050000Y39200000D01*
X14800000Y45265686D02*
X14800000Y41934314D01*
X14315686Y45750000D02*
X14800000Y45265686D01*
X10250000Y31300000D02*
X5815686Y31300000D01*
X4850000Y19150000D02*
X4850000Y17850000D01*
X5815686Y31300000D02*
X5000000Y30484314D01*
X5000000Y23934314D02*
X5467157Y23467157D01*
X-2200000Y45750000D02*
X14315686Y45750000D01*
X-5250000Y42700000D02*
X-2200000Y45750000D01*
%TO.N,Net-(D1-K)*%
X-15950000Y-31250000D02*
X-15250000Y-31950000D01*
X-15250000Y-35150000D02*
X-14300000Y-36100000D01*
X-15250000Y-31950000D02*
X-15250000Y-35150000D01*
%TO.N,Net-(D3-K)*%
X-14900000Y-34350000D02*
X-9500000Y-39750000D01*
X-16850000Y1150000D02*
X-18550000Y-550000D01*
X-16850000Y20100000D02*
X-16850000Y1150000D01*
X-18550000Y-550000D02*
X-18550000Y-1700000D01*
X-18550000Y-1700000D02*
X-23650000Y-6800000D01*
X-16000000Y20950000D02*
X-16850000Y20100000D01*
X-23650000Y-22450000D02*
X-14900000Y-31200000D01*
X-14900000Y-31200000D02*
X-14900000Y-34350000D01*
X-9500000Y-39750000D02*
X-9500000Y-44350000D01*
X-23650000Y-6800000D02*
X-23650000Y-22450000D01*
%TO.N,/Modem/UIM_CLK*%
X-6150000Y-17100000D02*
X-5950000Y-16900000D01*
X-5950000Y-16900000D02*
X-5950000Y20750000D01*
X3900000Y41650000D02*
X12250000Y41650000D01*
X40000Y26740000D02*
X40000Y37790000D01*
X40000Y37790000D02*
X3900000Y41650000D01*
X-5950000Y20750000D02*
X40000Y26740000D01*
X12250000Y41650000D02*
X13200000Y42600000D01*
%TO.N,/GLOBAL_EN_o*%
X-14850000Y1954594D02*
X-14850000Y5400000D01*
X-14850000Y5400000D02*
X-15050000Y5600000D01*
X-15050000Y8050000D02*
X-15000000Y8100000D01*
X-12800000Y-12350000D02*
X-13300000Y-12350000D01*
X-16150000Y-5600000D02*
X-16150000Y654594D01*
X-15050000Y5600000D02*
X-15050000Y8050000D01*
X-13650000Y-12000000D02*
X-13650000Y-8100000D01*
X-13650000Y-8100000D02*
X-16150000Y-5600000D01*
X-13300000Y-12350000D02*
X-13650000Y-12000000D01*
X-16150000Y654594D02*
X-14850000Y1954594D01*
D17*
%TO.N,/nRPIBOOT*%
X-16100000Y1300000D02*
X-16100000Y19500000D01*
X-14300000Y-8200000D02*
X-16525000Y-5975000D01*
X-16525000Y875000D02*
X-16100000Y1300000D01*
X-14300000Y-10850000D02*
X-14300000Y-8200000D01*
X-16525000Y-5975000D02*
X-16525000Y875000D01*
X-16100000Y19500000D02*
X-15200000Y20400000D01*
%TO.N,/3V7_EN*%
X9600000Y56300000D02*
X9470000Y56300000D01*
X-11850000Y4600000D02*
X-11850000Y2150000D01*
X-10950000Y18100000D02*
X-10950000Y11400000D01*
X-6050000Y41250000D02*
X-5700000Y40900000D01*
X-12400000Y9950000D02*
X-12400000Y5150000D01*
X400000Y48000000D02*
X-1300000Y46300000D01*
X-3450000Y31400000D02*
X-3450000Y25600000D01*
X-12400000Y5150000D02*
X-11850000Y4600000D01*
X400000Y50750000D02*
X400000Y48000000D01*
X-6050000Y43100000D02*
X-6050000Y41250000D01*
X-10950000Y11400000D02*
X-12400000Y9950000D01*
X-2625000Y39225000D02*
X-2625000Y32225000D01*
X7220000Y54050000D02*
X3700000Y54050000D01*
X-10800000Y1100000D02*
X-10800000Y100000D01*
X-11850000Y2150000D02*
X-10800000Y1100000D01*
X3700000Y54050000D02*
X400000Y50750000D01*
X-3450000Y25600000D02*
X-10950000Y18100000D01*
X-5700000Y40900000D02*
X-4300000Y40900000D01*
X-2850000Y46300000D02*
X-6050000Y43100000D01*
X9470000Y56300000D02*
X7220000Y54050000D01*
X-1300000Y46300000D02*
X-2850000Y46300000D01*
X-2625000Y32225000D02*
X-3450000Y31400000D01*
X-4300000Y40900000D02*
X-2625000Y39225000D01*
%TO.N,/nPWR_LED_BUF*%
X-18225000Y-30300000D02*
X-20850000Y-30300000D01*
X-20850000Y-30300000D02*
X-26200000Y-24950000D01*
X-26200000Y-24950000D02*
X-26200000Y-18825000D01*
X-25975000Y-18600000D02*
X-25900000Y-18600000D01*
X-15800000Y-33050000D02*
X-15800000Y-32725000D01*
X-15800000Y-32725000D02*
X-18225000Y-30300000D01*
X-26200000Y-18825000D02*
X-25975000Y-18600000D01*
D18*
%TO.N,/Modem/UIM_DATA*%
X11912743Y42124989D02*
X3724989Y42124989D01*
X13200000Y43412246D02*
X11912743Y42124989D01*
X-6750000Y-15950000D02*
X-6750000Y-17400000D01*
X-6350000Y-15550000D02*
X-6750000Y-15950000D01*
X-6350000Y20950000D02*
X-6350000Y-15550000D01*
X-6750000Y-17400000D02*
X-6150000Y-18000000D01*
X3724989Y42124989D02*
X-1150000Y37250000D01*
X-1150000Y37250000D02*
X-1150000Y26150000D01*
X-1150000Y26150000D02*
X-6350000Y20950000D01*
%TO.N,/SDOUT_INT_MIC*%
X-13050000Y22000000D02*
X-13050000Y39600000D01*
X-12000000Y20950000D02*
X-13050000Y22000000D01*
X-13050000Y39600000D02*
X-13400000Y39950000D01*
X-12550000Y11800000D02*
X-12800000Y12050000D01*
X-12800000Y19150000D02*
X-12000000Y19950000D01*
X-12000000Y19950000D02*
X-12000000Y20950000D01*
X-12800000Y12050000D02*
X-12800000Y19150000D01*
D17*
%TO.N,/EXT_MIC_EN*%
X-1350000Y8650000D02*
X350000Y10350000D01*
D18*
X25350000Y-2950000D02*
X24100000Y-4200000D01*
D17*
X-10250000Y1100000D02*
X-9950000Y1400000D01*
D18*
X24100000Y-4200000D02*
X24100000Y-15800000D01*
D17*
X-3050000Y8650000D02*
X-1350000Y8650000D01*
X350000Y23400000D02*
X-600000Y24350000D01*
D18*
X26600000Y-2950000D02*
X25350000Y-2950000D01*
D17*
X-9950000Y1400000D02*
X-9950000Y4000000D01*
X-9950000Y4000000D02*
X-9250000Y4700000D01*
X350000Y10350000D02*
X350000Y23400000D01*
X-9250000Y9400000D02*
X-10200000Y10350000D01*
X-9250000Y4700000D02*
X-9250000Y9400000D01*
D18*
%TO.N,/External Microphone Interface/PIP_EN*%
X16400000Y-26500000D02*
X17000000Y-27100000D01*
X10400000Y-23950000D02*
X11050000Y-23300000D01*
X16400000Y-25450000D02*
X16400000Y-26500000D01*
X18650000Y-27100000D02*
X19300000Y-27750000D01*
X17000000Y-27100000D02*
X18650000Y-27100000D01*
X14250000Y-23300000D02*
X16400000Y-25450000D01*
X11050000Y-23300000D02*
X14250000Y-23300000D01*
%TO.N,/External Microphone Interface/CNV*%
X13850000Y11400000D02*
X13850000Y17550000D01*
X13700000Y17700000D02*
X13700000Y20950000D01*
X13850000Y17550000D02*
X13700000Y17700000D01*
X13700000Y20950000D02*
X14300000Y21550000D01*
X13950000Y10300000D02*
X13850000Y10400000D01*
X13850000Y10400000D02*
X13850000Y11400000D01*
%TO.N,/External Microphone Interface/SCK*%
X-3900000Y17100000D02*
X-2750000Y17100000D01*
X-2500000Y16850000D02*
X-2500000Y12450000D01*
X-2750000Y17100000D02*
X-2500000Y16850000D01*
X-2500000Y12450000D02*
X-1500000Y11450000D01*
%TO.N,/External Microphone Interface/Q4*%
X4250000Y15200000D02*
X5050000Y16000000D01*
X5050000Y16000000D02*
X5050000Y16250000D01*
%TO.N,/External Microphone Interface/RST*%
X13200000Y16950000D02*
X13200000Y19050000D01*
X13200000Y19050000D02*
X11850000Y20400000D01*
%TO.N,/External Microphone Interface/!Qeq10*%
X14300000Y11350000D02*
X14800000Y10850000D01*
X14300000Y17850000D02*
X14300000Y11350000D01*
X14400000Y17950000D02*
X14300000Y17850000D01*
%TO.N,/External Microphone Interface/Qeq2*%
X7500000Y18400000D02*
X6750000Y17650000D01*
X7500000Y20500000D02*
X7500000Y18400000D01*
X6900000Y20950000D02*
X7050000Y20950000D01*
X7050000Y20950000D02*
X7500000Y20500000D01*
%TO.N,/External Microphone Interface/AMP_RST*%
X-5150000Y7150000D02*
X-5150000Y14500000D01*
X-5150000Y14500000D02*
X-4400000Y15250000D01*
X-3650000Y15250000D02*
X-3050000Y15850000D01*
X-4400000Y15250000D02*
X-3650000Y15250000D01*
X-4950000Y6950000D02*
X-5150000Y7150000D01*
D17*
%TO.N,/SHDNZ*%
X-8600000Y700000D02*
X-8600000Y1350000D01*
X-8600000Y11400000D02*
X-8600000Y12950000D01*
X-8950000Y17250000D02*
X-8700000Y17500000D01*
X-8600000Y10150000D02*
X-8600000Y11400000D01*
X-8500000Y10050000D02*
X-8600000Y10150000D01*
X-8250000Y15150000D02*
X-8950000Y15850000D01*
X-8162132Y9712132D02*
X-8500000Y10050000D01*
X-8600000Y1350000D02*
X-8600000Y1362132D01*
X-7950000Y17850000D02*
X-7950000Y18700000D01*
X-7950000Y18700000D02*
X-7950000Y20350000D01*
X-8162132Y1800000D02*
X-8162132Y3800000D01*
X-9250000Y500000D02*
X-8800000Y500000D01*
X-8250000Y13300000D02*
X-8250000Y15150000D01*
X-8600000Y12950000D02*
X-8250000Y13300000D01*
X-8800000Y500000D02*
X-8600000Y700000D01*
X-8250000Y17550000D02*
X-7950000Y17850000D01*
X-8162132Y3800000D02*
X-8162132Y9712132D01*
X-8950000Y15850000D02*
X-8950000Y17250000D01*
X-8650000Y17550000D02*
X-8250000Y17550000D01*
X-7950000Y20350000D02*
X-7900000Y20400000D01*
X-8700000Y17500000D02*
X-8650000Y17550000D01*
X-8600000Y1362132D02*
X-8162132Y1800000D01*
%TO.N,/LED_ACT*%
X-26525011Y-7975011D02*
X-17400000Y1150000D01*
X-16675000Y-32925000D02*
X-16675000Y-32512500D01*
X-26525011Y-25059623D02*
X-26525011Y-7975011D01*
X-18537500Y-30650000D02*
X-20934634Y-30650000D01*
X-17400000Y1150000D02*
X-17400000Y3200000D01*
X-16675000Y-32512500D02*
X-18537500Y-30650000D01*
X-20934634Y-30650000D02*
X-26525011Y-25059623D01*
X-16700000Y-32950000D02*
X-16675000Y-32925000D01*
%TO.N,/LED_USER*%
X-10100000Y-5100000D02*
X-9450000Y-5750000D01*
X-10900000Y-5100000D02*
X-10100000Y-5100000D01*
X-8750000Y-39650000D02*
X-13200000Y-35200000D01*
X-11200000Y-18450000D02*
X-11200000Y-5400000D01*
X-11200000Y-5400000D02*
X-10900000Y-5100000D01*
X-13200000Y-35200000D02*
X-13200000Y-25100000D01*
X-13200000Y-25100000D02*
X-12600000Y-24500000D01*
X-12600000Y-24500000D02*
X-12600000Y-19850000D01*
X-12600000Y-19850000D02*
X-11200000Y-18450000D01*
D18*
%TO.N,/Modem/UIM_DSW*%
X-7150000Y-15184314D02*
X-7150000Y21350000D01*
X-7150000Y21350000D02*
X-2850000Y25650000D01*
X-6150000Y-21100000D02*
X-7550000Y-19700000D01*
X-7550000Y-16850000D02*
X-7550000Y-15584314D01*
X-8900000Y-16850000D02*
X-7550000Y-16850000D01*
X-5550000Y-21100000D02*
X-6150000Y-21100000D01*
X-7550000Y-15584314D02*
X-7150000Y-15184314D01*
X-2850000Y25650000D02*
X-2850000Y27150000D01*
X-7550000Y-19700000D02*
X-7550000Y-16850000D01*
X-9850000Y-17800000D02*
X-8900000Y-16850000D01*
%TD*%
M02*
