%TF.GenerationSoftware,KiCad,Pcbnew,6.99.0-1.20221101gitf80c150.fc36*%
%TF.CreationDate,2022-11-16T22:23:51+00:00*%
%TF.ProjectId,bugg-main-r4,62756767-2d6d-4616-996e-2d72342e6b69,rev?*%
%TF.SameCoordinates,Original*%
%TF.FileFunction,Soldermask,Top*%
%TF.FilePolarity,Negative*%
%FSLAX46Y46*%
G04 Gerber Fmt 4.6, Leading zero omitted, Abs format (unit mm)*
G04 Created by KiCad (PCBNEW 6.99.0-1.20221101gitf80c150.fc36) date 2022-11-16 22:23:51*
%MOMM*%
%LPD*%
G01*
G04 APERTURE LIST*
G04 Aperture macros list*
%AMRoundRect*
0 Rectangle with rounded corners*
0 $1 Rounding radius*
0 $2 $3 $4 $5 $6 $7 $8 $9 X,Y pos of 4 corners*
0 Add a 4 corners polygon primitive as box body*
4,1,4,$2,$3,$4,$5,$6,$7,$8,$9,$2,$3,0*
0 Add four circle primitives for the rounded corners*
1,1,$1+$1,$2,$3*
1,1,$1+$1,$4,$5*
1,1,$1+$1,$6,$7*
1,1,$1+$1,$8,$9*
0 Add four rect primitives between the rounded corners*
20,1,$1+$1,$2,$3,$4,$5,0*
20,1,$1+$1,$4,$5,$6,$7,0*
20,1,$1+$1,$6,$7,$8,$9,0*
20,1,$1+$1,$8,$9,$2,$3,0*%
%AMFreePoly0*
4,1,101,-1.895792,2.944575,-1.557458,2.864389,-1.230721,2.745466,-0.920000,2.589416,-0.629496,2.398348,-0.363138,2.174847,-0.124527,1.921935,0.083109,1.643032,0.256962,1.341910,0.394681,1.022640,0.494404,0.689541,0.554783,0.347118,0.575000,0.000000,0.554783,-0.347118,0.494404,-0.689541,0.394681,-1.022640,0.256962,-1.341910,0.083109,-1.643032,-0.124527,-1.921935,-0.363138,-2.174847,
-0.629496,-2.398348,-0.920000,-2.589416,-1.230721,-2.745466,-1.557458,-2.864389,-1.895792,-2.944575,-2.241147,-2.984941,-2.588853,-2.984941,-2.934208,-2.944575,-3.272542,-2.864389,-3.599279,-2.745466,-3.910000,-2.589416,-4.200504,-2.398348,-4.466862,-2.174847,-4.705473,-1.921935,-4.913109,-1.643032,-5.086962,-1.341910,-5.224681,-1.022640,-5.324404,-0.689541,-5.384783,-0.347118,-5.405000,0.000000,
-4.259700,0.000000,-4.240924,-0.262528,-4.184977,-0.519712,-4.092998,-0.766316,-3.966860,-0.997320,-3.809131,-1.208022,-3.623022,-1.394131,-3.412320,-1.551860,-3.181316,-1.677998,-2.934712,-1.769977,-2.677528,-1.825924,-2.415000,-1.844700,-2.152472,-1.825924,-1.895288,-1.769977,-1.648684,-1.677998,-1.417680,-1.551860,-1.206978,-1.394131,-1.020869,-1.208022,-0.863140,-0.997320,-0.737002,-0.766316,
-0.645023,-0.519712,-0.589076,-0.262528,-0.570300,0.000000,-0.589076,0.262528,-0.645023,0.519712,-0.737002,0.766316,-0.863140,0.997320,-1.020869,1.208022,-1.206978,1.394131,-1.417680,1.551860,-1.648684,1.677998,-1.895288,1.769977,-2.152472,1.825924,-2.415000,1.844700,-2.677528,1.825924,-2.934712,1.769977,-3.181316,1.677998,-3.412320,1.551860,-3.623022,1.394131,-3.809131,1.208022,
-3.966860,0.997320,-4.092998,0.766316,-4.184977,0.519712,-4.240924,0.262528,-4.259700,0.000000,-5.405000,0.000000,-5.384783,0.347118,-5.324404,0.689541,-5.224681,1.022640,-5.086962,1.341910,-4.913109,1.643032,-4.705473,1.921935,-4.466862,2.174847,-4.200504,2.398348,-3.910000,2.589416,-3.599279,2.745466,-3.272542,2.864389,-2.934208,2.944575,-2.588853,2.984941,-2.241147,2.984941,
-1.895792,2.944575,-1.895792,2.944575,$1*%
G04 Aperture macros list end*
%ADD10C,0.200000*%
%ADD11RoundRect,0.140000X-0.140000X-0.170000X0.140000X-0.170000X0.140000X0.170000X-0.140000X0.170000X0*%
%ADD12R,0.700000X0.640000*%
%ADD13R,0.550000X1.550000*%
%ADD14R,0.700000X0.700000*%
%ADD15R,1.850000X0.570000*%
%ADD16R,0.820000X0.520000*%
%ADD17R,1.150000X0.520000*%
%ADD18R,1.700000X1.010000*%
%ADD19R,0.450000X1.300000*%
%ADD20R,1.960000X0.570000*%
%ADD21R,1.650000X0.520000*%
%ADD22R,1.450000X0.570000*%
%ADD23R,0.700000X0.900000*%
%ADD24R,1.900000X0.450000*%
%ADD25R,2.400000X0.450000*%
%ADD26R,2.900000X0.450000*%
%ADD27R,0.650000X1.200000*%
%ADD28R,0.700000X0.750000*%
%ADD29R,0.500000X1.400000*%
%ADD30R,0.600000X0.300000*%
%ADD31RoundRect,0.150000X-0.150000X0.512500X-0.150000X-0.512500X0.150000X-0.512500X0.150000X0.512500X0*%
%ADD32R,1.350000X0.400000*%
%ADD33O,0.950000X1.250000*%
%ADD34R,1.550000X1.500000*%
%ADD35R,1.550000X1.200000*%
%ADD36O,1.550000X0.890000*%
%ADD37R,1.200000X1.200000*%
%ADD38R,0.700000X0.450000*%
%ADD39RoundRect,0.135000X0.185000X-0.135000X0.185000X0.135000X-0.185000X0.135000X-0.185000X-0.135000X0*%
%ADD40RoundRect,0.250000X-0.250000X-1.200000X0.250000X-1.200000X0.250000X1.200000X-0.250000X1.200000X0*%
%ADD41RoundRect,0.250000X-0.650000X-1.550000X0.650000X-1.550000X0.650000X1.550000X-0.650000X1.550000X0*%
%ADD42RoundRect,0.225000X0.250000X-0.225000X0.250000X0.225000X-0.250000X0.225000X-0.250000X-0.225000X0*%
%ADD43RoundRect,0.250000X-0.475000X0.250000X-0.475000X-0.250000X0.475000X-0.250000X0.475000X0.250000X0*%
%ADD44RoundRect,0.150000X0.150000X-0.825000X0.150000X0.825000X-0.150000X0.825000X-0.150000X-0.825000X0*%
%ADD45RoundRect,0.218750X-0.256250X0.218750X-0.256250X-0.218750X0.256250X-0.218750X0.256250X0.218750X0*%
%ADD46RoundRect,0.135000X0.135000X0.185000X-0.135000X0.185000X-0.135000X-0.185000X0.135000X-0.185000X0*%
%ADD47R,0.450000X0.700000*%
%ADD48R,0.550000X0.300000*%
%ADD49R,0.550000X0.400000*%
%ADD50RoundRect,0.135000X-0.185000X0.135000X-0.185000X-0.135000X0.185000X-0.135000X0.185000X0.135000X0*%
%ADD51R,2.200000X1.050000*%
%ADD52R,1.050000X1.000000*%
%ADD53RoundRect,0.140000X0.140000X0.170000X-0.140000X0.170000X-0.140000X-0.170000X0.140000X-0.170000X0*%
%ADD54RoundRect,0.200000X-0.200000X-0.275000X0.200000X-0.275000X0.200000X0.275000X-0.200000X0.275000X0*%
%ADD55RoundRect,0.200000X0.200000X0.275000X-0.200000X0.275000X-0.200000X-0.275000X0.200000X-0.275000X0*%
%ADD56R,0.500000X1.000000*%
%ADD57R,1.000000X0.500000*%
%ADD58R,1.000000X1.000000*%
%ADD59R,0.900000X1.000000*%
%ADD60C,0.800000*%
%ADD61R,0.300000X1.400000*%
%ADD62R,1.100000X1.100000*%
%ADD63C,3.700000*%
%ADD64FreePoly0,0.000000*%
%ADD65C,2.000000*%
%ADD66RoundRect,0.200000X-0.275000X0.200000X-0.275000X-0.200000X0.275000X-0.200000X0.275000X0.200000X0*%
%ADD67R,0.700000X0.200000*%
%ADD68C,3.200000*%
%ADD69RoundRect,0.135000X-0.135000X-0.185000X0.135000X-0.185000X0.135000X0.185000X-0.135000X0.185000X0*%
%ADD70RoundRect,0.225000X0.225000X0.250000X-0.225000X0.250000X-0.225000X-0.250000X0.225000X-0.250000X0*%
%ADD71RoundRect,0.140000X-0.170000X0.140000X-0.170000X-0.140000X0.170000X-0.140000X0.170000X0.140000X0*%
%ADD72R,0.400000X0.650000*%
%ADD73RoundRect,0.147500X-0.147500X-0.172500X0.147500X-0.172500X0.147500X0.172500X-0.147500X0.172500X0*%
%ADD74RoundRect,0.147500X0.147500X0.172500X-0.147500X0.172500X-0.147500X-0.172500X0.147500X-0.172500X0*%
%ADD75RoundRect,0.250000X0.475000X-0.250000X0.475000X0.250000X-0.475000X0.250000X-0.475000X-0.250000X0*%
%ADD76RoundRect,0.147500X0.172500X-0.147500X0.172500X0.147500X-0.172500X0.147500X-0.172500X-0.147500X0*%
%ADD77R,2.200000X1.800000*%
%ADD78R,1.300000X0.300000*%
%ADD79RoundRect,0.250000X-0.250000X-0.475000X0.250000X-0.475000X0.250000X0.475000X-0.250000X0.475000X0*%
%ADD80R,0.300000X0.550000*%
%ADD81R,0.400000X0.550000*%
%ADD82RoundRect,0.140000X0.170000X-0.140000X0.170000X0.140000X-0.170000X0.140000X-0.170000X-0.140000X0*%
%ADD83R,3.200000X3.200000*%
%ADD84C,8.000000*%
%ADD85RoundRect,0.225000X-0.250000X0.225000X-0.250000X-0.225000X0.250000X-0.225000X0.250000X0.225000X0*%
G04 APERTURE END LIST*
D10*
X-25668857Y47464285D02*
X-24468857Y47464285D01*
X-24926000Y47464285D02*
X-24868857Y47350000D01*
X-24868857Y47350000D02*
X-24868857Y47121428D01*
X-24868857Y47121428D02*
X-24926000Y47007142D01*
X-24926000Y47007142D02*
X-24983142Y46950000D01*
X-24983142Y46950000D02*
X-25097428Y46892857D01*
X-25097428Y46892857D02*
X-25440285Y46892857D01*
X-25440285Y46892857D02*
X-25554571Y46950000D01*
X-25554571Y46950000D02*
X-25611714Y47007142D01*
X-25611714Y47007142D02*
X-25668857Y47121428D01*
X-25668857Y47121428D02*
X-25668857Y47350000D01*
X-25668857Y47350000D02*
X-25611714Y47464285D01*
X-24868857Y45864286D02*
X-25668857Y45864286D01*
X-24868857Y46378571D02*
X-25497428Y46378571D01*
X-25497428Y46378571D02*
X-25611714Y46321428D01*
X-25611714Y46321428D02*
X-25668857Y46207143D01*
X-25668857Y46207143D02*
X-25668857Y46035714D01*
X-25668857Y46035714D02*
X-25611714Y45921428D01*
X-25611714Y45921428D02*
X-25554571Y45864286D01*
X-24868857Y44778572D02*
X-25840285Y44778572D01*
X-25840285Y44778572D02*
X-25954571Y44835714D01*
X-25954571Y44835714D02*
X-26011714Y44892857D01*
X-26011714Y44892857D02*
X-26068857Y45007143D01*
X-26068857Y45007143D02*
X-26068857Y45178572D01*
X-26068857Y45178572D02*
X-26011714Y45292857D01*
X-25611714Y44778572D02*
X-25668857Y44892857D01*
X-25668857Y44892857D02*
X-25668857Y45121429D01*
X-25668857Y45121429D02*
X-25611714Y45235714D01*
X-25611714Y45235714D02*
X-25554571Y45292857D01*
X-25554571Y45292857D02*
X-25440285Y45350000D01*
X-25440285Y45350000D02*
X-25097428Y45350000D01*
X-25097428Y45350000D02*
X-24983142Y45292857D01*
X-24983142Y45292857D02*
X-24926000Y45235714D01*
X-24926000Y45235714D02*
X-24868857Y45121429D01*
X-24868857Y45121429D02*
X-24868857Y44892857D01*
X-24868857Y44892857D02*
X-24926000Y44778572D01*
X-24868857Y43692858D02*
X-25840285Y43692858D01*
X-25840285Y43692858D02*
X-25954571Y43750000D01*
X-25954571Y43750000D02*
X-26011714Y43807143D01*
X-26011714Y43807143D02*
X-26068857Y43921429D01*
X-26068857Y43921429D02*
X-26068857Y44092858D01*
X-26068857Y44092858D02*
X-26011714Y44207143D01*
X-25611714Y43692858D02*
X-25668857Y43807143D01*
X-25668857Y43807143D02*
X-25668857Y44035715D01*
X-25668857Y44035715D02*
X-25611714Y44150000D01*
X-25611714Y44150000D02*
X-25554571Y44207143D01*
X-25554571Y44207143D02*
X-25440285Y44264286D01*
X-25440285Y44264286D02*
X-25097428Y44264286D01*
X-25097428Y44264286D02*
X-24983142Y44207143D01*
X-24983142Y44207143D02*
X-24926000Y44150000D01*
X-24926000Y44150000D02*
X-24868857Y44035715D01*
X-24868857Y44035715D02*
X-24868857Y43807143D01*
X-24868857Y43807143D02*
X-24926000Y43692858D01*
X-25211714Y43121429D02*
X-25211714Y42207144D01*
X-25668857Y41635715D02*
X-24868857Y41635715D01*
X-24983142Y41635715D02*
X-24926000Y41578572D01*
X-24926000Y41578572D02*
X-24868857Y41464287D01*
X-24868857Y41464287D02*
X-24868857Y41292858D01*
X-24868857Y41292858D02*
X-24926000Y41178572D01*
X-24926000Y41178572D02*
X-25040285Y41121430D01*
X-25040285Y41121430D02*
X-25668857Y41121430D01*
X-25040285Y41121430D02*
X-24926000Y41064287D01*
X-24926000Y41064287D02*
X-24868857Y40950001D01*
X-24868857Y40950001D02*
X-24868857Y40778572D01*
X-24868857Y40778572D02*
X-24926000Y40664287D01*
X-24926000Y40664287D02*
X-25040285Y40607144D01*
X-25040285Y40607144D02*
X-25668857Y40607144D01*
X-25668857Y39521430D02*
X-25040285Y39521430D01*
X-25040285Y39521430D02*
X-24926000Y39578572D01*
X-24926000Y39578572D02*
X-24868857Y39692858D01*
X-24868857Y39692858D02*
X-24868857Y39921430D01*
X-24868857Y39921430D02*
X-24926000Y40035715D01*
X-25611714Y39521430D02*
X-25668857Y39635715D01*
X-25668857Y39635715D02*
X-25668857Y39921430D01*
X-25668857Y39921430D02*
X-25611714Y40035715D01*
X-25611714Y40035715D02*
X-25497428Y40092858D01*
X-25497428Y40092858D02*
X-25383142Y40092858D01*
X-25383142Y40092858D02*
X-25268857Y40035715D01*
X-25268857Y40035715D02*
X-25211714Y39921430D01*
X-25211714Y39921430D02*
X-25211714Y39635715D01*
X-25211714Y39635715D02*
X-25154571Y39521430D01*
X-25668857Y38950001D02*
X-24868857Y38950001D01*
X-24468857Y38950001D02*
X-24526000Y39007144D01*
X-24526000Y39007144D02*
X-24583142Y38950001D01*
X-24583142Y38950001D02*
X-24526000Y38892858D01*
X-24526000Y38892858D02*
X-24468857Y38950001D01*
X-24468857Y38950001D02*
X-24583142Y38950001D01*
X-24868857Y38378572D02*
X-25668857Y38378572D01*
X-24983142Y38378572D02*
X-24926000Y38321429D01*
X-24926000Y38321429D02*
X-24868857Y38207144D01*
X-24868857Y38207144D02*
X-24868857Y38035715D01*
X-24868857Y38035715D02*
X-24926000Y37921429D01*
X-24926000Y37921429D02*
X-25040285Y37864287D01*
X-25040285Y37864287D02*
X-25668857Y37864287D01*
X-25211714Y37292858D02*
X-25211714Y36378573D01*
X-25668857Y35807144D02*
X-24868857Y35807144D01*
X-25097428Y35807144D02*
X-24983142Y35750001D01*
X-24983142Y35750001D02*
X-24926000Y35692859D01*
X-24926000Y35692859D02*
X-24868857Y35578573D01*
X-24868857Y35578573D02*
X-24868857Y35464287D01*
X-24868857Y34550002D02*
X-25668857Y34550002D01*
X-24411714Y34835716D02*
X-25268857Y35121430D01*
X-25268857Y35121430D02*
X-25268857Y34378573D01*
X-27612857Y47464285D02*
X-26412857Y47464285D01*
X-26412857Y47464285D02*
X-27270000Y47064285D01*
X-27270000Y47064285D02*
X-26412857Y46664285D01*
X-26412857Y46664285D02*
X-27612857Y46664285D01*
X-27612857Y45921428D02*
X-27555714Y46035713D01*
X-27555714Y46035713D02*
X-27498571Y46092856D01*
X-27498571Y46092856D02*
X-27384285Y46149999D01*
X-27384285Y46149999D02*
X-27041428Y46149999D01*
X-27041428Y46149999D02*
X-26927142Y46092856D01*
X-26927142Y46092856D02*
X-26870000Y46035713D01*
X-26870000Y46035713D02*
X-26812857Y45921428D01*
X-26812857Y45921428D02*
X-26812857Y45749999D01*
X-26812857Y45749999D02*
X-26870000Y45635713D01*
X-26870000Y45635713D02*
X-26927142Y45578571D01*
X-26927142Y45578571D02*
X-27041428Y45521428D01*
X-27041428Y45521428D02*
X-27384285Y45521428D01*
X-27384285Y45521428D02*
X-27498571Y45578571D01*
X-27498571Y45578571D02*
X-27555714Y45635713D01*
X-27555714Y45635713D02*
X-27612857Y45749999D01*
X-27612857Y45749999D02*
X-27612857Y45921428D01*
X-26812857Y45007142D02*
X-27612857Y45007142D01*
X-26927142Y45007142D02*
X-26870000Y44949999D01*
X-26870000Y44949999D02*
X-26812857Y44835714D01*
X-26812857Y44835714D02*
X-26812857Y44664285D01*
X-26812857Y44664285D02*
X-26870000Y44549999D01*
X-26870000Y44549999D02*
X-26984285Y44492857D01*
X-26984285Y44492857D02*
X-27612857Y44492857D01*
X-27612857Y43407143D02*
X-26984285Y43407143D01*
X-26984285Y43407143D02*
X-26870000Y43464285D01*
X-26870000Y43464285D02*
X-26812857Y43578571D01*
X-26812857Y43578571D02*
X-26812857Y43807143D01*
X-26812857Y43807143D02*
X-26870000Y43921428D01*
X-27555714Y43407143D02*
X-27612857Y43521428D01*
X-27612857Y43521428D02*
X-27612857Y43807143D01*
X-27612857Y43807143D02*
X-27555714Y43921428D01*
X-27555714Y43921428D02*
X-27441428Y43978571D01*
X-27441428Y43978571D02*
X-27327142Y43978571D01*
X-27327142Y43978571D02*
X-27212857Y43921428D01*
X-27212857Y43921428D02*
X-27155714Y43807143D01*
X-27155714Y43807143D02*
X-27155714Y43521428D01*
X-27155714Y43521428D02*
X-27098571Y43407143D01*
X-27612857Y42321429D02*
X-26412857Y42321429D01*
X-27555714Y42321429D02*
X-27612857Y42435714D01*
X-27612857Y42435714D02*
X-27612857Y42664286D01*
X-27612857Y42664286D02*
X-27555714Y42778571D01*
X-27555714Y42778571D02*
X-27498571Y42835714D01*
X-27498571Y42835714D02*
X-27384285Y42892857D01*
X-27384285Y42892857D02*
X-27041428Y42892857D01*
X-27041428Y42892857D02*
X-26927142Y42835714D01*
X-26927142Y42835714D02*
X-26870000Y42778571D01*
X-26870000Y42778571D02*
X-26812857Y42664286D01*
X-26812857Y42664286D02*
X-26812857Y42435714D01*
X-26812857Y42435714D02*
X-26870000Y42321429D01*
X-26527142Y41087143D02*
X-26470000Y41030000D01*
X-26470000Y41030000D02*
X-26412857Y40915715D01*
X-26412857Y40915715D02*
X-26412857Y40630000D01*
X-26412857Y40630000D02*
X-26470000Y40515715D01*
X-26470000Y40515715D02*
X-26527142Y40458572D01*
X-26527142Y40458572D02*
X-26641428Y40401429D01*
X-26641428Y40401429D02*
X-26755714Y40401429D01*
X-26755714Y40401429D02*
X-26927142Y40458572D01*
X-26927142Y40458572D02*
X-27612857Y41144286D01*
X-27612857Y41144286D02*
X-27612857Y40401429D01*
X-26412857Y39658572D02*
X-26412857Y39544286D01*
X-26412857Y39544286D02*
X-26470000Y39430000D01*
X-26470000Y39430000D02*
X-26527142Y39372858D01*
X-26527142Y39372858D02*
X-26641428Y39315715D01*
X-26641428Y39315715D02*
X-26870000Y39258572D01*
X-26870000Y39258572D02*
X-27155714Y39258572D01*
X-27155714Y39258572D02*
X-27384285Y39315715D01*
X-27384285Y39315715D02*
X-27498571Y39372858D01*
X-27498571Y39372858D02*
X-27555714Y39430000D01*
X-27555714Y39430000D02*
X-27612857Y39544286D01*
X-27612857Y39544286D02*
X-27612857Y39658572D01*
X-27612857Y39658572D02*
X-27555714Y39772858D01*
X-27555714Y39772858D02*
X-27498571Y39830000D01*
X-27498571Y39830000D02*
X-27384285Y39887143D01*
X-27384285Y39887143D02*
X-27155714Y39944286D01*
X-27155714Y39944286D02*
X-26870000Y39944286D01*
X-26870000Y39944286D02*
X-26641428Y39887143D01*
X-26641428Y39887143D02*
X-26527142Y39830000D01*
X-26527142Y39830000D02*
X-26470000Y39772858D01*
X-26470000Y39772858D02*
X-26412857Y39658572D01*
X-26527142Y38801429D02*
X-26470000Y38744286D01*
X-26470000Y38744286D02*
X-26412857Y38630001D01*
X-26412857Y38630001D02*
X-26412857Y38344286D01*
X-26412857Y38344286D02*
X-26470000Y38230001D01*
X-26470000Y38230001D02*
X-26527142Y38172858D01*
X-26527142Y38172858D02*
X-26641428Y38115715D01*
X-26641428Y38115715D02*
X-26755714Y38115715D01*
X-26755714Y38115715D02*
X-26927142Y38172858D01*
X-26927142Y38172858D02*
X-27612857Y38858572D01*
X-27612857Y38858572D02*
X-27612857Y38115715D01*
X-26527142Y37658572D02*
X-26470000Y37601429D01*
X-26470000Y37601429D02*
X-26412857Y37487144D01*
X-26412857Y37487144D02*
X-26412857Y37201429D01*
X-26412857Y37201429D02*
X-26470000Y37087144D01*
X-26470000Y37087144D02*
X-26527142Y37030001D01*
X-26527142Y37030001D02*
X-26641428Y36972858D01*
X-26641428Y36972858D02*
X-26755714Y36972858D01*
X-26755714Y36972858D02*
X-26927142Y37030001D01*
X-26927142Y37030001D02*
X-27612857Y37715715D01*
X-27612857Y37715715D02*
X-27612857Y36972858D01*
D11*
%TO.C,C28*%
X-13780000Y-25000000D03*
X-12820000Y-25000000D03*
%TD*%
%TO.C,C26*%
X-13780000Y-22850000D03*
X-12820000Y-22850000D03*
%TD*%
D12*
%TO.C,J14*%
X-20049999Y-12369999D03*
X-20049999Y-11269999D03*
X-20049999Y-10169999D03*
X-20049999Y-9069999D03*
X-20049999Y-7969999D03*
X-20049999Y-6869999D03*
X-20049999Y-5769999D03*
X-20049999Y-4669999D03*
D13*
X-13224999Y-4774999D03*
D14*
X-13849999Y-6669999D03*
D15*
X-13549999Y-3349999D03*
D16*
X-16909999Y-3349999D03*
D17*
X-19119999Y-3349999D03*
D18*
X-27149999Y-3534999D03*
D19*
X-13394999Y-15399999D03*
D20*
X-13679999Y-16684999D03*
D21*
X-20319999Y-16684999D03*
D22*
X-27274999Y-16684999D03*
%TD*%
D23*
%TO.C,J13*%
X-26399999Y-19659999D03*
D24*
X-22249999Y-17604999D03*
D25*
X-17099999Y-28754999D03*
D26*
X-27099999Y-17604999D03*
X-27099999Y-28754999D03*
D23*
X-23229999Y-19659999D03*
X-26399999Y-22199999D03*
X-23229999Y-22199999D03*
X-26399999Y-24739999D03*
X-23229999Y-24739999D03*
D27*
X-16224999Y-21649999D03*
D24*
X-22249999Y-28754999D03*
D14*
X-19899999Y-17929999D03*
D28*
X-18099999Y-18104999D03*
D29*
X-15149999Y-19979999D03*
X-15149999Y-24399999D03*
D30*
X-28249999Y-20979999D03*
X-28249999Y-23419999D03*
%TD*%
D31*
%TO.C,U29*%
X26000000Y-14812500D03*
X25050000Y-14812500D03*
X24100000Y-14812500D03*
X24100000Y-17087500D03*
X26000000Y-17087500D03*
%TD*%
D32*
%TO.C,J15*%
X23499999Y30899999D03*
X23499999Y31549999D03*
X23499999Y32199999D03*
X23499999Y32849999D03*
X23499999Y33499999D03*
D33*
X23499999Y29699999D03*
X23499999Y34699999D03*
D34*
X26199999Y31199999D03*
X26199999Y33199999D03*
D35*
X26199999Y29299999D03*
X26199999Y35099999D03*
D36*
X26199999Y28699999D03*
X26199999Y35699999D03*
%TD*%
D37*
%TO.C,D1*%
X-12199999Y-46099999D03*
X-10099999Y-46099999D03*
%TD*%
D38*
%TO.C,Q11*%
X4849999Y19149999D03*
X4849999Y20449999D03*
X2849999Y19799999D03*
%TD*%
D39*
%TO.C,R44*%
X1650000Y22440000D03*
X1650000Y23460000D03*
%TD*%
D40*
%TO.C,J10*%
X-10500000Y-35000000D03*
X-8500000Y-35000000D03*
X-6500000Y-35000000D03*
X-4500000Y-35000000D03*
X-2500000Y-35000000D03*
X-500000Y-35000000D03*
X1500000Y-35000000D03*
X3500000Y-35000000D03*
D41*
X-12850000Y-30350000D03*
X5850000Y-30350000D03*
%TD*%
D42*
%TO.C,C36*%
X-14200000Y10375000D03*
X-14200000Y11925000D03*
%TD*%
D43*
%TO.C,C23*%
X-8700000Y38050000D03*
X-8700000Y36150000D03*
%TD*%
D38*
%TO.C,Q9*%
X4849999Y21949999D03*
X4849999Y23249999D03*
X2849999Y22599999D03*
%TD*%
D39*
%TO.C,R43*%
X6050000Y22440000D03*
X6050000Y23460000D03*
%TD*%
D44*
%TO.C,U13*%
X-17055000Y14125000D03*
X-15785000Y14125000D03*
X-14515000Y14125000D03*
X-13245000Y14125000D03*
X-13245000Y19075000D03*
X-14515000Y19075000D03*
X-15785000Y19075000D03*
X-17055000Y19075000D03*
%TD*%
D45*
%TO.C,FB3*%
X27500000Y-14612500D03*
X27500000Y-16187500D03*
%TD*%
D46*
%TO.C,R45*%
X18260000Y45800000D03*
X17240000Y45800000D03*
%TD*%
D47*
%TO.C,Q4*%
X21499999Y29549999D03*
X20199999Y29549999D03*
X20849999Y27549999D03*
%TD*%
D48*
%TO.C,U8*%
X-12568999Y-20507199D03*
X-12568999Y-20007199D03*
D49*
X-12568999Y-19507199D03*
D48*
X-12568999Y-19007199D03*
X-12568999Y-18507199D03*
X-13338999Y-20007199D03*
X-13338999Y-18507199D03*
X-13338999Y-19007199D03*
X-13338999Y-20507199D03*
D49*
X-13338999Y-19507199D03*
%TD*%
D50*
%TO.C,R20*%
X-1200000Y55370000D03*
X-1200000Y54350000D03*
%TD*%
D46*
%TO.C,R40*%
X5460000Y24700000D03*
X4440000Y24700000D03*
%TD*%
D51*
%TO.C,J12*%
X-13994999Y59424999D03*
D52*
X-12469999Y57949999D03*
D51*
X-13994999Y56474999D03*
%TD*%
D53*
%TO.C,C97*%
X27510000Y-13250000D03*
X26550000Y-13250000D03*
%TD*%
D50*
%TO.C,R38*%
X1650000Y15160000D03*
X1650000Y14140000D03*
%TD*%
D54*
%TO.C,R22*%
X-10125000Y-16050000D03*
X-8475000Y-16050000D03*
%TD*%
D46*
%TO.C,R41*%
X22010000Y45800000D03*
X20990000Y45800000D03*
%TD*%
D55*
%TO.C,R23*%
X-8525000Y-19300000D03*
X-10175000Y-19300000D03*
%TD*%
D37*
%TO.C,D3*%
X-199999Y-46099999D03*
X1899999Y-46099999D03*
%TD*%
D56*
%TO.C,U7*%
X-2799999Y35019999D03*
X-1999999Y35019999D03*
X-1199999Y35019999D03*
X-399999Y35019999D03*
X399999Y35019999D03*
X1199999Y35019999D03*
X1999999Y35019999D03*
X2799999Y35019999D03*
X3599999Y35019999D03*
X4399999Y35019999D03*
X5199999Y35019999D03*
X5999999Y35019999D03*
X6799999Y35019999D03*
X7599999Y35019999D03*
X8399999Y35019999D03*
X9199999Y35019999D03*
X9999999Y35019999D03*
X10799999Y35019999D03*
D57*
X12179999Y36199999D03*
X12179999Y36999999D03*
X12179999Y37799999D03*
X12179999Y38599999D03*
X12179999Y39399999D03*
X12179999Y40199999D03*
X12179999Y40999999D03*
X12179999Y41799999D03*
X12179999Y42599999D03*
X12179999Y43399999D03*
X12179999Y44199999D03*
X12179999Y44999999D03*
X12179999Y45799999D03*
X12179999Y46599999D03*
X12179999Y47399999D03*
D56*
X10799999Y48579999D03*
X9999999Y48579999D03*
X9199999Y48579999D03*
X8399999Y48579999D03*
X7599999Y48579999D03*
X6799999Y48579999D03*
X5999999Y48579999D03*
X5199999Y48579999D03*
X4399999Y48579999D03*
X3599999Y48579999D03*
X2799999Y48579999D03*
X1999999Y48579999D03*
X1199999Y48579999D03*
X399999Y48579999D03*
X-399999Y48579999D03*
X-1199999Y48579999D03*
X-1999999Y48579999D03*
X-2799999Y48579999D03*
D57*
X-4179999Y47399999D03*
X-4179999Y46599999D03*
X-4179999Y45799999D03*
X-4179999Y44999999D03*
X-4179999Y44199999D03*
X-4179999Y43399999D03*
X-4179999Y42599999D03*
X-4179999Y41799999D03*
X-4179999Y40999999D03*
X-4179999Y40199999D03*
X-4179999Y39399999D03*
X-4179999Y38599999D03*
X-4179999Y37799999D03*
X-4179999Y36999999D03*
X-4179999Y36199999D03*
D58*
X-4179999Y35019999D03*
X12179999Y35019999D03*
X12179999Y48579999D03*
X-4179999Y48579999D03*
D56*
X-5599999Y31849999D03*
X-4799999Y31849999D03*
X-3999999Y31849999D03*
X-3199999Y31849999D03*
X-2399999Y31849999D03*
X-1599999Y31849999D03*
X-799999Y31849999D03*
X0Y31849999D03*
X799999Y31849999D03*
X1599999Y31849999D03*
X2399999Y31849999D03*
X3199999Y31849999D03*
X3999999Y31849999D03*
X4799999Y31849999D03*
X5599999Y31849999D03*
X6399999Y31849999D03*
X7199999Y31849999D03*
X7999999Y31849999D03*
X8799999Y31849999D03*
X9599999Y31849999D03*
X10399999Y31849999D03*
X11199999Y31849999D03*
X11999999Y31849999D03*
X12799999Y31849999D03*
X13599999Y31849999D03*
D57*
X14649999Y32999999D03*
X14649999Y33799999D03*
X14649999Y34599999D03*
X14649999Y35399999D03*
X14649999Y36199999D03*
X14649999Y36999999D03*
X14649999Y37799999D03*
X14649999Y38599999D03*
X14649999Y39399999D03*
X14649999Y40199999D03*
X14649999Y40999999D03*
X14649999Y41799999D03*
X14649999Y42599999D03*
X14649999Y43399999D03*
X14649999Y44199999D03*
X14649999Y44999999D03*
X14649999Y46599999D03*
X14649999Y47399999D03*
X14649999Y48199999D03*
X14649999Y48999999D03*
X14649999Y49799999D03*
X14649999Y50599999D03*
D56*
X13599999Y51749999D03*
X12799999Y51749999D03*
X11999999Y51749999D03*
X11199999Y51749999D03*
X10399999Y51749999D03*
X9599999Y51749999D03*
X8799999Y51749999D03*
X6399999Y51749999D03*
X5599999Y51749999D03*
X4799999Y51749999D03*
X3999999Y51749999D03*
X3199999Y51749999D03*
X2399999Y51749999D03*
X1599999Y51749999D03*
X799999Y51749999D03*
X0Y51749999D03*
X-2399999Y51749999D03*
X-3199999Y51749999D03*
X-3999999Y51749999D03*
X-4799999Y51749999D03*
X-5599999Y51749999D03*
D57*
X-6649999Y50599999D03*
X-6649999Y49799999D03*
X-6649999Y48999999D03*
X-6649999Y48199999D03*
X-6649999Y47399999D03*
X-6649999Y46599999D03*
X-6649999Y45799999D03*
X-6649999Y44999999D03*
X-6649999Y44199999D03*
X-6649999Y43399999D03*
X-6649999Y42599999D03*
X-6649999Y41799999D03*
X-6649999Y40999999D03*
X-6649999Y40199999D03*
X-6649999Y39399999D03*
X-6649999Y38599999D03*
X-6649999Y37799999D03*
X-6649999Y36999999D03*
X-6649999Y36199999D03*
X-6649999Y35399999D03*
X-6649999Y34599999D03*
X-6649999Y33799999D03*
X-6649999Y32999999D03*
D59*
X-6699999Y31849999D03*
X14699999Y31849999D03*
X14699999Y51749999D03*
X-6699999Y51749999D03*
D58*
X-2369999Y36654999D03*
X-2369999Y38124999D03*
X-2369999Y39594999D03*
X-2369999Y41064999D03*
X-2369999Y42534999D03*
X-2369999Y44004999D03*
X-2369999Y45474999D03*
X-2369999Y46944999D03*
X-549999Y46944999D03*
X1269999Y46944999D03*
X3089999Y46944999D03*
X4909999Y46944999D03*
X6729999Y46944999D03*
X8549999Y46944999D03*
X10369999Y46944999D03*
X10369999Y45474999D03*
X10369999Y44004999D03*
X10369999Y42534999D03*
X10369999Y41064999D03*
X10369999Y39594999D03*
X10369999Y38124999D03*
X10369999Y36654999D03*
X8549999Y36654999D03*
X6729999Y36654999D03*
X4909999Y36654999D03*
X3089999Y36654999D03*
X1269999Y36654999D03*
X-549999Y36654999D03*
X-549999Y38124999D03*
X-549999Y39594999D03*
X-549999Y41064999D03*
X-549999Y42534999D03*
X-549999Y44004999D03*
X-549999Y45474999D03*
X1269999Y45474999D03*
X3089999Y45474999D03*
X4909999Y45474999D03*
X6729999Y45474999D03*
X8549999Y45474999D03*
X8549999Y44004999D03*
X8549999Y42534999D03*
X8549999Y41064999D03*
X8549999Y39594999D03*
X8549999Y38124999D03*
X6729999Y38124999D03*
X4909999Y38124999D03*
X3089999Y38124999D03*
X1269999Y38124999D03*
X1269999Y39594999D03*
X1269999Y41064999D03*
X1269999Y42534999D03*
X1269999Y44004999D03*
X3089999Y44004999D03*
X4909999Y44004999D03*
X6729999Y44004999D03*
X6729999Y42534999D03*
X6729999Y41064999D03*
X6729999Y39594999D03*
X4909999Y39594999D03*
X3089999Y39594999D03*
X3089999Y41064999D03*
X3089999Y42534999D03*
X4909999Y42534999D03*
X4909999Y41064999D03*
D60*
X-2400000Y33320000D03*
X-1200000Y33320000D03*
X0Y33320000D03*
X1200000Y33320000D03*
X2400000Y33320000D03*
X3600000Y33320000D03*
X4800000Y33320000D03*
X6000000Y33320000D03*
X7200000Y33320000D03*
%TD*%
D61*
%TO.C,U15*%
X16649999Y29099999D03*
X17149999Y29099999D03*
X17649999Y29099999D03*
X18149999Y29099999D03*
X18649999Y29099999D03*
X18649999Y33499999D03*
X18149999Y33499999D03*
X17649999Y33499999D03*
X17149999Y33499999D03*
X16649999Y33499999D03*
%TD*%
D62*
%TO.C,D23*%
X3849999Y-40449999D03*
X1049999Y-40449999D03*
%TD*%
%TO.C,D22*%
X-3349999Y-40449999D03*
X-549999Y-40449999D03*
%TD*%
D50*
%TO.C,R33*%
X1650000Y17710000D03*
X1650000Y16690000D03*
%TD*%
D63*
%TO.C,SP3*%
X24500000Y-24000000D03*
D64*
X26915000Y-24000000D03*
%TD*%
D65*
%TO.C,FID2*%
X-25000000Y-43000000D03*
%TD*%
D62*
%TO.C,D24*%
X3849999Y-38149999D03*
X1049999Y-38149999D03*
%TD*%
D50*
%TO.C,R37*%
X1650000Y12510000D03*
X1650000Y11490000D03*
%TD*%
D11*
%TO.C,C20*%
X-1180000Y53460000D03*
X-220000Y53460000D03*
%TD*%
D46*
%TO.C,R2*%
X-18290000Y15100000D03*
X-19310000Y15100000D03*
%TD*%
D66*
%TO.C,R5*%
X-17050000Y-38425000D03*
X-17050000Y-40075000D03*
%TD*%
D62*
%TO.C,D21*%
X-3349999Y-38149999D03*
X-549999Y-38149999D03*
%TD*%
D65*
%TO.C,FID3*%
X26000000Y-46000000D03*
%TD*%
D67*
%TO.C,Module1*%
X-11499999Y7299999D03*
X-8419999Y7299999D03*
X-11499999Y6899999D03*
X-8419999Y6899999D03*
X-11499999Y6499999D03*
X-8419999Y6499999D03*
X-11499999Y6099999D03*
X-8419999Y6099999D03*
X-11499999Y5699999D03*
X-8419999Y5699999D03*
X-11499999Y5299999D03*
X-8419999Y5299999D03*
X-11499999Y4899999D03*
X-8419999Y4899999D03*
X-11499999Y4499999D03*
X-8419999Y4499999D03*
X-11499999Y4099999D03*
X-8419999Y4099999D03*
X-11499999Y3699999D03*
X-8419999Y3699999D03*
X-11499999Y3299999D03*
X-8419999Y3299999D03*
X-11499999Y2899999D03*
X-8419999Y2899999D03*
X-11499999Y2499999D03*
X-8419999Y2499999D03*
X-11499999Y2099999D03*
X-8419999Y2099999D03*
X-11499999Y1699999D03*
X-8419999Y1699999D03*
X-11499999Y1299999D03*
X-8419999Y1299999D03*
X-11499999Y899999D03*
X-8419999Y899999D03*
X-11499999Y499999D03*
X-8419999Y499999D03*
X-11499999Y99999D03*
X-8419999Y99999D03*
X-11499999Y-299999D03*
X-8419999Y-299999D03*
X-11499999Y-699999D03*
X-8419999Y-699999D03*
X-11499999Y-1099999D03*
X-8419999Y-1099999D03*
X-11499999Y-1499999D03*
X-8419999Y-1499999D03*
X-11499999Y-1899999D03*
X-8419999Y-1899999D03*
X-11499999Y-2299999D03*
X-8419999Y-2299999D03*
X-11499999Y-2699999D03*
X-8419999Y-2699999D03*
X-11499999Y-3099999D03*
X-8419999Y-3099999D03*
X-11499999Y-3499999D03*
X-8419999Y-3499999D03*
X-11499999Y-3899999D03*
X-8419999Y-3899999D03*
X-11499999Y-4299999D03*
X-8419999Y-4299999D03*
X-11499999Y-4699999D03*
X-8419999Y-4699999D03*
X-11499999Y-5099999D03*
X-8419999Y-5099999D03*
X-11499999Y-5499999D03*
X-8419999Y-5499999D03*
X-11499999Y-5899999D03*
X-8419999Y-5899999D03*
X-11499999Y-6299999D03*
X-8419999Y-6299999D03*
X-11499999Y-6699999D03*
X-8419999Y-6699999D03*
X-11499999Y-7099999D03*
X-8419999Y-7099999D03*
X-11499999Y-7499999D03*
X-8419999Y-7499999D03*
X-11499999Y-7899999D03*
X-8419999Y-7899999D03*
X-11499999Y-8299999D03*
X-8419999Y-8299999D03*
X-11499999Y-8699999D03*
X-8419999Y-8699999D03*
X-11499999Y-9099999D03*
X-8419999Y-9099999D03*
X-11499999Y-9499999D03*
X-8419999Y-9499999D03*
X-11499999Y-9899999D03*
X-8419999Y-9899999D03*
X-11499999Y-10299999D03*
X-8419999Y-10299999D03*
X-11499999Y-10699999D03*
X-8419999Y-10699999D03*
X-11499999Y-11099999D03*
X-8419999Y-11099999D03*
X-11499999Y-11499999D03*
X-8419999Y-11499999D03*
X-11499999Y-11899999D03*
X-8419999Y-11899999D03*
X-11499999Y-12299999D03*
X-8419999Y-12299999D03*
X22419999Y7299999D03*
X25499999Y7299999D03*
X22419999Y6899999D03*
X25499999Y6899999D03*
X22419999Y6499999D03*
X25499999Y6499999D03*
X22419999Y6099999D03*
X25499999Y6099999D03*
X22419999Y5699999D03*
X25499999Y5699999D03*
X22419999Y5299999D03*
X25499999Y5299999D03*
X22419999Y4899999D03*
X25499999Y4899999D03*
X22419999Y4499999D03*
X25499999Y4499999D03*
X22419999Y4099999D03*
X25499999Y4099999D03*
X22419999Y3699999D03*
X25499999Y3699999D03*
X22419999Y3299999D03*
X25499999Y3299999D03*
X22419999Y2899999D03*
X25499999Y2899999D03*
X22419999Y2499999D03*
X25499999Y2499999D03*
X22419999Y2099999D03*
X25499999Y2099999D03*
X22419999Y1699999D03*
X25499999Y1699999D03*
X22419999Y1299999D03*
X25499999Y1299999D03*
X22419999Y899999D03*
X25499999Y899999D03*
X22419999Y499999D03*
X25499999Y499999D03*
X22419999Y99999D03*
X25499999Y99999D03*
X22419999Y-299999D03*
X25499999Y-299999D03*
X22419999Y-699999D03*
X25499999Y-699999D03*
X22419999Y-1099999D03*
X25499999Y-1099999D03*
X22419999Y-1499999D03*
X25499999Y-1499999D03*
X22419999Y-1899999D03*
X25499999Y-1899999D03*
X22419999Y-2299999D03*
X25499999Y-2299999D03*
X22419999Y-2699999D03*
X25499999Y-2699999D03*
X22419999Y-3099999D03*
X25499999Y-3099999D03*
X22419999Y-3499999D03*
X25499999Y-3499999D03*
X22419999Y-3899999D03*
X25499999Y-3899999D03*
X22419999Y-4299999D03*
X25499999Y-4299999D03*
X22419999Y-4699999D03*
X25499999Y-4699999D03*
X22419999Y-5099999D03*
X25499999Y-5099999D03*
X22419999Y-5499999D03*
X25499999Y-5499999D03*
X22419999Y-5899999D03*
X25499999Y-5899999D03*
X22419999Y-6299999D03*
X25499999Y-6299999D03*
X22419999Y-6699999D03*
X25499999Y-6699999D03*
X22419999Y-7099999D03*
X25499999Y-7099999D03*
X22419999Y-7499999D03*
X25499999Y-7499999D03*
X22419999Y-7899999D03*
X25499999Y-7899999D03*
X22419999Y-8299999D03*
X25499999Y-8299999D03*
X22419999Y-8699999D03*
X25499999Y-8699999D03*
X22419999Y-9099999D03*
X25499999Y-9099999D03*
X22419999Y-9499999D03*
X25499999Y-9499999D03*
X22419999Y-9899999D03*
X25499999Y-9899999D03*
X22419999Y-10299999D03*
X25499999Y-10299999D03*
X22419999Y-10699999D03*
X25499999Y-10699999D03*
X22419999Y-11099999D03*
X25499999Y-11099999D03*
X22419999Y-11499999D03*
X25499999Y-11499999D03*
X22419999Y-11899999D03*
X25499999Y-11899999D03*
X22419999Y-12299999D03*
X25499999Y-12299999D03*
%TD*%
D54*
%TO.C,R4*%
X-16875000Y-31800000D03*
X-15225000Y-31800000D03*
%TD*%
D68*
%TO.C,H4*%
X-13000000Y-40000000D03*
%TD*%
D63*
%TO.C,SP1*%
X-8500000Y24000000D03*
D64*
X-6085000Y24000000D03*
%TD*%
D54*
%TO.C,R21*%
X-10125000Y-17550000D03*
X-8475000Y-17550000D03*
%TD*%
D69*
%TO.C,R3*%
X-8760000Y9400000D03*
X-7740000Y9400000D03*
%TD*%
D70*
%TO.C,C30*%
X-23975000Y-2000000D03*
X-25525000Y-2000000D03*
%TD*%
D42*
%TO.C,C21*%
X-8850000Y39525000D03*
X-8850000Y41075000D03*
%TD*%
D38*
%TO.C,Q8*%
X-1999999Y25499999D03*
X-1999999Y26799999D03*
X-3999999Y26149999D03*
%TD*%
D71*
%TO.C,C100*%
X22600000Y-17320000D03*
X22600000Y-18280000D03*
%TD*%
D72*
%TO.C,U14*%
X-16249999Y7099999D03*
X-14949999Y7099999D03*
X-15599999Y7099999D03*
X-14949999Y8999999D03*
X-16249999Y8999999D03*
%TD*%
D42*
%TO.C,C35*%
X-18700000Y11875000D03*
X-18700000Y13425000D03*
%TD*%
D31*
%TO.C,U30*%
X21100000Y-14812500D03*
X20150000Y-14812500D03*
X19200000Y-14812500D03*
X19200000Y-17087500D03*
X21100000Y-17087500D03*
%TD*%
D50*
%TO.C,R34*%
X-8600000Y-41440000D03*
X-8600000Y-42460000D03*
%TD*%
D53*
%TO.C,C19*%
X-220000Y56260000D03*
X-1180000Y56260000D03*
%TD*%
%TO.C,C99*%
X21630000Y-13400000D03*
X20670000Y-13400000D03*
%TD*%
D73*
%TO.C,D6*%
X-13785000Y-21550000D03*
X-12815000Y-21550000D03*
%TD*%
D74*
%TO.C,D20*%
X-13515000Y21050000D03*
X-14485000Y21050000D03*
%TD*%
D37*
%TO.C,D7*%
X11799999Y-46099999D03*
X13899999Y-46099999D03*
%TD*%
D75*
%TO.C,C22*%
X-8700000Y42550000D03*
X-8700000Y44450000D03*
%TD*%
D69*
%TO.C,R39*%
X2540000Y24650000D03*
X3560000Y24650000D03*
%TD*%
D76*
%TO.C,D25*%
X20100000Y44840000D03*
X20100000Y45810000D03*
%TD*%
D65*
%TO.C,FID1*%
X14000000Y59000000D03*
%TD*%
D77*
%TO.C,J16*%
X-14099999Y34849999D03*
X-14099999Y48149999D03*
D78*
X-10849999Y46249999D03*
X-10849999Y45749999D03*
X-10849999Y45249999D03*
X-10849999Y44749999D03*
X-10849999Y44249999D03*
X-10849999Y43749999D03*
X-10849999Y43249999D03*
X-10849999Y42749999D03*
X-10849999Y42249999D03*
X-10849999Y41749999D03*
X-10849999Y41249999D03*
X-10849999Y40749999D03*
X-10849999Y40249999D03*
X-10849999Y39749999D03*
X-10849999Y39249999D03*
X-10849999Y38749999D03*
X-10849999Y38249999D03*
X-10849999Y37749999D03*
X-10849999Y37249999D03*
X-10849999Y36749999D03*
%TD*%
D46*
%TO.C,R24*%
X-16240000Y-2400000D03*
X-17260000Y-2400000D03*
%TD*%
D39*
%TO.C,R42*%
X6050000Y19690000D03*
X6050000Y20710000D03*
%TD*%
D54*
%TO.C,R31*%
X19275000Y26050000D03*
X20925000Y26050000D03*
%TD*%
D68*
%TO.C,H1*%
X-21000000Y40000000D03*
%TD*%
D71*
%TO.C,C98*%
X27500000Y-17320000D03*
X27500000Y-18280000D03*
%TD*%
D69*
%TO.C,R19*%
X-2210000Y58160000D03*
X-1190000Y58160000D03*
%TD*%
D39*
%TO.C,R46*%
X1650000Y19640000D03*
X1650000Y20660000D03*
%TD*%
D79*
%TO.C,C29*%
X-22500000Y-1900000D03*
X-20600000Y-1900000D03*
%TD*%
D80*
%TO.C,U2*%
X-7799999Y-39219999D03*
X-7299999Y-39219999D03*
D81*
X-6799999Y-39219999D03*
D80*
X-6299999Y-39219999D03*
X-5799999Y-39219999D03*
X-7299999Y-38449999D03*
X-5799999Y-38449999D03*
X-6299999Y-38449999D03*
X-7799999Y-38449999D03*
D81*
X-6799999Y-38449999D03*
%TD*%
D63*
%TO.C,SP2*%
X24500000Y24000000D03*
D64*
X26915000Y24000000D03*
%TD*%
D45*
%TO.C,FB4*%
X22600000Y-14612500D03*
X22600000Y-16187500D03*
%TD*%
D82*
%TO.C,C51*%
X19150000Y44845000D03*
X19150000Y45805000D03*
%TD*%
D54*
%TO.C,R30*%
X-17275000Y10400000D03*
X-15625000Y10400000D03*
%TD*%
D83*
%TO.C,BT1*%
X-22099999Y19024999D03*
X-22099999Y34774999D03*
D84*
X-22100000Y26900000D03*
%TD*%
D54*
%TO.C,R29*%
X-17275000Y11900000D03*
X-15625000Y11900000D03*
%TD*%
D38*
%TO.C,Q7*%
X2849999Y15249999D03*
X2849999Y13949999D03*
X4849999Y14599999D03*
%TD*%
D74*
%TO.C,D9*%
X-215000Y57200000D03*
X-1185000Y57200000D03*
%TD*%
D46*
%TO.C,R1*%
X-18290000Y16050000D03*
X-19310000Y16050000D03*
%TD*%
D54*
%TO.C,R32*%
X19275000Y24550000D03*
X20925000Y24550000D03*
%TD*%
D38*
%TO.C,Q6*%
X2849999Y12649999D03*
X2849999Y11349999D03*
X4849999Y11999999D03*
%TD*%
D37*
%TO.C,D2*%
X-24199999Y-46099999D03*
X-22099999Y-46099999D03*
%TD*%
D85*
%TO.C,C34*%
X-19100000Y19175000D03*
X-19100000Y17625000D03*
%TD*%
D38*
%TO.C,Q5*%
X2849999Y17849999D03*
X2849999Y16549999D03*
X4849999Y17199999D03*
%TD*%
D51*
%TO.C,J17*%
X24949999Y44299999D03*
D52*
X23424999Y45774999D03*
D51*
X24949999Y47249999D03*
%TD*%
D68*
%TO.C,H2*%
X21000000Y40000000D03*
%TD*%
D63*
%TO.C,SP4*%
X-8500000Y-24000000D03*
D64*
X-6085000Y-24000000D03*
%TD*%
D71*
%TO.C,C61*%
X16350000Y45830000D03*
X16350000Y44870000D03*
%TD*%
D72*
%TO.C,U1*%
X-15349999Y-34049999D03*
X-16649999Y-34049999D03*
X-15999999Y-34049999D03*
X-16649999Y-35949999D03*
X-15349999Y-35949999D03*
%TD*%
D85*
%TO.C,C37*%
X14600000Y29875000D03*
X14600000Y28325000D03*
%TD*%
D79*
%TO.C,C24*%
X-13500000Y-26600000D03*
X-11600000Y-26600000D03*
%TD*%
D68*
%TO.C,H3*%
X21000000Y-40000000D03*
%TD*%
D48*
%TO.C,U16*%
X21484999Y30849999D03*
X21484999Y31349999D03*
D49*
X21484999Y31849999D03*
D48*
X21484999Y32349999D03*
X21484999Y32849999D03*
X20714999Y31349999D03*
X20714999Y32849999D03*
X20714999Y32349999D03*
X20714999Y30849999D03*
D49*
X20714999Y31849999D03*
%TD*%
M02*
